<?xml version="1.0" encoding="UTF-8"?>
<svg id="Layer_2" data-name="Layer 2" xmlns="http://www.w3.org/2000/svg" viewBox="0 0 76.17 169.78">
  <defs>
    <style>
      .cls-1 {
        fill: #fff;
      }

      .cls-2 {
        fill: #c2d3e1;
      }

      .cls-3 {
        fill: #f15a29;
      }

      .cls-4 {
        fill: #add4d1;
      }

      .cls-5 {
        fill: #be1e2d;
      }

      .cls-6 {
        fill: #095b56;
      }

      .cls-7 {
        fill: #bfd8dd;
      }

      .cls-8 {
        fill: #fbb040;
      }

      .cls-9 {
        fill: #00a79d;
      }

      .cls-10 {
        fill: #706a6a;
      }
    </style>
  </defs>
  <g id="Layer_2-2" data-name="Layer 2">
    <g>
      <path class="cls-3" d="m65.93,169.06c.24,0,.43-.24.43-.54v-2.31c-.99.71-2.18,1.12-3.45,1.11h-.67c-.07.57-.14,1.14-.18,1.72l3.87.02Z"/>
      <path class="cls-5" d="m52.9,168.45c0,.3.19.55.43.55l8.74.05c.04-.57.11-1.15.18-1.72l-9.34-.05v1.18Z"/>
      <path class="cls-5" d="m21.42,168.82c.24,0,.43-.24.43-.54v-1.18s-8.36-.05-8.36-.05v1.72s7.92.04,7.92.04Z"/>
      <path class="cls-3" d="m8.81,168.75l4.68.03v-1.72s-1.67,0-1.67,0c-1.26,0-2.43-.43-3.43-1.13v2.29c-.01.3.18.55.41.55Z"/>
      <path class="cls-9" d="m18.09,85.6c-.03-2.62-.09-4.93-.15-6.92,0,0,0,0,0-.02-.27-3.7-.54-6.76-.86-9.61,0-.01,0-.02.01-.04v-.05c-1.29-4.13-2.19-8.6-3.06-12.93-.58-2.86-1.17-5.81-1.87-8.63-1.12.03-2.06-.48-2.96-.98-.41-.22-.8-.42-1.2-.59-.01.88-.06,1.77-.12,2.62-.06,1.04-.13,2.12-.11,3.19.95-.02,2.01-.77,2.38-1.53l.04-.09h.1c.12.02.22.08.3.12l.05.03.02.06c.35,1.26.66,2.62.89,3.96.03.02.06.05.08.09.02.05,0,.1,0,.14.3,1.28.61,2.57.92,3.86,1.57,6.54,3.2,13.29,3.52,20.14,0,.02.02.03.01.05-.07.82,0,1.95.06,3.15.08,1.45.16,2.94.01,3.97.3.57.24,1.24.18,1.84,0,.07-.01.15-.02.22,0,0,0,0,0,0,.06.34,1.24,1.02,1.68,1.49-.28-.52-.44-1.1-.43-1.71s.19-1.27.53-1.84Z"/>
      <path class="cls-9" d="m18.19,89.47s-.02-.03-.03-.04c0,0,.01.02.03.04Z"/>
      <path class="cls-9" d="m58.96,69.28c-.35,2.85-.66,5.9-.96,9.6,0,0,0,.01,0,.02-.1,2.13-.18,4.61-.24,7.45.17.43.26.87.26,1.31,0,.2-.13.6-.28,1.01.74-.26,1.74-.51,1.79-.78,0,0,0,0,0,0,0-.07-.01-.15-.02-.22-.05-.59-.11-1.26.2-1.84-.14-1.03-.04-2.52.06-3.97.08-1.2.15-2.33.1-3.15,0-.02.01-.03.01-.04.4-6.84,2.1-13.59,3.75-20.1.32-1.28.65-2.56.96-3.85-.02-.05-.02-.1,0-.15.01-.04.05-.06.08-.09.25-1.33.57-2.69.93-3.95l.02-.06.05-.03c.08-.04.18-.1.3-.11h.1s.04.08.04.08c.37.76,1.42,1.52,2.37,1.55.02-1.07-.03-2.14-.08-3.19-.04-.86-.08-1.74-.09-2.63-.4.16-.8.36-1.21.58-.91.49-1.85.98-2.97.94-.73,2.81-1.36,5.75-1.97,8.61-.92,4.32-1.87,8.78-3.2,12.9v.05s0,.03,0,.04Z"/>
      <path class="cls-9" d="m9.94,112.25c3.02.02,5.45,2.48,5.43,5.49l-.1,17.83c-.02,3.02-2.48,5.45-5.49,5.43-1.04,0-2-.31-2.83-.82l-.11,19.63c-.02,3.17,2.22,5.77,4.98,5.78l51.1.28c2.76.02,5.03-2.56,5.04-5.73l.11-19.57c-.8.46-1.73.73-2.73.72-3.02-.02-5.45-2.48-5.43-5.49l.1-17.83c.02-3.01,2.48-5.45,5.49-5.43.99,0,1.92.28,2.72.75l.13-23.75-13.88,2.05c-.32.08-.64.14-.98.16-.17.01-.33.03-.51.02l-30.44-.17c-.69,0-1.35-.13-1.95-.34l-13.37-2.07-.13,23.81c.83-.5,1.8-.79,2.84-.78Zm.4,50.9c0,.33-.24.59-.54.59s-.54-.27-.54-.6l.12-20.94c.36.04.72.06,1.08.05l-.12,20.9Zm4.31.02c0,.33-.24.59-.54.59s-.54-.27-.54-.6l.12-21.65c.35-.15.69-.31,1.05-.51.01,0,.02-.01.03-.02l-.12,22.18Zm50.73-20.25c.37-.03.73-.1,1.08-.19l-.11,20.73c0,.33-.24.59-.54.59s-.54-.27-.53-.6l.11-20.53Zm-4.3-1.12c.34.24.69.45,1.07.62l-.12,21.02c0,.33-.24.59-.54.59s-.54-.27-.54-.6l.12-21.63Zm4.57-47.31c0-.33.24-.59.54-.59s.54.27.54.6l-.09,17.12c-.38.03-.73.07-1.08.13l.1-17.25Zm-4.31-.02c0-.33.24-.59.54-.59s.54.27.54.6l-.1,18.56c-.39.28-.76.59-1.08.93l.11-19.5Zm-4.31-.02c0-.33.24-.59.54-.59s.54.27.54.6l-.38,68.96c0,.33-.24.59-.54.59s-.54-.27-.53-.6l.38-68.96Zm-4.31-.02c0-.33.24-.59.54-.59s.54.27.53.6l-.38,68.96c0,.33-.24.59-.54.59s-.54-.27-.53-.6l.38-68.96Zm-4.31-.02c0-.33.24-.59.54-.59s.54.27.53.6l-.38,68.96c0,.33-.24.59-.54.59s-.54-.27-.54-.6l.38-68.96Zm-4.31-.02c0-.33.24-.59.54-.59s.54.27.54.6l-.38,68.96c0,.33-.24.59-.54.59s-.54-.27-.54-.6l.38-68.96Zm-4.31-.02c0-.33.24-.59.54-.59s.54.27.54.6l-.38,68.96c0,.33-.24.59-.54.59s-.54-.27-.54-.6l.38-68.96Zm-4.31-.02c0-.33.24-.59.54-.59s.54.27.53.6l-.38,68.96c0,.33-.24.59-.54.59s-.54-.27-.54-.6l.38-68.96Zm-4.31-.02c0-.33.24-.59.54-.59s.54.27.54.6l-.38,68.96c0,.33-.24.59-.54.59s-.54-.27-.53-.6l.38-68.96Zm-4.31-.02c0-.33.24-.59.54-.59s.54.27.54.6l-.38,68.96c0,.33-.24.59-.54.59s-.54-.27-.53-.6l.38-68.96Zm-4.31-.02c0-.33.24-.59.54-.59s.54.27.54.6l-.38,68.96c0,.33-.24.59-.54.59s-.54-.27-.54-.6l.38-68.96Zm-4.31-.02c0-.33.24-.59.54-.59s.54.27.54.6l-.38,68.96c0,.33-.24.59-.54.59s-.54-.27-.53-.6l.38-68.96Zm-4.31-.02c0-.33.24-.59.54-.59s.54.27.53.6l-.1,18.34c-.32-.35-.68-.65-1.07-.89l.1-17.45Zm-4.31-.02c0-.33.24-.59.54-.59s.54.27.53.6l-.09,16.62c-.11-.02-.22-.04-.33-.06-.25-.04-.5-.07-.75-.09l.09-16.48Z"/>
      <path class="cls-6" d="m60.02,117.99l-.1,17.83c-.02,3.02,2.42,5.48,5.43,5.49.99,0,1.92-.26,2.73-.72l.03-6.15c-.47.25-1.01.39-1.59.39-1.75,0-3.17-1.35-3.16-2.99l.05-9.69c0-1.64,1.44-2.96,3.19-2.95.58,0,1.12.15,1.58.41l.03-6.31c-.8-.47-1.72-.75-2.72-.75-3.02-.02-5.48,2.42-5.49,5.43Z"/>
      <path class="cls-6" d="m15.28,135.58l.1-17.83c.02-3.01-2.42-5.47-5.43-5.49-1.04,0-2.01.28-2.84.78l-.03,6.28c.45-.27.97-.43,1.53-.43,1.63,0,2.93,1.34,2.93,2.98l-.05,9.69c0,1.64-1.33,2.96-2.96,2.95-.56,0-1.08-.17-1.52-.44l-.03,6.12c.82.51,1.79.81,2.83.82,3.02.02,5.47-2.42,5.49-5.43Z"/>
      <path class="cls-9" d="m63.42,122.16l-.05,9.69c0,1.64,1.41,2.98,3.16,2.99.58,0,1.12-.14,1.59-.39l.08-14.82c-.46-.26-1-.41-1.58-.41-1.75,0-3.18,1.31-3.19,2.95Z"/>
      <path class="cls-9" d="m11.47,131.56l.05-9.69c0-1.64-1.3-2.97-2.93-2.98-.56,0-1.08.15-1.53.43l-.08,14.75c.44.28.96.44,1.52.44,1.63,0,2.95-1.31,2.96-2.95Z"/>
      <path d="m68.22,113.31l-.03,6.31-.08,14.82-.03,6.15-.11,19.57c-.02,3.17-2.28,5.74-5.04,5.73l-51.1-.28c-2.76-.02-5-2.61-4.98-5.78l.11-19.63.03-6.12.08-14.75.03-6.28.13-23.81h-1.33c.02-1.63.05-3.26.07-4.89-.1.49-.16,1.01-.16,1.53l-.41,73.95c-.01,2.2.87,4.18,2.27,5.51l-.02,2.87c0,.7.51,1.27,1.14,1.27l12.61.07c.63,0,1.15-.56,1.15-1.26v-1.18s29.61.16,29.61.16v1.18c-.01.7.5,1.27,1.13,1.27l12.61.07c.63,0,1.15-.56,1.15-1.26l.02-2.9c1.39-1.31,2.29-3.27,2.3-5.46l.36-66.25c0-1.39,0-2.85,0-4.35h-1.4s-.13,23.74-.13,23.74Zm-46.37,54.97c0,.3-.2.54-.43.54l-12.61-.07c-.24,0-.43-.25-.43-.55v-2.29c1,.71,2.18,1.13,3.44,1.13l10.04.06v1.18Zm44.51.25c0,.3-.2.54-.43.54l-12.61-.07c-.24,0-.43-.25-.43-.55v-1.18s10.02.06,10.02.06c1.27,0,2.46-.41,3.46-1.11v2.31Z"/>
      <path class="cls-9" d="m65.51,55.15c-.04,2.69-.04,5.45-.05,8.13,0,6.8,0,13.83-.66,20.49v.09s-.09.05-.09.05c-1.37.77-2.93,1.63-4.65,2.13-.24.46-.2,1.04-.15,1.6,0,.04,0,.08.01.12.96-.16,3.82-1.1,5.95-1.79,1.02-.33,1.93-.63,2.53-.81-.04-12.22-.09-24.28-.13-28.89-.9-.38-1.83-.75-2.77-1.11Z"/>
      <path class="cls-7" d="m37.87,65.75h.4c7.17.04,14.04,1.14,20.42,3.28,1.31-4.08,2.26-8.51,3.17-12.79.61-2.87,1.24-5.83,1.98-8.65,0,0-.01-.01-.01-.02-.04-.31-.04-.63-.05-.94,0-.66,0-1.29-.35-1.79,0-.01,0-.03,0-.05-6.99-4.73-15.92-7.34-25.22-7.37-9.29-.07-18.25,2.44-25.28,7.1,0,.02,0,.03-.01.05-.34.5-.35,1.12-.37,1.78,0,.31-.01.64-.06.94,0,0-.01.01-.01.02.7,2.83,1.3,5.79,1.88,8.67.87,4.29,1.76,8.73,3.03,12.83,6.4-2.06,13.3-3.09,20.49-3.05h0Zm-14.99-1.91c-6.33.38-8.71-14.9-9.14-16.97.95,1.85,2.89,5.88,3.94,7.81,4.02,7.39,9.94,6.3,15.65,6.5,8.03.28,12.81.48,19.69-.61,5.51-.87,7.56-9.99,9.31-13.68-.7,3.12-1.9,9.28-2.97,12.32-.79,8.95-10.35,4.19-22.1,4.57-3.83-.08-7.88-.33-14.37.06Z"/>
      <path class="cls-7" d="m64.46,83.64c.64-6.62.64-13.6.65-20.36,0-2.72,0-5.53.05-8.26-.09-.03-.18-.07-.28-.11-.31,1.25-.62,2.49-.94,3.74-1.64,6.5-3.33,13.21-3.73,20.02,0,0,0,.01,0,.02.06.84-.02,1.99-.1,3.2-.09,1.37-.18,2.78-.07,3.78,1.62-.48,3.1-1.29,4.41-2.02Z"/>
      <path class="cls-6" d="m62.26,41.59s-.01,0-.02,0c-1.46-1.84-3.86-2.91-5.99-3.77-1.8-.72-3.69-1.33-5.62-1.78-3.89-.93-8.07-1.4-12.42-1.4-4.35-.04-8.54.38-12.44,1.27-1.93.44-3.83,1.02-5.64,1.72-2.14.84-4.55,1.88-6.03,3.71,0,0-.01,0-.01,0-.14.38-.32.75-.51,1.1-.3.57-.58,1.13-.66,1.76,6.96-4.55,15.76-7.04,24.89-7.04,0,0,0,0,0,0h.25s.03,0,.04,0h.09s.06,0,.09,0c.01,0,.02,0,.04,0h.25s0,0,0,0c9.13.1,17.9,2.69,24.81,7.31-.07-.63-.34-1.18-.64-1.76-.18-.35-.36-.72-.5-1.1Z"/>
      <path class="cls-7" d="m11.01,62.98c-.07,6.76-.14,13.74.42,20.37,1.3.75,2.77,1.57,4.39,2.07.12-.99.05-2.41-.03-3.78-.07-1.21-.13-2.36-.06-3.2,0,0,0-.01.01-.02-.33-6.81-1.95-13.54-3.52-20.06-.3-1.25-.6-2.5-.89-3.75-.09.03-.19.07-.28.1.02,2.73-.01,5.54-.04,8.26Z"/>
      <path class="cls-9" d="m11.17,83.61l-.08-.05v-.09c-.58-6.67-.51-13.7-.44-20.49.03-2.68.05-5.44.04-8.13-.95.35-1.88.71-2.78,1.08-.09,4.62-.27,16.67-.44,28.89.59.19,1.5.5,2.52.84,2.13.72,4.97,1.68,5.94,1.86,0-.04,0-.08.01-.12.05-.56.11-1.13-.13-1.6-1.72-.52-3.27-1.4-4.63-2.18Z"/>
      <path class="cls-8" d="m11.19,54.19h0s.03,0,0,0Z"/>
      <path class="cls-8" d="m11.19,54.2s0,0,0,0c-.03,0-.07.01,0,0Z"/>
      <path class="cls-9" d="m5.19,53.83c-1.93,1.11-3.75,2.16-3.83,4.26l.52-.24c1.18-.55,2.98-1.37,4.95-2.21l.96-.4c.93-.38,2.39-.87,3.38-1.23-.08-.49-.33-1.85-.58-2.9-.06-.24-.12-.49-.18-.73-.01,0-.03-.01-.04-.02-.4.71-1.3,1.38-2.2,1.54l-.63.4c-.69.58-1.53,1.06-2.34,1.53Z"/>
      <path class="cls-2" d="m23.27,4.8c-.48-.14-.92.09-1.39.34-.35.19-.71.37-1.11.41-.03.02-.05.03-.09.03-.93.72-1.96,1.4-2.97,2.05-2.79,1.83-5.67,3.73-7.1,6.78.05.24.08.49.11.73.07.57.15,1.16.41,1.66.06.06.11.12.16.18.15.02.27-.09.43-.26.09-.09,1.84-1.9,4.05-3.9.87-.86,1.79-1.64,2.75-2.35,1.4-1.11,2.79-2.08,3.93-2.59,0,0,0-.01.01-.02.06-.56.26-1.07.44-1.58.16-.44.34-.9.41-1.36-.01-.05-.03-.09-.05-.14Zm-3.23,3.69c-1.53,1.24-2.98,2.65-4.44,3.91-.59.5-3.36,3.2-3.12,1.35.18-1.43,2.62-2.97,3.7-3.68.63-.42,1.25-.74,1.91-1.03.45-.19,1.39-.9,1.87-.83.06,0,.09.04.08.1v.18Z"/>
      <path class="cls-6" d="m38.37,6.31c.05,0,.1,0,.15,0,5.22.03,10.42.58,15.45,1.64-.07-.47-.22-.92-.39-1.39-.17-.46-.34-.94-.41-1.45v-.03s0-.03,0-.03c.02-.08.05-.16.11-.26l.03-.05.05-.02c.15-.05.29-.07.43-.07.44,0,.83.22,1.22.43.27.15.53.29.8.36-.53-1.03-1.61-1.32-2.58-1.56l-.16-.04c-4.54-.98-9.11-1.37-14.29-1.24-.02,0-.04.02-.06.02-.11,0-.22,0-.33-.01-.11,0-.22,0-.33,0h0s-.03-.01-.05-.02c-5.18-.19-9.75.15-14.32,1.08l-.15.04c-.97.23-2.05.51-2.59,1.54.27-.07.53-.2.8-.35.39-.21.79-.42,1.23-.42.14,0,.28.02.43.07l.05.02.02.05c.05.1.08.18.1.26v.03s0,.03,0,.03c-.08.5-.26.98-.43,1.44-.17.47-.34.92-.41,1.39,5.04-1.01,10.24-1.5,15.47-1.47.05,0,.1,0,.15,0Z"/>
      <path class="cls-9" d="m74.3,58.25l.51.24c-.06-2.09-1.87-3.17-3.78-4.3-.81-.48-1.64-.97-2.33-1.56l-.25-.21v-.15c-1.02-.03-2.11-.8-2.56-1.61-.01,0-.03.01-.04.02-.1.35-.19.71-.28,1.07-.18.75-.34,1.49-.46,2-.03.14-.06.28-.09.42,0,.32,3.67,1.62,3.67,1.62.1,0,.18.04.25.1.04.02.09.04.13.06l.29.04c1.97.85,3.75,1.7,4.93,2.26Z"/>
      <path class="cls-8" d="m58.17,10.7c.75.61,1.5,1.26,2.21,1.91-.18-.18-.36-.36-.54-.53-.54-.48-1.1-.95-1.67-1.38Z"/>
      <path class="cls-9" d="m7.34,21.26c.06,2.55-.04,5.21-.14,7.78-.2,5.41-.42,11,.85,16.17l.07.29-.03.05c.43.18.85.4,1.26.63.86.47,1.74.95,2.77.94.03-.25.04-.5.04-.78.01-.69.03-1.4.43-1.99,0-.01.02-.02.03-.02.05-.76.38-1.41.71-2.04.18-.35.37-.71.5-1.08,0-.03,0-.06.03-.09,1.53-1.89,3.98-2.95,6.17-3.8,1.82-.71,3.74-1.29,5.69-1.74,3.86-.88,7.99-1.31,12.29-1.28.07,0,.15,0,.22,0s.15,0,.22,0c4.3.02,8.43.5,12.28,1.42,1.95.46,3.85,1.07,5.67,1.8,2.17.88,4.61,1.97,6.12,3.87.02.03.03.06.03.1.13.37.31.73.49,1.08.32.63.64,1.28.69,2.05,0,0,.02.01.03.02.4.59.41,1.3.41,1.99,0,.27,0,.53.03.78,1.02.02,1.91-.45,2.78-.91.41-.22.83-.44,1.27-.61l-.03-.05.07-.29c1.32-5.16,1.17-10.75,1.03-16.15-.07-2.58-.14-5.25-.05-7.82v-.06s0-.04,0-.04c.01-.12.01-.24.02-.36-.73-1.16-1.21-2.49-1.66-3.79-.27-.78-.55-1.59-.88-2.34-.12-.08-.28-.1-.43-.11-.04.21-.07.42-.1.63-.08.6-.17,1.22-.47,1.76l-.03.03c-.06.06-.12.13-.19.2l-.03.03h-.04q-.33.08-1.25-.57s-.03,0-.04,0c-.01,0-.02,0-.03,0-.02,0,1.05,1.21-.07-.05-3.05-3.41-6.05-6.86-9.88-8.6-.01,0-.03.01-.04,0-5.12-1.1-10.42-1.66-15.74-1.68-3.81-.03-12.85,1.28-15.81,1.65-.85.84-6.66,5.03-9.81,8.14-.05.07-.1.13-.14.2,0,0-.02,0-.02.01-.02.02-.03.03-.05.03-.01,0-.02,0-.03,0-.02,0-.39.04-.59.24-.17.18-.39.4-.72.32h-.04s-.03-.05-.03-.05c-.06-.08-.12-.15-.18-.2l-.03-.03c-.29-.55-.37-1.17-.45-1.77-.03-.21-.06-.43-.1-.64-.15,0-.31.03-.43.1-.34.75-.63,1.56-.91,2.33-.46,1.3-.96,2.62-1.7,3.77,0,.12,0,.24.02.36v.14Zm57.67,5.31c.26,4.33.51,8.42-.39,12.25-.1.44-.54.71-.98.61-.44-.1-.71-.54-.6-.98.85-3.61.61-7.58.35-11.79-.14-2.33-.29-4.74-.27-7.29s1.75,4.89,1.89,7.19Zm-53.51-.29c.17-2.3,1.17-7.98,1.61-7.98s.36.37.36.81c-.01,2.55-.19,4.96-.36,7.28-.3,4.2-.59,8.17.22,11.79.1.44-.18.87-.62.97-.44.1-.87-.18-.97-.62-.86-3.85-.57-7.93-.26-12.26Z"/>
      <path class="cls-8" d="m18.52,10.48c-.96.7-1.88,1.49-2.75,2.35.87-.79,1.81-1.6,2.75-2.35Z"/>
      <path class="cls-10" d="m60.16,5.19c-6.53-3.43-14.46-3.77-21.38-3.83h-.27s-.11,0-.11,0h-.29s0,0,0,0h-.1c-6.92-.02-14.85.24-21.42,3.59-6.28,4.91-9.4,10.07-9.29,15.34.61-1.05,1.05-2.23,1.46-3.39.29-.79.58-1.62.93-2.39v-.03s.04-.02.04-.02c.21-.15.45-.17.66-.18,1.47-3.09,4.36-5,7.17-6.85,1.04-.68,2.02-1.33,2.94-2.04,0,0,0-.01,0-.02.55-1.4,1.88-1.72,2.94-1.98l.16-.04c3.9-.8,7.8-1.17,12.07-1.15.88,0,1.79.03,2.7.07.92-.03,1.82-.05,2.7-.04,4.27.02,8.17.44,12.05,1.28l.16.04c1.06.27,2.38.6,2.92,2.01,0,0,0,.01,0,.02.91.72,1.89,1.38,2.92,2.07,2.79,1.87,5.66,3.82,7.09,6.92.21.01.45.04.66.19l.03.02v.03c.36.78.64,1.6.92,2.4.4,1.16.82,2.35,1.43,3.41.17-5.27-2.89-10.46-9.12-15.44Z"/>
      <path class="cls-2" d="m54.27,8.07c.25.12.52.26.79.41,1.74.92,3.29,2.16,4.78,3.59.18.17.36.35.54.53,2.42,2.19,4.43,4.31,4.52,4.41.16.17.27.27.42.26.05-.06.1-.12.16-.18.27-.5.35-1.08.43-1.65.03-.24.07-.49.12-.73-1.4-3.07-4.26-5-7.03-6.86-.99-.67-2.02-1.36-2.94-2.09-.03,0-.06-.01-.09-.03-.4-.04-.76-.23-1.11-.42-.46-.25-.9-.49-1.39-.36-.02.05-.04.09-.05.14.07.47.24.93.4,1.37.18.51.37,1.03.43,1.58,0,0,0,.01.01.02Zm7.03,2.9c1.22,1,2.58,2.36,3.3,3.77l-.09-.09c.23.33.24.69-.1.91-1.02-.72-1.85-1.94-2.76-2.81-1.35-1.29-3.32-2.54-4.28-4.14,1.28,0,2.98,1.59,3.93,2.36Z"/>
      <path d="m8.01,45.84s-.01,0-.02,0c-.01.88-.06,1.77-.11,2.63-.06,1.04-.13,2.12-.12,3.19,0,0,.01,0,.02,0-.01-1.07.05-2.14.11-3.19.05-.86.1-1.74.12-2.62Z"/>
      <path d="m68.81,52.45s0,0,0,0c-.12,0-.22-.07-.27-.17-.02,0-.05,0-.07,0v.15s.24.21.24.21c.68.58,1.52,1.08,2.33,1.56,1.91,1.13,3.73,2.21,3.78,4.3l-.51-.24c-1.18-.56-2.96-1.41-4.93-2.26l-.29-.04c1.07.49,4.04,2.02,5.11,2.53l.63.3s.04,0,.06,0c.07,0,.13-.01.19-.03.08-2.4-1.94-3.61-3.91-4.77-.8-.48-1.63-.97-2.29-1.54-.02,0-.04.01-.06.01Z"/>
      <path d="m68.94,55.89c-.07-.06-.16-.1-.25-.1.03,0,.12.04.25.1Z"/>
      <path d="m7.3,20.29c-.11-5.27,3.01-10.42,9.29-15.34,6.57-3.35,14.5-3.61,21.42-3.59h.1s0,0,0,0h.29s.11,0,.11,0h.27c6.92.06,14.84.4,21.38,3.83,6.23,4.98,9.29,10.17,9.12,15.44.07.12.15.23.22.35.32-5.47-2.77-10.85-9.21-15.99-6.55-3.45-14.39-3.82-21.89-3.87-7.5-.03-15.35.26-21.93,3.63-6.5,5.07-9.64,10.42-9.38,15.89.07-.12.16-.23.22-.35Z"/>
      <path d="m69.23,21.5v.06c-.09,2.57-.02,5.24.05,7.82.15,5.41.29,11-1.03,16.15l-.07.29.03.05s.07-.03.11-.04c.01-.1.07-.19.16-.23,1.33-5.18,1.18-10.79,1.04-16.22-.07-2.59-.14-5.27-.05-7.85,0,0,0,0,0-.01,0,0,0,0,0,0,0-.02,0-.04,0-.06-.08-.11-.15-.23-.22-.35,0,.12,0,.24-.02.36v.04Z"/>
      <path d="m7.99,45.5s.07.03.1.04l.03-.05-.07-.29c-1.26-5.17-1.05-10.76-.85-16.17.1-2.57.2-5.23.14-7.78v-.14c-.01-.12-.01-.24-.02-.36-.08.12-.15.24-.23.35,0,.02,0,.04,0,.06h0s0,0,0,.01c.06,2.58-.04,5.26-.14,7.85-.21,5.43-.41,11.04.86,16.23.09.05.14.14.16.24Z"/>
      <path d="m1.35,58.38l.63-.29c1.29-.6,5.79-2.84,5.8-2.84l-.96.4c-1.98.83-3.77,1.66-4.95,2.21l-.52.24c.08-2.09,1.91-3.14,3.83-4.26.81-.47,1.65-.96,2.34-1.53l.63-.4c-.13.02-.26.04-.38.04-.02,0-.04,0-.07,0-.06.1-.16.17-.28.17,0,0,0,0,0,0-.02,0-.04,0-.06-.01-.67.56-1.5,1.05-2.31,1.51-1.98,1.14-4.02,2.32-3.96,4.73.06.02.12.03.19.03.02,0,.04,0,.06,0Z"/>
      <path d="m68.46,51.99s.01,0,.02,0c.02-1.06-.03-2.14-.08-3.19-.04-.86-.08-1.75-.08-2.63,0,0-.01,0-.02,0,0,.88.04,1.77.09,2.63.05,1.04.1,2.12.08,3.19Z"/>
      <path class="cls-4" d="m63.04,38.45c-.1.43.17.87.6.98.44.1.87-.17.98-.61.9-3.84.66-7.93.39-12.25-.14-2.3-1.88-9.76-1.89-7.19s.13,4.96.27,7.29c.25,4.21.5,8.18-.35,11.79Z"/>
      <path d="m58,78.88c.3-3.7.61-6.75.96-9.6,0-.01,0-.03-.01-.04l-.02.17c-.35,2.83-.65,5.84-.95,9.48v.11c-.1,2.07-.18,4.51-.25,7.26.01.03.02.06.03.09.07-2.85.15-5.33.24-7.45,0,0,0,0,0-.02Z"/>
      <path d="m0,58.52l.03.48.41.58c.29.16,1.06-.07,1.06-.07l.94-.43c.98-.45,2.38-1.1,3.95-1.78-.09,5.32-.26,16.08-.41,27.03-.02,1.63-.05,3.26-.07,4.88h1.33s13.37,2.08,13.37,2.08c-1.03-.37-1.88-1.02-2.41-1.83-.02-.02-.03-.03-.03-.04-.06-.09-.11-.19-.16-.28-.44-.46-1.62-1.14-1.68-1.49,0,0,0,0,0,0,0-.07.01-.15.02-.22.06-.59.12-1.27-.18-1.84.15-1.03.07-2.52-.01-3.97-.07-1.2-.13-2.33-.06-3.15,0-.02-.01-.03-.01-.05-.33-6.85-1.95-13.6-3.52-20.14-.31-1.29-.62-2.58-.92-3.86.02-.04.02-.1,0-.14-.01-.04-.05-.06-.08-.09-.23-1.33-.54-2.7-.89-3.96l-.02-.06-.05-.03c-.08-.04-.18-.1-.3-.11h-.1s-.04.08-.04.08c-.37.76-1.43,1.51-2.38,1.53,0,0-.01,0-.02,0-.01-1.06.05-2.14.12-3.19.05-.86.1-1.75.11-2.63,0,0,.01,0,.02,0,.4.17.79.37,1.2.59.9.5,1.84,1,2.96.98.7,2.81,1.29,5.77,1.87,8.63.87,4.33,1.78,8.8,3.06,12.93v-.07s.27-.09.27-.09c0,0,0,0,0,0-1.27-4.1-2.17-8.53-3.03-12.83-.58-2.87-1.18-5.84-1.88-8.67,0,0,.01-.01.01-.02.05-.31.05-.63.06-.94.01-.66.02-1.29.37-1.78,0-.02,0-.03.01-.05,7.04-4.65,16-7.17,25.28-7.1,9.29.03,18.23,2.64,25.22,7.37,0,.02,0,.03,0,.05.34.5.34,1.12.35,1.79,0,.31,0,.64.05.94,0,0,.01.01.01.02-.73,2.82-1.36,5.78-1.98,8.65-.91,4.29-1.86,8.71-3.17,12.79,0,0,0,0,0,0l.28.09v.08c1.32-4.12,2.27-8.58,3.19-12.9.61-2.86,1.24-5.8,1.97-8.61,1.12.04,2.06-.46,2.97-.94.41-.22.8-.41,1.21-.58,0,0,.01,0,.02,0,0,.88.04,1.77.08,2.63.05,1.05.1,2.12.08,3.19,0,0-.01,0-.02,0-.95-.03-2-.79-2.37-1.55l-.04-.09h-.1c-.12.02-.23.07-.3.12l-.05.03-.02.06c-.37,1.25-.69,2.61-.93,3.95-.03.02-.07.05-.08.09-.02.05-.01.1,0,.15-.31,1.28-.64,2.56-.96,3.85-1.65,6.52-3.35,13.26-3.75,20.1,0,.01-.01.03-.01.04.06.82-.02,1.95-.1,3.15-.1,1.45-.19,2.94-.06,3.97-.31.57-.25,1.24-.2,1.84,0,.07.01.15.02.22,0,0,0,0,0,0-.05.27-1.05.52-1.79.78-.22.59-.48,1.18-.48,1.18-.65.85-1.64,1.47-2.78,1.75l13.88-2.05h1.4c0-11.95.06-26.48.03-31.91,1.56.7,2.96,1.36,3.93,1.82,0,0,.81.3,1.09.37.97.25,1.35-.9,1.35-.9.2-3.16-2.26-4.62-4.44-5.91-.69-.41-1.34-.8-1.89-1.22.01-1.04-.04-2.08-.09-3.08-.05-.93-.1-1.9-.09-2.84,0-.08,0-.16-.03-.23,1.31-5.28,1.16-10.88,1.01-16.31-.07-2.57-.14-5.23-.05-7.77v-.03c.56-6.02-2.68-11.89-9.61-17.43l-.14-.09C54.05.44,45.96.07,38.89,0h-.96c-7.07-.02-15.17.26-21.98,3.76l-.14.09c-7,5.46-10.3,11.29-9.81,17.32v.03c.06,2.55-.04,5.21-.13,7.78-.2,5.42-.42,11.03.84,16.32-.02.07-.03.15-.03.23,0,.94-.06,1.91-.12,2.84-.06,1-.13,2.03-.12,3.08-.55.42-1.21.8-1.91,1.2C2.32,53.92-.16,55.36,0,58.52Zm15.93,28.87s0,.08-.01.12c-.96-.18-3.81-1.14-5.94-1.86-1.01-.34-1.92-.65-2.52-.84.17-12.22.35-24.27.44-28.89.9-.37,1.83-.73,2.78-1.08.01,2.69-.01,5.45-.04,8.13-.07,6.8-.14,13.82.43,20.49v.09s.09.05.09.05c1.36.78,2.91,1.66,4.63,2.18.24.47.19,1.04.13,1.6Zm-3.71-29.03c1.57,6.51,3.19,13.25,3.52,20.06,0,0,0,.01-.01.02-.07.84,0,1.99.06,3.2.07,1.37.15,2.79.03,3.78-1.61-.5-3.08-1.33-4.39-2.07-.57-6.62-.49-13.61-.42-20.37.03-2.72.06-5.53.04-8.26.09-.03.19-.07.28-.1.29,1.25.59,2.5.89,3.75Zm-1.03-4.17h0s.04-.01,0,0c-.07,0-.03,0,0,0,0,0,0,0,0,0Zm27.4-17.06s0,0,0,0h-.25s-.02,0-.04,0h-.09s-.06,0-.09,0c-.01,0-.03,0-.04,0h-.25s0,0,0,0c-9.13,0-17.93,2.49-24.89,7.04.08-.63.36-1.18.66-1.76.18-.35.37-.72.51-1.1,0,0,.01,0,.01,0,1.48-1.83,3.89-2.87,6.03-3.71,1.81-.7,3.71-1.28,5.64-1.72,3.9-.88,8.09-1.31,12.44-1.27,4.35,0,8.53.48,12.42,1.4,1.93.46,3.82,1.06,5.62,1.78,2.13.86,4.53,1.93,5.99,3.77,0,0,.01,0,.02,0,.13.38.32.75.5,1.1.29.58.56,1.13.64,1.76-6.91-4.63-15.68-7.21-24.81-7.31Zm21.53,44.75c.08-1.21.16-2.35.1-3.2,0,0,0-.01,0-.02.4-6.8,2.1-13.52,3.73-20.02.32-1.25.63-2.49.94-3.74.09.04.18.07.28.11-.04,2.73-.05,5.54-.05,8.26,0,6.76,0,13.74-.65,20.36-1.31.73-2.79,1.54-4.41,2.02-.11-.99-.02-2.41.07-3.78Zm5.76,4.07c-2.13.7-4.99,1.63-5.95,1.79,0-.04,0-.08-.01-.12-.05-.56-.09-1.14.15-1.6,1.73-.5,3.28-1.36,4.65-2.13l.08-.05v-.09c.66-6.67.66-13.69.67-20.49,0-2.68,0-5.44.05-8.13.94.36,1.87.73,2.77,1.11.04,4.61.09,16.67.13,28.89-.6.18-1.51.48-2.53.81Zm5.28-31.99c1.96,1.16,3.99,2.36,3.91,4.77-.06.02-.12.02-.19.03-.02,0-.04,0-.06,0l-.63-.3c-1.07-.51-4.05-2.04-5.11-2.53-.05-.02-.09-.04-.13-.06-.14-.06-.23-.1-.25-.1,0,0-3.67-1.3-3.67-1.62,0,0,0,0,0,0-.01,0-.02,0-.01,0,.03-.1.07-.25.1-.41.12-.51.28-1.25.46-2,.09-.37.18-.74.28-1.07.01,0,.03-.01.04-.02.45.82,1.55,1.58,2.57,1.61.02,0,.05,0,.07,0,.06.1.15.17.27.17,0,0,0,0,0,0,.02,0,.04,0,.06-.01.67.57,1.49,1.06,2.29,1.54ZM16.47,4.74c6.59-3.37,14.43-3.66,21.93-3.63,7.5.05,15.34.42,21.89,3.87,6.44,5.15,9.53,10.52,9.21,15.99-.07-.12-.15-.23-.22-.35-.6-1.06-1.02-2.24-1.43-3.41-.28-.8-.56-1.62-.91-2.4v-.03s-.04-.02-.04-.02c-.2-.15-.45-.17-.66-.19-1.43-3.11-4.31-5.05-7.09-6.92-1.03-.7-2.01-1.36-2.92-2.07,0,0,0-.01,0-.02-.54-1.41-1.86-1.74-2.92-2.01l-.16-.04c-3.89-.84-7.78-1.26-12.05-1.28-.88,0-1.79.01-2.7.04-.92-.04-1.82-.07-2.7-.07-4.27-.02-8.17.35-12.07,1.15l-.16.04c-1.06.26-2.39.58-2.94,1.98,0,0,0,.01,0,.02-.92.71-1.9,1.36-2.94,2.04-2.81,1.84-5.7,3.75-7.17,6.85-.21,0-.46.03-.66.18l-.03.02v.03c-.37.77-.66,1.59-.95,2.39-.42,1.16-.85,2.34-1.46,3.39-.07.12-.15.23-.22.35-.26-5.47,2.89-10.82,9.38-15.89Zm6.7,1.65c.17-.46.35-.94.43-1.44v-.03s0-.03,0-.03c-.02-.08-.05-.16-.1-.26l-.02-.05-.05-.02c-.15-.05-.29-.07-.43-.07-.44,0-.84.21-1.23.42-.27.15-.54.28-.8.35.54-1.03,1.62-1.3,2.59-1.54l.15-.04c4.56-.93,9.13-1.28,14.32-1.08.02,0,.03.02.05.02h0c.11,0,.22,0,.33,0,.11,0,.22,0,.33.01.03,0,.04-.01.06-.02,5.18-.13,9.75.26,14.29,1.24l.16.04c.97.24,2.04.53,2.58,1.56-.27-.07-.53-.21-.8-.36-.39-.21-.78-.43-1.22-.43-.14,0-.28.02-.43.07l-.05.02-.03.05c-.05.1-.08.18-.11.26v.03s0,.03,0,.03c.07.51.25.99.41,1.45.17.47.33.92.39,1.39-5.03-1.06-10.23-1.62-15.45-1.64-.05,0-.1,0-.15,0-.05,0-.1,0-.15,0-5.22-.03-10.42.47-15.47,1.47.07-.47.23-.92.41-1.39Zm-.7,1.49s0,0-.01.02c-1.14.51-2.53,1.48-3.93,2.59-.94.75-1.88,1.56-2.75,2.35-2.21,1.99-3.96,3.81-4.05,3.9-.16.17-.28.27-.43.26-.05-.06-.1-.12-.16-.18-.26-.5-.34-1.09-.41-1.66-.03-.24-.06-.49-.11-.73,1.43-3.05,4.31-4.95,7.1-6.78,1-.66,2.03-1.34,2.97-2.05.03,0,.06,0,.09-.03.4-.04.76-.22,1.11-.41.47-.25.91-.48,1.39-.34.02.05.04.09.05.14-.08.47-.25.92-.41,1.36-.19.5-.38,1.02-.44,1.58Zm31.37-1.41c-.16-.44-.33-.9-.4-1.37.02-.05.03-.09.05-.14.48-.13.92.1,1.39.36.35.19.71.38,1.11.42.03.02.05.03.09.03.92.73,1.95,1.42,2.94,2.09,2.77,1.86,5.63,3.79,7.03,6.86-.05.24-.08.49-.12.73-.08.57-.16,1.16-.43,1.65-.06.05-.11.11-.16.18-.16.01-.27-.09-.42-.26-.09-.1-2.1-2.22-4.52-4.41-.71-.65-1.46-1.3-2.21-1.91-1.08-.88-2.15-1.67-3.11-2.22-.27-.16-.54-.3-.79-.41,0,0,0-.01-.01-.02-.06-.55-.24-1.07-.43-1.58ZM6.97,29.03c.1-2.59.2-5.27.14-7.85,0,0,0,0,0-.01h0s0-.04,0-.06c.08-.11.15-.23.23-.35.74-1.15,1.23-2.47,1.7-3.77.28-.78.57-1.58.91-2.33.12-.08.28-.09.43-.1.04.21.07.42.1.64.08.6.16,1.22.45,1.77l.03.03c.06.06.12.13.18.2l.03.03h.04c.33.09.54-.13.72-.31.2-.2.57-.24.59-.24.08-.08.17-.16.25-.24,3.15-3.11,8.96-7.3,9.81-8.14,2.96-.37,12.01-1.68,15.81-1.65,5.32.02,10.61.58,15.74,1.68.01,0,.03,0,.04,0,3.84,1.74,6.83,5.19,9.88,8.6,1.13,1.26.05.04.07.05.01,0,.02,0,.03,0,.02,0,.03,0,.04,0q.92.65,1.25.58h.04s.03-.05.03-.05c.06-.08.12-.14.19-.2l.03-.03c.3-.54.39-1.16.47-1.76.03-.21.06-.42.1-.63.15.01.31.03.43.11.33.76.61,1.56.88,2.34.45,1.3.93,2.63,1.66,3.79.07.12.14.24.22.35,0,.02,0,.04,0,.06,0,0,0,0,0,0,0,0,0,0,0,.01-.09,2.58-.02,5.26.05,7.85.15,5.43.29,11.04-1.04,16.22-.09.05-.14.13-.16.23-.04.01-.07.03-.11.04-.44.17-.86.39-1.27.61-.86.46-1.75.93-2.78.91-.02-.25-.03-.5-.03-.78,0-.69-.01-1.4-.41-1.99,0-.01-.02-.02-.03-.02-.05-.76-.37-1.42-.69-2.05-.18-.35-.36-.71-.49-1.08,0-.04,0-.07-.03-.1-1.51-1.9-3.95-3-6.12-3.87-1.82-.73-3.72-1.34-5.67-1.8-3.85-.92-7.98-1.39-12.28-1.42-.07,0-.15,0-.22,0s-.15,0-.22,0c-4.3-.02-8.43.41-12.29,1.28-1.95.44-3.86,1.03-5.69,1.74-2.18.85-4.64,1.92-6.17,3.8-.02.03-.02.06-.03.09-.13.37-.32.73-.5,1.08-.33.63-.66,1.28-.71,2.04,0,0-.02.01-.03.02-.41.59-.42,1.3-.43,1.99,0,.27-.01.53-.04.78-1.02,0-1.91-.47-2.77-.94-.41-.22-.82-.45-1.26-.63-.03-.01-.07-.03-.1-.04-.01-.1-.07-.19-.16-.24-1.27-5.19-1.07-10.8-.86-16.23Zm-1.91,24.58c.81-.47,1.64-.95,2.31-1.51.02,0,.04.01.06.01,0,0,0,0,0,0,.12,0,.22-.07.28-.17.02,0,.04,0,.07,0,.13,0,.26-.02.38-.04.9-.17,1.8-.83,2.2-1.54.01,0,.03.01.04.02.06.21.12.46.18.73.25,1.05.5,2.41.58,2.9-.99.36-2.46.85-3.38,1.23-.01,0-4.51,2.25-5.8,2.84l-.63.29s-.04,0-.06,0c-.07,0-.13-.02-.19-.03-.06-2.41,1.98-3.58,3.96-4.73Z"/>
      <path d="m69.79,89.57h-.03c0,1.5,0,2.95,0,4.35l.02-4.35Z"/>
      <path d="m17.95,78.66s0,.01,0,.02c.07,1.99.12,4.3.15,6.92.01-.02.02-.04.03-.05-.03-2.56-.08-4.85-.15-6.78v-.09c-.27-3.67-.54-6.69-.85-9.49l-.02-.17s-.01.02-.01.04c.32,2.85.59,5.91.86,9.61Z"/>
      <path class="cls-4" d="m12.73,39.14c.44-.1.71-.53.62-.97-.81-3.62-.52-7.59-.22-11.79.17-2.33.34-4.73.36-7.28,0-.45.09-.81-.36-.81s-1.45,5.68-1.61,7.98c-.31,4.32-.6,8.41.26,12.26.1.44.53.71.97.62Z"/>
      <path class="cls-1" d="m61.66,12.75c.91.87,1.75,2.09,2.76,2.81.33-.21.33-.58.1-.91l.09.09c-.72-1.41-2.08-2.77-3.3-3.77-.94-.77-2.65-2.37-3.93-2.36.95,1.6,2.92,2.85,4.28,4.14Z"/>
      <path class="cls-1" d="m19.96,8.21c-.48-.07-1.42.64-1.87.83-.66.28-1.28.61-1.91,1.03-1.08.71-3.51,2.24-3.7,3.68-.24,1.85,2.54-.85,3.12-1.35,1.47-1.26,2.91-2.67,4.44-3.91v-.18c0-.06-.02-.1-.08-.1Z"/>
      <path class="cls-1" d="m59.34,59.22c1.08-3.03,2.27-9.2,2.97-12.32-1.75,3.69-3.79,12.82-9.31,13.68-6.88,1.08-11.66.88-19.69.61-5.71-.2-11.63.9-15.65-6.5-1.06-1.94-2.99-5.96-3.94-7.81.43,2.07,2.81,17.35,9.14,16.97,6.49-.39,10.54-.14,14.37-.06,11.75-.38,21.31,4.38,22.1-4.57Z"/>
      <path class="cls-9" d="m18.69,78.55v.12c.07,1.97.12,4.33.16,6.98v.11s-.06.09-.06.09c-.33.5-.5,1.03-.5,1.59-.01,1.9,1.91,3.46,4.27,3.47l30.44.17c1.57,0,3.02-.68,3.78-1.79l.11-.16h.08s.04-.22.04-.22c.2-.41.3-.83.31-1.26,0-.39-.08-.79-.26-1.18l-.03-.07v-.08c.07-2.85.15-5.36.24-7.46l.02-.13c.29-3.48.58-6.4.91-9.12-6.23-2.05-12.93-3.11-19.92-3.15h-.4c-7.02-.04-13.74.94-19.99,2.93.3,2.71.56,5.63.81,9.14v.02Z"/>
      <path d="m52.99,91.8c.17,0,.34-.01.51-.02.34-.03.66-.08.98-.16,1.14-.29,2.13-.9,2.78-1.75,0,0,.27-.6.48-1.18.15-.41.28-.81.28-1.01,0-.44-.09-.88-.26-1.31-.01-.03-.02-.06-.03-.09.06-2.76.14-5.19.23-7.26v-.11c.31-3.64.62-6.66.96-9.48l.02-.17v-.05s.01-.08.01-.08l-.28-.09s0,0,0,0c-6.38-2.13-13.25-3.24-20.42-3.28h-.4c-7.2-.04-14.09.98-20.49,3.05,0,0,0,0,0,0l-.28.09v.07s.01.05.01.05l.02.17c.31,2.81.58,5.82.84,9.49v.09c.07,1.94.12,4.22.16,6.78-.01.02-.02.04-.03.05-.34.57-.52,1.2-.53,1.84s.15,1.18.43,1.71c.05.09.1.19.16.28,0,.01.02.03.03.04.54.81,1.39,1.46,2.41,1.83.6.21,1.26.34,1.95.34l30.44.17Zm-35.12-22.41c6.25-1.98,12.98-2.97,19.99-2.93h.4c6.99.04,13.69,1.1,19.92,3.15-.33,2.73-.62,5.64-.91,9.12l-.02.13c-.09,2.11-.18,4.62-.24,7.46v.08s.03.07.03.07c.17.38.26.78.26,1.18,0,.43-.11.85-.31,1.26l-.04.22h-.08s-.11.16-.11.16c-.76,1.11-2.21,1.8-3.78,1.79l-30.44-.17c-2.37-.01-4.28-1.57-4.27-3.47,0-.56.17-1.1.5-1.59l.06-.09v-.11c-.04-2.65-.09-5-.15-6.98v-.12s-.02-.02-.02-.02c-.25-3.51-.51-6.42-.81-9.14Z"/>
      <path class="cls-6" d="m9.27,163.15c0,.33.24.6.54.6s.54-.26.54-.59l.12-20.9c-.35,0-.71-.02-1.08-.05l-.12,20.94Z"/>
      <path class="cls-6" d="m10.63,110.8l.09-16.62c0-.33-.24-.6-.53-.6s-.54.26-.54.59l-.09,16.48c.25.02.5.05.75.09.11.02.22.04.33.06Z"/>
      <path class="cls-6" d="m13.69,141.52l-.12,21.65c0,.33.24.6.54.6s.54-.26.54-.59l.12-22.18s-.02.01-.03.02c-.36.19-.7.36-1.05.51Z"/>
      <path class="cls-6" d="m15.03,94.21c0-.33-.24-.6-.53-.6s-.54.26-.54.59l-.1,17.45c.39.24.75.55,1.07.89l.1-18.34Z"/>
      <path class="cls-6" d="m18.42,163.79c.3,0,.54-.26.54-.59l.38-68.96c0-.33-.24-.6-.54-.6s-.54.26-.54.59l-.38,68.96c0,.33.24.6.53.6Z"/>
      <path class="cls-6" d="m22.73,163.81c.3,0,.54-.26.54-.59l.38-68.96c0-.33-.24-.6-.54-.6s-.54.26-.54.59l-.38,68.96c0,.33.24.6.54.6Z"/>
      <path class="cls-6" d="m27.03,163.84c.3,0,.54-.26.54-.59l.38-68.96c0-.33-.24-.6-.54-.6s-.54.26-.54.59l-.38,68.96c0,.33.24.6.53.6Z"/>
      <path class="cls-6" d="m31.34,163.86c.3,0,.54-.26.54-.59l.38-68.96c0-.33-.24-.6-.54-.6s-.54.26-.54.59l-.38,68.96c0,.33.24.6.53.6Z"/>
      <path class="cls-6" d="m35.65,163.89c.3,0,.54-.26.54-.59l.38-68.96c0-.33-.24-.6-.53-.6s-.54.26-.54.59l-.38,68.96c0,.33.24.6.54.6Z"/>
      <path class="cls-6" d="m39.96,163.91c.3,0,.54-.26.54-.59l.38-68.96c0-.33-.24-.6-.54-.6s-.54.26-.54.59l-.38,68.96c0,.33.24.6.54.6Z"/>
      <path class="cls-6" d="m44.27,163.93c.3,0,.54-.26.54-.59l.38-68.96c0-.33-.24-.6-.54-.6s-.54.26-.54.59l-.38,68.96c0,.33.24.6.54.6Z"/>
      <path class="cls-6" d="m48.57,163.96c.3,0,.54-.26.54-.59l.38-68.96c0-.33-.24-.6-.53-.6s-.54.26-.54.59l-.38,68.96c0,.33.24.6.54.6Z"/>
      <path class="cls-6" d="m52.88,163.98c.3,0,.54-.26.54-.59l.38-68.96c0-.33-.24-.6-.53-.6s-.54.26-.54.59l-.38,68.96c0,.33.24.6.53.6Z"/>
      <path class="cls-6" d="m57.19,164c.3,0,.54-.26.54-.59l.38-68.96c0-.33-.24-.6-.54-.6s-.54.26-.54.59l-.38,68.96c0,.33.24.6.53.6Z"/>
      <path class="cls-6" d="m61.5,164.03c.3,0,.54-.26.54-.59l.12-21.02c-.38-.17-.74-.37-1.07-.62l-.12,21.63c0,.33.24.6.54.6Z"/>
      <path class="cls-6" d="m62.42,94.47c0-.33-.24-.6-.54-.6s-.54.26-.54.59l-.11,19.5c.32-.35.69-.65,1.08-.93l.1-18.56Z"/>
      <path class="cls-6" d="m65.8,164.05c.3,0,.54-.26.54-.59l.11-20.73c-.35.1-.71.16-1.08.19l-.11,20.53c0,.33.24.6.53.6Z"/>
      <path class="cls-6" d="m66.73,94.5c0-.33-.24-.6-.54-.6s-.54.26-.54.59l-.1,17.25c.34-.06.7-.1,1.08-.13l.09-17.12Z"/>
    </g>
  </g>
</svg>