<?xml version="1.0" encoding="UTF-8"?>
<svg id="Layer_2" data-name="Layer 2" xmlns="http://www.w3.org/2000/svg" viewBox="0 0 80.64 133.9">
  <defs>
    <style>
      .cls-1 {
        fill: #fff;
      }

      .cls-2 {
        fill: #f15a2c;
      }

      .cls-3 {
        fill: #caccd2;
      }

      .cls-4 {
        fill: #78942c;
      }

      .cls-5 {
        fill: #bfd8dd;
      }

      .cls-6 {
        fill: #9ec73f;
      }

      .cls-7 {
        fill: #91a22c;
      }

      .cls-8 {
        fill: #bb1e30;
      }

      .cls-9 {
        fill: #91a9bc;
      }

      .cls-10 {
        fill: #d3e264;
      }

      .cls-11 {
        fill: #738293;
      }

      .cls-12 {
        fill: #d8e6ec;
      }
    </style>
  </defs>
  <g id="Layer_2-2" data-name="Layer 2">
    <g>
      <path class="cls-3" d="m.69,52.88c.65,0,1.8-.3,3.14-.65.5-.13,1.03-.27,1.57-.4.52-.13.98-.26,1.38-.4l-.33,74.68c0,1.48,4.65,5.5,6.39,5.5l53.45.24c1.74,0,6.43-3.96,6.44-5.45l.33-74.68c.4.14.85.28,1.38.41.54.14,1.06.28,1.56.41,1.34.36,2.49.67,3.14.67.6,0,.69-.28.69-.44,0-2.16-1.95-4.44-5.23-6.1-.57-.29-1.07-.5-1.51-.66l.15-33.8c0-1.4-2.31-5.87-5.99-7.72l-.04-.02c-.19-.04-17.43-4.87-26.7-4.47h-.71C27.91-.09,13.24,4.21,13.05,4.26l-.04.02c-3.69,1.81-6.05,6.27-6.06,7.66l-.15,33.8c-.44.15-.94.36-1.51.64C1.99,48.01,0,50.27,0,52.43c0,.16.09.44.69.45Z"/>
      <path d="m6.19,59.21c.77-.3,3.72-1.08,3.84-1.11l-.29,68.69c-.01,2.49,5.24,6.9,7.61,6.91l49.1.22c2.37.01,7.66-4.35,7.67-6.84l.17-68.69c.13.04,2.34.83,3.71,1.15,1.53.35,2.64.01,2.65-1.07.01-2.73-2.09-5.38-5.77-7.27-.14-.07-.28-.14-.42-.21l.14-30.69c0-2.21-2.7-6.87-6.46-8.78l-.54-.19c-3.56-.98-15.8-4.17-23.63-4.2-.42,0-.83,0-1.22.02h-.84s0,0,0,0c-9.72-.04-21.32,3.03-24.65,3.97l-.13.04h0s-.38.14-.38.14c-3.78,1.88-6.53,6.52-6.54,8.72l-.14,30.69c-.14.06-.28.13-.42.21-3.69,1.85-5.82,4.48-5.83,7.21,0,1.08.84,1.69,2.37,1.09Z"/>
      <g>
        <g>
          <path class="cls-6" d="m72.27,51.93c-.42,0-.9.13-.9,1.14,0,.06,0,.12-.01.18,0,.67-.01,1.39-.02,2.18.2.49.69.94,1.76,1.38l.34.13c.39.14.85.28,1.38.42.51.13,1,.27,1.47.39,1.23.33,2.3.62,2.86.62.31,0,.31-.08.31-.11,0-1.49-1.24-3.72-4.75-5.5-.47-.24-.89-.43-1.26-.56,0,0-.95-.27-1.18-.27Z"/>
          <path class="cls-6" d="m5.32,58.05c.56,0,1.63-.28,2.86-.6.47-.12.97-.25,1.48-.38.54-.13.99-.27,1.39-.41h0c.09-.03.17-.06.26-.12,0,0,.01,0,.02-.01.02,0,.04-.02.06-.03v.03c1.07-.42,1.56-.88,1.77-1.37,0-.78,0-1.51,0-2.18,0-.06,0-.12,0-.18,0-1.01-.47-1.14-.89-1.14-.17,0-.37.03-.59.08-.22,0-.44.04-.63.15-.04,0-.07.02-.11.03-.18.07-.34.14-.48.25-.2.09-.41.19-.64.3-3.53,1.75-4.79,3.97-4.8,5.46,0,.04,0,.12.31.12Z"/>
          <g>
            <path class="cls-5" d="m18.06,50.56c.25,1.03.5,2.1.69,3.12.3,1.62.5,3.05.67,4.31,1.17,8.4,1.27,9.09,22.6,9.27.06,0,.11,0,.17,0s.11,0,.17,0c21.33,0,21.44-.68,22.68-9.07.19-1.26.4-2.68.71-4.31.2-1.02.46-2.08.72-3.12,1.04-4.21,2.12-8.57-.74-11.83-3.15-3.6-10.81-5.4-23.39-5.51-12.58,0-20.25,1.73-23.44,5.3-2.88,3.24-1.85,7.6-.84,11.83Z"/>
            <path class="cls-12" d="m40.04,60.18c-3.34-.36-5.88-.98-8.94-2.25-1.53-.64-2.94-1.47-4.2-2.43-4.51-3.19-7.76-7.98-8.65-13.18-.39,2.46.26,5.19.89,7.87.24,1.01.49,2.05.67,3.05.29,1.59.48,2.98.65,4.21,1.14,8.21,1.23,8.88,21.92,9.06.06,0,.11,0,.16,0s.11,0,.16,0c20.69,0,20.79-.67,22-8.87.18-1.23.39-2.63.69-4.21.19-1,.45-2.04.69-3.05.74-3.03,1.51-6.14.75-8.84.4,6.53-4.48,12.75-11.03,15.55-2.96,1.26-5.98,2.34-9.23,2.76-2.21.29-4.31.58-6.54.34Z"/>
            <path class="cls-1" d="m20.6,51.85c.21.68.59,4.13.76,4.8.27,1.07.45,2,.61,2.83,1.06,5.52,1.15,5.97,20.36,6.11h.15c.05,0,.1,0,.15,0,19.21.02,19.3-.42,20.41-5.93.17-.83.36-1.76.63-2.83.18-.67.41-1.37.64-2.04.43-1.28.87-2.57.96-3.81-.4.52-2.87,5.59-6.78,7.23-9.24,3.86-16.28,3.3-18.35,3.14-3.1-.25-5.46-.66-8.3-1.52-1.43-.43-2.73-.99-3.9-1.64-4.19-2.15-7.35-6.33-7.35-6.33Z"/>
          </g>
          <path class="cls-9" d="m64.48,116.28c.9-.39,4.7-9.16,4.72-14.14,0-1.03.02-1.97.03-2.83.05-2.78.08-4.8-.35-5.19-.04-.04-.08-.05-.12-.05-.22,0-.57-.03-.97-.07-.54-.05-1.21-.12-1.78-.12-.81,0-1.26.12-1.3.35-.81,5.02-.97,21.04-.24,22.07Z"/>
          <path class="cls-12" d="m15.53,29.17c3.45.02,10.61-10.88,10.63-14.13,0-.75-.34-1.06-1.18-1.06-.71,0-1.73.22-2.9.48-.37.08-.76.17-1.17.25-.88.18-3.81,1.54-5.52,4.33-1.03,1.68-2.52,7.35-1.2,9.41.31.48.75.72,1.33.72Z"/>
          <path class="cls-12" d="m69.19,29.4c.58,0,1.02-.23,1.34-.71,1.35-2.05-.1-7.74-1.11-9.42-1.68-2.8-4.6-4.18-5.48-4.37-.41-.09-.8-.18-1.17-.26-1.17-.27-2.18-.5-2.89-.5-.84,0-1.18.3-1.19,1.05-.01,3.25,7.05,14.21,10.5,14.22Z"/>
          <path class="cls-5" d="m60.79,125.58c-1.02-1.45-2.08-2.95-18.84-3.28-16.76.18-17.84,1.67-18.87,3.11-.09.13-.19.26-.29.39-.81,1.01-1.03,1.87-.65,2.55,1.47,2.63,11.48,2.74,19.77,2.78,8.3.03,18.31.02,19.8-2.6.39-.68.18-1.54-.63-2.56-.1-.13-.19-.26-.29-.39Z"/>
          <path class="cls-6" d="m13.16,51.71c0-5.94.04-6.54.14-6.63l.05-.04h.07s.11,0,.11,0l.04.09c.74,1.52,3.03,15.23,4.61,26.58,1.81,12.95,2.03,17.48.91,18.63-.23.23-.52.35-.89.35-.54,0-1.21-.27-1.97-.57-.36-.14-.73-.29-1.12-.43-2.16-.75-2.1-6.98-2.01-16.41.01-1.38.03-2.83.03-4.32.02-4.06.02-8.33.01-12.1,0-.38,0-.74,0-1.1-.33.38-.88.75-1.77,1.1l-.31,70.77c0,1.23,4.24,4.9,5.68,4.9l24.82.11h.67s24.82.11,24.82.11c1.44,0,5.72-3.62,5.72-4.85l.31-70.77c-.89-.35-1.43-.72-1.76-1.11,0,.36,0,.72-.01,1.1-.03,3.77-.07,8.04-.09,12.1,0,1.49,0,2.94,0,4.32,0,9.43,0,15.66-2.16,16.39-.4.13-.77.28-1.13.42-.77.3-1.43.55-1.97.55-.37,0-.65-.12-.88-.35-1.11-1.16-.85-5.69,1.07-18.62,1.69-11.34,4.09-25.03,4.85-26.54l.04-.09h.12s.07,0,.07,0l.05.05c.1.09.13.69.08,6.64.21-.23.51-.34.9-.34.24,0,.52.05.85.14l.14-32.25c0-1.27-2.1-5.33-5.44-7.02-.72-.16-18.12-3.99-25.36-4.23-7.24.17-24.67,3.85-25.4,4.01-3.36,1.67-5.5,5.71-5.5,6.98l-.14,32.25c.32-.09.61-.13.85-.13.4,0,.7.12.9.35Zm1.87,41.95c.1-.09.22-.14.36-.14.21,0,.54-.03.94-.06.54-.05,1.22-.11,1.81-.11.66,0,1.54.07,1.62.62.75,4.91.85,21.39-.06,22.34-.07.07-.15.09-.2.09-1.19,0-4.98-9.6-4.96-14.5,0-1.03,0-1.97,0-2.83-.02-3.07-.04-4.93.49-5.41Zm2.43,35.69c-2.19,0-4.47-4.67-4.46-6.73v-.08s.08-.05.08-.05c.13-.07,3.11-1.83,5.14-1.83h3.78s0,.16,0,.16c0,2.14-2.37,8.54-4.53,8.53Zm44.55-.68c-1.56,2.75-11.06,2.8-19.76,2.77h-.34c-.11,0-.22,0-.34,0h0c-8.7-.04-18.2-.18-19.74-2.94-.44-.79-.21-1.76.68-2.87.1-.12.19-.25.28-.38,1.13-1.57,2.2-3.05,18.82-3.24h0c.11,0,.22,0,.34,0,.11,0,.22,0,.34,0h0c16.62.36,17.68,1.84,18.79,3.42.09.13.18.25.28.38.88,1.12,1.1,2.08.65,2.87Zm8.9-5.87v.08c0,2.05-2.33,6.7-4.52,6.69s-4.46-6.43-4.46-8.57v-.15s3.78.03,3.78.03c2.02.02,5,1.8,5.12,1.88l.07.05Zm-4.89-29.23c.59,0,1.27.07,1.81.12.39.04.73.07.93.07.14,0,.26.05.36.14.53.49.5,2.34.45,5.41-.01.86-.03,1.81-.03,2.83-.02,4.9-3.9,14.46-5.09,14.46-.05,0-.13-.02-.2-.09-.9-.95-.66-17.43.13-22.34.09-.55.97-.61,1.63-.61Zm-6.14-79.73c.76,0,1.78.24,2.97.51.37.09.76.17,1.16.26,1.07.23,4,1.7,5.69,4.53,1.07,1.78,2.53,7.55,1.11,9.72-.38.57-.92.86-1.63.86-3.69-.02-10.85-11.11-10.84-14.53,0-.91.5-1.36,1.52-1.35Zm-17.87,19.3c.11,0,.22,0,.34,0s.22,0,.34,0h0c12.49.14,20.12,1.98,23.32,5.62,2.96,3.38,1.86,7.81.8,12.09-.25,1.03-.52,2.09-.71,3.1-.31,1.61-.52,3.04-.71,4.29-1.25,8.43-1.39,9.33-22.85,9.33h0c-.11,0-.22,0-.34,0s-.22,0-.34,0h0c-21.46-.19-21.59-1.1-22.77-9.54-.17-1.26-.37-2.68-.67-4.3-.19-1.01-.44-2.08-.68-3.11-1.02-4.29-2.08-8.73.91-12.08,3.22-3.62,10.87-5.39,23.37-5.41h0Zm-26.9-14.24c1.72-2.81,4.66-4.25,5.73-4.47.4-.08.79-.17,1.17-.25,1.19-.26,2.22-.49,2.98-.48,1.02,0,1.51.45,1.51,1.37-.02,3.42-7.27,14.45-10.96,14.43-.7,0-1.25-.3-1.62-.88-1.41-2.19.11-7.94,1.19-9.71Z"/>
          <path class="cls-4" d="m42.78,11.46c11.87.05,21.64,2.62,28.65,5.19-5.24-4.32-16.15-7.32-28.79-7.37-11.83-.05-22.18,2.49-27.78,6.32,6.94-2.04,17.34-4.18,27.91-4.14Z"/>
          <path class="cls-4" d="m13.45,85.12c.22,16.94.97,32.07,1.98,42.09-1.59-7.49-2.81-23.07-3.04-41.11-.22-16.89.49-31.64,1.72-39.62-.59,9.9-.86,23.56-.66,38.64Z"/>
          <path class="cls-4" d="m71.33,85.38c-.37,16.94-1.26,32.06-2.36,42.08,1.65-7.48,3.01-23.05,3.4-41.08.37-16.88-.21-31.64-1.37-39.64.5,9.9.65,23.56.32,38.64Z"/>
          <g>
            <path class="cls-8" d="m62.27,121.15c.09,2.32,2.36,8.1,4.12,8.11s4.12-4.21,4.19-6.3c-.48-.28-3.11-1.77-4.86-1.78l-3.44-.03Z"/>
            <path class="cls-8" d="m13.32,122.7c.05,2.09,2.33,6.33,4.13,6.34s4.08-5.75,4.19-8.07h-3.44c-1.75,0-4.39,1.46-4.88,1.73Z"/>
            <path class="cls-2" d="m64.93,125.81c-.31.28-.64.53-.98.77.75,1.49,1.64,2.66,2.44,2.67,1.8,0,4.12-4.21,4.19-6.3-.32-.19-1.61-.92-2.95-1.38-.46,1.59-1.38,3.07-2.69,4.24Z"/>
            <path class="cls-2" d="m18.72,125.61c-1.27-1.17-2.17-2.62-2.63-4.19-1.27.45-2.46,1.11-2.76,1.29.05,2.09,2.33,6.33,4.13,6.34.77,0,1.65-1.1,2.4-2.53-.4-.27-.78-.57-1.14-.9Z"/>
          </g>
          <path class="cls-4" d="m41.4,131.74c10.9.05,20.65-.39,27.11-1.11-4.84,1.25-14.88,2.08-26.49,2.02-10.87-.05-20.36-.86-25.48-2.02,6.36.64,15.15,1.06,24.86,1.1Z"/>
          <path class="cls-9" d="m15.24,89.41c.41.14.78.29,1.14.43.73.29,1.36.54,1.84.55.27,0,.47-.08.63-.24,1.03-1.06.78-5.7-.99-18.39-1.43-10.23-3.42-22.35-4.33-25.72-.03,1.24-.04,3.82-.04,6.95.01.22.03.44.06.66.07.53.14,1.06-.06,1.58,0,.54,0,1.09,0,1.64,0,3.77,0,8.04-.02,12.1,0,1.49-.02,2.94-.03,4.32-.08,8.63-.14,15.45,1.8,16.12Z"/>
          <path class="cls-9" d="m71.02,53.23c.03-3.14.04-5.71.02-6.95-.94,3.36-3.04,15.47-4.56,25.68-1.88,12.67-2.17,17.31-1.15,18.38.16.17.36.25.63.25.48,0,1.11-.24,1.84-.53.36-.14.74-.28,1.14-.42,1.95-.66,1.94-7.47,1.94-16.1,0-1.38,0-2.83,0-4.32.02-4.06.06-8.33.09-12.1,0-.55.01-1.1.02-1.64-.2-.52-.12-1.05-.05-1.58.03-.22.06-.44.07-.66Z"/>
          <path class="cls-9" d="m14.87,101.9c-.02,4.98,3.7,13.79,4.6,14.18.74-1.02.72-17.04-.04-22.07-.04-.23-.48-.36-1.29-.36-.57,0-1.24.06-1.78.1-.4.04-.75.07-.97.06-.05,0-.08.02-.12.05-.43.39-.42,2.41-.4,5.19,0,.86.01,1.81,0,2.84Z"/>
          <path class="cls-5" d="m64.48,116.28c.58-.25,2.36-3.97,3.56-7.92-1.14-4.72-1.48-9.59-1.41-14.47-.21-.01-.42-.02-.61-.02-.81,0-1.26.12-1.3.35-.81,5.02-.97,21.04-.24,22.07Z"/>
          <path class="cls-5" d="m13.95,52.86c.02,2.54.27,5.06.6,7.58,1.26,8.2,3.06,16.31,3.29,24.62.05,1.75.05,3.51,0,5.27.14.03.27.05.39.05.27,0,.47-.08.63-.24,1.03-1.06.78-5.7-.99-18.39-1.41-10.09-3.36-22.03-4.29-25.58.35,2.21.36,4.49.38,6.69Z"/>
          <path class="cls-5" d="m65.33,90.35c.16.17.36.25.63.25.23,0,.49-.06.78-.14.1-2.05.26-4.1.45-6.13.48-5.19,1.04-10.38,1.74-15.54.88-6.44,1.86-12.88,2.11-19.38,0-1.36,0-2.44,0-3.13-.94,3.36-3.04,15.47-4.56,25.68-1.88,12.67-2.17,17.31-1.15,18.38Z"/>
          <path class="cls-5" d="m15.67,107.02c1.14,4.34,3.17,8.79,3.8,9.07.74-1.02.72-17.04-.04-22.07-.04-.23-.48-.36-1.29-.36-.15,0-.31,0-.47,0-.3,4.49-.95,8.97-2,13.35Z"/>
          <path d="m69.19,29.71c.7,0,1.25-.29,1.63-.86,1.43-2.17-.04-7.94-1.11-9.72-1.7-2.83-4.62-4.29-5.69-4.53-.4-.09-.79-.18-1.16-.26-1.19-.27-2.22-.51-2.97-.51-1.02,0-1.52.44-1.52,1.35-.02,3.42,7.14,14.51,10.84,14.53Zm-9.32-15.58c.71,0,1.72.23,2.89.5.37.09.76.17,1.17.26.88.19,3.8,1.58,5.48,4.37,1.01,1.68,2.46,7.37,1.11,9.42-.32.48-.75.71-1.34.71-3.46-.02-10.52-10.97-10.5-14.22,0-.75.35-1.05,1.19-1.05Z"/>
          <path d="m18.64,38.54c-2.99,3.35-1.93,7.79-.91,12.08.24,1.03.5,2.1.68,3.11.3,1.62.5,3.04.67,4.3,1.18,8.44,1.31,9.35,22.77,9.54h0c.11,0,.22,0,.34,0s.22,0,.34,0h0c21.46,0,21.59-.9,22.85-9.34.19-1.26.4-2.68.71-4.29.19-1.01.46-2.08.71-3.1,1.06-4.28,2.16-8.71-.8-12.09-3.19-3.65-10.83-5.49-23.32-5.62h0c-.11,0-.22,0-.34,0s-.22,0-.34,0h0c-12.49.03-20.14,1.8-23.37,5.42Zm23.7-5.11c12.58.1,20.24,1.91,23.39,5.51,2.86,3.26,1.78,7.62.74,11.83-.26,1.03-.52,2.1-.72,3.12-.31,1.62-.52,3.05-.71,4.31-1.25,8.39-1.35,9.08-22.68,9.07-.06,0-.11,0-.17,0s-.11,0-.17,0c-21.33-.18-21.43-.87-22.6-9.27-.18-1.26-.38-2.69-.67-4.31-.19-1.02-.44-2.09-.69-3.12-1.01-4.22-2.05-8.59.84-11.83,3.19-3.57,10.86-5.31,23.44-5.3Z"/>
          <path d="m64.25,116.51c.07.07.14.09.2.09,1.19,0,5.07-9.55,5.09-14.46,0-1.03.02-1.97.03-2.83.05-3.07.08-4.92-.45-5.41-.1-.1-.22-.14-.36-.14-.21,0-.54-.03-.93-.07-.54-.05-1.22-.12-1.81-.12-.66,0-1.54.06-1.63.61-.79,4.91-1.04,21.38-.13,22.34Zm.47-22.29c.04-.23.49-.35,1.3-.35.57,0,1.24.07,1.78.12.4.04.75.07.97.07.05,0,.08.02.12.05.43.4.39,2.41.35,5.19-.01.86-.03,1.81-.03,2.83-.02,4.98-3.82,13.75-4.72,14.14-.74-1.03-.57-17.05.24-22.07Z"/>
          <path d="m61.08,125.41c-1.11-1.58-2.17-3.06-18.79-3.41h0c-.11,0-.22,0-.34,0-.11,0-.22,0-.34,0h0c-16.62.21-17.69,1.69-18.82,3.25-.09.13-.18.25-.28.38-.89,1.11-1.12,2.08-.68,2.87,1.54,2.77,11.04,2.9,19.74,2.94h.34c.11,0,.22,0,.34,0h0c8.7.04,18.2-.02,19.76-2.77.45-.79.23-1.76-.65-2.87-.1-.13-.19-.25-.28-.38Zm.63,3.12c-1.49,2.62-11.5,2.64-19.8,2.6-8.29-.04-18.31-.14-19.77-2.78-.38-.68-.16-1.54.65-2.55.1-.13.2-.26.29-.39,1.04-1.44,2.11-2.93,18.87-3.11,16.76.33,17.82,1.83,18.84,3.28.09.13.18.26.29.39.8,1.02,1.01,1.88.63,2.56Z"/>
          <path d="m61.93,120.84v.15c-.01,2.14,2.3,8.56,4.45,8.57s4.51-4.63,4.52-6.69v-.08s-.07-.05-.07-.05c-.13-.08-3.1-1.86-5.12-1.88l-3.78-.03Zm4.46,8.42c-1.76,0-4.03-5.79-4.12-8.11l3.44.03c1.75.01,4.38,1.5,4.86,1.78-.07,2.09-2.38,6.31-4.19,6.3Z"/>
          <path d="m15.53,29.47c3.69.02,10.95-11.01,10.96-14.43,0-.91-.49-1.36-1.51-1.37-.76,0-1.78.22-2.98.48-.37.08-.76.17-1.17.25-1.07.22-4.01,1.66-5.73,4.47-1.08,1.77-2.6,7.53-1.19,9.71.37.58.92.87,1.62.88Zm-.13-10.44c1.7-2.78,4.64-4.14,5.52-4.33.41-.08.8-.17,1.17-.25,1.17-.26,2.18-.48,2.9-.48.84,0,1.18.31,1.18,1.06-.01,3.25-7.17,14.14-10.63,14.13-.58,0-1.02-.24-1.33-.72-1.33-2.06.17-7.74,1.2-9.41Z"/>
          <path d="m5.32,58.35c.61,0,1.7-.28,2.96-.61.47-.12.97-.25,1.47-.38.49-.12.92-.25,1.3-.38l-.31,70.65c0,1.4,4.38,5.2,6.01,5.21l50.31.22c1.64,0,6.05-3.75,6.06-5.16l.31-70.65c.38.13.8.26,1.29.39.51.13,1,.26,1.47.39,1.26.34,2.34.64,2.95.64.57,0,.65-.26.65-.42,0-2.04-1.83-4.2-4.92-5.77-.54-.27-1.01-.48-1.42-.62l.14-32.36c0-1.32-2.18-5.56-5.64-7.3h-.04c-.18-.05-16.41-4.62-25.13-4.24h-.67c-11.18-.11-24.98,3.97-25.16,4h-.04c-3.48,1.73-5.69,5.94-5.7,7.27l-.14,32.36c-.41.14-.89.34-1.43.61-3.11,1.54-4.97,3.68-4.97,5.72,0,.16.08.42.65.42Zm69.39-5.59c3.51,1.78,4.76,4.01,4.75,5.5,0,.04,0,.12-.31.11-.56,0-1.62-.29-2.86-.62-.47-.13-.97-.26-1.47-.39-.54-.14-.99-.28-1.38-.42l-.34-.13c-1.06-.43-1.55-.89-1.76-1.38,0-.79.01-1.51.02-2.18,0-.06.01-.12.01-.18,0-1.01.48-1.14.9-1.14.23,0,.52.05.85.15,0,0,1.12.43,1.59.67ZM11.55,19.24c0-1.27,2.15-5.31,5.5-6.98.73-.16,15.23-4.06,25.4-3.7,10.62.05,24.64,3.76,25.36,3.93,3.34,1.7,5.45,5.76,5.44,7.02l-.14,32.25c-.32-.09-.6-.14-.85-.14-.4,0-.7.11-.9.34.05-5.94.02-6.54-.08-6.64l-.05-.05h-.07s-.12,0-.12,0l-.04.09c-.75,1.51-3.16,15.2-4.85,26.54-1.92,12.94-2.18,17.46-1.07,18.62.23.24.52.35.88.35.55,0,1.21-.25,1.97-.55.36-.14.73-.28,1.13-.42,2.17-.73,2.16-6.96,2.16-16.39,0-1.38,0-2.83,0-4.32.02-4.06.06-8.33.09-12.1,0-.38,0-.74.01-1.1.33.39.87.76,1.76,1.11l-.31,70.77c0,1.23-4.28,4.86-5.72,4.85l-24.82-.11h-.67s-24.82-.11-24.82-.11c-1.44,0-5.68-3.67-5.68-4.9l.31-70.77c.89-.34,1.44-.71,1.77-1.1,0,.36,0,.72,0,1.1,0,3.77,0,8.04-.01,12.1,0,1.49-.02,2.94-.03,4.32-.09,9.43-.15,15.66,2.01,16.41.4.14.77.28,1.12.43.76.3,1.42.57,1.97.57.37,0,.66-.11.89-.35,1.12-1.15.9-5.68-.91-18.63-1.59-11.36-3.87-25.07-4.61-26.58l-.04-.09h-.11s-.07,0-.07,0l-.05.04c-.1.09-.14.69-.14,6.63-.21-.23-.5-.35-.9-.35-.24,0-.52.04-.85.13l.14-32.25Zm59.45,36.23c0,.54-.01,1.09-.02,1.64-.03,3.77-.07,8.04-.09,12.1,0,1.49,0,2.94,0,4.32,0,8.63,0,15.45-1.94,16.1-.41.14-.78.28-1.14.42-.73.29-1.37.53-1.84.53-.27,0-.47-.08-.63-.25-1.02-1.07-.73-5.71,1.15-18.38,1.52-10.21,3.61-22.32,4.56-25.68.02,1.24,0,3.81-.02,6.95-.01.22-.04.45-.07.66-.07.53-.15,1.06.05,1.58Zm-57.51,1.39c0-.56,0-1.1,0-1.64.2-.52.13-1.05.06-1.58-.03-.22-.05-.44-.06-.66,0-3.14,0-5.71.04-6.95.91,3.37,2.9,15.5,4.33,25.72,1.77,12.69,2.02,17.33.99,18.39-.16.17-.36.25-.63.24-.48,0-1.11-.25-1.84-.55-.36-.14-.73-.29-1.14-.43-1.94-.67-1.88-7.49-1.8-16.12.01-1.38.03-2.83.03-4.32.02-4.06.02-8.33.02-12.1Zm-3.68-4.39c.23-.11.44-.21.64-.3.14-.1.29-.18.48-.25.04-.01.07-.02.11-.03.19-.11.41-.15.63-.15.22-.05.42-.08.59-.08.42,0,.9.13.89,1.14,0,.06,0,.12,0,.18,0,.67,0,1.39,0,2.18-.21.49-.7.94-1.77,1.37v-.03s-.04.02-.06.03c0,0-.01,0-.02.01-.09.05-.17.09-.26.12h0c-.39.14-.85.28-1.39.41-.51.12-1.01.26-1.48.38-1.24.32-2.3.6-2.86.6-.31,0-.31-.08-.31-.12,0-1.49,1.27-3.71,4.8-5.46Z"/>
          <path d="m14.54,101.9c-.02,4.9,3.77,14.49,4.96,14.5.05,0,.13-.01.2-.09.91-.95.81-17.43.06-22.34-.08-.55-.97-.62-1.62-.62-.59,0-1.27.06-1.81.11-.39.03-.73.06-.94.06-.14,0-.26.05-.36.14-.53.48-.52,2.34-.49,5.41,0,.86.01,1.81,0,2.83Zm.72-8.02s.08-.05.12-.05c.22,0,.57-.03.97-.06.54-.05,1.21-.11,1.78-.1.81,0,1.26.13,1.29.36.77,5.02.79,21.04.04,22.07-.89-.4-4.62-9.2-4.6-14.18,0-1.03,0-1.97,0-2.84-.02-2.79-.04-4.8.4-5.19Z"/>
          <path d="m21.98,120.66h-3.78c-2.02,0-5.01,1.75-5.14,1.83l-.08.05v.08c0,2.05,2.27,6.72,4.46,6.73,2.16,0,4.52-6.39,4.53-8.53v-.15Zm-4.53,8.38c-1.8,0-4.08-4.24-4.13-6.34.48-.28,3.13-1.74,4.88-1.74h3.44c-.11,2.32-2.43,8.08-4.19,8.07Z"/>
        </g>
        <g>
          <path class="cls-1" d="m62.13,16.79c1.01-.97,3.44-.36,5.43,1.35,1.99,1.71,2.79,3.88,1.78,4.85-1.01.97-3.44.36-5.43-1.35-1.99-1.71-2.79-3.88-1.78-4.85Z"/>
          <path class="cls-9" d="m64.81,23.97c-1.98-2.73-3.41-5.22-3.71-6.37-.3-.22-.52-.31-.64-.24-.49.29,1.09,3.25,3.53,6.6,2.43,3.36,4.8,5.84,5.29,5.55.07-.04.09-.13.09-.26-1.1-.92-2.81-2.89-4.55-5.28Z"/>
        </g>
        <g>
          <path class="cls-1" d="m22.55,16.62c-1-.98-3.43-.39-5.44,1.3-2.01,1.69-2.83,3.86-1.83,4.84,1,.98,3.43.4,5.44-1.3,2.01-1.69,2.83-3.86,1.83-4.83Z"/>
          <path class="cls-9" d="m19.81,23.77c2-2.71,3.45-5.19,3.77-6.34.3-.22.53-.3.64-.23.48.3-1.12,3.24-3.58,6.57-2.46,3.33-4.85,5.8-5.33,5.5-.07-.04-.09-.13-.08-.26,1.11-.92,2.84-2.87,4.59-5.24Z"/>
        </g>
        <path class="cls-11" d="m41.66,36.52c9.31.04,17.62.98,23.13,2.41-4.11-2.4-12.67-4.08-22.58-4.12-9.28-.04-17.39,1.36-21.77,3.48,5.44-1.13,12.95-1.81,21.23-1.77Z"/>
        <path class="cls-12" d="m41.52,124.85c7.44.03,14.08.84,18.48,2.07-3.28-2.07-10.12-3.52-18.04-3.55-7.41-.03-13.89,1.18-17.4,3.01,4.35-.97,10.34-1.56,16.96-1.53Z"/>
        <path class="cls-10" d="m43.06,23.95c6.81.03,16.95.39,20.97,4.51-2.99-6.95-9.02-14.61-21.57-14.53-12.44.07-17.82,7.52-21.06,13.74,3.99-3.33,15.59-3.74,21.65-3.72Z"/>
        <path class="cls-7" d="m22.38,68.81c-.01-.31.22-.58.53-.59h0c.31-.01.57.23.59.54l2.36,51.15c.01.31-.22.58-.53.59h0c-.31.01-.57-.23-.58-.55l-2.36-51.16Z"/>
        <path class="cls-7" d="m61.65,68.98c.02-.31-.22-.58-.53-.59h0c-.31-.01-.57.23-.59.54l-2.81,51.13c-.02.31.22.58.53.59h0c.31.01.57-.23.59-.54l2.81-51.13Z"/>
        <path class="cls-10" d="m72.24,54.07c.37-.56,1.94-.32,3.51.54,1.57.85,2.55,2,2.18,2.56-.37.56-1.94.32-3.51-.54-1.57-.86-2.55-2-2.18-2.56Z"/>
        <path class="cls-10" d="m11.99,53.8c-.36-.56-1.94-.33-3.51.51-1.58.84-2.57,1.98-2.2,2.54.36.56,1.94.33,3.51-.51,1.58-.84,2.57-1.98,2.2-2.54Z"/>
        <path class="cls-10" d="m25.87,80.62c-.61-13.72,8.8-11.03,16.99-11,8.19.04,16.75-2.02,15.54,10.84-.53,5.64-1.31-6.11-15.89-6.83-16.52-.82-16.37,12.94-16.64,7Z"/>
      </g>
    </g>
  </g>
</svg>