<?xml version="1.0" encoding="UTF-8"?>
<svg id="Layer_2" data-name="Layer 2" xmlns="http://www.w3.org/2000/svg" viewBox="0 0 81.18 165.87">
  <defs>
    <style>
      .cls-1 {
        fill: #6196d6;
      }

      .cls-2 {
        fill: #fff;
      }

      .cls-3 {
        fill: #c2d3e1;
      }

      .cls-4 {
        fill: #be1e2d;
      }

      .cls-5 {
        fill: #2e6bb3;
      }

      .cls-6 {
        fill: #bfd8dd;
      }

      .cls-7 {
        fill: #6d6e71;
      }

      .cls-8 {
        fill: #f1f2f2;
      }

      .cls-9 {
        fill: #ed1c24;
      }

      .cls-10 {
        fill: #d1d3d4;
      }

      .cls-11 {
        fill: #ff5158;
      }

      .cls-12 {
        fill: #706a6a;
      }

      .cls-13 {
        fill: #231f20;
      }
    </style>
  </defs>
  <g id="Layer_2-2" data-name="Layer 2">
    <g>
      <path class="cls-10" d="m0,58.67l.43.95c.51.45,2.01-.4,2.01-.4.98-.46,2.38-1.11,3.94-1.79-.16,11.25-.52,46.82-.58,57.2-.37,7.1-.45,17.55.51,23.86-.03.13.54,3.54.75,5.12.35,2.52.66,3.56,1.24,6.06.19.84.38,1.79.49,1.89,1.18,3.12,3.66,5.67,6.55,6.72.14.12,15.77,1.78,22.09,1.83h.51s.45,0,.45,0h0c6.28-.02,13.73-.72,20.22-1.4.14.05,6.22-1.16,8.45-7.06.11-.11.2-.24.24-.39.79-2.44,1.15-5.04,1.51-7.56.22-1.56.45-3.18.77-4.71.03-.14.18-1.35.15-1.48.98-6.31.78-15.69.43-22.79-.02-10.37-.27-45.95-.39-57.2,1.56.69,2.96,1.35,3.94,1.81l.93.44s.75.52,1.2-.01c.17-.2.3-.97.3-.97.19-3.16-2.28-4.61-4.46-5.89-.69-.41-1.35-.79-1.9-1.21,0-1.04-.05-2.08-.1-3.08-.05-.93-.1-1.9-.1-2.84,0-.08,0-.16-.03-.23,1.29-5.28,1.12-10.89.95-16.32-.08-2.57-.16-5.23-.08-7.77v-.03c.53-6.03-2.72-11.88-9.68-17.39l-.14-.09C53.83.38,45.73.03,38.66,0h-.7s-.26,0-.26,0h0c-7.07,0-15.17.32-21.97,3.85l-.14.09c-6.98,5.49-10.25,11.33-9.74,17.36v.03c.07,2.55-.02,5.21-.11,7.78-.18,5.42-.37,11.03.9,16.32-.02.08-.03.15-.03.23,0,.94-.05,1.91-.11,2.84-.06,1-.12,2.03-.11,3.08-.55.42-1.21.81-1.9,1.21C2.3,54.06-.17,55.5,0,58.67Z"/>
      <g>
        <path class="cls-8" d="m43.1,71.86c-7.22-.03-14.13,1.01-20.56,3.11.33,2.82.61,5.85.88,9.5,0,0,0,.01,0,.02.23,6.14.32,15.17.27,27.6,0,0,0,0,0,0,.05,3.36-.02,6.94-.22,10.94,6.29,1.27,12.85,1.92,19.52,1.91,6.66.03,13.23-.59,19.52-1.85-.18-3.99-.24-7.57-.18-10.94,0,0,0,0,0,0,0-12.42.11-21.45.36-27.6,0,0,0,0,0-.02.29-3.66.58-6.68.91-9.5-6.42-2.12-13.34-3.19-20.53-3.18Z"/>
        <path class="cls-6" d="m63.28,128.88c-.24-1.79-.48-3.65-.69-5.46-6.19,1.23-12.63,1.85-19.18,1.85,0,0,0,0-.01,0-.14,0-.28,0-.42,0-.13,0-.26,0-.39,0,0,0,0,0-.01,0-6.55-.02-12.99-.66-19.18-1.91-.21,1.82-.46,3.67-.7,5.46-.57,4.23-1.16,8.6-1.33,12.88,6.82,2.13,14.08,3.2,21.6,3.19,7.51.03,14.77-1.02,21.59-3.12-.15-4.28-.72-8.66-1.28-12.89Z"/>
        <path class="cls-2" d="m44.24,130.95c6.33.26,13.81-1.65,16.46-5.12-5.52,2.57-9.72,2.95-16.48,3.12-6.45.16-11.43-.18-18.66-2.45,4.31,4.45,13.77,4.24,18.67,4.45Z"/>
        <path class="cls-8" d="m69.91,89.51l-.08.05c-1.37.77-2.92,1.64-4.64,2.15-.24.46-.19,1.04-.14,1.6,0,.04,0,.08.01.12.96-.17,3.82-1.11,5.95-1.82,1.02-.34,1.93-.64,2.52-.82-.09-12.22-.18-24.28-.24-28.89-.9-.38-1.83-.75-2.77-1.1-.03,2.69-.02,5.45-.02,8.13.02,6.8.04,13.83-.58,20.49v.09Z"/>
        <path class="cls-13" d="m36.62,162.69c.16.01,2.12.05,3.85.09,2.98.06,3.68.07,3.87.09h0c.42,0,.83,0,1.24,0,.09,0,.16,0,.18,0,.01,0,.02,0,.03,0,1.55.02,2.97.05,4.26.08,4.98.12,8.26.2,11.63-.87.47-.15.84-.63,1.06-1.34.18-1.9.44-3.98.72-6.17.54-4.28,1.1-8.7,1.11-12.45-6.72,2.06-13.86,3.1-21.24,3.1,0,0-.01,0-.02,0-.11,0-.22,0-.33,0-.11,0-.22,0-.33,0,0,0-.01,0-.02,0-7.39-.03-14.52-1.09-21.23-3.17,0,3.74.54,8.16,1.06,12.45.27,2.2.53,4.27.7,6.18.21.72.58,1.19,1.05,1.34,3.39,1.09,7.49,1.01,12.23.9-.02-.05-.03-.1,0-.15.04-.07.11-.1.18-.09Z"/>
        <path class="cls-6" d="m17.86,50.4c-.34.5-.35,1.12-.36,1.78,0,.31,0,.64-.05.94,0,0-.01.01-.01.02.71,2.82,1.32,5.79,1.91,8.66.88,4.3,1.8,8.75,3.09,12.84,6.36-2.08,13.2-3.13,20.32-3.13h0s0,0,.01,0c.04,0,.07,0,.11,0h.21c.07,0,.14,0,.21,0,.04,0,.07,0,.11,0h.01s0,0,0,0c7.12.02,13.95,1.1,20.31,3.2,1.3-4.09,2.23-8.53,3.13-12.83.6-2.87,1.22-5.83,1.94-8.65,0,0-.01-.01-.01-.02-.04-.31-.05-.63-.05-.94,0-.66-.01-1.28-.35-1.78,0-.01,0-.03,0-.05-7.01-4.7-15.95-7.28-25.24-7.28-9.29-.04-18.24,2.51-25.26,7.19,0,.02,0,.03,0,.05Z"/>
        <path class="cls-2" d="m28.03,70.54c6.49-.41,10.54-.18,14.37-.12,11.75-.43,21.33,4.3,22.08-4.65,1.07-3.04,2.23-9.2,2.92-12.33-1.74,3.7-3.74,12.83-9.25,13.72-6.87,1.11-11.66.93-19.68.68-5.71-.18-11.62.94-15.67-6.43-1.06-1.94-3.01-5.95-3.97-7.8.44,2.07,2.88,17.34,9.2,16.93Z"/>
        <path class="cls-6" d="m65.18,117.09s0,.02,0,.03c.6.71,1.11,1.5,1.6,2.27.41.64.83,1.31,1.3,1.91.25.08.55.04.84,0,.04-.96.09-1.93.14-2.9.37-7.81.75-15.89.59-23.7-.06,0-.12,0-.19.01-1.36.46-2.89.78-4.43.95l-.03,16.5s0,.01,0,.02c.03.58.01,1.17,0,1.74-.03,1.06-.06,2.15.19,3.16Z"/>
        <path class="cls-8" d="m69.14,126.46h.32s.02-.06.05-.07c.04-.02.08-.04.12-.03.07,0,.15.04.19.1,0,.01.04.03.05.05.02.01.02.03.03.05.2.04.39.1.58.16.53.17,1.04.34,1.54.08.07-.06.14-.13.21-.2.06-.06.11-.11.17-.16.43-.87.63-1.86.82-2.82.15-.78.32-1.58.61-2.32-.08-.07-.12-.18-.12-.29,0-5.01-.08-17.51-.17-29.9-.59.18-1.46.47-2.43.79-2.27.75-5.05,1.67-6.03,1.83-.05.35-.05.71-.04,1.09,0,.17,0,.34,0,.51,1.5-.16,2.99-.48,4.34-.93.1-.02.18-.03.26-.02.07,0,.13,0,.19.01h.15s0,.16,0,.16c.16,7.86-.22,16-.59,23.88-.05,1.02-.1,2.03-.14,3.04v.14s-.23.03-.23.03c-.35.05-.74.1-1.1-.03l-.04-.02-.03-.04c-.5-.63-.93-1.32-1.35-1.98-.44-.69-.89-1.4-1.4-2.03-.09.6-.04,1.27.16,1.88,0,.02,0,.03,0,.05,0,0,0,0,0,0,0,0,0,.02,0,.03,1.61,2.39,2.91,4.72,3.86,6.95.01,0,.03,0,.04.02Z"/>
        <path class="cls-6" d="m68.69,129.05c.04-.82.09-1.66.17-2.49,0,0,0-.01.01-.02-.89-2.1-2.1-4.29-3.59-6.53.2,4.46,1.5,8.89,2.98,13.4.26-1.42.35-2.91.43-4.37Z"/>
        <path class="cls-6" d="m69.88,60.56c-.3,1.25-.61,2.5-.92,3.74-1.61,6.5-3.28,13.23-3.66,20.03,0,0,.01.01.01.02.06.84,0,1.99-.08,3.2-.08,1.37-.17,2.78-.05,3.78,1.62-.49,3.09-1.3,4.4-2.04.61-6.62.59-13.61.57-20.37,0-2.72-.02-5.53.01-8.26-.09-.03-.18-.07-.28-.1Z"/>
        <path class="cls-8" d="m12.32,120.91c0,.11-.05.21-.12.29.28.74.44,1.54.6,2.32.19.96.38,1.96.81,2.83.06.05.11.11.17.16.07.07.14.13.21.2.5.26,1,.1,1.54-.08.19-.06.38-.12.58-.16.01-.02.01-.04.03-.05.02-.01.05-.04.05-.05.04-.07.12-.1.19-.1.04,0,.08.01.12.04.03.02.03.05.05.07h.32s.02-.01.04-.02c.95-2.23,2.26-4.56,3.88-6.94,0,0,0-.02,0-.03,0,0,0,0,0,0,0-.02-.01-.03,0-.05.2-.61.25-1.28.16-1.88-.52.63-.97,1.34-1.41,2.03-.42.66-.86,1.35-1.36,1.98l-.03.04-.04.02c-.36.13-.75.08-1.1.03l-.22-.03v-.14c-.05-1.01-.09-2.03-.14-3.04-.34-7.87-.7-16.01-.51-23.88v-.15s.16-.01.16-.01c.07,0,.14-.01.21-.01s.14,0,.22.02c1.37.46,2.87.78,4.36.95,0-.17,0-.35,0-.51,0-.38.01-.73-.04-1.09-.97-.16-3.76-1.09-6.02-1.85-.97-.32-1.84-.61-2.43-.8-.13,12.4-.24,24.9-.26,29.9Z"/>
        <path class="cls-6" d="m21.05,113.86c-.02-.57-.03-1.16,0-1.74,0,0-.01-.02-.01-.02l.03-16.5c-1.53-.17-3.07-.5-4.45-.97-.05,0-.11,0-.16,0-.18,7.8.17,15.88.52,23.7.04.97.09,1.94.13,2.9.29.04.58.07.83,0,.48-.61.9-1.27,1.31-1.91.49-.77,1-1.56,1.61-2.27,0,0,0-.02,0-.03.26-1.01.23-2.1.2-3.16Z"/>
        <path class="cls-6" d="m17.3,128.96c.07,1.46.16,2.95.42,4.37,1.5-4.51,2.81-8.94,3.02-13.39-1.49,2.24-2.71,4.43-3.61,6.52,0,0,0,.01.01.02.07.82.12,1.67.16,2.48Z"/>
        <path class="cls-12" d="m43.01,42.88s.02,0,.04,0h.09s.06,0,.09,0c.01,0,.03,0,.04,0,.08,0,.17,0,.25,0,0,0,0,0,0,0,9.13.07,17.91,2.62,24.84,7.22-.08-.63-.35-1.18-.64-1.76-.18-.35-.37-.72-.5-1.1,0,0-.01,0-.02,0-1.47-1.84-3.87-2.9-6-3.75-1.8-.72-3.7-1.31-5.63-1.76-3.89-.91-8.08-1.37-12.43-1.36-4.35-.03-8.54.42-12.43,1.32-1.93.45-3.83,1.03-5.63,1.74-2.14.84-4.55,1.9-6.02,3.73,0,0-.01,0-.01,0-.14.38-.32.75-.51,1.1-.3.58-.57,1.13-.65,1.76,6.94-4.58,15.73-7.1,24.86-7.14,0,0,0,0,0,0,.08,0,.17,0,.25,0Z"/>
        <path class="cls-8" d="m71.1,156.43c.71-2.28,1.06-4.76,1.4-7.16.22-1.54.44-3.13.76-4.65l-.05-.08.04-.24c.92-5.76.94-15.23.66-22.24-.15.53-.27,1.08-.38,1.63-.2.99-.4,2.02-.86,2.93l-.04.05c-.06.06-.13.12-.19.18-.08.07-.15.15-.23.22l-.03.02c-.63.33-1.23.14-1.81-.05-.19-.06-.37-.12-.55-.16-.08.04-.17.05-.24-.01-.05-.04-.11-.09-.15-.16,0,0,0,0,0,0h-.26c-.07.78-.12,1.59-.16,2.37-.09,1.69-.18,3.43-.56,5.06,0,0-.01.01-.02.02,0,.01-.01.02-.02.03-.02.02-.04.04-.07.06,0,0,0,0,0,0,0,0-.02,0-.03,0-.02,0-.04.02-.06.01-.01,0-.01-.01-.02-.02-.01,0-.02-.01-.03-.02-.02-.02-.04-.04-.06-.06,0,0,0,0,0,0-1.63-4.92-3.1-9.73-3.23-14.61,0,0,0,0,0,0-.25-.76-.29-1.6-.12-2.33,0,0,0,0,0-.01-.27-1.06-.23-2.19-.2-3.27.02-.57.03-1.16,0-1.72,0,0-.01-.02-.01-.03l.03-16.64s0,0,0,0c0,0,0,0,0,0,.01-.23,0-.46,0-.69,0-.41-.02-.84.06-1.26,0,0,0,0,0,0,0-.07-.01-.14-.02-.22-.06-.59-.11-1.26.19-1.84-.14-1.03-.05-2.52.04-3.97.08-1.2.15-2.33.08-3.15,0-.01.01-.03.01-.04.37-6.85,2.05-13.59,3.67-20.12.32-1.29.64-2.57.95-3.85-.02-.04-.03-.1,0-.14.01-.04.05-.06.08-.09.24-1.33.56-2.7.92-3.95l.02-.06.05-.03c.08-.04.18-.1.3-.11h.1s.04.08.04.08c.37.76,1.42,1.52,2.37,1.54.02-1.07-.03-2.14-.09-3.19-.05-.86-.09-1.74-.1-2.63-.4.16-.8.36-1.2.58-.91.49-1.85.99-2.97.95-.72,2.81-1.34,5.76-1.93,8.62-.91,4.33-1.84,8.81-3.16,12.94,0,.02.02.03.02.05-.34,2.85-.64,5.9-.93,9.61,0,0,0,0,0,.02-.25,6.13-.37,15.15-.36,27.54,0,.02.02.03.02.05-.06,3.39,0,7.01.18,11.05,0,.03-.02.06-.03.09.21,1.84.46,3.72.7,5.53.56,4.27,1.14,8.68,1.29,13.01h0s0,0,0,0h0s.01.03.01.04c.02,3.81-.56,8.34-1.11,12.72-.27,2.11-.52,4.1-.7,5.95.05.06.06.13.02.2l-.06.09c-.25.83-.7,1.38-1.28,1.57-3.42,1.09-6.91,1-11.74.88-1.34-.03-2.82-.07-4.44-.08-.26,0-.79,0-1.94,0-.88,0-1.88-.01-2.07,0h0s-.05,0-.05,0c-1.77,0-3.44.03-5.04.07-4.79.1-8.93.19-12.4-.92-.58-.19-1.03-.74-1.28-1.57l-.06-.09c-.04-.07-.02-.14.02-.2-.17-1.84-.42-3.84-.68-5.95-.54-4.38-1.1-8.91-1.07-12.72,0-.01.01-.02.02-.04h0s0-.01,0-.01c0,0,0,0,0,0,.16-4.32.75-8.74,1.33-13,.25-1.82.5-3.69.71-5.53-.01-.03-.03-.05-.03-.09.2-4.04.27-7.66.22-11.05,0-.02.02-.03.02-.05.05-12.4-.04-21.42-.27-27.54,0,0,0,0,0-.02-.28-3.7-.56-6.76-.89-9.61,0-.02.01-.04.02-.05-1.31-4.13-2.23-8.62-3.12-12.95-.59-2.86-1.2-5.81-1.9-8.62-1.12.03-2.06-.47-2.96-.96-.41-.22-.8-.42-1.2-.58,0,.88-.06,1.77-.11,2.62-.06,1.04-.12,2.12-.1,3.19.95-.03,2.01-.78,2.38-1.54l.04-.09h.1c.12.02.22.08.3.12l.05.03.02.06c.36,1.26.67,2.62.9,3.95.03.02.07.05.08.09.02.05,0,.1,0,.14.3,1.28.62,2.57.93,3.86,1.6,6.53,3.25,13.28,3.6,20.13,0,.02.02.03.01.04-.06.82,0,1.95.07,3.15.08,1.45.17,2.94.03,3.97.3.57.25,1.24.19,1.84,0,.07-.01.15-.02.22,0,0,0,0,0,0,.07.42.06.85.05,1.26,0,.23-.01.46,0,.69,0,0,0,0,0,0,0,0,0,0,0,0l-.03,16.64s0,.01,0,.02c-.03.57-.02,1.16,0,1.73.03,1.08.06,2.21-.22,3.27,0,0,0,0,0,.01.17.73.13,1.57-.13,2.33,0,0,0,0,0,0-.15,4.87-1.63,9.68-3.28,14.6,0,0,0,0,0,0-.01.03-.03.05-.06.07,0,0-.02.02-.03.02-.01,0-.01.02-.02.02-.02,0-.04,0-.06-.01-.01,0-.02,0-.03,0,0,0,0,0,0,0-.03-.01-.04-.03-.06-.05,0-.01-.02-.02-.02-.03,0,0-.01-.01-.02-.02-.37-1.63-.46-3.38-.55-5.06-.04-.78-.08-1.59-.15-2.37h-.26s0,0,0,0c-.05.07-.1.11-.15.16-.07.06-.16.05-.24,0-.18.04-.36.09-.55.16-.58.18-1.18.38-1.8.04l-.03-.02c-.08-.07-.15-.15-.23-.22-.06-.06-.12-.12-.18-.18l-.03-.05c-.46-.92-.66-1.94-.85-2.93-.1-.54-.22-1.09-.37-1.63-.3,7.01-.31,16.48.59,22.24l.04.24-.05.08c.31,1.52.53,3.11.74,4.64.33,2.41.67,4.89,1.38,7.18l.11.05v.03s.18,0,.18,0c-.3-1.39-.37-3.74.21-4.86,1.11,1.12.87,2.65,1.41,3.86.7,1.56,2.1,2.58,3.44,3.45.83.54,2.5.75,2.43,2.24-3.1-.18-6.19-2.16-7.5-4.26h-.02c1.06,2.8,3.29,5.08,5.87,5.97l.23.08.02.03.21.03c.13.03.25.07.36.09l.05-.06.35.04c6.53.71,14.05,1.44,20.39,1.48h.39s.35,0,.35,0c6.31-.02,13.85-.73,20.39-1.42l.35-.04.05.06c.11-.03.23-.06.36-.09l.11-.02h.1s.02-.04.02-.04l.22-.08c2.58-.88,4.82-3.16,5.89-5.95h-.01c-1.31,2.1-4.41,4.07-7.51,4.24-.06-1.49,1.61-1.69,2.44-2.23,1.35-.87,2.75-1.88,3.46-3.44.55-1.2.31-2.74,1.43-3.85.57,1.13.5,3.47.2,4.86h.17s0,0,0,0v-.03s.12-.05.12-.05Z"/>
        <path class="cls-6" d="m16.54,89.2c1.31.74,2.78,1.56,4.39,2.06.12-.99.04-2.4-.04-3.78-.07-1.21-.14-2.35-.07-3.2,0,0,0-.01.01-.02-.35-6.81-2-13.54-3.59-20.04-.31-1.25-.61-2.5-.91-3.75-.09.03-.19.07-.28.1.02,2.73,0,5.54-.01,8.27-.04,6.76-.09,13.74.5,20.36Z"/>
        <path class="cls-8" d="m15.7,60.7c-.95.35-1.88.72-2.78,1.09-.07,4.62-.21,16.67-.33,28.89.6.18,1.51.49,2.52.83,2.13.71,4.98,1.66,5.94,1.83,0-.04,0-.08.01-.12.05-.56.1-1.13-.14-1.6-1.72-.51-3.27-1.39-4.64-2.16l-.08-.05v-.09c-.61-6.67-.56-13.7-.52-20.49.02-2.68.03-5.44,0-8.13Z"/>
        <path class="cls-8" d="m12.53,58.17c-.69.58-1.53,1.07-2.34,1.54-1.92,1.12-3.74,2.18-3.82,4.27l.52-.24c1.18-.55,2.97-1.39,4.94-2.22l.96-.41v.29c.94-.39,1.92-.78,2.91-1.14v-.13s.13-.03.13-.03c.11-.03.24-.04.37-.05.02,0,.04,0,.07,0-.23-1.28-.52-2.59-.87-3.81-.02,0-.03-.01-.04-.02-.46.81-1.56,1.57-2.58,1.59v.15s-.24.21-.24.21Z"/>
        <path class="cls-3" d="m28.08,10.61c-.48-.14-.92.1-1.39.35-.35.19-.71.38-1.11.41-.03.02-.05.03-.09.03-.93.72-1.96,1.4-2.96,2.06-2.78,1.84-5.66,3.75-7.07,6.81.05.24.08.49.11.73.07.57.15,1.16.42,1.65.06.05.11.12.16.18.15.02.27-.09.43-.26.17-.18,6.84-7.14,10.7-8.87,0,0,0-.01.01-.02.06-.55.25-1.07.44-1.58.16-.44.33-.9.41-1.36-.01-.05-.03-.09-.05-.14Z"/>
        <path class="cls-12" d="m43.19,12.06h.15c5.22,0,10.42.54,15.45,1.58-.07-.47-.23-.92-.4-1.39-.17-.46-.35-.94-.42-1.45v-.03s0-.03,0-.03c.02-.08.05-.16.11-.26l.02-.05.05-.02c.15-.05.29-.07.43-.07.44,0,.84.22,1.22.43.27.15.53.29.8.36-.54-1.03-1.62-1.31-2.58-1.55l-.16-.04c-4.55-.96-9.12-1.34-14.3-1.19-.02,0-.04.02-.06.02-.11,0-.22,0-.33,0-.11,0-.22,0-.33,0h0s-.03-.01-.05-.02c-5.18-.17-9.75.19-14.31,1.14l-.15.04c-.97.24-2.05.52-2.59,1.54.27-.07.53-.21.8-.35.39-.21.79-.42,1.22-.42.14,0,.28.02.43.07l.05.02.02.05c.05.1.08.18.1.26v.03s0,.03,0,.03c-.08.51-.25.99-.43,1.45-.17.47-.33.92-.41,1.39,5.04-1.03,10.24-1.54,15.46-1.53h.15Z"/>
        <path class="cls-8" d="m74.38,61.62c1.97.84,3.75,1.68,4.94,2.24l.52.24c-.07-2.09-1.88-3.16-3.8-4.29-.81-.47-1.65-.97-2.33-1.55l-.25-.21v-.15c-1.02-.03-2.12-.79-2.57-1.6-.01,0-.03.01-.04.02-.35,1.21-.65,2.52-.88,3.81.02,0,.04,0,.07,0,.13,0,.26.02.36.05l.13.04v.13c.99.37,1.96.76,2.91,1.15v-.29s.95.41.95.41Z"/>
        <path class="cls-13" d="m12.22,27.12c.07,2.55-.02,5.21-.11,7.78-.18,5.41-.37,11,.91,16.16l.07.29-.03.05c.43.18.85.4,1.26.63.86.47,1.75.94,2.77.93.03-.25.03-.5.04-.77.01-.69.02-1.4.43-1.99,0-.01.02-.02.03-.02.05-.76.38-1.41.7-2.04.18-.35.37-.71.5-1.09,0-.03,0-.06.03-.09,1.52-1.89,3.97-2.97,6.15-3.83,1.82-.72,3.73-1.31,5.68-1.76,3.85-.89,7.98-1.34,12.28-1.33.07,0,.15,0,.22,0s.15,0,.22,0c4.3,0,8.43.47,12.28,1.37,1.95.46,3.86,1.05,5.67,1.78,2.17.87,4.62,1.95,6.14,3.85.02.03.03.06.03.1.13.37.31.73.49,1.08.32.63.65,1.28.7,2.04,0,0,.02.01.03.02.4.59.41,1.3.42,1.99,0,.27,0,.53.03.78,1.02.02,1.91-.46,2.77-.92.41-.22.83-.45,1.26-.62l-.03-.05.07-.29c1.3-5.16,1.13-10.75.96-16.16-.08-2.58-.16-5.25-.08-7.82v-.06s0-.04,0-.04c.01-.12.01-.24.02-.36-.73-1.16-1.22-2.48-1.67-3.78-.27-.78-.56-1.59-.89-2.34-.12-.08-.28-.1-.43-.11-.04.21-.07.42-.1.63-.08.6-.16,1.22-.46,1.76l-.02.03c-.06.06-.12.13-.18.2l-.03.03h-.04c-.33.08-.54-.14-.71-.32-.2-.21-.32-.32-.54-.24-.02,0-.03,0-.04,0-.01,0-.02,0-.03,0-.02,0-.04-.02-.05-.04,0,0-.02,0-.02-.01-2.55-3.8-6.07-6.84-9.91-8.56-.01,0-.03.01-.04,0-5.13-1.08-10.42-1.62-15.74-1.61-5.32-.02-10.62.5-15.75,1.56-.02,0-.03,0-.04,0-3.85,1.72-7.38,4.74-9.94,8.53,0,0-.01,0-.02.01-.02.02-.03.03-.05.04-.01,0-.02,0-.03,0-.01,0-.03,0-.04,0-.22-.08-.34.04-.54.24-.17.18-.39.4-.71.33h-.04s-.03-.04-.03-.04c-.06-.08-.12-.15-.18-.2l-.03-.03c-.3-.54-.38-1.16-.46-1.76-.03-.21-.06-.42-.1-.63-.15,0-.31.03-.43.1-.34.75-.62,1.56-.9,2.34-.46,1.3-.95,2.62-1.68,3.78,0,.12,0,.24.02.36v.14Z"/>
        <path class="cls-12" d="m64.97,10.85c-6.55-3.4-14.47-3.72-21.39-3.75h-.27s-.11,0-.11,0h-.29s0,0,0,0h-.1c-6.92,0-14.84.3-21.4,3.68-6.26,4.94-9.36,10.11-9.23,15.37.61-1.05,1.04-2.24,1.45-3.4.28-.8.57-1.62.92-2.39v-.03s.04-.02.04-.02c.2-.15.45-.17.66-.18,1.46-3.1,4.34-5.02,7.14-6.87,1.04-.69,2.02-1.34,2.93-2.05,0,0,0-.01,0-.02.55-1.4,1.87-1.73,2.94-1.99l.16-.04c3.9-.81,7.79-1.2,12.07-1.2.88,0,1.78.03,2.7.06.92-.03,1.82-.05,2.7-.05,4.28,0,8.17.41,12.06,1.23l.16.04c1.06.26,2.39.59,2.93,2,0,0,0,.01,0,.02.92.71,1.89,1.37,2.93,2.06,2.79,1.86,5.68,3.79,7.12,6.9.21.01.45.03.66.18l.03.02v.03c.36.77.65,1.6.93,2.4.41,1.16.83,2.35,1.44,3.4.15-5.27-2.93-10.44-9.18-15.4Z"/>
        <path class="cls-3" d="m59.09,13.76c3.85,1.74,6.71,5.03,9.96,8.58.33-.06.54.15.71.33.16.17.27.27.43.26.05-.06.1-.12.16-.18.27-.5.35-1.09.42-1.65.03-.24.07-.49.11-.73-1.41-3.06-4.28-4.98-7.05-6.84-1-.66-2.02-1.35-2.95-2.07-.03,0-.06-.01-.09-.03-.4-.04-.76-.23-1.11-.42-.46-.25-.9-.49-1.39-.35-.02.05-.04.09-.05.14.07.47.24.92.4,1.37.19.51.37,1.03.43,1.58,0,0,0,.01.01.02Z"/>
        <path d="m12.98,51.71s-.01,0-.02,0c0,.88-.05,1.77-.1,2.63-.06,1.04-.12,2.12-.1,3.19,0,0,.01,0,.02,0-.02-1.07.04-2.14.1-3.19.05-.86.1-1.74.11-2.62Z"/>
        <path d="m73.8,58.08s0,0,0,0c-.12,0-.22-.07-.27-.17-.02,0-.04,0-.07,0v.15s.24.21.24.21c.69.58,1.52,1.07,2.33,1.55,1.92,1.13,3.73,2.19,3.8,4.29l-.52-.24c-1.18-.56-2.97-1.4-4.94-2.24l-.96-.41-3.47-1.08s3.5,1.37,3.51,1.38c.07-.05.14-.08.23-.08h0c.2,0,.37.15.4.35,2.02.86,3.83,1.71,5.11,2.31l.63.29s.04,0,.06,0c.07,0,.13-.01.19-.03.07-2.41-1.96-3.6-3.93-4.75-.81-.47-1.63-.97-2.3-1.53-.02,0-.04.01-.06.01Z"/>
        <path d="m12.17,26.16c-.13-5.27,2.97-10.44,9.23-15.37,6.56-3.38,14.49-3.67,21.4-3.68h.1s0,0,0,0h.29s.11,0,.11,0h.27c6.92.03,14.84.34,21.39,3.75,6.25,4.96,9.33,10.14,9.18,15.4.07.12.15.23.22.35.29-5.47-2.81-10.83-9.27-15.96-6.56-3.42-14.41-3.77-21.91-3.78-7.5,0-15.34.31-21.92,3.71-6.48,5.1-9.6,10.46-9.32,15.93.07-.12.15-.23.22-.35Z"/>
        <path d="m74.1,27.13v.06c-.08,2.57,0,5.24.08,7.82.17,5.4.34,10.99-.96,16.16l-.07.29.03.05s.07-.02.11-.04c.01-.1.07-.19.16-.24,1.31-5.18,1.14-10.8.97-16.23-.08-2.59-.16-5.27-.08-7.85,0,0,0,0,0-.01,0,0,0,0,0,0,0-.02,0-.04,0-.06-.08-.11-.15-.23-.22-.35,0,.12,0,.24-.02.36v.04Z"/>
        <path d="m12.95,51.36s.07.03.1.04l.03-.05-.07-.29c-1.28-5.17-1.09-10.75-.91-16.16.09-2.57.18-5.23.11-7.78v-.14c-.01-.12-.01-.24-.02-.36-.07.12-.14.24-.23.35,0,.02,0,.04,0,.06,0,0,0,0,0,0,0,0,0,0,0,.01.07,2.58-.02,5.26-.11,7.85-.19,5.43-.37,11.04.92,16.23.09.05.14.14.16.24Z"/>
        <path d="m6.37,64.27l.63-.29c1.28-.6,3.09-1.44,5.12-2.3.03-.2.19-.35.4-.35h0c.09,0,.16.04.23.09.01,0,.02,0,.04-.01v-.29s-.95.41-.95.41c-1.97.84-3.76,1.67-4.94,2.22l-.52.24c.07-2.09,1.89-3.15,3.82-4.27.81-.47,1.65-.96,2.34-1.54l1.17-.57-.92.21s-.04,0-.07,0c-.06.1-.15.17-.27.17,0,0,0,0,0,0-.02,0-.04,0-.06-.01-.67.56-1.49,1.05-2.3,1.52-1.97,1.15-4.01,2.34-3.94,4.74.06.02.12.02.19.03.02,0,.04,0,.06,0Z"/>
        <path d="m73.45,57.62s.01,0,.02,0c.02-1.07-.03-2.14-.09-3.19-.05-.86-.09-1.75-.09-2.63,0,0-.01,0-.02,0,0,.88.05,1.77.1,2.63.06,1.04.11,2.12.09,3.19Z"/>
        <path class="cls-7" d="m67.98,44.1c-.1.44.17.87.61.97.44.1.87-.17.97-.61.89-3.84.63-7.93.34-12.26-.15-2.3-1.92-9.76-1.92-7.18s.15,4.96.3,7.29c.27,4.2.53,8.17-.31,11.79Z"/>
        <g>
          <path class="cls-4" d="m22.6,161.68c.07-1.49-.85-2.41-2.43-2.82-1.55-.4-3.08-2.02-3.43-2.91-1.09-2.81-1.22-3.68-2.33-4.8-.41,1.79.39,3.87.69,5.26,0,0,2.61,5.86,7.51,5.27Z"/>
          <path d="m14.27,150.65l.32.32c.92.93,1.2,1.69,1.82,3.36.16.44.35.94.57,1.53.33.86,1.84,2.39,3.26,2.76,1.78.46,2.69,1.52,2.62,3.07v.21s-.22.03-.22.03c-.24.03-.49.05-.73.04-4.55,0-6.93-5.24-7.03-5.46-.08-.35-.17-.69-.27-1.05-.34-1.3-.77-2.92-.44-4.37l.1-.45Zm8.09,10.8c-.03-1.18-.79-1.97-2.25-2.35-1.64-.42-3.23-2.1-3.6-3.06-.23-.59-.41-1.1-.58-1.54-.52-1.4-.78-2.11-1.36-2.81-.12,1.21.23,2.54.52,3.63.1.37.19.71.26,1.03,0,0,2.34,5.11,6.56,5.11.15,0,.3,0,.45-.02Z"/>
        </g>
        <g>
          <path d="m71.31,156.05c-1.07,2.8-4.26,6.09-6.84,6.98l.23-.06-.02.03h-.1s-.11.03-.11.03c-.13.03-.25.06-.36.09l-.05-.06-.35.04c-6.54.69-14.08,1.4-20.39,1.42h-.35s-.39,0-.39,0c-6.34-.04-13.87-.77-20.39-1.48l-.35-.04-.41-.03s-.03,0-.02,0l-.19-.03-.02-.03-.23-.08c-2.52-1.04-5.76-4.3-6.62-7.8l-.35.63v1.2c1.09,2.96,3.44,5.51,6.9,6.25.02,0,.04-.02.06-.02,0,0,.02,0,.03,0,5.5.6,14.65,2.09,21.96,2.1,7.31.01,16.44-.63,21.96-2.03,0,0,.02,0,.03,0,.02,0,.04.02.06.02,2.68-.91,5.58-3.27,6.67-6.23l-.35-.89h0Z"/>
          <path d="m14.81,156.34c.06.17.13.34.21.5h.02s-.23-.5-.23-.5Z"/>
          <path d="m5.03,64.42l.43.95c.51.45,2.01-.4,2.01-.4.98-.46,2.38-1.11,3.94-1.79-.16,11.25-.52,46.82-.58,57.2-.37,7.1-.45,17.55.51,23.86-.03.13.54,3.54.75,5.12.35,2.52.66,3.56,1.24,6.06.19.84.38,1.78.49,1.89,1.18,3.11,3.67,5.67,6.55,6.72.14.11,15.77,1.78,22.09,1.83h.51s.45,0,.45,0h0c6.28-.02,13.73-.72,20.22-1.4.14.05,6.22-1.16,8.45-7.06.11-.11.2-.24.24-.39.79-2.44,1.15-5.04,1.51-7.56.22-1.57.45-3.18.77-4.71.03-.13.18-1.35.15-1.48.98-6.31.78-15.69.43-22.79-.02-10.37-.27-45.95-.39-57.2,1.56.69,2.96,1.35,3.94,1.81l.93.44s.75.53,1.2-.01c.17-.2.3-.97.3-.97.19-3.16-2.28-4.61-4.46-5.89-.69-.41-1.35-.79-1.9-1.22,0-1.04-.05-2.08-.1-3.08-.05-.93-.1-1.9-.1-2.84,0-.08,0-.16-.03-.23,1.29-5.28,1.12-10.89.95-16.32-.08-2.57-.16-5.23-.08-7.77v-.03c.53-6.03-2.72-11.88-9.68-17.39l-.14-.09c-6.79-3.55-14.89-3.89-21.96-3.92h-.7s-.26,0-.26,0h0c-7.07,0-15.17.32-21.97,3.85l-.14.09c-6.98,5.49-10.25,11.33-9.74,17.36v.03c.07,2.55-.02,5.21-.11,7.78-.18,5.43-.37,11.03.9,16.32-.02.08-.03.15-.03.23,0,.94-.05,1.91-.11,2.84-.06,1-.12,2.03-.11,3.08-.55.42-1.21.81-1.9,1.21-2.19,1.27-4.66,2.72-4.48,5.88Zm74.81-.03l-.63-.29c-1.28-.6-3.09-1.45-5.11-2.31-.03-.2-.19-.35-.4-.35h0c-.09,0-.17.04-.23.08-.01,0-.02,0-.04-.01-.94-.4-1.92-.78-2.91-1.15,0,0-.37-.2-.5-.21-.02,0-.04,0-.07,0,.23-1.28.53-2.59.88-3.81.02,0,.03-.01.04-.02.45,1.31,2.57,2.1,2.6,2.1.06.1,2.07,1.13,2.87,1.6,1.97,1.16,3.81,1.94,3.74,4.34-.06.02-.12.02-.19.03-.02,0-.04,0-.06,0Zm-8.68,92.12c-.05.15.07-.14.02,0l.49.43c-1.1,2.95-4,5.32-6.67,6.23-.02,0-.04-.02-.06-.02-.01,0-2.69.28-2.7.28-5.51.58-11.99,1.27-19.3,1.26-7.31,0-16.44-1.01-21.94-1.61,0,0-.02,0-.03,0-.02,0-.04.02-.06.02-2.68-.91-5.27-3.29-6.36-6.25l.05-.93c-.05-.14.27.65.23.5h-.08c-.72-2.31-1.07-4.81-1.4-7.23-.22-1.59-.44-3.23-.77-4.8,0-.04-.04-.06-.05-.09-.99-6.19-.88-16.41-.58-22.9.07.18.13.37.18.55.15.53.26,1.08.37,1.63.19.99.39,2.02.85,2.93l.03.05c.06.06.12.12.18.18.08.07.15.15.23.22l.03.02c.62.33,1.23.14,1.8-.04.19-.06.37-.12.55-.16.12.06.39-.16.64-.17.07.78.11,1.59.15,2.37.09,1.69.17,3.43.55,5.06,0,0,.01.01.02.02,0,.01.01.02.02.03.02.03.04.04.06.05,0,0,0,0,0,0,.01,0,.02,0,.03,0,.02,0,.04.02.06.01.01,0,.01-.01.02-.02.01,0,.02-.01.03-.02.03-.02.05-.04.06-.07,0,0,0,0,0,0,1.64-4.91,3.13-9.72,3.28-14.6,0,0,0,0,0,0,.25-.76.29-1.6.13-2.33,0,0,0,0,0-.01.27-1.06.24-2.19.22-3.27-.01-.57-.03-1.16,0-1.73,0,0,0-.01,0-.02l.03-16.64s0,0,0,0c0,0,0,0,0,0,0-.23,0-.46,0-.69,0-.41.02-.84-.05-1.26,0,0,0,0,0,0,0-.07.01-.15.02-.22.06-.59.12-1.26-.19-1.84.14-1.03.06-2.52-.03-3.97-.07-1.2-.14-2.33-.07-3.15,0-.02-.01-.03-.01-.04-.35-6.85-2-13.6-3.6-20.13-.31-1.29-.91-3.95-.93-4-.01-.04-.63-2.78-.98-4.04l-.02-.06-.05-.03c-.08-.04-.18-.1-.3-.11h-.1s-.04.08-.04.08c-.37.76-1.43,1.51-2.38,1.54,0,0-.01,0-.02,0-.02-1.07.04-2.14.1-3.19.05-.86.09-1.75.1-2.63,0,0,.01,0,.02,0,.4.17.79.36,1.2.58.91.49,1.85.99,2.96.96.71,2.81,1.32,5.76,1.9,8.62.89,4.34,1.81,8.82,3.12,12.95,0,.02-.02.03-.02.05.33,2.85.61,5.91.89,9.61,0,0,0,0,0,.02.23,6.12.32,15.14.27,27.54,0,.02-.02.03-.02.05.05,3.39-.02,7-.22,11.05,0,.03.02.06.03.09-.21,1.84-.47,3.71-.71,5.53-.58,4.27-1.17,8.68-1.33,13,0,0,0,0,0,0,0,0,0,0,0,0h0s-.02.03-.02.04c-.03,3.81.53,8.34,1.07,12.72.26,2.11.51,4.11.68,5.95-.05.06.04.29.04.29.25.83.7,1.39,1.28,1.57,3.46,1.11,7.6,1.02,12.4.92,1.61-.03,3.27-.07,5.04-.07h.05s0,0,0,0c.19,0,1.19,0,2.07,0,1.15,0,1.68.01,1.94,0,1.62.01,3.1.05,4.44.08,4.83.12,8.32.2,11.74-.88.58-.18,1.03-.74,1.28-1.57l.06-.09c.04-.07.03-.14-.02-.2.18-1.84.43-3.83.7-5.95.55-4.38,1.13-8.91,1.11-12.72,0-.01-.01-.02-.01-.03h0s0-.02,0-.02h0c-.15-4.33-.73-8.74-1.29-13.01-.24-1.82-.49-3.69-.7-5.53.01-.03.03-.06.03-.09-.18-4.04-.24-7.65-.18-11.05,0-.02-.02-.03-.02-.05,0-12.39.11-21.41.36-27.54,0,0,0,0,0-.02.29-3.7.58-6.76.93-9.61,0-.02-.01-.03-.02-.05,1.32-4.13,2.26-8.61,3.16-12.94.6-2.86,1.21-5.81,1.93-8.62,1.12.03,2.06-.47,2.97-.95.41-.22.8-.42,1.2-.58,0,0,.01,0,.02,0,0,.88.05,1.77.09,2.63.06,1.04.11,2.12.09,3.19,0,0-.01,0-.02,0-.95-.03-2-.79-2.37-1.54l-.04-.09h-.1c-.12.02-.22.08-.3.12l-.05.03-.02.06c-.36,1.25-.68,2.62-.92,3.95-.03.02-.07.05-.08.09-.02.05-.01.1,0,.14-.31,1.28-.63,2.57-.95,3.85-1.62,6.52-3.29,13.27-3.67,20.12,0,.01-.02.03-.01.04.06.82,0,1.95-.08,3.15-.09,1.45-.18,2.94-.04,3.97-.3.57-.25,1.24-.19,1.84,0,.07.01.15.02.22,0,0,0,0,0,0-.07.42-.06.85-.06,1.26,0,.23,0,.46,0,.69,0,0,0,0,0,0,0,0,0,0,0,0l-.03,16.64s0,.02.01.03c.03.57.01,1.16,0,1.72-.03,1.08-.06,2.21.2,3.27,0,0,0,0,0,.01-.17.73-.13,1.57.12,2.33,0,0,0,0,0,0,.13,4.87,1.6,9.69,3.23,14.61,0,0,0,0,0,0,.01.03.03.05.06.06.01,0,.02.02.03.02,0,0,.01.02.02.02.02,0,.04,0,.06-.01.01,0,.02,0,.03,0,0,0,0,0,0,0,.03-.01.05-.03.07-.06,0-.01.02-.02.02-.03,0,0,.02-.01.02-.02.38-1.63.47-3.37.56-5.06.04-.78.09-1.59.16-2.37h.26s0,0,0,0c.04.07.75.26.94.32.58.19,1.18.38,1.81.05l.03-.02c.08-.07.16-.14.23-.22.06-.06.12-.12.19-.18l.04-.05c.46-.92.66-1.94.86-2.93.11-.54.22-1.09.38-1.63.05-.19.11-.37.18-.55.28,6.49.35,16.71-.66,22.9-.02.03-.05.05-.05.09-.34,1.57-.56,3.21-.79,4.8-.34,2.42-.7,4.92-1.42,7.22h-.02ZM16.2,89.33v.09s.09.05.09.05c1.37.78,2.92,1.65,4.64,2.16.24.47.19,1.04.14,1.6,0,.04,0,.08-.01.12-.96-.17-3.81-1.13-5.94-1.83-1.02-.34-1.93-.64-2.52-.83.13-12.21.26-24.27.33-28.89.9-.37,1.83-.74,2.78-1.09.02,2.69,0,5.45,0,8.13-.04,6.8-.09,13.83.51,20.49Zm-.14-28.75c.09-.03.19-.07.28-.1.3,1.25.6,2.5.91,3.75,1.59,6.51,3.24,13.24,3.59,20.04,0,0,0,.01-.01.02-.07.84,0,1.99.07,3.2.08,1.37.16,2.78.04,3.78-1.62-.49-3.09-1.31-4.39-2.06-.59-6.62-.55-13.61-.5-20.36.02-2.72.04-5.53.01-8.27Zm4.8,56.47c-.6.7-1.12,1.5-1.61,2.27-.41.64-.83,1.3-1.31,1.91-.25.08-.55.04-.83,0-.04-.96-.08-1.93-.13-2.9-.34-7.81-.7-15.89-.52-23.7.06,0,.11,0,.16,0,1.38.47,2.91.8,4.45.97l-.03,16.5s0,.01.01.02c-.03.58-.02,1.17,0,1.74.03,1.06.05,2.15-.2,3.16,0,0,0,.02,0,.03Zm-5.84-25.24c2.27.76,5.05,1.69,6.02,1.85.05.35.05.71.04,1.09,0,.17,0,.34,0,.51-1.5-.17-2.99-.49-4.36-.95-.08-.01-.15-.02-.22-.02s-.14,0-.21.01h-.15s0,.16,0,.16c-.19,7.86.17,16,.51,23.88.04,1.02.09,2.03.13,3.04v.14s.22.03.22.03c.35.05.74.1,1.1-.03l.04-.02.03-.04c.5-.63.94-1.31,1.36-1.98.44-.69.9-1.39,1.41-2.03.09.6.04,1.27-.16,1.88,0,.02,0,.03,0,.05,0,0,0,0,0,0,0,0,0,.02,0,.03-1.62,2.38-2.93,4.71-3.88,6.94-.01,0-.03,0-.04.02l.21-.42s-.56.36-.58.34c-.04-.02-.35.1-.37.11-.02.01-.02.03-.03.05-.19.04-.39.1-.58.16-.53.17-1.04.33-1.54.08-.07-.06-.14-.13-.21-.2-.06-.05-.11-.11-.17-.16-.43-.87-.62-1.86-.81-2.83-.15-.78-.32-1.58-.6-2.32.08-.07.12-.18.12-.29.02-5,.14-17.5.26-29.9.59.18,1.46.48,2.43.8Zm5.73,28.14c-.22,4.46-1.53,8.89-3.02,13.39-.26-1.42-.35-2.91-.42-4.37-.04-.82-.08-1.66-.16-2.48,0,0,0-.01-.01-.02.9-2.09,2.12-4.28,3.61-6.52ZM11.98,27.05s0,0,0-.01c0,0,0,0,0,0,0-.02,0-.04,0-.06.08-.11.15-.23.23-.35.73-1.16,1.22-2.48,1.68-3.78.28-.78.56-1.58.9-2.34.12-.08.28-.1.43-.1.04.21.07.42.1.63.08.6.16,1.22.46,1.76l.03.03c.06.06.12.13.18.2l.03.03h.04c.33.08.54-.14.71-.32.2-.21.57-.24.59-.24,3.47-3.55,10.8-8.73,10.09-8.57-5.13,1.06,10.43-1.59,15.75-1.56,5.32,0,10.61.54,15.74,1.61.02,0,.03,0,.04,0,3.84,1.73,6.85,5.17,9.91,8.56,1.13,1.25.05.04.07.05.01,0,.02,0,.03,0,.02,0,.03,0,.04,0q.92.65,1.25.57h.04s.03-.04.03-.04c.06-.08.12-.15.18-.2l.02-.03c.3-.54.38-1.16.46-1.76.03-.21.06-.42.1-.63.15,0,.31.03.43.11.34.75.62,1.56.89,2.34.45,1.3.94,2.62,1.67,3.78.07.12.14.24.22.35,0,.02,0,.04,0,.06,0,0,0,0,0,0,0,0,0,0,0,.01-.08,2.58,0,5.26.08,7.85.17,5.43.33,11.04-.97,16.23-.09.05-.14.13-.16.24-.03.01-.07.03-.11.04-.43.18-.85.4-1.26.62-.86.46-1.75.93-2.77.92-.03-.25-.03-.5-.03-.78,0-.69-.02-1.4-.42-1.99,0-.01-.02-.02-.03-.02-.05-.76-.37-1.41-.7-2.04-.18-.35-.36-.71-.49-1.08,0-.04,0-.07-.03-.1-1.52-1.9-3.96-2.98-6.14-3.85-1.82-.72-3.73-1.32-5.67-1.78-3.85-.9-7.98-1.36-12.28-1.37-.07,0-.15,0-.22,0s-.15,0-.22,0c-4.3,0-8.43.44-12.28,1.33-1.95.45-3.86,1.04-5.68,1.76-2.18.86-4.63,1.93-6.15,3.83-.02.03-.02.06-.03.09-.13.37-.32.74-.5,1.09-.33.63-.65,1.28-.7,2.04,0,0-.02.01-.03.02-.41.59-.42,1.3-.43,1.99,0,.27-.01.53-.04.77-1.02.01-1.91-.46-2.77-.93-.41-.22-.83-.45-1.26-.63-.03-.01-.07-.02-.1-.04-.01-.1-.07-.19-.16-.24-1.29-5.19-1.11-10.8-.92-16.23.09-2.59.18-5.27.11-7.85ZM59.81,10.77c-.39-.21-.78-.43-1.22-.43-.14,0-.28.02-.43.07l-.05.02-.02.05c-.05.1-.08.18-.11.26v.03s0,.03,0,.03c.08.51.25.99.42,1.45.17.47.33.92.4,1.39-5.04-1.04-10.23-1.58-15.45-1.58h-.15c-.05,0-.1,0-.15,0-5.22,0-10.42.51-15.46,1.53.07-.47.23-.92.41-1.39.17-.46.35-.94.43-1.45v-.03s0-.03,0-.03c-.02-.08-.05-.16-.1-.26l-.02-.05-.05-.02c-.15-.05-.29-.07-.43-.07-.44,0-.84.21-1.22.42-.27.15-.54.29-.8.35.54-1.03,1.62-1.31,2.59-1.54l.15-.04c4.56-.95,9.13-1.31,14.31-1.14.02,0,.03.02.05.02h0c.11,0,.22,0,.33,0,.11,0,.22,0,.33,0,.03,0,.04-.01.06-.02,5.18-.15,9.75.22,14.3,1.19l.16.04c.97.24,2.04.52,2.58,1.55-.27-.07-.53-.21-.8-.36Zm.98.66s.05.03.09.03c.93.72,1.95,1.41,2.95,2.07,2.78,1.85,5.65,3.77,7.05,6.84-.05.24-.08.49-.11.73-.08.57-.16,1.16-.42,1.65-.06.05-.11.11-.16.18-.16.02-.27-.09-.43-.26-.17-.18-6.82-7.16-10.67-8.91,0,0,0-.01-.01-.02-.06-.55-.25-1.07-.43-1.58-.16-.44-.33-.9-.4-1.37.02-.05.03-.09.05-.14.48-.14.92.1,1.39.35.35.19.71.38,1.11.42Zm-34.11-.47c.47-.25.91-.49,1.39-.35.02.05.04.09.05.14-.07.47-.24.92-.41,1.36-.19.5-.38,1.02-.44,1.58,0,0,0,.01-.01.02-3.86,1.73-10.53,8.69-10.7,8.87-.16.17-.28.27-.43.26-.05-.06-.1-.12-.16-.18-.27-.5-.34-1.09-.42-1.65-.03-.24-.07-.49-.11-.73,1.42-3.06,4.29-4.97,7.07-6.81,1-.66,2.03-1.35,2.96-2.06.03,0,.06-.01.09-.03.4-.04.76-.23,1.11-.41Zm9.75,151.97c-4.74.1-8.84.19-12.23-.9-.47-.15-.84-.63-1.05-1.34-.17-1.91-.43-3.98-.7-6.18-.53-4.28-1.07-8.71-1.06-12.45,6.71,2.08,13.85,3.14,21.23,3.17,0,0,.01,0,.02,0,.11,0,.22,0,.33,0,.11,0,.22,0,.33,0,0,0,.01,0,.02,0,7.38,0,14.53-1.04,21.24-3.1,0,3.74-.56,8.16-1.11,12.45-.28,2.19-.54,4.27-.72,6.17-.21.72-.59,1.2-1.06,1.34-3.36,1.07-6.65.99-11.63.87-1.29-.03-2.71-.06-4.26-.08-.01,0-.02,0-.03,0-.03,0-.09,0-.18,0-.41,0-.81,0-1.24,0h0c-.19-.02-.89-.03-3.87-.09-1.73-.04-3.68-.07-3.85-.09-.07-.01-.15.02-.18.09-.03.05-.02.1,0,.15Zm6.54-18.04c-7.52,0-14.78-1.07-21.6-3.19.16-4.28.75-8.65,1.33-12.88.24-1.79.49-3.64.7-5.46,6.18,1.25,12.63,1.89,19.18,1.91,0,0,0,0,.01,0,.13,0,.26,0,.39,0,.14,0,.28,0,.42,0,0,0,0,0,.01,0,6.55,0,13-.62,19.18-1.85.21,1.82.45,3.67.69,5.46.56,4.23,1.13,8.61,1.28,12.89-6.82,2.1-14.08,3.15-21.59,3.12Zm19.73-60.33c-.25,6.14-.37,15.18-.36,27.6,0,0,0,0,0,0-.06,3.36,0,6.94.18,10.94-6.29,1.25-12.86,1.87-19.52,1.85-6.67,0-13.23-.64-19.52-1.91.19-4,.26-7.58.22-10.94,0,0,0,0,0,0,.05-12.42-.04-21.46-.27-27.6,0,0,0-.01,0-.02-.28-3.66-.56-6.68-.88-9.5,6.43-2.1,13.34-3.14,20.56-3.11,7.2,0,14.11,1.06,20.53,3.18-.34,2.82-.63,5.85-.91,9.5,0,0,0,.01,0,.02Zm-19.29-13.03h0s0,0-.01,0c-.04,0-.07,0-.11,0h-.21c-.07,0-.14,0-.21,0-.04,0-.07,0-.11,0h-.01s0,0,0,0c-7.13,0-13.96,1.06-20.32,3.13-1.29-4.1-2.2-8.54-3.09-12.84-.59-2.87-1.2-5.83-1.91-8.66,0,0,.01-.01.01-.02.04-.31.05-.63.05-.94.01-.66.02-1.28.36-1.78,0-.01,0-.03,0-.05,7.02-4.68,15.97-7.23,25.26-7.19,9.29,0,18.24,2.57,25.24,7.28,0,.02,0,.03,0,.05.34.5.35,1.12.35,1.78,0,.31,0,.64.05.94,0,0,.01.01.01.02-.72,2.82-1.34,5.78-1.94,8.65-.9,4.3-1.83,8.74-3.13,12.83-6.36-2.1-13.19-3.17-20.31-3.2Zm-25.53-21.5c.08-.63.35-1.18.65-1.76.18-.35.37-.72.51-1.1,0,0,.01,0,.01,0,1.47-1.83,3.88-2.89,6.02-3.73,1.8-.71,3.7-1.3,5.63-1.74,3.9-.9,8.08-1.34,12.43-1.32,4.35-.01,8.53.45,12.43,1.36,1.93.45,3.82,1.05,5.63,1.76,2.14.85,4.54,1.91,6,3.75,0,0,.01,0,.02,0,.14.38.32.75.5,1.1.3.58.57,1.13.64,1.76-6.93-4.6-15.71-7.15-24.84-7.22,0,0,0,0,0,0-.08,0-.17,0-.25,0-.01,0-.02,0-.04,0h-.09s-.06,0-.09,0c-.01,0-.03,0-.04,0-.08,0-.17,0-.25,0,0,0,0,0,0,0-9.13.04-17.92,2.56-24.86,7.14Zm52.26,18.9c.02,6.76.04,13.74-.57,20.37-1.31.74-2.78,1.55-4.4,2.04-.11-.99-.03-2.41.05-3.78.08-1.21.15-2.35.08-3.2,0,0,0-.01-.01-.02.37-6.81,2.04-13.53,3.66-20.03.31-1.25.62-2.5.92-3.74.09.03.18.07.28.1-.03,2.73-.02,5.54-.01,8.26Zm.36,0c0-2.68-.02-5.44.02-8.13.94.35,1.88.73,2.77,1.1.05,4.61.15,16.67.24,28.89-.59.18-1.51.48-2.52.82-2.13.7-4.99,1.65-5.95,1.82,0-.04,0-.08-.01-.12-.05-.56-.1-1.14.14-1.6,1.72-.51,3.28-1.37,4.64-2.15l.08-.05v-.09c.63-6.67.61-13.7.59-20.49Zm-5.25,50.57s0-.02,0-.03c0,0,0,0,0,0,0-.02,0-.03,0-.05-.2-.61-.25-1.28-.16-1.88.51.64.97,1.34,1.4,2.03.42.66.85,1.35,1.35,1.98l.03.04.04.02c.36.13.75.08,1.1.03l.22-.03v-.14c.05-1.01.1-2.02.15-3.04.37-7.87.75-16.01.59-23.88v-.15s-.15-.01-.15-.01c-.07,0-.13-.01-.19-.01-.08,0-.16,0-.26.02-1.35.45-2.84.77-4.34.93,0-.17,0-.34,0-.51,0-.38,0-.74.04-1.09.98-.16,3.76-1.08,6.03-1.83.97-.32,1.84-.61,2.43-.79.09,12.4.28,24.29.29,29.3,0,.11-.08.82,0,.89-.28.74-.45,1.54-.61,2.32-.19.96-.39,1.95-.82,2.82-.06.05-.12.11-.17.16-.07.07-.14.13-.21.2-.5.25-1,.09-1.54-.08-.19-.06-.38-.12-.58-.16-.01-.02-.01-.04-.03-.05-.02-.01-.4-.07-.42-.04h-.32s-.02-.01-.04-.02c-.95-2.23-2.24-4.57-3.86-6.95Zm3.62,7.05s-.01.01-.01.02c-.08.82-.12,1.67-.17,2.49-.08,1.45-.17,2.94-.43,4.37-1.48-4.51-2.78-8.94-2.98-13.4,1.49,2.24,2.7,4.44,3.59,6.53Zm-3.87-14.35s0-.01,0-.02l.03-16.5c1.53-.16,3.07-.49,4.43-.95.07-.01.13-.01.19-.01.15,7.8-.23,15.88-.59,23.7-.04.97-.09,1.93-.14,2.9-.29.04-.58.07-.84,0-.47-.61-.89-1.27-1.3-1.91-.49-.77-1-1.57-1.6-2.27,0,0,0-.02,0-.03-.25-1.01-.22-2.1-.19-3.16.02-.57.03-1.16,0-1.74Zm9.38-85.58c-.08-.12-.15-.23-.22-.35-.61-1.05-1.03-2.24-1.44-3.4-.28-.8-.57-1.62-.92-2.4v-.03s-.04-.02-.04-.02c-.2-.15-.45-.17-.66-.18-1.45-3.1-4.33-5.03-7.12-6.9-1.04-.69-2.01-1.35-2.93-2.06,0,0,0-.01,0-.02-.54-1.4-1.87-1.73-2.93-2l-.16-.04c-3.89-.83-7.78-1.23-12.06-1.23-.88,0-1.79.02-2.7.05-.92-.04-1.82-.06-2.7-.06-4.28,0-8.17.38-12.07,1.2l-.16.04c-1.06.26-2.39.59-2.94,1.99,0,0,0,.01,0,.02-.92.71-1.9,1.36-2.93,2.05-2.8,1.85-5.69,3.77-7.14,6.87-.21.01-.46.03-.66.18l-.03.02v.03c-.36.77-.66,1.6-.94,2.39-.41,1.16-.84,2.34-1.45,3.4-.07.12-.15.23-.22.35-.28-5.47,2.85-10.83,9.32-15.93,6.58-3.4,14.42-3.72,21.92-3.71,7.5.02,15.34.36,21.91,3.78,6.46,5.12,9.57,10.49,9.27,15.96ZM12.36,57.97s.04.01.06.01c0,0,0,0,0,0,.12,0,.22-.07.27-.17.02,0,.05,0,.07,0,1.02-.02,2.12-.78,2.58-1.59.01,0,.03.01.04.02.34,1.21.95,3.65.84,3.68l-.54.22s-2.87.96-2.91.98c-.07-.05-.18.22-.27.22h0c-.2,0-.37.15-.4.35-2.02.86-3.83,1.7-5.12,2.3l-.63.29s-.04,0-.06,0c-.07,0-.13-.01-.19-.03-.07-2.41,1.97-3.59,3.94-4.74.81-.47,1.63-.96,2.3-1.52Z"/>
        </g>
        <g>
          <path class="cls-4" d="m70.84,156.5s.47-2.93.83-5.26c-1.26,0-1.64.4-2.62,4.25-.42,1.66-1.77,3.07-3.32,3.44-1.7.41-1.89.22-2.23,2.79,3.95.34,7.17-4.8,7.17-4.8l.17-.43Z"/>
          <path d="m71.67,151h.29s-.05.29-.05.29c-.36,2.33-.83,5.26-.83,5.26l-.19.48c-.15.25-3.37,5.32-7.43,4.96l-.26-.02.03-.26c.32-2.39.52-2.57,2.03-2.91l.4-.09c1.45-.34,2.74-1.69,3.14-3.26.96-3.78,1.39-4.44,2.86-4.44Zm-1.06,5.42s.42-2.65.77-4.9c-.83.06-1.2.55-2.08,4.05-.45,1.78-1.86,3.23-3.51,3.63l-.41.09c-1.22.27-1.34.3-1.6,2.22,3.64.08,6.65-4.65,6.68-4.7l.15-.39h0Z"/>
        </g>
        <path class="cls-7" d="m17.67,44.99c.44-.1.71-.54.61-.97-.82-3.61-.55-7.58-.27-11.79.16-2.33.32-4.73.33-7.28,0-.45.09-.81-.36-.81s-1.43,5.69-1.58,7.99c-.29,4.32-.57,8.41.31,12.26.1.44.53.71.97.61Z"/>
      </g>
      <g>
        <path class="cls-5" d="m65.02,97.46c1.92,0,3.48-1.8,3.48-4.04s-1.55-4.05-3.47-4.05l-10.91-.02c0,2.69.04,5.38.1,8.09l10.8.02Z"/>
        <path class="cls-2" d="m34.33,97.41l19.89.03c-.07-2.71-.1-5.4-.1-8.09l-19.63-.03c.02,2.69-.01,5.39-.16,8.08Z"/>
        <path class="cls-9" d="m22.58,97.39l11.75.02c.15-2.7.18-5.39.16-8.08l-11.9-.02c-1.92,0-3.48,1.8-3.48,4.04s1.55,4.04,3.47,4.05Z"/>
        <path class="cls-1" d="m65.03,93.37c1.92,0,3.47-.6,3.48-1.34s-1.55-1.35-3.47-1.36l-10.91-.02c0,.9.04,1.8.11,2.7l10.8.02Z"/>
        <path class="cls-11" d="m22.59,93.3l11.75.02c.15-.9.17-1.8.15-2.7l-11.9-.02c-1.92,0-3.47.6-3.48,1.34s1.55,1.35,3.47,1.36Z"/>
        <path d="m65.04,89.67c1.76,0,3.19,1.68,3.19,3.75s-1.44,3.74-3.2,3.74l-10.81-.02c0,.2.01.4.02.6l10.79.02c2.07,0,3.76-1.94,3.76-4.33s-1.68-4.34-3.75-4.35l-10.92-.02c0,.2,0,.4,0,.6l10.91.02Z"/>
        <path d="m54.12,89.66c0-.2,0-.4,0-.6l-19.63-.03c0,.2,0,.4,0,.6l19.63.03Z"/>
        <path d="m22.58,97.69l11.73.02c.01-.2.02-.4.03-.6l-11.76-.02c-1.76,0-3.19-1.68-3.19-3.75s1.44-3.74,3.2-3.74l11.9.02c0-.2,0-.4,0-.6l-11.89-.02c-2.07,0-3.76,1.94-3.76,4.34s1.68,4.34,3.75,4.35Z"/>
        <path d="m54.24,97.74c0-.2-.01-.4-.02-.6l-19.87-.03c-.01.2-.02.4-.03.6l19.92.03Z"/>
      </g>
      <g>
        <path class="cls-2" d="m54.81,33.26c-.38.08-.9.14-1.64.14s-1.28-.18-1.64-.54c-.34-.34-.57-.91-.57-1.57s.18-1.23.5-1.61c.41-.49,1.03-.71,1.75-.71.16,0,.3.01.41.03v-2.42s1.21,0,1.21,0v6.69Zm-1.2-3.08c-.1-.03-.23-.04-.41-.04-.65,0-1.04.41-1.05,1.1,0,.62.34,1,.95,1,.25,0,.41-.03.5-.06v-2Z"/>
        <path class="cls-2" d="m45.26,30.02c0-2.22,1.07-3.57,2.65-3.57,1.6,0,2.53,1.52,2.52,3.45,0,2.03-1.03,3.55-2.62,3.55s-2.55-1.56-2.55-3.43Zm3.88-.08c0-1.33-.49-2.26-1.3-2.26s-1.29.98-1.3,2.3c0,1.22.46,2.26,1.3,2.26s1.3-.98,1.3-2.3Z"/>
        <path class="cls-2" d="m44.46,33.34h-1.22s0-5.49,0-5.49h-2.14s0-1.29,0-1.29h3.36s-.01,6.78-.01,6.78Z"/>
        <path class="cls-2" d="m39.17,33.33v-6.78s1.23,0,1.23,0v6.78s-1.23,0-1.23,0Z"/>
        <path class="cls-2" d="m34.18,26.73c.22-.14.73-.29,1.38-.29,1.86,0,2.81,1.46,2.81,3.39,0,2.31-1.31,3.6-2.94,3.6-.63,0-1.11-.16-1.32-.3l.25-1.22c.25.13.59.25,1.02.25.96,0,1.72-.73,1.72-2.24,0-1.36-.63-2.21-1.72-2.22-.37,0-.77.1-1.01.22l-.18-1.2Z"/>
        <path class="cls-2" d="m30.18,29.4h1.98s0-1.61,0-1.61h-2.21s0-1.26,0-1.26h3.43s-.01,6.78-.01,6.78h-3.32s0-1.26,0-1.26h2.1s0-1.4,0-1.4h-1.98s0-1.25,0-1.25Z"/>
      </g>
      <g>
        <path class="cls-2" d="m32.18,152.77c.32-.07.77-.12,1.41-.12s1.1.16,1.41.47c.29.29.49.78.49,1.34s-.15,1.05-.43,1.38c-.36.42-.88.61-1.5.61-.14,0-.26,0-.36-.03v2.08s-1.04,0-1.04,0v-5.73Zm1.03,2.64c.09.03.2.03.35.03.55,0,.9-.35.9-.94,0-.53-.29-.85-.81-.85-.21,0-.36.03-.43.05v1.71Z"/>
        <path class="cls-2" d="m40.36,155.55c0,1.9-.92,3.06-2.27,3.05s-2.16-1.3-2.16-2.96c0-1.74.89-3.04,2.25-3.04s2.19,1.34,2.18,2.94Zm-3.33.07c0,1.14.42,1.94,1.12,1.94s1.11-.84,1.11-1.97c0-1.04-.39-1.94-1.11-1.94s-1.12.84-1.12,1.97Z"/>
        <path class="cls-2" d="m41.05,152.71h1.05s0,4.7,0,4.7h1.83s0,1.11,0,1.11h-2.88s0-5.81,0-5.81Z"/>
        <path class="cls-2" d="m45.59,152.72v5.8s-1.06,0-1.06,0v-5.8s1.06,0,1.06,0Z"/>
        <path class="cls-2" d="m49.86,158.37c-.19.12-.62.25-1.18.25-1.59,0-2.41-1.25-2.41-2.91,0-1.98,1.13-3.08,2.52-3.08.54,0,.95.14,1.14.26l-.21,1.04c-.21-.11-.51-.22-.87-.22-.83,0-1.47.63-1.47,1.92,0,1.16.54,1.9,1.47,1.9.31,0,.66-.08.87-.19l.16,1.03Z"/>
        <path class="cls-2" d="m53.29,156.08h-1.7s0,1.38,0,1.38h1.89s0,1.08,0,1.08h-2.94s0-5.81,0-5.81h2.84s0,1.08,0,1.08h-1.8s0,1.2,0,1.2h1.7s0,1.07,0,1.07Z"/>
      </g>
      <path class="cls-2" d="m69.46,20.39c-.73-1.41-2.09-2.76-3.32-3.75-.95-.77-2.66-2.36-3.94-2.35.96,1.6,2.93,2.83,4.29,4.12.92.87,1.76,2.08,2.77,2.8.33-.22.33-.58.09-.91l.09.09Z"/>
      <path class="cls-2" d="m24.86,14.31c-1.53,1.24-2.97,2.66-4.43,3.92-.58.5-3.35,3.21-3.12,1.36.18-1.43,2.61-2.98,3.68-3.69.63-.42,1.25-.75,1.91-1.03.45-.2,1.39-.9,1.87-.84.06,0,.09.03.08.1v.18Z"/>
    </g>
  </g>
</svg>