<?xml version="1.0" encoding="UTF-8"?>
<svg id="Layer_2" data-name="Layer 2" xmlns="http://www.w3.org/2000/svg" viewBox="0 0 81.19 175.37">
  <defs>
    <style>
      .cls-1 {
        fill: #fff;
      }

      .cls-2 {
        fill: #c2d3e1;
      }

      .cls-3 {
        fill: #f15a29;
      }

      .cls-4 {
        fill: #add4d1;
      }

      .cls-5 {
        fill: #be1e2d;
      }

      .cls-6 {
        fill: #095b56;
      }

      .cls-7 {
        fill: #bfd8dd;
      }

      .cls-8 {
        fill: #fbb040;
      }

      .cls-9 {
        fill: #00a79d;
      }

      .cls-10 {
        fill: #d1d3d4;
      }

      .cls-11 {
        fill: #706a6a;
      }
    </style>
  </defs>
  <g id="Layer_2-2" data-name="Layer 2">
    <g>
      <path class="cls-10" d="m81.18,116.64l-.03-.48-.41-.58c-.29-.16-1.06.08-1.06.08l-.93.44c-.98.46-2.37,1.11-3.94,1.8.06-5.32.17-16.08.26-27.04.1-.5.15-1.01.15-1.54V15.38c0-2.2-.89-4.18-2.3-5.5v-2.88c0-.7-.51-1.26-1.15-1.26h-12.61c-.63,0-1.15.57-1.15,1.26v1.18h-29.61v-1.18c0-.7-.51-1.26-1.15-1.26h-12.61c-.63,0-1.15.57-1.15,1.26v2.9c-1.39,1.32-2.27,3.28-2.27,5.47v70.6h.03c.07,11.96.08,26.49.15,31.92-1.57-.69-2.96-1.34-3.94-1.8,0,0-.81-.29-1.09-.36-.97-.24-1.35.91-1.35.91-.19,3.16,2.29,4.61,4.47,5.88.69.41,1.35.79,1.9,1.21,0,1.04.05,2.08.11,3.08.05.94.11,1.9.1,2.84,0,.08,0,.16.03.23-1.28,5.28-1.1,10.89-.92,16.32.08,2.57.17,5.23.09,7.77v.03c-.52,6.03,2.74,11.88,9.71,17.38l.14.09c6.8,3.54,14.89,3.86,21.96,3.88h.96c7.07-.02,15.16-.35,21.96-3.88l.14-.09c6.97-5.5,10.24-11.35,9.71-17.37v-.03c-.08-2.55,0-5.21.09-7.78.17-5.43.36-11.03-.92-16.32.02-.08.03-.15.03-.23,0-.94.05-1.91.1-2.85.06-1,.12-2.03.11-3.08.55-.43,1.21-.81,1.9-1.21,2.19-1.28,4.66-2.72,4.47-5.89Z"/>
      <g>
        <path class="cls-3" d="m9.63.72c-.24,0-.43.25-.43.55v2.31c1-.71,2.18-1.13,3.46-1.13h.67c.07-.58.13-1.15.17-1.72h-3.87Z"/>
        <path class="cls-5" d="m22.67,1.26c0-.3-.19-.55-.43-.55h-8.74c-.04.58-.1,1.15-.17,1.72h9.34v-1.18Z"/>
        <path class="cls-5" d="m54.14.72c-.24,0-.43.25-.43.55v1.18h8.36V.72h-7.93Z"/>
        <path class="cls-3" d="m66.75.72h-4.68v1.72h1.68c1.26,0,2.44.41,3.43,1.12V1.26c0-.3-.19-.55-.43-.55Z"/>
        <path class="cls-9" d="m57.92,83.92c.05,2.62.11,4.93.19,6.92,0,0,0,0,0,.02.29,3.7.57,6.76.91,9.61,0,.01,0,.02-.01.04v.05c1.31,4.12,2.24,8.59,3.14,12.91.59,2.86,1.2,5.81,1.92,8.62,1.12-.03,2.06.47,2.97.96.41.22.8.42,1.2.58,0-.88.05-1.77.1-2.62.06-1.04.12-2.12.1-3.19-.95.03-2,.78-2.37,1.54l-.04.09h-.1c-.12-.02-.22-.08-.3-.12l-.05-.03-.02-.06c-.36-1.25-.67-2.62-.91-3.95-.03-.02-.06-.05-.08-.09-.02-.05-.01-.1,0-.14-.31-1.28-.62-2.57-.94-3.86-1.61-6.53-3.27-13.28-3.63-20.12,0-.02-.02-.03-.01-.05.06-.82,0-1.95-.08-3.15-.09-1.45-.18-2.93-.03-3.97-.3-.57-.25-1.24-.19-1.84,0-.07.01-.15.02-.22,0,0,0,0,0,0-.06-.34-1.25-1.02-1.69-1.48.28.52.44,1.09.44,1.7s-.18,1.27-.52,1.84Z"/>
        <path class="cls-9" d="m57.8,80.05s.02.03.03.04c0,0-.01-.02-.03-.04Z"/>
        <path class="cls-9" d="m17.15,100.46c.34-2.85.62-5.91.91-9.61,0,0,0-.01,0-.02.08-2.13.15-4.61.2-7.45-.17-.43-.27-.87-.27-1.31,0-.2.13-.6.28-1.01-.74.26-1.74.52-1.78.79,0,0,0,0,0,0,0,.07.01.15.02.22.06.59.11,1.26-.19,1.84.14,1.03.05,2.52-.03,3.97-.07,1.2-.14,2.33-.08,3.15,0,.02-.01.03-.01.04-.36,6.84-2.03,13.6-3.64,20.12-.32,1.29-.63,2.57-.94,3.85.02.05.03.1,0,.15-.01.04-.05.06-.08.09-.24,1.33-.55,2.7-.91,3.95l-.02.06-.05.03c-.08.04-.18.1-.3.11h-.1s-.04-.08-.04-.08c-.37-.76-1.43-1.51-2.37-1.54-.02,1.07.04,2.14.1,3.19.05.86.09,1.74.1,2.63.4-.17.8-.36,1.2-.58.91-.49,1.85-.99,2.97-.96.71-2.81,1.33-5.76,1.92-8.62.9-4.32,1.82-8.79,3.13-12.92v-.05s0-.03,0-.04Z"/>
        <path class="cls-9" d="m65.93,57.22c-3.02,0-5.46-2.45-5.46-5.46v-17.83c0-3.02,2.45-5.46,5.46-5.46,1.04,0,2.01.3,2.83.8V9.63c0-3.17-2.25-5.76-5.01-5.76H12.65c-2.76,0-5.01,2.58-5.01,5.76v19.57c.8-.46,1.73-.74,2.72-.74,3.02,0,5.46,2.45,5.46,5.46v17.83c0,3.01-2.45,5.46-5.46,5.46-.99,0-1.92-.27-2.72-.74v23.75l13.87-2.13c.32-.08.64-.14.98-.17.17-.02.33-.03.51-.03h30.44c.69,0,1.35.12,1.95.33l13.38,2v-23.81c-.83.5-1.79.8-2.83.8Zm-.68-50.9c0-.33.24-.59.54-.59s.54.27.54.59v20.95c-.37-.04-.72-.06-1.08-.05V6.32Zm-4.31,0c0-.33.24-.59.54-.59s.54.27.54.59v21.65c-.34.15-.69.32-1.04.51-.01,0-.02.01-.03.02V6.32ZM10.32,26.85c-.37.04-.73.1-1.08.2V6.32c0-.33.24-.59.54-.59s.54.27.54.59v20.53Zm4.31,1.1c-.34-.24-.7-.45-1.08-.61V6.32c0-.33.24-.59.54-.59s.54.27.54.59v21.63Zm-4.31,47.34c0,.33-.24.59-.54.59s-.54-.27-.54-.59v-17.12c.37-.03.73-.07,1.08-.13v17.25Zm4.31,0c0,.33-.24.59-.54.59s-.54-.27-.54-.59v-18.56c.39-.28.75-.59,1.08-.94v19.5Zm4.31,0c0,.33-.24.59-.54.59s-.54-.27-.54-.59V6.32c0-.33.24-.59.54-.59s.54.27.54.59v68.96Zm4.31,0c0,.33-.24.59-.54.59s-.54-.27-.54-.59V6.32c0-.33.24-.59.54-.59s.54.27.54.59v68.96Zm4.31,0c0,.33-.24.59-.54.59s-.54-.27-.54-.59V6.32c0-.33.24-.59.54-.59s.54.27.54.59v68.96Zm4.31,0c0,.33-.24.59-.54.59s-.54-.27-.54-.59V6.32c0-.33.24-.59.54-.59s.54.27.54.59v68.96Zm4.31,0c0,.33-.24.59-.54.59s-.54-.27-.54-.59V6.32c0-.33.24-.59.54-.59s.54.27.54.59v68.96Zm4.31,0c0,.33-.24.59-.54.59s-.54-.27-.54-.59V6.32c0-.33.24-.59.54-.59s.54.27.54.59v68.96Zm4.31,0c0,.33-.24.59-.54.59s-.54-.27-.54-.59V6.32c0-.33.24-.59.54-.59s.54.27.54.59v68.96Zm4.31,0c0,.33-.24.59-.54.59s-.54-.27-.54-.59V6.32c0-.33.24-.59.54-.59s.54.27.54.59v68.96Zm4.31,0c0,.33-.24.59-.54.59s-.54-.27-.54-.59V6.32c0-.33.24-.59.54-.59s.54.27.54.59v68.96Zm4.31,0c0,.33-.24.59-.54.59s-.54-.27-.54-.59V6.32c0-.33.24-.59.54-.59s.54.27.54.59v68.96Zm4.31,0c0,.33-.24.59-.54.59s-.54-.27-.54-.59v-18.34c.32.34.68.65,1.08.89v17.45Zm4.31,0c0,.33-.24.59-.54.59s-.54-.27-.54-.59v-16.62c.11.02.22.04.33.05.25.04.5.07.75.09v16.48Z"/>
        <path class="cls-6" d="m15.82,51.76v-17.83c0-3.02-2.45-5.46-5.46-5.46-.99,0-1.92.27-2.72.74v6.15c.47-.25,1-.4,1.58-.4,1.75,0,3.18,1.33,3.18,2.97v9.69c0,1.64-1.42,2.97-3.18,2.97-.58,0-1.12-.15-1.58-.4v6.31c.8.46,1.73.74,2.72.74,3.02,0,5.46-2.45,5.46-5.46Z"/>
        <path class="cls-6" d="m60.47,33.93v17.83c0,3.01,2.45,5.46,5.46,5.46,1.04,0,2.01-.3,2.83-.8v-6.28c-.45.27-.96.43-1.52.43-1.63,0-2.94-1.33-2.94-2.97v-9.69c0-1.64,1.32-2.97,2.94-2.97.56,0,1.08.16,1.52.43v-6.12c-.83-.5-1.79-.8-2.83-.8-3.02,0-5.46,2.45-5.46,5.46Z"/>
        <path class="cls-9" d="m12.4,47.61v-9.69c0-1.64-1.42-2.97-3.18-2.97-.58,0-1.12.15-1.58.4v14.82c.47.25,1,.4,1.58.4,1.75,0,3.18-1.33,3.18-2.97Z"/>
        <path class="cls-9" d="m64.29,37.92v9.69c0,1.64,1.32,2.97,2.94,2.97.56,0,1.08-.16,1.52-.43v-14.75c-.45-.27-.96-.43-1.52-.43-1.63,0-2.94,1.33-2.94,2.97Z"/>
        <path d="m7.64,56.48V9.63c0-3.17,2.25-5.76,5.01-5.76h51.1c2.76,0,5.01,2.58,5.01,5.76v70.6h1.33c-.01,1.62-.03,3.25-.04,4.88.1-.49.15-1.01.15-1.54V9.63c0-2.2-.89-4.17-2.3-5.5V1.26c0-.7-.51-1.26-1.15-1.26h-12.61c-.63,0-1.15.57-1.15,1.26v1.18h-29.61v-1.18c0-.7-.51-1.26-1.15-1.26h-12.61c-.63,0-1.15.57-1.15,1.26v2.9c-1.39,1.32-2.27,3.28-2.27,5.47v66.25c.01,1.39.02,2.85.03,4.35h1.4v-23.75ZM53.71,1.26c0-.3.19-.55.43-.55h12.61c.24,0,.43.25.43.55v2.29c-1-.7-2.17-1.12-3.43-1.12h-10.04v-1.18ZM9.2,1.26c0-.3.19-.55.43-.55h12.61c.24,0,.43.25.43.55v1.18h-10.01c-1.27,0-2.46.42-3.46,1.13V1.26Z"/>
        <path class="cls-9" d="m10.67,114.63c.03-2.69.01-5.45,0-8.13-.03-6.8-.07-13.83.54-20.49v-.09s.09-.05.09-.05c1.37-.77,2.92-1.64,4.64-2.15.24-.47.19-1.04.14-1.6,0-.04,0-.08-.01-.12-.96.17-3.82,1.12-5.94,1.83-1.02.34-1.93.64-2.52.82.11,12.22.22,24.28.29,28.89.9.37,1.83.74,2.78,1.1Z"/>
        <path class="cls-7" d="m38.26,103.88h-.4c-7.17,0-14.04-1.06-20.44-3.16-1.29,4.09-2.21,8.52-3.1,12.81-.59,2.87-1.21,5.83-1.93,8.66,0,0,.01.01.01.02.04.31.05.63.05.94,0,.66.02,1.29.36,1.78,0,.01,0,.03,0,.05,7.02,4.69,15.96,7.25,25.26,7.23,9.29.02,18.23-2.54,25.24-7.23,0-.02,0-.03,0-.05.34-.5.35-1.12.36-1.78,0-.31,0-.64.05-.94,0,0,.01-.01.01-.02-.72-2.82-1.33-5.79-1.93-8.66-.89-4.29-1.81-8.72-3.1-12.81-6.39,2.1-13.28,3.16-20.48,3.16h0Zm15,1.82c6.33-.42,8.79,14.85,9.23,16.92-.96-1.85-2.92-5.86-3.98-7.79-4.06-7.37-9.97-6.24-15.68-6.41-8.03-.23-12.81-.41-19.68.71-5.51.9-7.5,10.04-9.23,13.73.69-3.12,1.84-9.3,2.9-12.33.74-8.95,10.32-4.24,22.07-4.69,3.83.06,7.88.29,14.37-.14Z"/>
        <path class="cls-7" d="m11.57,86.13c-.6,6.62-.57,13.61-.53,20.37.01,2.72.03,5.53,0,8.26.09.03.18.07.28.1.3-1.25.61-2.5.91-3.75,1.6-6.51,3.26-13.23,3.62-20.04,0,0,0-.01,0-.02-.06-.84,0-1.99.08-3.2.08-1.37.17-2.78.05-3.78-1.62.49-3.09,1.31-4.4,2.05Z"/>
        <path class="cls-6" d="m14,128.17s.01,0,.02,0c1.47,1.84,3.87,2.89,6.01,3.74,1.81.71,3.7,1.3,5.63,1.75,3.9.91,8.08,1.36,12.43,1.34,4.35.02,8.53-.43,12.43-1.34,1.93-.45,3.83-1.04,5.63-1.75,2.14-.85,4.54-1.91,6.01-3.74,0,0,.01,0,.01,0,.14-.38.32-.75.5-1.1.3-.58.57-1.13.65-1.76-6.94,4.59-15.72,7.12-24.85,7.18,0,0,0,0,0,0h-.25s-.02,0-.04,0h-.18s-.02,0-.04,0h-.25s0,0,0,0c-9.13-.05-17.91-2.59-24.85-7.17.08.63.35,1.18.65,1.76.18.35.37.72.5,1.1Z"/>
        <path class="cls-7" d="m65.13,106.5c.03-6.76.07-13.74-.53-20.36-1.31-.74-2.78-1.56-4.4-2.05-.12.99-.03,2.41.05,3.78.07,1.21.14,2.36.08,3.2,0,0,0,.01-.01.02.37,6.81,2.02,13.53,3.63,20.04.31,1.25.61,2.5.91,3.75.09-.04.19-.07.28-.1-.03-2.73-.02-5.54,0-8.26Z"/>
        <path class="cls-9" d="m64.86,85.87l.08.05v.09c.62,6.67.59,13.7.55,20.49-.01,2.68-.02,5.44,0,8.13.94-.35,1.88-.72,2.77-1.09.06-4.62.18-16.67.29-28.89-.59-.18-1.51-.49-2.52-.82-2.13-.71-4.98-1.66-5.95-1.83,0,.04,0,.08-.01.12-.05.56-.1,1.13.14,1.6,1.72.51,3.27,1.38,4.64,2.15Z"/>
        <path class="cls-8" d="m65,115.29h0s-.03,0,0,0Z"/>
        <path class="cls-8" d="m65,115.28s0,0,0,0c.03,0,.07-.01,0,0Z"/>
        <path class="cls-9" d="m71,115.61c1.92-1.12,3.74-2.19,3.81-4.28l-.52.24c-1.18.55-2.97,1.39-4.94,2.23l-.96.41c-.92.38-2.39.89-3.38,1.25.08.49.34,1.85.59,2.9.06.24.12.49.19.73.01,0,.03.01.04.02.4-.71,1.29-1.38,2.19-1.56l.63-.4c.69-.58,1.53-1.07,2.34-1.54Z"/>
        <path class="cls-2" d="m53.19,164.74c.48.14.92-.1,1.39-.35.35-.19.71-.38,1.11-.41.03-.02.05-.03.09-.03.93-.72,1.96-1.41,2.95-2.07,2.78-1.85,5.65-3.76,7.06-6.82-.05-.24-.08-.49-.11-.73-.08-.57-.15-1.16-.42-1.65-.06-.06-.11-.12-.16-.18-.15-.02-.26.09-.43.26-.09.09-1.83,1.91-4.02,3.92-.87.86-1.78,1.65-2.74,2.36-1.39,1.12-2.78,2.09-3.92,2.61,0,0,0,.01-.01.02-.06.56-.25,1.08-.44,1.58-.16.44-.33.9-.4,1.37.01.05.03.09.05.14Zm3.21-3.7c1.52-1.24,2.96-2.67,4.42-3.93.58-.5,3.35-3.22,3.12-1.36-.18,1.44-2.61,2.98-3.68,3.7-.63.42-1.25.75-1.91,1.04-.45.2-1.38.9-1.87.84-.06,0-.09-.04-.08-.1v-.18Z"/>
        <path class="cls-6" d="m38.08,163.32c-.05,0-.1,0-.15,0-5.22,0-10.42-.53-15.46-1.56.07.47.23.92.4,1.39.17.46.35.94.42,1.45v.03s0,.03,0,.03c-.02.08-.05.16-.1.26l-.03.05-.05.02c-.15.05-.29.07-.43.07-.44,0-.84-.21-1.22-.42-.27-.15-.53-.29-.8-.35.54,1.03,1.62,1.31,2.58,1.55l.16.04c4.55.96,9.12,1.32,14.3,1.16.02,0,.04-.02.06-.02.11,0,.22,0,.33,0,.11,0,.22,0,.33,0h0s.03.01.05.02c5.18.16,9.75-.2,14.31-1.16l.15-.04c.97-.24,2.05-.52,2.58-1.55-.27.07-.53.21-.8.35-.39.21-.79.42-1.22.42-.14,0-.28-.02-.43-.07l-.05-.02-.02-.05c-.05-.1-.08-.18-.1-.26v-.03s0-.03,0-.03c.08-.5.25-.99.42-1.45.17-.47.33-.92.4-1.39-5.04,1.03-10.24,1.56-15.46,1.56-.05,0-.1,0-.15,0Z"/>
        <path class="cls-9" d="m1.87,111.58l-.52-.24c.07,2.09,1.89,3.16,3.81,4.28.81.47,1.65.96,2.34,1.54l.25.21v.15c1.02.03,2.12.79,2.57,1.6.01,0,.03-.01.04-.02.1-.35.18-.71.27-1.07.18-.75.33-1.49.45-2,.03-.14.06-.28.09-.42,0-.32-3.68-1.6-3.68-1.6-.1,0-.18-.04-.25-.09-.04-.02-.09-.04-.13-.06l-.29-.04c-1.97-.84-3.76-1.68-4.94-2.23Z"/>
        <path class="cls-8" d="m18.26,159.03c-.75-.61-1.5-1.25-2.22-1.89.18.18.36.35.54.53.54.48,1.1.94,1.68,1.37Z"/>
        <path class="cls-9" d="m69.03,148.2c-.07-2.55.01-5.21.1-7.78.17-5.41.36-11-.94-16.16l-.07-.29.03-.05c-.44-.17-.85-.4-1.26-.62-.86-.46-1.75-.94-2.77-.92-.03.25-.03.5-.04.78-.01.69-.02,1.4-.42,1.99,0,.01-.02.02-.03.02-.05.76-.37,1.41-.7,2.04-.18.35-.37.71-.5,1.08,0,.03,0,.06-.03.09-1.52,1.9-3.97,2.97-6.14,3.84-1.82.72-3.73,1.31-5.68,1.77-3.85.9-7.98,1.35-12.28,1.35-.07,0-.15,0-.22,0s-.15,0-.22,0c-4.3,0-8.43-.45-12.28-1.35-1.95-.45-3.86-1.05-5.68-1.77-2.18-.86-4.62-1.94-6.14-3.84-.02-.03-.03-.06-.03-.1-.13-.37-.31-.73-.49-1.08-.32-.63-.65-1.28-.7-2.04,0,0-.02-.01-.03-.02-.4-.59-.41-1.3-.42-1.99,0-.27-.01-.53-.04-.78-1.02-.01-1.91.46-2.77.92-.41.22-.83.45-1.26.62l.03.05-.07.29c-1.29,5.16-1.11,10.75-.94,16.16.08,2.58.17,5.24.09,7.82v.06s0,.04,0,.04c-.01.12,0,.24-.02.36.73,1.16,1.22,2.48,1.68,3.78.27.78.56,1.59.9,2.34.12.08.28.1.43.11.04-.21.07-.42.1-.63.08-.6.16-1.22.46-1.76l.03-.03c.06-.06.12-.13.18-.2l.03-.03h.04q.33-.09,1.26.56s.03,0,.04,0c.01,0,.02,0,.03,0,.02,0-1.06-1.2.07.05,3.07,3.39,6.08,6.83,9.93,8.55.01,0,.03-.01.04,0,5.13,1.07,10.43,1.6,15.74,1.59,3.81,0,12.84-1.35,15.8-1.74.85-.85,6.64-5.07,9.77-8.19.05-.07.1-.13.14-.2,0,0,.02,0,.02-.01.02-.02.03-.03.05-.04.01,0,.02,0,.03,0,.02,0,.39-.04.59-.25.17-.18.39-.4.71-.33h.04s.03.05.03.05c.06.08.12.15.18.2l.03.03c.3.54.38,1.16.46,1.76.03.21.06.42.1.63.15,0,.31-.03.43-.11.34-.75.62-1.56.9-2.34.46-1.3.94-2.62,1.68-3.78,0-.12,0-.24-.02-.36v-.14Zm-57.7-4.99c-.29-4.33-.56-8.41.33-12.26.1-.44.53-.71.97-.61.44.1.71.54.61.97-.83,3.61-.56,7.58-.29,11.79.15,2.33.31,4.74.31,7.29s-1.78-4.88-1.93-7.18Zm53.51,0c-.15,2.3-1.12,7.99-1.57,7.99s-.36-.36-.36-.81c0-2.55.16-4.96.31-7.29.28-4.2.54-8.17-.29-11.79-.1-.44.17-.87.61-.97.44-.1.87.17.97.61.88,3.84.61,7.93.33,12.26Z"/>
        <path class="cls-8" d="m57.91,159.03c.96-.71,1.88-1.5,2.74-2.36-.87.79-1.8,1.61-2.74,2.36Z"/>
        <path class="cls-11" d="m16.3,164.56c6.55,3.39,14.48,3.69,21.4,3.71h.27s.11,0,.11,0h.29s.1,0,.1,0c6.92-.02,14.85-.32,21.4-3.71,6.26-4.95,9.34-10.12,9.21-15.39-.61,1.05-1.04,2.24-1.45,3.4-.28.8-.57,1.62-.92,2.39v.03s-.04.02-.04.02c-.2.15-.45.17-.66.18-1.45,3.1-4.34,5.03-7.13,6.88-1.04.69-2.02,1.34-2.93,2.06,0,0,0,.01,0,.02-.55,1.4-1.87,1.73-2.93,1.99l-.16.04c-3.9.82-7.79,1.21-12.07,1.21-.88,0-1.79-.02-2.7-.06-.92.03-1.82.06-2.7.06-4.27,0-8.17-.39-12.06-1.21l-.16-.04c-1.06-.26-2.39-.59-2.93-1.99,0,0,0-.01,0-.02-.92-.71-1.89-1.37-2.93-2.06-2.8-1.86-5.68-3.78-7.13-6.88-.21-.01-.46-.03-.66-.18l-.03-.02v-.03c-.36-.77-.65-1.6-.93-2.39-.41-1.16-.84-2.35-1.44-3.4-.14,5.27,2.95,10.44,9.21,15.39Z"/>
        <path class="cls-2" d="m22.17,161.64c-.25-.11-.52-.25-.79-.41-1.75-.91-3.31-2.14-4.8-3.57-.18-.17-.36-.35-.54-.53-2.44-2.18-4.45-4.29-4.54-4.39-.16-.17-.27-.27-.43-.26-.05.06-.1.12-.16.18-.27.5-.34,1.09-.42,1.65-.03.24-.07.49-.11.73,1.41,3.06,4.29,4.98,7.06,6.82,1,.66,2.03,1.35,2.95,2.07.03,0,.06,0,.09.03.4.04.76.23,1.11.41.46.25.9.49,1.39.35.02-.05.04-.09.05-.14-.07-.47-.24-.92-.41-1.37-.19-.51-.37-1.03-.43-1.58,0,0,0-.01-.01-.02Zm-7.05-2.86c-1.23-.99-2.59-2.34-3.32-3.75l.09.09c-.24-.33-.24-.69.09-.91,1.02.71,1.86,1.93,2.78,2.79,1.36,1.29,3.34,2.52,4.3,4.11-1.28.01-2.99-1.57-3.94-2.34Z"/>
        <path d="m68.23,123.62s.01,0,.02,0c0-.88.05-1.77.1-2.63.06-1.04.12-2.12.1-3.19,0,0-.01,0-.02,0,.02,1.07-.04,2.14-.1,3.19-.05.86-.09,1.74-.1,2.62Z"/>
        <path d="m7.39,117.35s0,0,0,0c.12,0,.22.07.27.17.02,0,.05,0,.07,0v-.15s-.24-.21-.24-.21c-.69-.58-1.52-1.07-2.34-1.54-1.92-1.12-3.74-2.19-3.81-4.28l.52.24c1.18.55,2.97,1.39,4.94,2.23l.29.04c-1.07-.48-4.05-2-5.13-2.5l-.63-.29s-.04,0-.06,0c-.07,0-.13.01-.19.03-.07,2.41,1.96,3.6,3.93,4.75.81.47,1.63.96,2.3,1.53.02,0,.04-.01.06-.01Z"/>
        <path d="m7.24,113.91c.07.06.16.09.25.09-.03,0-.12-.04-.25-.09Z"/>
        <path d="m69.07,149.17c.14,5.27-2.95,10.44-9.21,15.39-6.55,3.39-14.48,3.69-21.4,3.71h-.1s-.29,0-.29,0h-.38c-6.92-.02-14.85-.32-21.4-3.71-6.26-4.95-9.34-10.12-9.21-15.39-.07-.12-.15-.23-.22-.35-.29,5.47,2.83,10.83,9.3,15.94,6.57,3.41,14.41,3.74,21.91,3.75,7.5,0,15.34-.34,21.91-3.75,6.47-5.11,9.58-10.47,9.3-15.94-.07.12-.15.23-.22.35Z"/>
        <path d="m7.14,148.3v-.06c.07-2.58-.01-5.24-.1-7.82-.18-5.4-.36-10.99.94-16.16l.07-.29-.03-.05s-.07.03-.11.04c-.01.1-.07.19-.16.24-1.3,5.19-1.12,10.8-.95,16.23.08,2.59.17,5.27.09,7.85,0,0,0,0,0,.01,0,0,0,0,0,0,0,.02,0,.04,0,.06.08.11.15.23.22.35,0-.12,0-.24.02-.36v-.04Z"/>
        <path d="m68.25,123.96s-.07-.03-.1-.04l-.03.05.07.29c1.29,5.16,1.11,10.75.94,16.16-.08,2.57-.17,5.23-.1,7.78v.14c.01.12.01.24.02.36.08-.12.14-.24.22-.35,0-.02,0-.04,0-.06h0s0,0,0-.01c-.08-2.58,0-5.26.09-7.85.18-5.43.35-11.04-.95-16.23-.09-.05-.14-.14-.16-.24Z"/>
        <path d="m74.82,111.05l-.63.29c-1.29.6-5.78,2.87-5.79,2.88l.96-.41c1.97-.84,3.76-1.68,4.94-2.23l.52-.24c-.07,2.09-1.89,3.16-3.81,4.28-.81.47-1.65.96-2.34,1.54l-.63.4c.13-.03.26-.04.38-.04.02,0,.04,0,.07,0,.05-.1.15-.17.28-.17,0,0,0,0,0,0,.02,0,.04,0,.06.01.67-.56,1.49-1.05,2.3-1.53,1.97-1.15,4.01-2.34,3.94-4.75-.06-.02-.12-.02-.19-.03-.02,0-.04,0-.06,0Z"/>
        <path d="m7.74,117.81s-.01,0-.02,0c-.02,1.06.04,2.14.1,3.19.05.86.09,1.75.1,2.63,0,0,.01,0,.02,0,0-.88-.05-1.77-.1-2.63-.06-1.04-.11-2.12-.1-3.19Z"/>
        <path class="cls-4" d="m13.23,131.31c.1-.44-.17-.87-.61-.97-.44-.1-.87.17-.97.61-.88,3.84-.61,7.93-.33,12.26.15,2.3,1.93,9.75,1.93,7.18s-.16-4.96-.31-7.29c-.28-4.2-.54-8.17.29-11.79Z"/>
        <path d="m18.06,90.85c-.28,3.7-.57,6.76-.91,9.61,0,.01,0,.03.01.04l.02-.17c.33-2.83.62-5.84.9-9.49v-.11c.09-2.07.16-4.51.2-7.26-.01-.03-.02-.06-.03-.09-.05,2.85-.12,5.33-.2,7.45,0,0,0,0,0,.02Z"/>
        <path d="m76.16,110.89l-.03-.48-.41-.58c-.29-.16-1.06.08-1.06.08l-.93.44c-.98.46-2.37,1.11-3.94,1.8.06-5.32.17-16.08.26-27.04.01-1.63.03-3.26.04-4.88h-1.33l-13.38-2c1.03.36,1.88,1.01,2.42,1.81.02.02.03.03.03.04.06.09.11.19.16.28.44.46,1.63,1.14,1.69,1.48,0,0,0,0,0,0,0,.07-.01.15-.02.22-.06.59-.11,1.27.19,1.84-.14,1.04-.05,2.52.03,3.97.07,1.2.14,2.33.08,3.15,0,.02.01.03.01.05.36,6.84,2.03,13.59,3.63,20.12.32,1.29.63,2.57.94,3.86-.02.05-.02.1,0,.14.01.04.05.06.08.09.24,1.33.55,2.7.91,3.95l.02.06.05.03c.08.04.18.1.3.11h.1s.04-.08.04-.08c.37-.76,1.43-1.51,2.37-1.54,0,0,.01,0,.02,0,.02,1.06-.04,2.14-.1,3.19-.05.86-.09,1.75-.1,2.63,0,0-.01,0-.02,0-.4-.17-.79-.36-1.2-.58-.91-.49-1.85-.99-2.97-.96-.71-2.81-1.33-5.76-1.92-8.62-.9-4.32-1.82-8.79-3.13-12.91v.07s-.27.09-.27.09c0,0,0,0,0,0,1.29,4.09,2.21,8.52,3.1,12.81.59,2.87,1.21,5.83,1.93,8.66,0,0-.01.01-.01.02-.04.31-.05.63-.05.94,0,.66-.02,1.29-.36,1.78,0,.02,0,.03,0,.05-7.01,4.69-15.96,7.25-25.24,7.23-9.29.02-18.24-2.54-25.26-7.23,0-.02,0-.03,0-.05-.34-.5-.35-1.12-.36-1.78,0-.31,0-.64-.05-.94,0,0-.01-.01-.01-.02.72-2.82,1.33-5.79,1.93-8.66.89-4.29,1.81-8.72,3.1-12.81,0,0,0,0,0,0l-.28-.09v-.08c-1.3,4.12-2.23,8.59-3.12,12.92-.59,2.86-1.2,5.81-1.92,8.62-1.12-.03-2.06.47-2.97.96-.41.22-.8.42-1.2.58,0,0-.01,0-.02,0,0-.88-.05-1.77-.1-2.63-.06-1.04-.12-2.12-.1-3.19,0,0,.01,0,.02,0,.95.03,2,.78,2.37,1.54l.04.09h.1c.12-.02.23-.08.3-.12l.05-.03.02-.06c.36-1.25.67-2.62.91-3.95.03-.02.06-.05.08-.09.02-.05.01-.1,0-.15.31-1.29.62-2.57.94-3.85,1.61-6.53,3.27-13.28,3.64-20.12,0-.01.01-.03.01-.04-.06-.82,0-1.95.08-3.15.09-1.45.18-2.94.03-3.97.3-.57.25-1.24.19-1.84,0-.07-.01-.15-.02-.22,0,0,0,0,0,0,.04-.27,1.05-.53,1.78-.79.22-.59.48-1.19.48-1.19.64-.86,1.63-1.47,2.77-1.77l-13.87,2.13h-1.4c.07,11.96.08,26.48.15,31.92-1.57-.69-2.96-1.34-3.94-1.8,0,0-.81-.29-1.09-.36-.97-.24-1.35.91-1.35.91-.19,3.16,2.29,4.61,4.47,5.88.69.4,1.35.79,1.9,1.21,0,1.04.05,2.08.11,3.08.05.93.11,1.9.1,2.84,0,.08,0,.16.03.23-1.28,5.28-1.1,10.89-.92,16.32.08,2.57.17,5.23.09,7.77v.03c-.52,6.03,2.74,11.87,9.71,17.38l.14.09c6.8,3.53,14.89,3.86,21.96,3.88h.96c7.07-.02,15.16-.35,21.96-3.88l.14-.09c6.97-5.5,10.24-11.35,9.71-17.38v-.03c-.08-2.55,0-5.21.09-7.78.17-5.43.36-11.03-.93-16.32.02-.08.03-.15.03-.23,0-.94.05-1.91.1-2.84.06-1,.12-2.03.11-3.08.55-.42,1.21-.81,1.9-1.21,2.19-1.28,4.66-2.72,4.47-5.89Zm-16.08-28.78s0-.08.01-.12c.96.17,3.82,1.12,5.95,1.83,1.02.34,1.93.64,2.52.82-.11,12.22-.22,24.27-.29,28.89-.9.37-1.83.74-2.77,1.09-.03-2.69-.02-5.45,0-8.13.03-6.8.07-13.83-.54-20.49v-.09s-.09-.05-.09-.05c-1.37-.77-2.92-1.64-4.64-2.15-.24-.47-.19-1.04-.14-1.6Zm3.87,29c-1.6-6.51-3.26-13.23-3.63-20.04,0,0,0-.01.01-.02.06-.84,0-1.99-.08-3.2-.08-1.37-.17-2.78-.05-3.78,1.62.49,3.09,1.31,4.4,2.05.6,6.62.57,13.61.53,20.36-.01,2.72-.03,5.53,0,8.26-.09.04-.19.07-.28.1-.3-1.25-.6-2.5-.91-3.75Zm1.05,4.16h0s-.04.01,0,0c.07,0,.03,0,0,0,0,0,0,0,0,0Zm-27.3,17.21s0,0,0,0h.25s.02,0,.04,0h.18s.03,0,.04,0h.25s0,0,0,0c9.13-.05,17.91-2.59,24.85-7.18-.08.63-.35,1.18-.65,1.76-.18.35-.37.72-.5,1.1,0,0-.01,0-.01,0-1.47,1.84-3.87,2.89-6.01,3.74-1.8.71-3.7,1.3-5.63,1.75-3.89.91-8.08,1.36-12.43,1.34-4.35.02-8.53-.43-12.43-1.34-1.93-.45-3.83-1.04-5.63-1.75-2.14-.85-4.54-1.91-6.01-3.74,0,0-.01,0-.02,0-.14-.38-.32-.75-.5-1.1-.3-.58-.57-1.13-.65-1.76,6.94,4.59,15.72,7.12,24.85,7.17Zm-21.78-44.63c-.07,1.21-.14,2.36-.08,3.2,0,0,0,.01,0,.02-.36,6.81-2.02,13.53-3.62,20.04-.31,1.25-.62,2.5-.91,3.75-.09-.04-.19-.07-.28-.1.03-2.73.02-5.54,0-8.26-.03-6.76-.07-13.74.53-20.37,1.31-.74,2.78-1.56,4.4-2.05.12.99.03,2.41-.05,3.78Zm-5.78-4.04c2.13-.71,4.98-1.66,5.94-1.83,0,.04,0,.08.01.12.05.56.1,1.14-.14,1.6-1.72.51-3.27,1.38-4.64,2.15l-.08.05v.09c-.62,6.67-.59,13.7-.55,20.49.01,2.68.02,5.44,0,8.13-.95-.35-1.88-.72-2.78-1.1-.06-4.61-.18-16.67-.29-28.89.59-.18,1.51-.49,2.52-.82Zm-5.1,32.01c-1.97-1.15-4.01-2.34-3.93-4.75.06-.02.12-.02.19-.03.02,0,.04,0,.06,0l.63.29c1.07.5,4.06,2.02,5.13,2.5.05.02.09.04.13.06.14.06.23.09.25.09,0,0,3.68,1.28,3.68,1.6,0,0,0,0,0,0,.01,0,.02,0,.01,0-.03.1-.06.25-.1.41-.12.51-.27,1.26-.45,2-.09.37-.18.74-.27,1.07-.01,0-.03.01-.04.02-.46-.82-1.56-1.57-2.58-1.6-.02,0-.05,0-.07,0-.06-.1-.16-.17-.27-.17,0,0,0,0,0,0-.02,0-.04,0-.06.01-.67-.56-1.49-1.05-2.3-1.53Zm54.96,48.93c-6.57,3.41-14.41,3.74-21.91,3.75-7.5,0-15.34-.34-21.91-3.75-6.47-5.11-9.58-10.47-9.3-15.94.08.12.15.23.22.35.61,1.05,1.04,2.24,1.44,3.4.28.8.57,1.62.92,2.39v.03s.04.02.04.02c.2.15.45.17.66.18,1.45,3.1,4.34,5.03,7.13,6.88,1.04.69,2.02,1.34,2.93,2.06,0,0,0,.01,0,.02.55,1.4,1.87,1.73,2.93,1.99l.16.04c3.89.82,7.78,1.21,12.06,1.21.88,0,1.79-.02,2.7-.06.92.03,1.82.06,2.7.06,4.27,0,8.17-.4,12.07-1.21l.16-.04c1.06-.26,2.39-.59,2.93-1.99,0,0,0-.01,0-.02.92-.71,1.89-1.37,2.93-2.06,2.8-1.86,5.68-3.78,7.13-6.88.21-.01.46-.03.66-.18l.03-.02v-.03c.36-.77.65-1.6.93-2.39.41-1.16.84-2.35,1.45-3.4.07-.12.15-.23.22-.35.29,5.47-2.83,10.83-9.3,15.94Zm-6.71-1.62c-.17.46-.35.94-.42,1.45v.03s0,.03,0,.03c.02.08.05.16.1.26l.02.05.05.02c.15.05.29.07.43.07.44,0,.84-.21,1.22-.42.27-.15.53-.29.8-.35-.54,1.03-1.62,1.31-2.58,1.55l-.15.04c-4.56.96-9.13,1.33-14.31,1.16-.02,0-.03-.02-.05-.02h0c-.11,0-.22,0-.33,0-.11,0-.22,0-.33,0-.03,0-.04.01-.06.02-5.18.16-9.75-.2-14.3-1.16l-.16-.04c-.97-.24-2.05-.52-2.58-1.55.27.07.53.21.8.35.39.21.79.42,1.22.42.14,0,.28-.02.43-.07l.05-.02.03-.05c.05-.1.08-.18.1-.26v-.03s0-.03,0-.03c-.08-.5-.25-.99-.42-1.45-.17-.47-.33-.92-.4-1.39,5.04,1.03,10.24,1.56,15.46,1.56.05,0,.1,0,.15,0,.05,0,.1,0,.15,0,5.22,0,10.42-.53,15.46-1.56-.07.47-.23.92-.4,1.39Zm.69-1.49s0,0,.01-.02c1.14-.51,2.53-1.49,3.92-2.61.94-.75,1.87-1.57,2.74-2.36,2.2-2.01,3.94-3.83,4.02-3.92.16-.17.28-.27.43-.26.05.06.1.12.16.18.27.5.35,1.09.42,1.65.03.24.07.49.11.73-1.41,3.06-4.28,4.98-7.06,6.82-1,.66-2.03,1.35-2.95,2.07-.03,0-.06,0-.09.03-.4.04-.76.23-1.11.41-.47.25-.9.49-1.39.35-.02-.05-.04-.09-.05-.14.07-.47.24-.92.4-1.37.19-.51.38-1.03.44-1.58Zm-31.36,1.58c.16.44.33.9.41,1.37-.02.05-.03.09-.05.14-.48.14-.92-.1-1.39-.35-.35-.19-.71-.38-1.11-.41-.03-.02-.05-.03-.09-.03-.93-.72-1.96-1.41-2.95-2.07-2.78-1.85-5.65-3.76-7.06-6.82.05-.24.08-.49.11-.73.08-.57.15-1.16.42-1.65.06-.05.11-.12.16-.18.16-.02.27.09.43.26.09.1,2.11,2.21,4.54,4.39.72.64,1.47,1.29,2.22,1.89,1.08.87,2.16,1.65,3.12,2.2.27.16.54.29.79.41,0,0,0,.01.01.02.06.55.25,1.07.43,1.58Zm46.74-22.81c-.08,2.59-.17,5.27-.09,7.85,0,0,0,0,0,.01h0s0,.04,0,.06c-.08.11-.15.23-.22.35-.73,1.16-1.22,2.48-1.68,3.78-.28.78-.56,1.59-.9,2.34-.12.08-.28.1-.43.11-.04-.21-.07-.42-.1-.63-.08-.6-.16-1.22-.46-1.76l-.03-.03c-.06-.06-.12-.13-.18-.2l-.03-.03h-.04c-.33-.09-.54.14-.71.32-.2.21-.57.25-.59.25-.08.08-.17.16-.25.25-3.13,3.13-8.92,7.35-9.77,8.19-2.96.39-12,1.75-15.8,1.74-5.32.01-10.62-.52-15.74-1.59-.01,0-.03,0-.04,0-3.85-1.72-6.86-5.16-9.93-8.55-1.13-1.25-.05-.04-.07-.05-.01,0-.02,0-.03,0-.02,0-.03,0-.04,0q-.93-.64-1.26-.57h-.04s-.03.05-.03.05c-.06.08-.12.15-.18.2l-.03.03c-.3.54-.38,1.16-.46,1.76-.03.21-.06.42-.1.63-.15,0-.31-.03-.43-.11-.34-.75-.62-1.56-.9-2.34-.46-1.3-.95-2.62-1.68-3.78-.07-.12-.14-.24-.22-.35,0-.02,0-.04,0-.06,0,0,0,0,0,0,0,0,0,0,0-.01.08-2.58,0-5.26-.09-7.85-.18-5.43-.35-11.04.95-16.23.09-.05.14-.13.16-.24.04-.01.07-.03.11-.04.43-.17.85-.4,1.26-.62.86-.46,1.75-.94,2.77-.92.03.25.03.5.04.78,0,.69.02,1.4.42,1.99,0,.01.02.02.03.02.05.76.37,1.41.7,2.04.18.35.36.71.49,1.08,0,.04,0,.07.03.1,1.52,1.9,3.97,2.97,6.14,3.84,1.82.72,3.73,1.31,5.68,1.77,3.85.9,7.98,1.35,12.28,1.35.07,0,.15,0,.22,0s.15,0,.22,0c4.3,0,8.43-.45,12.28-1.35,1.95-.45,3.86-1.05,5.68-1.77,2.18-.86,4.63-1.94,6.14-3.84.02-.03.02-.06.03-.09.13-.37.31-.74.5-1.08.32-.63.65-1.28.7-2.04,0,0,.02-.01.03-.02.4-.59.41-1.3.42-1.99,0-.27.01-.53.04-.78,1.02-.01,1.91.46,2.77.92.41.22.83.45,1.26.62.03.01.07.03.1.04.01.1.07.19.16.24,1.3,5.18,1.12,10.8.95,16.23Zm1.78-24.59c-.81.47-1.63.96-2.3,1.53-.02,0-.04-.01-.06-.01,0,0,0,0,0,0-.12,0-.22.07-.28.17-.02,0-.04,0-.07,0-.13,0-.26.02-.38.04-.9.17-1.79.84-2.19,1.56-.01,0-.03-.01-.04-.02-.06-.21-.12-.46-.19-.73-.25-1.05-.51-2.41-.59-2.9.99-.36,2.45-.87,3.38-1.25.01,0,4.5-2.27,5.79-2.88l.63-.29s.04,0,.06,0c.07,0,.13.01.19.03.07,2.41-1.96,3.6-3.94,4.75Z"/>
        <path d="m6.2,80.23h.03c0-1.5-.02-2.95-.03-4.35v4.35Z"/>
        <path d="m58.11,90.85s0-.01,0-.02c-.08-1.99-.14-4.3-.19-6.92-.01.02-.02.04-.03.05.05,2.56.11,4.84.19,6.78v.09c.29,3.67.58,6.68.91,9.49l.02.17s.01-.02.01-.04c-.34-2.85-.62-5.91-.91-9.61Z"/>
        <path class="cls-4" d="m63.54,130.34c-.44.1-.71.54-.61.97.83,3.61.56,7.58.29,11.79-.15,2.33-.31,4.74-.31,7.29,0,.45-.09.81.36.81s1.42-5.69,1.57-7.99c.29-4.33.56-8.41-.33-12.26-.1-.44-.54-.71-.97-.61Z"/>
        <path class="cls-1" d="m14.76,157c-.92-.86-1.76-2.08-2.78-2.79-.33.22-.33.58-.09.91l-.09-.09c.73,1.41,2.1,2.76,3.32,3.75.95.77,2.66,2.35,3.94,2.34-.96-1.59-2.94-2.83-4.3-4.11Z"/>
        <path class="cls-1" d="m56.49,161.32c.48.06,1.42-.64,1.87-.84.66-.29,1.28-.62,1.91-1.04,1.07-.72,3.5-2.26,3.68-3.7.23-1.85-2.53.86-3.12,1.36-1.46,1.27-2.9,2.69-4.42,3.93v.18c0,.06.02.1.08.1Z"/>
        <path class="cls-1" d="m16.82,110.53c-1.06,3.04-2.22,9.21-2.9,12.33,1.73-3.7,3.72-12.84,9.23-13.73,6.87-1.12,11.65-.95,19.68-.71,5.71.17,11.62-.96,15.68,6.41,1.07,1.93,3.02,5.95,3.98,7.79-.44-2.07-2.9-17.33-9.23-16.92-6.49.43-10.54.2-14.37.14-11.75.45-21.33-4.26-22.07,4.69Z"/>
        <path class="cls-9" d="m57.37,90.97v-.12c-.08-1.97-.15-4.33-.2-6.98v-.11s.06-.09.06-.09c.33-.5.49-1.03.49-1.6,0-1.9-1.92-3.45-4.29-3.45h-30.44c-1.57,0-3.01.69-3.77,1.81l-.11.16h-.08s-.04.22-.04.22c-.2.41-.3.83-.3,1.26,0,.39.09.79.26,1.17l.03.07v.08c-.05,2.85-.12,5.36-.2,7.46l-.02.13c-.27,3.48-.54,6.4-.86,9.13,6.24,2.02,12.95,3.04,19.94,3.04h.4c7.02,0,13.74-1.02,19.98-3.04-.31-2.71-.59-5.63-.86-9.13v-.02Z"/>
        <path d="m23,77.91c-.17,0-.34.01-.51.03-.34.03-.66.09-.98.17-1.13.29-2.13.91-2.77,1.77,0,0-.26.6-.48,1.19-.15.41-.28.81-.28,1.01,0,.44.1.88.27,1.31.01.03.02.06.03.09-.05,2.76-.11,5.19-.19,7.26v.11c-.29,3.65-.58,6.66-.91,9.49l-.02.17v.05s-.01.08-.01.08l.28.09s0,0,0,0c6.39,2.1,13.27,3.16,20.44,3.16h.4c7.2,0,14.08-1.06,20.48-3.16,0,0,0,0,0,0l.28-.09v-.07s-.01-.05-.01-.05l-.02-.17c-.33-2.81-.61-5.82-.9-9.49v-.09c-.09-1.94-.15-4.22-.2-6.78.01-.02.02-.04.03-.05.34-.57.52-1.2.52-1.84s-.16-1.18-.44-1.7c-.05-.09-.1-.19-.16-.28,0-.01-.02-.03-.03-.04-.54-.81-1.39-1.45-2.42-1.81-.6-.21-1.26-.33-1.95-.33h-30.44Zm35.24,22.21c-6.24,2.02-12.96,3.04-19.98,3.04h-.4c-6.99,0-13.7-1.02-19.94-3.04.31-2.73.59-5.64.86-9.13l.02-.13c.08-2.11.15-4.62.2-7.46v-.08s-.03-.07-.03-.07c-.17-.38-.26-.78-.26-1.17,0-.43.1-.85.3-1.26l.04-.22h.08s.11-.16.11-.16c.76-1.12,2.2-1.81,3.77-1.81h30.44c2.37,0,4.29,1.55,4.29,3.45,0,.56-.16,1.1-.49,1.6l-.06.09v.11c.05,2.65.12,5,.19,6.98v.12s.02.02.02.02c.27,3.51.54,6.42.86,9.13Z"/>
        <path class="cls-6" d="m66.32,6.32c0-.33-.24-.59-.54-.59s-.54.27-.54.59v20.9c.35,0,.71.01,1.08.05V6.32Z"/>
        <path class="cls-6" d="m65.25,58.67v16.62c0,.33.24.59.54.59s.54-.27.54-.59v-16.48c-.25-.02-.5-.04-.75-.09-.11-.02-.22-.04-.33-.05Z"/>
        <path class="cls-6" d="m62.02,27.98V6.32c0-.33-.24-.59-.54-.59s-.54.27-.54.59v22.18s.02-.01.03-.02c.35-.2.7-.36,1.04-.51Z"/>
        <path class="cls-6" d="m60.94,75.29c0,.33.24.59.54.59s.54-.27.54-.59v-17.45c-.4-.24-.75-.54-1.08-.89v18.34Z"/>
        <path class="cls-6" d="m57.17,5.73c-.3,0-.54.27-.54.59v68.96c0,.33.24.59.54.59s.54-.27.54-.59V6.32c0-.33-.24-.59-.54-.59Z"/>
        <path class="cls-6" d="m52.86,5.73c-.3,0-.54.27-.54.59v68.96c0,.33.24.59.54.59s.54-.27.54-.59V6.32c0-.33-.24-.59-.54-.59Z"/>
        <path class="cls-6" d="m48.55,5.73c-.3,0-.54.27-.54.59v68.96c0,.33.24.59.54.59s.54-.27.54-.59V6.32c0-.33-.24-.59-.54-.59Z"/>
        <path class="cls-6" d="m44.25,5.73c-.3,0-.54.27-.54.59v68.96c0,.33.24.59.54.59s.54-.27.54-.59V6.32c0-.33-.24-.59-.54-.59Z"/>
        <path class="cls-6" d="m39.94,5.73c-.3,0-.54.27-.54.59v68.96c0,.33.24.59.54.59s.54-.27.54-.59V6.32c0-.33-.24-.59-.54-.59Z"/>
        <path class="cls-6" d="m35.63,5.73c-.3,0-.54.27-.54.59v68.96c0,.33.24.59.54.59s.54-.27.54-.59V6.32c0-.33-.24-.59-.54-.59Z"/>
        <path class="cls-6" d="m31.32,5.73c-.3,0-.54.27-.54.59v68.96c0,.33.24.59.54.59s.54-.27.54-.59V6.32c0-.33-.24-.59-.54-.59Z"/>
        <path class="cls-6" d="m27.01,5.73c-.3,0-.54.27-.54.59v68.96c0,.33.24.59.54.59s.54-.27.54-.59V6.32c0-.33-.24-.59-.54-.59Z"/>
        <path class="cls-6" d="m22.71,5.73c-.3,0-.54.27-.54.59v68.96c0,.33.24.59.54.59s.54-.27.54-.59V6.32c0-.33-.24-.59-.54-.59Z"/>
        <path class="cls-6" d="m18.4,5.73c-.3,0-.54.27-.54.59v68.96c0,.33.24.59.54.59s.54-.27.54-.59V6.32c0-.33-.24-.59-.54-.59Z"/>
        <path class="cls-6" d="m14.09,5.73c-.3,0-.54.27-.54.59v21.02c.38.16.74.37,1.08.61V6.32c0-.33-.24-.59-.54-.59Z"/>
        <path class="cls-6" d="m13.55,75.29c0,.33.24.59.54.59s.54-.27.54-.59v-19.5c-.32.35-.69.66-1.08.94v18.56Z"/>
        <path class="cls-6" d="m9.78,5.73c-.3,0-.54.27-.54.59v20.73c.35-.1.71-.16,1.08-.2V6.32c0-.33-.24-.59-.54-.59Z"/>
        <path class="cls-6" d="m9.24,75.29c0,.33.24.59.54.59s.54-.27.54-.59v-17.25c-.34.06-.7.11-1.08.13v17.12Z"/>
      </g>
    </g>
  </g>
</svg>