<?xml version="1.0" encoding="UTF-8"?>
<svg id="Layer_2" data-name="Layer 2" xmlns="http://www.w3.org/2000/svg" viewBox="0 0 86.17 168.19">
  <defs>
    <style>
      .cls-1 {
        fill: #fff;
      }

      .cls-2 {
        fill: #ff9600;
      }

      .cls-3 {
        fill: #4d4d4d;
      }

      .cls-4 {
        fill: #ff9a00;
      }

      .cls-5 {
        fill: #f66;
      }

      .cls-6 {
        fill: #bfd8dd;
      }

      .cls-7 {
        fill: orange;
      }

      .cls-8 {
        fill: #51e1ff;
        stroke: #000;
        stroke-miterlimit: 10;
      }

      .cls-9 {
        fill: #ffac15;
      }

      .cls-10 {
        fill: #ff9815;
      }

      .cls-11 {
        fill: #ccc;
      }

      .cls-12 {
        fill: #e9ab00;
      }

      .cls-13 {
        fill: #666;
      }

      .cls-14 {
        fill: red;
      }
    </style>
  </defs>
  <g id="Layer_2-2" data-name="Layer 2">
    <g>
      <path class="cls-11" d="m44.78,65.59c7.39.46,21.84,3.07,21.98,3.01-.14.06-13.09-3.13-21.98-3.01Z"/>
      <path class="cls-11" d="m18.49,69.52c.18-.32.35-.66.49-1.01-.2.35-.81,1.48-.88,1.64.08-.19.2-.36.33-.53.02-.03.04-.07.06-.1Z"/>
      <path class="cls-11" d="m32.52,132.24c.39.02.79.03,1.21.03h22.2c.42,0,.83-.01,1.22-.03h.17c.37-.03.72-.05,1.05-.09.27-.03.5-.06.7-.09v-13.42c-.19-.03-.43-.06-.7-.09-.32-.03-.68-.06-1.04-.08h-.17c-.39-.03-.79-.04-1.22-.04h-22.2c-.42,0-.82.01-1.21.03h-.16c-.36.03-.71.05-1.04.08-.28.03-.52.06-.72.09v13.42c.2.03.44.06.72.09.32.03.67.06,1.03.08h.16Z"/>
      <path class="cls-11" d="m54.15,96.2c1.54.22,2.95.49,4.2.8-1.25-.31-2.66-.58-4.2-.8Z"/>
      <path class="cls-11" d="m.01,81.83s.41,1.16,1.45.92c.3-.07,1.17-.36,1.17-.36,1.05-.46,2.55-1.12,4.23-1.82,0,.16,0,.31,0,.47.63-.41,1.3-.79,1.95-1.14.74-.41,1.45-.8,2.04-1.22,0-1.05.05-2.09.11-3.1.06-.94.11-1.92.11-2.87,0-.08,0-.16.03-.23-1.38-5.33-1.18-33.6-.99-39.08.09-2.59.18-5.27.1-7.83v-.03c-.56-6.08,2.94-11.97,10.43-17.52l.15-.09c7.3-3.56,16-3.9,23.59-3.92h.89c7.6.02,16.29.35,23.59,3.92l.15.09c.8.59,1.55,1.19,2.26,1.79-1.62-1.97-3.7-3.9-6.26-5.79l-.15-.09C57.57.35,48.87.02,41.28,0h-.89c-7.59.02-16.29.35-23.59,3.92l-.15.09c-7.48,5.55-10.99,11.44-10.43,17.52v.03c.08,2.56,0,5.24-.1,7.83-.19,5.47-.38,33.75.99,39.08-.02.08-.03.15-.03.23,0,.95-.05,1.92-.11,2.87-.06,1.01-.12,2.05-.11,3.1-.59.43-1.3.81-2.04,1.22-2.34,1.29-5,2.75-4.8,5.93Z"/>
      <path class="cls-11" d="m10.86,84.57c-1.54.64-2.91,1.23-3.94,1.69.79,68.12,2.57,67.58,2.69,67.69,1.06,2.65,2.94,4.36,4.72,5.44-.26-.45-.51-.92-.72-1.44-.12-.11-2,.47-2.75-73.37Z"/>
      <polygon class="cls-11" points="56.48 148.4 58.57 134.29 56.63 147.41 56.48 148.4"/>
      <path class="cls-11" d="m80.86,79.9c.21.12.43.24.64.36-.4-1.42-1.48-2.42-2.72-3.23.02.55.04,1.1.04,1.65.59.43,1.3.81,2.04,1.22Z"/>
      <path class="cls-13" d="m73.37,30.99c-3.21-7.93-11.13-16.49-9.77-14.31,1.21,1.94,9.4,12.73,10.19,25.45.74,11.95-2.34,23.12-2.34,23.12-.11.44.19.88.66.98.47.1,1.33-2.12,1.99-4.49,2.54-9.16,2.05-23.88-.73-30.74Z"/>
      <path class="cls-6" d="m32.43,134.39c.42.02.85.03,1.3.03h22.2c.46,0,.89-.01,1.31-.03.06,0,.12,0,.18,0,.4-.02.79-.05,1.14-.09,1.54-.16,2.58-.44,2.58-.77v-16.34c0-.33-1.04-.61-2.58-.77-.35-.04-.74-.06-1.14-.08-.06,0-.12,0-.18-.01-.42-.02-.86-.03-1.31-.03h-22.2c-.45,0-.89.01-1.31.03-.06,0-.12,0-.18,0-.39.02-.77.05-1.13.08-1.55.16-2.6.44-2.6.77v16.34c0,.33,1.06.62,2.61.77.35.03.73.06,1.12.08.06,0,.12,0,.18,0Zm-1.82-2.33v-13.42c.2-.03.44-.06.72-.09.32-.03.67-.06,1.04-.08h.16c.39-.03.79-.04,1.21-.04h22.2c.42,0,.83.01,1.22.03h.17c.36.03.72.05,1.04.09.27.03.5.06.7.09v13.42c-.19.03-.43.06-.7.09-.33.03-.68.06-1.05.08h-.17c-.39.03-.79.04-1.22.04h-22.2c-.42,0-.82-.01-1.21-.03h-.16c-.36-.03-.71-.05-1.03-.09-.28-.03-.52-.06-.72-.09Z"/>
      <path class="cls-1" d="m20.45,117.14c-.07,8.81-1.06,17.54-3.14,25.96.1,0,.2.02.29.02.13,0,.26,0,.38-.04.51-.61.96-1.28,1.4-1.93.53-.78,1.08-1.58,1.73-2.29,0,0,0-.02,0-.03.27-1.02.24-2.12.21-3.19-.02-.58-.03-1.17,0-1.75,0,0,0-.01,0-.02v-16.63c-.28-.03-.57-.07-.85-.11Z"/>
      <path class="cls-6" d="m18.52,116.8c-.06-.01-.12-.03-.18-.04-.62-.14-1.22-.29-1.79-.47-.07-.01-.14-.01-.2-.01-.18,7.87.21,16.01.6,23.89.05.98.09,1.95.14,2.92.08.01.15,0,.23.02,2.08-8.42,3.07-17.15,3.14-25.96-.66-.09-1.3-.2-1.94-.34Z"/>
      <path class="cls-6" d="m15.85,81.94c.03,2.76.02,5.59,0,8.33-.04,6.81-.07,13.86.57,20.53,1.2.64,2.53,1.32,3.98,1.82h0c-.29-10.3-1.81-20.66-4.4-30.74-.05.02-.11.04-.16.06Z"/>
      <path class="cls-1" d="m16.15,81.83s-.09.03-.14.05c2.59,10.08,4.11,20.44,4.4,30.74.25.08.49.18.74.25.12-1,.04-2.42-.05-3.81-.08-1.22-.15-2.38-.09-3.22,0,0,0-.01,0-.02-.39-6.86-2.17-13.64-3.89-20.21-.33-1.26-.66-2.52-.98-3.78Z"/>
      <path class="cls-6" d="m31.22,94.1c.98-.17,1.97-.33,2.97-.46.18-.02.36-.05.54-.07.85-.11,1.71-.2,2.57-.28.26-.02.52-.05.78-.07.81-.07,1.62-.12,2.44-.16.27-.01.54-.03.82-.04,1.06-.04,2.13-.07,3.21-.07h.01s.08,0,.12,0c.07,0,.15,0,.22,0,.04,0,.08,0,.12,0,.03,0,.05,0,.07,0h.01c1.08,0,2.15.03,3.21.07.27.01.55.03.82.04.82.04,1.63.09,2.44.16.26.02.53.05.79.07.86.08,1.72.17,2.57.28.18.02.37.05.55.07,1.03.14,2.05.3,3.06.47,0,0,0,0,.01,0,2.86.51,5.65,1.18,8.37,2.01,1.39-4.13,2.38-8.61,3.34-12.94.64-2.89,1.3-5.88,2.07-8.73,0,0-.01-.01-.01-.02-.05-.31-.05-.64-.05-.95,0-.61-.03-1.18-.31-1.65-.02-.19-.07-.37-.12-.55,0,0,.02,0,.02.01-.08-.63-.38-1.19-.7-1.77-.19-.36-.39-.73-.54-1.11,0,0-.01,0-.02,0-1.58-1.85-4.16-2.92-6.46-3.77-1.79-.67-3.68-1.21-5.59-1.65-.15-.04-.3-.08-.46-.12-4.11-.89-8.51-1.35-13.09-1.34h0s-.08,0-.12,0c-4.68-.02-9.17.43-13.35,1.35-2.08.45-4.11,1.05-6.05,1.77-2.3.86-4.88,1.92-6.46,3.77,0,0-.03.05-.06.11-.14.35-.32.68-.49,1.01-.02.04-.04.07-.06.1-.13.17-.25.34-.33.53-.46,1.07-.71,1.92-.76,3.11,0,.18.02.34.04.51,0,.22-.02.44-.05.65,0,.01-.01.01-.01.02.77,2.85,1.43,5.83,2.07,8.73.96,4.34,1.95,8.81,3.34,12.94,2.72-.84,5.52-1.5,8.38-2.01h0s.07-.01.1-.02Zm13.27-30.04s0,0,0,0h.27s.03,0,.04,0h.19s.01,0,.02,0h.14s0,0,0,0c7.68.04,15.12,1.64,21.57,4.54-.14.06-14.58-2.55-21.98-3.01-10.04.14-21.56,3.28-21.68,3.21-.1-.06-.2-.09-.3-.14,6.48-2.94,13.96-4.56,21.69-4.6Zm-15.64,27.24c-6.6.45-9.16-15.99-9.62-18.22,1,1.99,3.04,6.31,4.15,8.39,4.23,7.94,10.4,6.72,16.35,6.9,8.37.25,13.36.44,20.52-.77,5.74-.97,7.82-10.81,9.63-14.79-.72,3.37-1.92,10.01-3.03,13.28-.77,9.64-10.77,4.57-23.01,5.05-3.99-.07-8.22-.31-14.98.15Z"/>
      <path class="cls-3" d="m34.34,10.48c.14-.02.28-.03.42-.05.96-.11,1.93-.21,2.89-.28.42-.03.84-.06,1.25-.09.73-.05,1.47-.1,2.2-.13,1.21-.05,2.42-.08,3.64-.08h.17s.11,0,.11,0c1.21,0,2.42.03,3.62.08.73.03,1.45.08,2.18.13.42.03.84.05,1.25.08.96.08,1.92.18,2.88.29.14.02.27.03.41.05,1.84.22,3.67.47,5.48.8-.06-.19-.14-.37-.21-.56-.18-.47-.39-.99-.48-1.57l-.02-.12.03-.14c.04-.15.09-.26.17-.4l.14-.19h-.05c-4.78-.95-9.68-1.33-15.13-1.17l-.05.03h-.23s-.57,0-.57,0l-.06-.03c-5.46-.15-10.36.22-15.16,1.17h-.04s.12.15.12.15c.11.19.15.31.18.41l.04.12v.16c-.11.6-.32,1.13-.5,1.59-.08.19-.15.38-.21.56.76-.14,1.53-.25,2.3-.37,0,0,0,0,0,0,1.07-.17,2.14-.31,3.21-.44Z"/>
      <path class="cls-3" d="m58.4,98.32c.93.12,1.84.26,2.7.4.87.15,1.71.3,2.5.47-.93-.82-2.69-1.55-5.04-2.14-.05-.01-.11-.02-.17-.04.56.46.61,1.32,0,1.31Z"/>
      <path class="cls-5" d="m58.4,97.01s-.03,0-.04,0c-1.25-.31-2.66-.58-4.2-.8-.52-.07-1.06-.14-1.61-.21-.06,0-.13-.01-.19-.02-.47-.05-.95-.1-1.43-.14-.15-.01-.3-.03-.45-.04-.41-.03-.83-.06-1.25-.09-.18-.01-.37-.02-.55-.04-.42-.02-.85-.04-1.28-.06-.18,0-.35-.02-.53-.02-.6-.02-1.21-.04-1.83-.05h0c-.63,0-1.26.01-1.88.03-.18,0-.36.01-.54.02-.44.02-.88.04-1.32.06-.19.01-.37.02-.55.03-.44.03-.87.06-1.3.09-.15.01-.3.02-.45.04-.51.04-1.02.09-1.51.15-.05,0-.1,0-.15.02-1.75.19-3.36.45-4.8.75,0,0-.01,0-.02,0-.42.09-.82.18-1.21.28-.17.04-.54,1.09,0,1.32.99-.13,2.02-.25,3.07-.36,0,0,0,0,.01,0,1.06-.11,2.16-.2,3.28-.28.09,0,.18-.01.27-.02.96-.06,1.94-.12,2.94-.16.26-.01.52-.02.78-.03,1.11-.04,2.23-.07,3.38-.08h0c1.12.02,2.21.06,3.29.1.26,0,.51.02.76.03.96.04,1.91.09,2.84.16.1,0,.2.01.29.02,2.17.15,4.24.36,6.19.62.61,0,.56-.85,0-1.31Z"/>
      <path class="cls-3" d="m31.29,98.32c-.54-.22-.17-1.28,0-1.32-.06.01-.12.03-.17.04-2.35.59-4.12,1.33-5.05,2.15,1.55-.32,3.25-.61,5.05-.85,0,0,0,0,.01,0,.05,0,.11-.01.16-.02Z"/>
      <path class="cls-6" d="m71.59,111.65c.11-.06.23-.11.34-.16.45-.23.9-.45,1.32-.68.65-6.68.61-13.72.57-20.53-.01-2.12-.02-4.28,0-6.43-.64,9.21-1.94,18.59-2.6,27.97.12-.06.26-.11.38-.17Z"/>
      <path class="cls-1" d="m69.88,112.41c.06-.02.11-.05.17-.07.4-.16.78-.34,1.16-.52.66-9.39,1.97-18.76,2.6-27.97,0-.64,0-1.28,0-1.91-.1-.03-.2-.07-.3-.1-.32,1.26-.65,2.52-.98,3.78-1.72,6.56-3.5,13.34-3.89,20.21,0,0,0,.01.01.02.07.85,0,2-.08,3.22-.09,1.38-.18,2.81-.05,3.81.47-.13.92-.29,1.36-.46Z"/>
      <path class="cls-13" d="m68.16,9.11c-7.04-3.42-15.55-3.72-22.98-3.74h-.15s-.24,0-.24,0h-.29c-7.43.02-15.95.32-22.98,3.74-6.72,4.99-10.04,10.21-9.89,15.52.65-1.06,1.11-2.26,1.55-3.43.3-.8.61-1.63.99-2.41v-.03s.05-.02.05-.02c.22-.15.48-.17.71-.18,1.56-3.12,4.66-5.07,7.66-6.94,1.11-.7,2.16-1.36,3.15-2.07,0,0,0,0,0-.02.59-1.41,2.01-1.74,3.15-2.01l.18-.04c4.18-.83,8.36-1.23,12.95-1.23.95,0,1.92.02,2.9.06.04,0,.08,0,.12,0h0c.89-.03,1.78-.06,2.64-.06,4.59,0,8.77.4,12.95,1.23l.18.04c1.14.27,2.56.6,3.15,2.01,0,0,0,.01,0,.02.99.72,2.04,1.38,3.15,2.07,3,1.87,6.1,3.82,7.66,6.94.23.01.49.03.71.18l.03.02.02.03c.37.78.69,1.61.99,2.41.44,1.17.9,2.36,1.55,3.43.15-5.31-3.17-10.53-9.89-15.52Z"/>
      <path class="cls-6" d="m72.7,140.83c.01-.22.02-.44.03-.67.38-7.88.77-16.03.6-23.89-.07,0-.13,0-.2.01-.35.11-.71.21-1.07.31-.37.1-.74.18-1.12.26-.33,8.03-.01,16.06,1.77,23.98Z"/>
      <path class="cls-1" d="m68.56,138.87c.65.71,1.2,1.51,1.73,2.29.44.65.89,1.32,1.4,1.93.27.08.59.05.9,0,.04-.75.07-1.5.11-2.25-1.79-7.92-2.11-15.95-1.77-23.98-.41.08-.82.16-1.23.22-.01,0-.02,0-.04,0-.43.07-.85.12-1.28.16v16.63s0,.01,0,.02c.03.58.02,1.18,0,1.75-.03,1.06-.06,2.17.21,3.19,0,.01,0,.02,0,.03Z"/>
      <path class="cls-6" d="m68.42,16.57c2.63,2.21,4.8,4.35,4.91,4.45.17.17.29.28.46.26.06-.06.11-.12.17-.18.29-.5.37-1.09.45-1.67.03-.24.07-.49.12-.73-1.52-3.09-4.6-5.02-7.59-6.88-1.07-.67-2.18-1.36-3.17-2.09-.04,0-.07-.01-.1-.03-.43-.04-.82-.23-1.19-.42-.5-.25-.97-.49-1.49-.35-.02.05-.04.09-.06.14.08.47.26.93.44,1.38.2.51.4,1.03.47,1.59,0,0,0,.01.01.02.28.12.57.26.87.42,1.87.92,3.54,2.16,5.15,3.59.19.17.37.33.56.51Zm-5.66-5.28c-.07-.29-.16-.56-.25-.82.25.11.53.21.84.26,1,.71,2.09,1.39,3.05,2,2.75,1.72,5.59,3.49,7.03,6.13-.02.14-.09.59-.1.68-.93-.89-2.51-2.35-4.26-3.82-.15-.14-.34-.31-.53-.48-1.87-1.67-3.58-2.86-5.38-3.75-.13-.07-.27-.14-.41-.21Z"/>
      <path class="cls-1" d="m69.08,15.73c1.75,1.47,3.32,2.93,4.26,3.82.01-.09.08-.55.1-.68-1.44-2.64-4.29-4.42-7.03-6.13-.97-.61-2.06-1.29-3.05-2-.31-.05-.6-.16-.84-.26.09.25.18.53.25.82.14.07.27.14.41.21,1.8.89,3.51,2.08,5.38,3.75.19.17.38.34.53.48Z"/>
      <path class="cls-6" d="m27.19,9.27c-.38.19-.77.38-1.19.42-.03.02-.06.03-.1.03-1,.73-2.1,1.42-3.17,2.09-2.99,1.86-6.07,3.79-7.59,6.88.05.24.09.49.12.73.08.57.17,1.17.45,1.67.06.06.12.12.17.18.17.02.29-.09.46-.26.1-.1,2.28-2.24,4.91-4.45.19-.17.37-.34.56-.51,1.6-1.43,3.27-2.67,5.15-3.59.3-.16.59-.3.87-.42,0,0,0-.01.01-.02.06-.56.27-1.08.47-1.59.17-.45.36-.91.44-1.38-.02-.05-.03-.09-.06-.14-.52-.14-.99.1-1.49.35Zm-.28,2.01c-.14.07-.29.14-.43.22-1.77.87-3.48,2.07-5.35,3.74-.19.17-.38.34-.57.52-1.72,1.44-3.27,2.88-4.22,3.78-.01-.09-.08-.55-.1-.68,1.45-2.64,4.29-4.42,7.04-6.13.97-.61,2.06-1.29,3.06-2,.31-.05.6-.15.84-.26-.09.25-.18.53-.26.82Z"/>
      <path class="cls-1" d="m23.26,12.73c-2.75,1.72-5.59,3.49-7.04,6.13.02.14.09.59.1.68.95-.9,2.5-2.34,4.22-3.78.19-.18.38-.35.57-.52,1.87-1.67,3.58-2.86,5.35-3.74.15-.08.29-.15.43-.22.07-.29.16-.56.26-.82-.25.11-.53.21-.84.26-.99.71-2.08,1.39-3.06,2Z"/>
      <path class="cls-8" d="m68.87,7.92c-7.3-3.56-16-3.9-23.59-3.92h-.89c-7.59.02-16.29.35-23.59,3.92l-.15.09c-7.48,5.55-10.99,11.44-10.43,17.52v.03c.08,2.56,0,5.24-.1,7.83-.19,5.47-.38,33.75.99,39.08-.02.08-.03.15-.03.23,0,.95-.05,1.92-.11,2.87-.06,1.01-.12,2.05-.11,3.1-.59.43-1.3.81-2.04,1.22-.65.36-1.32.73-1.95,1.14-1.65,1.09-3,2.49-2.85,4.79,0,0,.41,1.16,1.45.92.3-.07,1.17-.36,1.17-.36.09-.04.2-.09.3-.13,1.03-.45,2.4-1.05,3.94-1.69.76,73.85,2.63,73.26,2.75,73.37.21.52.46.99.72,1.44,2.76,4.7,8.21,5.74,8.34,5.69.49.11,1.2.22,2.03.33-.02-.03-.06-.06-.06-.09,0-.14.21-.23.59-.28v-.22c0-.76.86-1.38,1.92-1.38s1.92.62,1.92,1.38v.31c.63.04,1.31.09,2.03.14v-11.1c1.24.33,2.65.48,4.23.55-.09-.19-.19-.39-.28-.59-.76-1.67-1.43-3.57-2-5.72l-.1-.73-1.86-13.37s.01,0,.01,0c-1.55-.16-2.61-.44-2.61-.77v-16.34c0-.33,1.05-.62,2.6-.77,0,0,0,0,0,0v-18.07c-1.8.24-3.5.53-5.05.85.93-.82,2.7-1.55,5.05-2.15v-2.92c-2.87.51-5.67,1.17-8.38,2.01-1.39-4.13-2.38-8.61-3.34-12.94-.64-2.89-1.3-5.88-2.07-8.73,0,0,.01-.01.01-.02.03-.21.04-.43.05-.65-.02-.17-.04-.34-.04-.51.04-1.19.3-2.04.76-3.11.07-.16.69-1.28.88-1.64.04-.07.06-.11.06-.11,1.58-1.85,4.16-2.92,6.46-3.77,1.94-.72,3.97-1.32,6.05-1.77-.15.03-.29.08-.44.11V10.92c-.77.12-1.54.23-2.3.37.06-.18.14-.37.21-.56.18-.47.39-.99.49-1.59v-.16s-.03-.12-.03-.12c-.03-.11-.08-.22-.18-.41l-.12-.14h.04c4.8-.96,9.7-1.33,15.16-1.17l.06.03h.57s.23,0,.23,0l.05-.03c5.45-.16,10.36.22,15.13,1.16h.05s-.14.21-.14.21c-.08.14-.12.26-.17.4l-.03.14.02.12c.09.58.3,1.1.48,1.57.08.19.15.38.21.56-1.81-.33-3.64-.58-5.48-.8,1.07.13,2.14.27,3.2.44v52.06c1.92.44,3.8.99,5.59,1.65,2.3.86,4.88,1.92,6.46,3.77,0,0,.01,0,.02,0,.14.39.34.75.54,1.11.32.58.61,1.14.7,1.77,0,0-.02,0-.02-.01.05.18.1.36.12.55.28.48.3,1.05.31,1.65,0,.31,0,.64.05.95,0,.01.01.01.01.02-.77,2.85-1.43,5.83-2.07,8.73-.96,4.34-1.95,8.81-3.34,12.94-2.71-.84-5.51-1.5-8.37-2.01v2.93h0c2.35.59,4.11,1.32,5.04,2.14-.8-.17-1.63-.32-2.5-.47-.87-.15-1.77-.28-2.7-.4-1.94-.26-4.01-.47-6.19-.62,2.24.16,4.37.38,6.36.65v18.06c1.54.16,2.58.44,2.58.77v16.34c0,.33-1.04.61-2.58.77l-2.09,14.1c-.55,2.07-1.19,3.92-1.9,5.54-.1.23-.21.44-.31.66,1.55-.16,2.99-.3,4.31-.7v10.85h0c.35.14.51.29.56.45.2-.02.37-.03.56-.05v-.3c0-.63.79-1.14,1.76-1.14s1.77.51,1.77,1.14v.04c1.17-.05,1.81.01,1.81.28,0,.08-.09.16-.23.24.9-.11,1.65-.23,2.18-.35.15.05,6.68-1.18,9.06-7.13.12-.11.21-.24.26-.4.59-1.72.95-3.52,1.25-5.32.03-.2.07-.41.1-.61.09-.57.17-1.13.26-1.7.07-.5,1.03-54,.88-65.35,1.68.69,3.18,1.35,4.23,1.82,0,0,.87.29,1.17.36,1.04.24,1.45-.92,1.45-.92.18-2.9-2-4.37-4.16-5.58-.22-.12-.43-.24-.64-.36-.74-.41-1.45-.8-2.04-1.22,0-.55-.01-1.11-.04-1.65-.02-.49-.05-.97-.08-1.45-.06-.94-.12-1.92-.11-2.87,0-.08-.01-.16-.03-.23,1.02-7,1.18-10.98.99-16.46-.09-2.59-.18-27.89-.1-30.45v-.03c.5-5.43-2.25-10.71-8.17-15.73-.71-.6-1.46-1.2-2.26-1.79l-.15-.09ZM22.58,159.88c.1-.02.21-.04.32-.04h4.18c.8,0,1.45.6,1.45,1.35s-.65,1.35-1.45,1.35h-4.18s-.09,0-.13-.01c-1.5-.06-2.87-.7-4.06-1.6-2.01-1.51-3.5-3.73-4.25-5.12-.22-.41-.05-.09-.22-.46-.13-.51-.24-1.03-.35-1.55.45.69.97,1.46,2.05,2.97.51.72,1.31,1.29,2.24,1.74,1.35.66,2.98,1.07,4.4,1.32,0,.01,0,.03,0,.04Zm-1.27-25.97c-.03.58-.01,1.18,0,1.75.03,1.06.06,2.17-.21,3.19,0,.01,0,.02,0,.03-.65.71-1.2,1.51-1.73,2.29-.44.65-.89,1.32-1.4,1.93-.12.03-.25.04-.38.04-.09,0-.19-.01-.29-.02-.08,0-.15,0-.23-.02-.05-.97-.09-1.94-.14-2.92-.38-7.88-.77-16.03-.6-23.89.07,0,.13,0,.2.01.57.18,1.17.33,1.79.47.06.01.12.03.18.04.63.14,1.28.25,1.94.34.28.04.56.08.85.11v16.63s0,.01,0,.02Zm-.29-28.09s0,.01,0,.02c-.07.85,0,2,.09,3.22.09,1.38.18,2.81.05,3.81-.25-.07-.5-.16-.74-.25h0c-1.44-.5-2.78-1.18-3.98-1.82-.65-6.68-.61-13.72-.57-20.53.01-2.74.03-5.58,0-8.33.05-.02.11-.04.16-.06.05-.02.09-.03.14-.05.32,1.26.65,2.52.98,3.78,1.72,6.56,3.5,13.34,3.89,20.21Zm4.54-89.13c-1.21,1.94-9.4,12.73-10.19,25.45-.74,11.95,2.34,23.12,2.34,23.12.11.44-.19.88-.66.98-.47.1-1.33-2.12-1.99-4.49-2.54-9.16-2.05-23.88.73-30.74,3.21-7.93,11.13-16.49,9.77-14.31Zm2.74-6.24c-.2.51-.4,1.03-.47,1.59,0,0,0,.01-.01.02-.28.12-.57.26-.87.42-1.87.92-3.54,2.16-5.15,3.59-.19.17-.37.33-.56.51-2.63,2.21-4.8,4.35-4.91,4.45-.17.17-.29.28-.46.26-.06-.06-.11-.12-.17-.18-.29-.5-.37-1.09-.45-1.67-.03-.24-.07-.49-.12-.73,1.52-3.09,4.6-5.02,7.59-6.88,1.07-.67,2.18-1.36,3.17-2.09.04,0,.07-.01.1-.03.43-.04.82-.23,1.19-.42.5-.25.97-.49,1.49-.35.02.05.04.09.06.14-.08.47-.26.93-.44,1.38Zm33.55,1.61s0-.01-.01-.02c-.06-.56-.27-1.08-.47-1.59-.18-.45-.36-.91-.44-1.38.02-.05.03-.09.06-.14.52-.14.99.1,1.49.35.38.19.77.38,1.19.42.03.02.06.03.1.03,1,.73,2.1,1.42,3.17,2.09,2.99,1.86,6.07,3.79,7.59,6.88-.05.24-.09.49-.12.73-.08.57-.17,1.17-.45,1.67-.06.06-.12.12-.17.18-.17.02-.29-.09-.46-.26-.1-.1-2.28-2.24-4.91-4.45-.19-.17-.37-.34-.56-.51-1.6-1.43-3.27-2.67-5.15-3.59-.3-.16-.59-.3-.87-.42Zm10.26,54.18c-.47-.1-.76-.54-.66-.98,0,0,3.08-11.17,2.34-23.12-.79-12.71-8.98-23.5-10.19-25.45-1.36-2.19,6.55,6.38,9.77,14.31,2.78,6.87,3.27,21.59.73,30.74-.66,2.37-1.52,4.59-1.99,4.49Zm-3.54,42.83c.08-1.22.15-2.38.08-3.22,0,0,0-.01-.01-.02.39-6.86,2.17-13.64,3.89-20.21.33-1.26.66-2.52.98-3.78.1.03.2.07.3.1,0,.63,0,1.27,0,1.91-.01,2.15,0,4.31,0,6.43.04,6.81.07,13.86-.57,20.53-.42.22-.87.45-1.32.68-.11.06-.22.11-.34.16-.12.06-.25.11-.38.17-.38.18-.76.36-1.16.52-.06.02-.11.05-.17.07-.44.17-.89.33-1.36.46-.12-1-.04-2.42.05-3.81Zm-.22,26.6c.02-.58.03-1.17,0-1.75,0,0,0-.01,0-.02v-16.63c.43-.04.86-.1,1.28-.16.01,0,.02,0,.04,0,.42-.06.83-.14,1.23-.22.38-.08.76-.16,1.12-.26.37-.09.73-.2,1.07-.31.07-.01.14-.01.2-.01.18,7.87-.22,16.01-.6,23.89-.01.22-.02.44-.03.67-.04.75-.07,1.51-.11,2.25-.31.04-.63.07-.9,0-.51-.61-.96-1.28-1.4-1.93-.53-.78-1.08-1.58-1.73-2.29,0,0,0-.02,0-.03-.27-1.02-.24-2.12-.21-3.19Zm7.2,19.69c-.17.37,0,.05-.22.46-.74,1.39-2.24,3.61-4.25,5.12-.29.22-.59.42-.91.61,0,0-.02.01-.03.02-.32.19-.64.35-.98.49,0,0,0,0,0,0-.68.28-1.4.46-2.15.49-.04,0-.09.01-.13.01h-4.18c-.8,0-1.45-.6-1.45-1.35s.65-1.35,1.45-1.35h4.18c.11,0,.22.01.32.04,0-.01,0-.03,0-.04,1.42-.25,3.05-.66,4.4-1.32.93-.45,1.73-1.02,2.24-1.74,1.08-1.51,1.6-2.28,2.05-2.97-.11.52-.22,1.04-.35,1.55Zm2.49-130.73c-.65-1.06-1.11-2.26-1.55-3.43-.3-.8-.61-1.63-.99-2.41l-.02-.03-.03-.02c-.22-.15-.48-.17-.71-.18-1.56-3.12-4.66-5.07-7.66-6.94-1.11-.7-2.16-1.36-3.15-2.07,0,0,0,0,0-.02-.59-1.41-2.01-1.74-3.15-2.01l-.18-.04c-4.18-.83-8.36-1.23-12.95-1.23-.86,0-1.75.02-2.64.05h0s-.08,0-.12,0c-.99-.04-1.96-.06-2.9-.06-4.59,0-8.77.4-12.95,1.23l-.18.04c-1.14.27-2.56.6-3.15,2.01,0,0,0,.01,0,.02-.98.72-2.04,1.38-3.15,2.07-3,1.87-6.1,3.82-7.66,6.94-.23.01-.49.03-.71.18l-.03.02v.03c-.39.78-.7,1.61-1,2.41-.44,1.17-.9,2.36-1.55,3.43-.15-5.31,3.17-10.53,9.89-15.52,7.04-3.42,15.55-3.72,22.98-3.74h.29s.24,0,.24,0h.15c7.43.02,15.95.32,22.98,3.74,6.72,4.99,10.04,10.21,9.89,15.52Z"/>
      <path d="m34.36,97.96c1.07-.11,2.17-.2,3.29-.28-1.12.08-2.22.17-3.28.28,0,0,0,0-.01,0Z"/>
      <path class="cls-1" d="m44.78,65.59c8.89-.12,21.84,3.07,21.98,3.01-6.45-2.9-13.89-4.5-21.57-4.54,0,0,0,0,0,0h-.14s-.02,0-.02,0h-.19s-.03,0-.04,0h-.27s0,0,0,0c-7.73.04-15.21,1.66-21.69,4.6.1.05.2.08.3.14.12.07,11.63-3.07,21.68-3.21Z"/>
      <path class="cls-7" d="m32.43,116.31c.42-.02.85-.03,1.31-.03h22.2c.46,0,.89.01,1.31.03.06,0,.12,0,.18.01.4.02.79.05,1.14.08v-18.06c-1.99-.27-4.12-.49-6.36-.65-.1,0-.19-.01-.29-.02-.93-.06-1.88-.12-2.84-.16-.25-.01-.51-.02-.76-.03-1.08-.04-2.17-.07-3.29-.09h0c-1.14,0-2.27.03-3.38.07-.26,0-.52.02-.78.03-1,.04-1.98.09-2.94.16-.09,0-.18.01-.27.02-1.13.08-2.22.17-3.29.28-1.06.11-2.08.23-3.07.36-.05,0-.11.01-.16.02,0,0,0,0-.01,0v18.07s0,0,0,0c.35-.04.73-.06,1.13-.08.06,0,.12,0,.18,0Z"/>
      <path class="cls-9" d="m32.5,96.72s.01,0,.02,0c1.44-.3,3.06-.56,4.8-.75.05,0,.1-.01.15-.02.49-.05,1-.1,1.51-.15.15-.01.3-.02.45-.04.43-.03.86-.06,1.3-.09.18-.01.37-.02.55-.03.43-.02.87-.04,1.32-.06.18,0,.36-.02.54-.02.62-.02,1.24-.03,1.88-.04h0c.62.02,1.23.03,1.83.05.18,0,.35.02.53.02.43.02.86.04,1.28.06.19.01.37.02.55.04.42.03.84.06,1.25.09.15.01.3.02.45.04.49.04.96.09,1.43.14.06,0,.13.01.19.02.55.06,1.09.13,1.61.21,1.54.22,2.95.49,4.2.8.01,0,.03,0,.04,0,.05.01.11.03.17.04h0s0-2.93,0-2.93c0,0,0,0-.01,0-1.01-.18-2.03-.34-3.06-.47-.18-.02-.37-.05-.55-.07-.85-.11-1.71-.2-2.57-.28-.26-.02-.52-.05-.79-.07-.81-.07-1.62-.12-2.44-.16-.27-.01-.55-.03-.82-.04-1.06-.04-2.14-.07-3.21-.07h-.01s-.05,0-.07,0c-.04,0-.08,0-.12,0-.08,0-.15,0-.22,0-.04,0-.08,0-.12,0h-.01c-1.08,0-2.15.03-3.21.07-.27.01-.55.03-.82.04-.82.04-1.63.09-2.44.16-.26.02-.52.05-.78.07-.86.08-1.72.17-2.57.28-.18.02-.36.04-.54.07-1,.13-1.99.29-2.97.46-.03,0-.07.01-.1.02h0v2.93c.06-.01.12-.03.17-.04.39-.1.79-.19,1.21-.28Z"/>
      <path class="cls-2" d="m56.63,147.41l1.94-13.12c-.35.04-.74.06-1.14.09-.06,0-.12,0-.18,0-.42.02-.85.03-1.31.03h-22.2c-.45,0-.89-.01-1.3-.03-.06,0-.12,0-.18,0-.39-.02-.77-.05-1.12-.08,0,0,0,0-.01,0l1.86,13.37c6.25,9.64,17.97,9.22,23.66-.25Z"/>
      <path class="cls-14" d="m52.62,48.29l2.06-2.13v-3.66l-1.01-1.05,1.01-1.05v-3.67l-2.06-2.12h-3.9l-2.06,2.12v2.56h2.61v4.32h-2.79v2.37l2.24,2.3h3.9Zm-5.61-4.14h2.78v.9h1.74v-2.25h-1.74v-2.7h1.74v-2.25h-1.74v.91h-2.61v-1.8l1.74-1.8h3.49l1.74,1.8v3.23l-1.22,1.27,1.22,1.26v3.24l-1.74,1.8h-3.49l-1.91-1.99v-1.62Z"/>
      <path class="cls-14" d="m42,48.29l2.06-2.13v-3.66l-1.01-1.05,1.01-1.05v-3.67l-2.06-2.12h-3.9l-2.06,2.12v2.56h2.61v4.32h-2.79v2.37l2.24,2.3h3.9Zm-5.61-4.14h2.78v.9h1.74v-2.25h-1.74v-2.7h1.74v-2.25h-1.74v.91h-2.61v-1.8l1.74-1.8h3.49l1.74,1.8v3.23l-1.22,1.27,1.22,1.26v3.24l-1.74,1.8h-3.49l-1.91-1.99v-1.62Z"/>
      <path class="cls-4" d="m45.03,61.52h0c4.58,0,8.98.45,13.09,1.35.15.03.3.08.46.12V10.92c-1.06-.16-2.13-.31-3.2-.44-.14-.02-.27-.03-.41-.05-.96-.11-1.92-.21-2.88-.29-.42-.03-.84-.06-1.25-.08-.73-.05-1.45-.1-2.18-.13-1.21-.05-2.41-.08-3.62-.08h-.11s-.17,0-.17,0c-1.21,0-2.43.03-3.64.08-.74.03-1.47.08-2.2.13-.42.03-.84.05-1.25.09-.97.08-1.93.18-2.89.28-.14.02-.28.03-.42.05-1.08.13-2.15.27-3.21.44,0,0,0,0,0,0v52.05c.15-.03.29-.08.44-.11,4.18-.91,8.68-1.37,13.35-1.35.04,0,.08,0,.12,0Zm-9.51-18.26h2.79v-3.6h-2.61v-3.08l2.25-2.32h4.22l2.25,2.32v3.99l-.85.89.85.88v4l-2.25,2.32h-4.22l-2.42-2.5v-2.89Zm-3.11-23.71c1.05-4.47-.16-8.13,12.73-8.13s11.79,3.23,12.14,7.61c-2.62-4.97-7.71-5.34-11.97-5.22-2.75-.15-5.89.07-8.46.9-1.54.82-3.16,2.94-4.45,4.84Zm13.74,23.71h2.79v-3.6h-2.61v-3.08l2.25-2.32h4.22l2.25,2.32v3.99l-.85.89.85.88v4l-2.25,2.32h-4.22l-2.42-2.5v-2.89Z"/>
      <path class="cls-1" d="m43.84,91.15c12.25-.48,22.24,4.59,23.01-5.05,1.1-3.27,2.31-9.92,3.03-13.28-1.81,3.98-3.88,13.83-9.63,14.79-7.16,1.21-12.15,1.02-20.52.77-5.96-.18-12.12,1.04-16.35-6.9-1.11-2.08-3.15-6.41-4.15-8.39.46,2.23,3.03,18.67,9.62,18.22,6.76-.46,10.99-.22,14.98-.15Z"/>
      <path class="cls-12" d="m71.62,158.51c-1.35.66-2.98,1.07-4.4,1.32,0,.01,0,.03,0,.04-.1-.02-.21-.04-.32-.04h-4.18c-.8,0-1.45.6-1.45,1.35s.65,1.35,1.45,1.35h4.18s.09,0,.13-.01c.75-.03,1.47-.21,2.15-.49,0,0,0,0,0,0,.34-.14.66-.3.98-.49,0,0,.02-.01.03-.02.31-.18.62-.39.91-.61,2.01-1.51,3.5-3.73,4.25-5.12.22-.41.05-.09.22-.46.13-.51.24-1.03.35-1.55-.45.69-.97,1.46-2.05,2.97-.51.72-1.31,1.29-2.24,1.74Z"/>
      <path class="cls-10" d="m15.94,156.77c-1.08-1.51-1.6-2.28-2.05-2.97.11.52.22,1.04.35,1.55.17.37,0,.05.22.46.74,1.39,2.24,3.61,4.25,5.12,1.19.9,2.56,1.53,4.06,1.6.04,0,.09.01.13.01h4.18c.8,0,1.45-.6,1.45-1.35s-.65-1.35-1.45-1.35h-4.18c-.11,0-.22.01-.32.04,0-.01,0-.03,0-.04-1.42-.25-3.05-.66-4.4-1.32-.93-.45-1.73-1.02-2.24-1.74Z"/>
      <path d="m65.04,165.18c0-.27-.64-.33-1.81-.28v-.04c0-.63-.79-1.14-1.77-1.14s-1.76.51-1.76,1.14v.3c-.19.02-.36.03-.56.05-.05-.16-.22-.31-.56-.45,0,0,0,0,0,0,0,0,0,0,0,0v-10.85c-1.32.4-2.76.54-4.31.7.1-.22.21-.43.31-.66.71-1.62,1.35-3.47,1.9-5.54l.15-.99c-5.69,9.47-17.41,9.89-23.66.25l.1.73c.57,2.15,1.24,4.05,2,5.72.09.2.18.4.28.59-1.58-.07-2.99-.22-4.23-.55v10.6c0,.22.06.38.14.51-.04,0-.09,0-.14,0-.73-.05-1.41-.1-2.03-.14v-.31c0-.76-.86-1.38-1.92-1.38s-1.92.62-1.92,1.38v.22c-.38.05-.59.13-.59.28,0,.03.04.06.06.09.07.11.26.21.54.31v1.09c0,.76.86,1.38,1.92,1.38s1.92-.62,1.92-1.38v-.41c3.81.43,9.64.7,15.68.7,5.61,0,11.08-.28,14.93-.69v.35c0,.63.79,1.14,1.76,1.14s1.77-.51,1.77-1.14v-.86c.77-.15,1.31-.32,1.58-.48.13-.08.23-.16.23-.24Z"/>
      <path class="cls-13" d="m15.79,30.99c-2.78,6.87-3.27,21.59-.73,30.74.66,2.37,1.52,4.59,1.99,4.49.47-.1.76-.54.66-.98,0,0-3.08-11.17-2.34-23.12.79-12.71,8.98-23.5,10.19-25.45,1.36-2.19-6.55,6.38-9.77,14.31Z"/>
      <path d="m45.31,13.81c4.26-.12,9.35.25,11.97,5.22-.36-4.39.93-7.61-12.14-7.61s-11.68,3.66-12.73,8.13c1.29-1.91,2.91-4.02,4.45-4.84,2.57-.83,5.7-1.05,8.46-.9Z"/>
      <polygon class="cls-1" points="41.79 47.76 43.53 45.96 43.53 42.71 42.31 41.46 43.53 40.19 43.53 36.96 41.79 35.15 38.31 35.15 36.56 36.96 36.56 38.76 39.17 38.76 39.17 37.85 40.92 37.85 40.92 40.1 39.17 40.1 39.17 42.8 40.92 42.8 40.92 45.05 39.17 45.05 39.17 44.15 36.39 44.15 36.39 45.77 38.31 47.76 41.79 47.76"/>
      <path class="cls-1" d="m42.16,48.65l2.25-2.32v-4l-.85-.88.85-.89v-3.99l-2.25-2.32h-4.22l-2.25,2.32v3.08h2.61v3.6h-2.79v2.89l2.42,2.5h4.22Zm-6.3-5.04h2.79v-4.32h-2.61v-2.56l2.06-2.12h3.9l2.06,2.12v3.67l-1.01,1.05,1.01,1.05v3.66l-2.06,2.13h-3.9l-2.24-2.3v-2.37Z"/>
      <path class="cls-1" d="m52.79,48.65l2.25-2.32v-4l-.85-.88.85-.89v-3.99l-2.25-2.32h-4.22l-2.25,2.32v3.08h2.61v3.6h-2.79v2.89l2.42,2.5h4.22Zm-6.3-5.04h2.79v-4.32h-2.61v-2.56l2.06-2.12h3.9l2.06,2.12v3.67l-1.01,1.05,1.01,1.05v3.66l-2.06,2.13h-3.9l-2.24-2.3v-2.37Z"/>
      <polygon class="cls-1" points="52.42 47.76 54.16 45.96 54.16 42.71 52.94 41.46 54.16 40.19 54.16 36.96 52.42 35.15 48.93 35.15 47.19 36.96 47.19 38.76 49.8 38.76 49.8 37.85 51.54 37.85 51.54 40.1 49.8 40.1 49.8 42.8 51.54 42.8 51.54 45.05 49.8 45.05 49.8 44.15 47.02 44.15 47.02 45.77 48.93 47.76 52.42 47.76"/>
    </g>
  </g>
</svg>