<?xml version="1.0" encoding="UTF-8"?>
<svg id="Layer_2" data-name="Layer 2" xmlns="http://www.w3.org/2000/svg" xmlns:xlink="http://www.w3.org/1999/xlink" viewBox="0 0 107.19 177.43">
  <defs>
    <style>
      .cls-1 {
        opacity: .3;
      }

      .cls-1, .cls-2 {
        fill: #1f354a;
      }

      .cls-3 {
        fill: #fff;
      }

      .cls-4 {
        fill: #df2c54;
      }

      .cls-5 {
        clip-path: url(#clippath);
      }

      .cls-6 {
        fill: none;
      }

      .cls-7 {
        fill: #e5e4e2;
      }
    </style>
    <clipPath id="clippath">
      <path class="cls-6" d="m107.07,72.55l-10.12-5.8v-18.17l.5-9.25v-7.84c0-6.03-2.82-23.95-12.26-28.17C75.74-.9,54.14.1,54.14.1c0,0-21.59-1-31.04,3.22-9.45,4.22-12.26,22.14-12.26,28.17v7.84l.5,9.25v17.54L.13,72.55s-1.51,6.63,5.83,6.43c2.43-.07,4.15-.64,5.38-1.38v80.12s-.3,19.7,33.67,19.7h18.27c33.97,0,33.67-19.7,33.67-19.7v-79.58c1.11.46,2.51.78,4.29.83,7.34.2,5.83-6.43,5.83-6.43Z"/>
    </clipPath>
  </defs>
  <g id="OBJECTS">
    <g class="cls-5">
      <g>
        <path class="cls-4" d="m107.07,72.55l-10.12-5.8v-18.17l.5-9.25v-7.84c0-6.03-2.82-23.95-12.26-28.17C75.74-.9,54.14.1,54.14.1c0,0-21.59-1-31.04,3.22-9.45,4.22-12.26,22.14-12.26,28.17v7.84l.5,9.25v17.54L.13,72.55s-1.51,6.63,5.83,6.43c2.43-.07,4.15-.64,5.38-1.38v80.12s-.3,19.7,33.67,19.7h18.27c33.97,0,33.67-19.7,33.67-19.7v-79.58c1.11.46,2.51.78,4.29.83,7.34.2,5.83-6.43,5.83-6.43Z"/>
        <path class="cls-7" d="m67.89.22c-7.35-.41-13.74-.11-13.74-.11,0,0-6.03-.28-13.11.08v177.14c1.28.06,2.59.11,3.98.11h18.27c1.62,0,3.14-.06,4.61-.14V.22Z"/>
        <path class="cls-2" d="m19.31,47.19c0-9.52,16.73-16.68,28.68-16.68h12.08c11.66,0,29.94,7.68,30.4,16.89.02.46-4.19,16.88-4.19,16.88H24.04l-4.73-17.09Z"/>
        <path class="cls-2" d="m88.52,156.9c0,2.56-16,4.48-27.16,4.48h-11.28c-10.88,0-28.39-2.06-28.82-4.53-.02-.13,4.35-4.54,4.35-4.54h58.11l4.8,4.59Z"/>
        <polygon class="cls-2" points="91.65 55.75 87 75.38 87 150.31 91.65 154.31 91.65 55.75"/>
        <polygon class="cls-2" points="18.3 55.75 22.95 75.38 22.95 150.31 18.3 154.31 18.3 55.75"/>
        <path class="cls-2" d="m54.14,6.4c13.19,0,24.68-1.3,30.7-3.22C75.23-.87,54.14.1,54.14.1c0,0-21.08-.98-30.7,3.07,6.02,1.92,17.51,3.22,30.7,3.22Z"/>
        <path class="cls-2" d="m45.01,177.43h18.27c6.24,0,11.31-.67,15.46-1.75-10.41-2-24.59-1.34-24.59-1.34,0,0-14.18-.66-24.59,1.34,4.14,1.08,9.22,1.75,15.46,1.75Z"/>
        <g>
          <path class="cls-3" d="m15.67,17.25c-.25.09-.55.14-1.01-.17-2.15-1.43-2.13-5.39.04-8.65,1.11-1.67,2.66-2.97,4.25-3.56,1.42-.53,2.74-.46,3.71.19.46.3.71.59.76.86.14.72-.81,2.07-1.9,3.64-.34.49-.71,1.01-1.08,1.58-.36.54-.71,1.08-1.05,1.62-1.28,2-2.61,4.07-3.73,4.49h0Z"/>
          <path class="cls-3" d="m92.62,17.25c.25.09.55.14,1.01-.17,2.15-1.43,2.13-5.39-.04-8.65-1.11-1.67-2.66-2.97-4.25-3.56-1.42-.53-2.74-.46-3.71.19-.46.3-.71.59-.76.86-.14.72.81,2.07,1.9,3.64.34.49.71,1.01,1.08,1.58.36.54.71,1.08,1.05,1.62,1.28,2,2.61,4.07,3.73,4.49h0Z"/>
        </g>
      </g>
      <rect class="cls-1" x="54.89" y="-7.18" width="54.96" height="191.79"/>
    </g>
  </g>
</svg>