<?xml version="1.0" encoding="UTF-8"?>
<svg id="Layer_2" data-name="Layer 2" xmlns="http://www.w3.org/2000/svg" xmlns:xlink="http://www.w3.org/1999/xlink" viewBox="0 0 106.06 179.49">
  <defs>
    <style>
      .cls-1 {
        opacity: .3;
      }

      .cls-1, .cls-2 {
        fill: #1f354a;
      }

      .cls-3, .cls-4 {
        fill: #fff;
      }

      .cls-4 {
        opacity: .4;
      }

      .cls-5 {
        fill: #8ec53f;
      }

      .cls-6 {
        fill: #df2c54;
      }

      .cls-7 {
        clip-path: url(#clippath);
      }

      .cls-8 {
        fill: none;
      }
    </style>
    <clipPath id="clippath">
      <path class="cls-8" d="m103.65,73.2l-9.8-5.62v-17.59l.49-8.95v-7.59c0-5.84-2.73-23.18-11.87-27.27-9.15-4.09-30.05-3.11-30.05-3.11,0,0-20.91-.97-30.05,3.11-9.15,4.09-11.87,21.43-11.87,27.27v7.59l.49,8.95v16.98L.12,73.2s-1.46,6.42,5.64,6.23c2.35-.07,4.02-.62,5.21-1.33v77.56s-.29,19.07,32.6,19.07h17.68c32.89,0,32.6-19.07,32.6-19.07v-77.03c1.08.44,2.43.76,4.15.8,7.1.19,5.64-6.23,5.64-6.23Z"/>
    </clipPath>
  </defs>
  <g id="OBJECTS">
    <g class="cls-7">
      <path class="cls-5" d="m103.65,73.2l-9.8-5.62v-17.59l.49-8.95v-7.59c0-5.84-2.73-23.18-11.87-27.27-9.15-4.09-30.05-3.11-30.05-3.11,0,0-20.91-.97-30.05,3.11-9.15,4.09-11.87,21.43-11.87,27.27v7.59l.49,8.95v16.98L.12,73.2s-1.46,6.42,5.64,6.23c2.35-.07,4.02-.62,5.21-1.33v77.56s-.29,19.07,32.6,19.07h17.68c32.89,0,32.6-19.07,32.6-19.07v-77.03c1.08.44,2.43.76,4.15.8,7.1.19,5.64-6.23,5.64-6.23Z"/>
      <g>
        <g>
          <path class="cls-2" d="m61.26,163.11h-17.68c-32.89,0-32.6-19.07-32.6-19.07v11.62s-.29,19.07,32.6,19.07h17.68c32.89,0,32.6-19.07,32.6-19.07v-11.62s.29,19.07-32.6,19.07Z"/>
          <path class="cls-5" d="m93.85,67.58v11.04c1.08.44,2.43.76,4.15.8,7.1.19,5.64-6.23,5.64-6.23l-9.8-5.62Z"/>
          <path class="cls-5" d="m10.98,66.97L.12,73.2s-1.46,6.42,5.64,6.23c2.35-.07,4.02-.62,5.21-1.33v-11.12Z"/>
        </g>
        <g>
          <path class="cls-2" d="m19.03,61.97c0-14.57,15.46-25.53,26.49-25.53h11.16c10.77,0,27.66,11.75,28.08,25.84.02.7-3.87,25.84-3.87,25.84H23.4l-4.37-26.15Z"/>
          <g>
            <g>
              <polygon class="cls-2" points="88.96 71.15 74.48 143.69 84.74 131.8 88.96 71.15"/>
              <polygon class="cls-2" points="14.85 71.15 29.33 143.69 19.07 131.8 14.85 71.15"/>
            </g>
            <polygon class="cls-2" points="58.61 151.76 58.61 143.91 65.76 149.5 66.4 142.52 60.32 137.77 60.32 129.92 67.08 135.2 67.72 128.22 62.02 123.78 62.02 115.93 68.39 120.9 69.21 112.01 34.4 112.01 35.23 121.04 41.78 115.93 41.78 123.78 35.91 128.36 36.55 135.34 43.49 129.92 43.49 137.77 37.22 142.66 37.87 149.63 45.19 143.91 45.19 151.76 38.54 156.96 39.52 167.63 64.09 167.63 65.09 156.82 58.61 151.76"/>
          </g>
          <polygon class="cls-4" points="24.17 91.62 34.4 107.42 69.21 107.42 79.79 91.62 24.17 91.62"/>
        </g>
      </g>
      <g>
        <polygon class="cls-6" points="74.1 148.43 72.81 157.89 83.11 146.63 84.39 137.17 74.1 148.43"/>
        <polygon class="cls-6" points="29.53 148.43 30.81 157.89 20.51 146.63 19.23 137.17 29.53 148.43"/>
      </g>
      <g>
        <path class="cls-3" d="m15.6,15.55c-.35,0-.74-.08-1.18-.69-2.02-2.79-.16-7.73,4.07-10.79,2.17-1.57,4.71-2.47,6.97-2.47,2.02,0,3.63.7,4.55,1.96.43.59.62,1.08.55,1.43-.16.96-1.97,2.22-4.07,3.67-.65.46-1.35.94-2.08,1.47-.7.51-1.39,1.03-2.06,1.53-2.53,1.91-5.15,3.88-6.74,3.88h0Z"/>
        <path class="cls-3" d="m89.45,15.55c.36,0,.75-.08,1.18-.69,2.02-2.79.16-7.73-4.07-10.79-2.17-1.57-4.71-2.47-6.97-2.47-2.02,0-3.63.7-4.55,1.96-.43.59-.62,1.08-.55,1.43.16.96,1.97,2.22,4.07,3.67.65.46,1.35.94,2.08,1.47.7.51,1.39,1.03,2.06,1.53,2.53,1.91,5.15,3.88,6.74,3.88h0Z"/>
      </g>
      <rect class="cls-1" x="51.81" width="54.26" height="179.49"/>
    </g>
  </g>
</svg>