<?xml version="1.0" encoding="UTF-8"?>
<svg id="Layer_2" data-name="Layer 2" xmlns="http://www.w3.org/2000/svg" xmlns:xlink="http://www.w3.org/1999/xlink" viewBox="0 0 104.5 185.67">
  <defs>
    <style>
      .cls-1 {
        opacity: .3;
      }

      .cls-1, .cls-2 {
        fill: #1f354a;
      }

      .cls-3 {
        fill: #fff;
      }

      .cls-4 {
        fill: #a7a9ac;
      }

      .cls-5 {
        fill: #939598;
      }

      .cls-6 {
        fill: #6d6e71;
      }

      .cls-7 {
        fill: #df2c54;
      }

      .cls-8 {
        clip-path: url(#clippath);
      }

      .cls-9 {
        fill: none;
      }
    </style>
    <clipPath id="clippath">
      <path class="cls-9" d="m101.57,80.06s4.61-7.62-5.89-10.4l-2.39,1.46-.08-.11c.43-13.3,1.1-36.06-3.2-50.71C84.65,2.08,51.26,1.9,51.26,1.9c0,0-33.39.18-38.74,18.4-4.31,14.68-3.63,37.49-3.2,50.78l-.03.04-2.39-1.46c-10.51,2.78-5.9,10.4-5.9,10.4l8.39-6.41c.06,2.06.11,3.82.11,5.15,0,9.53-1.94,53.97-3.18,63.85-1.95,15.54,6.85,41.28,32.76,41.28h24.33c26.44,0,34.54-27.05,32.76-41.28-1.24-9.87-3.17-54.32-3.17-63.85,0-1.34.05-3.11.11-5.19l8.45,6.45Z"/>
    </clipPath>
  </defs>
  <g id="OBJECTS">
    <g>
      <g>
        <g>
          <rect class="cls-2" x="8.45" y="26.33" width="15.33" height="37" rx="5" ry="5"/>
          <rect class="cls-2" x="78.74" y="26.33" width="15.33" height="37" rx="5" ry="5"/>
        </g>
        <g>
          <rect class="cls-2" x="8.45" y="122.87" width="15.33" height="37" rx="5" ry="5"/>
          <rect class="cls-2" x="78.74" y="122.87" width="15.33" height="37" rx="5" ry="5"/>
        </g>
      </g>
      <g>
        <g class="cls-8">
          <g>
            <path class="cls-5" d="m101.57,80.06s4.61-7.62-5.89-10.4l-2.39,1.46-.08-.11c.43-13.3,1.1-36.06-3.2-50.71C84.65,2.08,51.26,1.9,51.26,1.9c0,0-33.39.18-38.74,18.4-4.31,14.68-3.63,37.49-3.2,50.78l-.03.04-2.39-1.46c-10.51,2.78-5.9,10.4-5.9,10.4l8.39-6.41c.06,2.06.11,3.82.11,5.15,0,9.53-1.94,53.97-3.18,63.85-1.95,15.54,6.85,41.28,32.76,41.28h24.33c26.44,0,34.54-27.05,32.76-41.28-1.24-9.87-3.17-54.32-3.17-63.85,0-1.34.05-3.11.11-5.19l8.45,6.45Z"/>
            <g>
              <path class="cls-2" d="m87.08,153.92c0,5.09-18.08,8.91-29.29,8.91h-11.34c-10.94,0-30.53-4.11-30.96-9.02-.02-.25,6.37-9.02,6.37-9.02h58.39l6.83,9.13Z"/>
              <path class="cls-2" d="m86.92,67.83l-4.5,75.58,6.33,7.5s6.59-22.77-1.83-83.08Z"/>
              <path class="cls-2" d="m15.72,67.83l4.5,75.58-6.33,7.5s-6.59-22.77,1.83-83.08Z"/>
              <path class="cls-2" d="m82.44,99.79c.9-17.76,1.74-34.46,1.72-34.78-.42-14.08-17.31-25.84-28.08-25.84h-11.16c-11.04,0-26.49,10.96-26.49,25.53l1.98,35.1h62.03Z"/>
            </g>
            <g>
              <path class="cls-4" d="m42.48,18.97h15.43c4.18,0,9.03.93,13.85,2.58-5.15-3.68-10.99-5.91-15.68-5.91h-11.16c-4.7,0-10.19,1.99-14.95,5.39,4.27-1.33,8.59-2.06,12.52-2.06Z"/>
              <path class="cls-4" d="m43.19,23.21h14.11c3.82,0,8.26.85,12.67,2.36-4.71-3.37-10.06-5.41-14.35-5.41h-10.21c-4.3,0-9.32,1.82-13.68,4.93,3.9-1.21,7.86-1.88,11.45-1.88Z"/>
              <path class="cls-4" d="m44.56,26.79h11.6c3.14,0,6.79.7,10.42,1.94-3.87-2.77-8.26-4.44-11.79-4.44h-8.39c-3.53,0-7.66,1.5-11.24,4.05,3.21-1,6.46-1.55,9.41-1.55Z"/>
            </g>
            <g>
              <rect class="cls-2" x="27.96" y="107" width="46.67" height="31.33" rx="3" ry="3"/>
              <g>
                <rect class="cls-5" x="23.5" y="111.17" width="56" height="2.5"/>
                <rect class="cls-5" x="23.5" y="118" width="56" height="2.5"/>
                <rect class="cls-5" x="23.5" y="124.83" width="56" height="2.5"/>
                <rect class="cls-5" x="23.5" y="131.67" width="56" height="2.5"/>
              </g>
            </g>
            <g>
              <g>
                <path class="cls-6" d="m15.8,16.44c1.84,2.54,5.14-.58,8.74-3.19,3.6-2.61,6.15-3.73,4.3-6.26-1.84-2.54-6.25-2.48-9.86.13-3.6,2.61-5.03,6.79-3.19,9.33Z"/>
                <path class="cls-3" d="m17.52,16.32c-.26,0-.54-.06-.86-.5-1.46-2.02-.11-5.61,2.95-7.83,1.57-1.14,3.42-1.79,5.06-1.79,1.46,0,2.64.51,3.3,1.43.31.43.45.78.4,1.04-.12.7-1.43,1.61-2.96,2.67-.48.33-.98.68-1.51,1.07-.51.37-1.01.74-1.5,1.11-1.84,1.38-3.74,2.82-4.9,2.82h0Z"/>
              </g>
              <g>
                <path class="cls-6" d="m87.16,16.44c-1.84,2.54-5.14-.58-8.74-3.19-3.6-2.61-6.15-3.73-4.3-6.26,1.84-2.54,6.25-2.48,9.86.13,3.6,2.61,5.03,6.79,3.19,9.33Z"/>
                <path class="cls-3" d="m85.44,16.32c.26,0,.54-.06.86-.5,1.46-2.02.11-5.61-2.96-7.83-1.57-1.14-3.42-1.79-5.06-1.79-1.46,0-2.64.51-3.3,1.43-.31.43-.45.78-.4,1.04.12.7,1.43,1.61,2.96,2.67.48.33.98.68,1.51,1.07.51.37,1.01.74,1.5,1.11,1.84,1.38,3.74,2.82,4.9,2.82h0Z"/>
              </g>
            </g>
          </g>
          <rect class="cls-1" x="51.29" width="53.21" height="185.67"/>
        </g>
        <g>
          <path class="cls-7" d="m25.17,172.33c-7.63-14.27-16.96-12.39-17.04-12.37,3.79,12,13.06,23.31,29.59,23.92-4.66-2.22-9.47-5.8-12.54-11.54Z"/>
          <path class="cls-7" d="m94.27,159.93c-1.35-.18-9.82-.75-16.86,12.4-3.07,5.74-7.88,9.32-12.53,11.54,16.56-.64,25.62-12.15,29.39-23.94Z"/>
        </g>
      </g>
    </g>
  </g>
</svg>