<?xml version="1.0" encoding="UTF-8"?>
<svg id="Layer_2" data-name="Layer 2" xmlns="http://www.w3.org/2000/svg" viewBox="0 0 83.22 170.13">
  <defs>
    <style>
      .cls-1 {
        fill: #fff;
      }

      .cls-2 {
        fill: #caccd2;
      }

      .cls-3 {
        fill: #d9e6e8;
      }

      .cls-4 {
        fill: #bfd8dd;
      }

      .cls-5 {
        fill: #b30430;
      }

      .cls-6 {
        fill: #cdd6d7;
      }
    </style>
  </defs>
  <g id="Layer_2-2" data-name="Layer 2">
    <g>
      <path class="cls-2" d="m.38,62.29c.18.22.42.34.69.34.1,0,.2,0,.31,0,.12,0,.24,0,.38,0,.24,0,.62-.01,1.22-.11.12-.02.49-.07.97-.12,1.1-.14,2.88-.36,3.86-.53-.03.92-.05,1.66-.07,2.41,1.19-.88,2.95-2.04,5.57-3.58.08-4.54.08-9.29-.46-10.41-1.1-2.29-1.06-3.16-.99-4.88.02-.51.04-1.06.04-1.76,0-.81-.05-2.32-.1-4.07-.16-5.22-.4-13.09.11-15.88.37-2.04,1.3-2.89,2.13-3.64.77-.7,1.32-1.2,1.41-2.64.2-3.12,2.12-5.32,5.87-6.74,2.92-1.1,6.89-1.85,11.09-2.64,3.33-.63,7.97-1.4,10.83-1.7h2.43c3.06.33,7.75,1.12,10.85,1.7,4.2.79,8.17,1.54,11.09,2.64.18.07.34.15.51.22-.27-3.01-2.18-5.16-5.84-6.55-2.92-1.1-6.89-1.85-11.09-2.64-3.09-.58-7.78-1.38-10.84-1.7h-2.43c-2.86.3-7.5,1.08-10.83,1.7-4.2.79-8.18,1.54-11.09,2.64-3.74,1.42-5.66,3.62-5.87,6.74-.09,1.44-.65,1.94-1.41,2.64-.82.75-1.76,1.6-2.12,3.64-.51,2.79-.27,10.66-.11,15.88.05,1.75.1,3.26.1,4.07,0,.69-.02,1.25-.04,1.76-.07,1.73-.1,2.59,1,4.88.54,1.12.53,5.87.46,10.41C1.37,58.29.17,59.75.05,60.28c-.01.06-.01.12,0,.16-.1.58-.04,1.39.34,1.85Z"/>
      <path class="cls-2" d="m15.95,157.81c-.15-.33-.29-.66-.44-.97-.63-1.39-.74-3.37-.85-5.28-.11-2.03-.24-4.32-1.06-4.79-2.15-1.23-2.79-3.96-3.23-8.55-.48-5.02-.12-12.05.24-17.61.17-2.59,1.17-3.33,1.9-3.88.44-.33.66-.49.72-1.02.21-1.86-.22-25.25-.45-31.49-.08-2.15.06-6.57.22-11.7l.03-.88c.04-1.15.07-2.11.1-3.45-.98.17-2.76.4-3.86.53-.49.06-.85.11-.97.12-.28.04-.51.07-.71.09-.12,3.93-.2,7.22-.14,8.97.23,6.24.66,29.62.45,31.49-.06.53-.28.69-.72,1.02-.73.54-1.73,1.28-1.9,3.88-.36,5.56-.72,12.59-.24,17.61.44,4.59,1.08,7.31,3.23,8.55.82.47.95,2.76,1.06,4.79.11,1.91.21,3.89.85,5.28.15.32.29.64.44.97,1.26,2.81,2.69,6,5.18,8.07.32.27.77.53,1.32.77-.42-.85-.81-1.7-1.17-2.52Z"/>
      <path class="cls-2" d="m75.45,61.08c.78.42,1.47.81,2.1,1.18.21-.39.33-.93.33-1.56.07-.23-.02-.99-2.45-2.73,0,.97,0,2.01.02,3.11Z"/>
      <path d="m67.61,10.67c-2.92-1.1-6.89-1.85-11.09-2.64-3.09-.58-7.78-1.38-10.85-1.7h-2.43c-2.86.3-7.5,1.08-10.83,1.7-4.21.79-8.18,1.54-11.09,2.64-3.74,1.41-5.66,3.62-5.87,6.74-.09,1.44-.65,1.94-1.41,2.64-.82.75-1.76,1.6-2.13,3.64-.51,2.79-.27,10.66-.11,15.88.05,1.75.1,3.26.1,4.07,0,.69-.02,1.25-.04,1.76-.07,1.73-.1,2.6.99,4.88.54,1.12.53,5.87.46,10.41-2.62,1.55-4.38,2.71-5.57,3.58-1.82,1.34-2.29,2-2.37,2.32-.02.06-.02.12,0,.16-.1.58-.04,1.39.34,1.86.18.22.42.33.69.33.1,0,.2,0,.31,0,.12,0,.24,0,.38,0,.13,0,.3,0,.51-.02.19-.02.42-.04.71-.09.12-.02.49-.06.97-.12,1.1-.14,2.88-.36,3.86-.53-.04,1.34-.07,2.3-.1,3.45l-.03.88c-.16,5.13-.3,9.56-.22,11.7.23,6.24.66,29.62.45,31.49-.06.53-.28.69-.72,1.02-.73.54-1.73,1.28-1.9,3.88-.36,5.56-.72,12.59-.24,17.61.44,4.59,1.08,7.31,3.23,8.55.82.47.95,2.76,1.06,4.79.11,1.92.21,3.89.85,5.28.14.32.29.64.44.97.37.82.76,1.67,1.17,2.52,1.02,2.05,2.24,4.08,4,5.55,2.68,2.24,14.21,3.89,19.5,4.24h4.99c.18,0,.36,0,.54,0,8.04,0,19.17-2.18,21.65-4.25,2.49-2.08,3.92-5.26,5.18-8.07l.08-.18c.12-.27.24-.54.36-.79.63-1.39.74-3.37.85-5.28.11-2.02.24-4.31,1.06-4.79,2.15-1.23,2.79-3.96,3.23-8.55.48-5.01.12-12.05-.24-17.61-.17-2.59-1.17-3.33-1.9-3.88-.44-.33-.66-.49-.72-1.02-.21-1.86.22-25.25.45-31.49.08-2.13-.06-6.54-.22-11.64l-.03-.79c-.04-1.21-.07-2.23-.11-3.61,1.32.24,5.83.97,6.3.97.19,0,.38-.09.55-.25.36-.37.57-1.06.57-1.89.09-.31-.09-1.53-5.65-4.76-.63-.37-1.32-.76-2.1-1.18-.02-1.1-.02-2.14-.02-3.11.03-4.03.26-6.87.65-7.68,1.1-2.29,1.06-3.16,1-4.88-.02-.47-.04-1.05-.04-1.76,0-.8.04-2.22.1-4.02v-.05c.16-5.21.4-13.09-.11-15.88-.37-2.04-1.3-2.89-2.13-3.65-.76-.7-1.32-1.2-1.41-2.64-.19-2.97-1.96-5.1-5.35-6.52-.17-.07-.33-.15-.51-.22Zm4.29,4.97c.17.41.29.85.35,1.32,0,.01,0,.02,0,.03.02.16.04.32.05.49.12,1.91.97,2.68,1.79,3.42.75.69,1.47,1.34,1.77,2.99.48,2.67.25,10.48.09,15.64-.06,1.84-.1,3.29-.1,4.11,0,.72.02,1.3.04,1.81.07,1.63.09,2.31-.88,4.33-.56,1.16-.66,5.51-.56,11.7-.88-.44-1.66-.81-2.23-1.06v-2.85l-.33,1.24s0,0,0,0c-1.58,5.99-6.22,24.83-6.44,29.45-.2,4.15-.46,12.06,0,18.36.32,4.31,2.72,14.54,4.16,20.66.53,2.25.95,4.03.95,4.21v.16s.17.01.17.01c.08,0,.12,0,.15-.17h.02s0-.05,0-.09c.02-.23.04-.66.07-1.46.04-.99.09-2.41.15-4.12.13-3.4.29-7.94.46-12.49.11-3.13.23-6.26.33-9.02.02-.59.04-1.15.06-1.7,0-.29.02-.58.03-.86,0-.16.01-.31.02-.46,0-.13,0-.26.01-.39,0-.15.01-.29.02-.43.03-.84.06-1.6.08-2.27,0-.11,0-.22.01-.33,0-.1,0-.2.01-.29,0-.04,0-.08,0-.12.02-.53.04-.98.05-1.34,0-.12,0-.24.01-.34,0-.08,0-.16,0-.23,0-.07,0-.12,0-.17,0-.14,0-.21,0-.21v-31.34c.31,1.53.91,3.06,2.08,3.3.1.02.19.04.29.06.05,1.7.1,3.49.16,5.34.16,5.11.3,9.52.22,11.62-.2,5.58-.67,29.59-.44,31.66.12,1.03.68,1.45,1.18,1.82.64.47,1.3.96,1.43,3.02.36,5.52.71,12.49.25,17.42-.46,4.84-1.13,6.77-2.65,7.65-1.37.79-1.5,3.19-1.64,5.73-.1,1.81-.2,3.68-.74,4.86-.14.32-.29.65-.44.98,0,0,0,.02-.01.02-1.01,2.26-2.14,4.76-3.82,6.63-.32-1.26-.67-1.89-1.39-1.98.06-.03.12-.06.18-.09l4.37-27.3-1.67,4.33-3.3,21.64c-2.13,1.1-4.51,2.08-7,2.91-.03,0-.06.02-.09.03-.89.29-1.79.56-2.7.81-.05.01-.1.03-.15.04-.53.14-1.06.28-1.59.4-.1.02-.19.05-.29.07-.26.06-.52.12-.78.17-.16.03-.32.07-.48.1-.36.07-.72.14-1.08.21-.22.04-.45.08-.67.12-.2.03-.39.07-.59.1-.29.05-.58.09-.87.13-.17.02-.35.05-.53.07-.34.04-.68.08-1.01.12-.14.02-.28.03-.42.04-.38.04-.77.07-1.15.1-.04,0-.09,0-.13,0-.4.03-.81.05-1.21.06-.11,0-.22,0-.33.01-.42.01-.83.02-1.25.01h0c-.43,0-.86,0-1.3,0-.09,0-.18,0-.27,0-.42,0-.84-.02-1.27-.04-.07,0-.14,0-.22-.01-.39-.02-.78-.05-1.16-.08-.07,0-.14-.01-.21-.02-.42-.04-.85-.08-1.27-.13-.09-.01-.19-.02-.28-.03-.43-.06-.86-.11-1.29-.18,0,0-.02,0-.03,0-.42-.07-.84-.14-1.26-.22-.1-.02-.19-.04-.29-.05-.41-.08-.82-.17-1.23-.26-.08-.02-.16-.04-.24-.06-.37-.09-.73-.17-1.09-.27-.08-.02-.15-.04-.23-.06-.4-.11-.79-.22-1.19-.33-.1-.03-.2-.06-.3-.09-.39-.12-.78-.24-1.16-.37,0,0-.01,0-.02,0-2.7-.92-5.23-2.09-7.42-3.46l-3.27-21.45-1.67-4.33,4.37,27.3c.13.07.27.14.41.21-.5.26-.79.92-1.06,2.04-1.78-1.89-2.94-4.49-3.99-6.83,0,0,0-.01,0-.02-.15-.33-.29-.65-.43-.96-.54-1.19-.64-3.06-.74-4.86-.14-2.54-.27-4.95-1.64-5.73-1.52-.87-2.19-2.8-2.65-7.65-.47-4.94-.11-11.9.25-17.42.13-2.06.79-2.54,1.43-3.02.5-.37,1.07-.79,1.18-1.82.23-2.07-.24-26.08-.44-31.66-.08-2.1.06-6.51.22-11.62.06-1.89.11-3.7.16-5.44,1.08-.33,1.65-1.8,1.95-3.27v31.33s.33,9.09.66,18.17c.02.59.04,1.19.06,1.78.14,3.93.28,7.75.39,10.71.06,1.7.12,3.12.15,4.12.03.8.05,1.23.07,1.46,0,.04,0,.07,0,.09h.02c.03.16.06.18.13.18h.19s0-.18,0-.18c0-.19.42-1.96.95-4.21,1.44-6.11,3.84-16.34,4.16-20.66.46-6.3.2-14.21,0-18.36-.2-4.29-4.2-20.79-6.04-27.95-.03-.11-.06-.23-.09-.34-.02-.07-.03-.14-.05-.2,0-.04-.02-.07-.03-.1-.02-.09-.04-.17-.07-.26,0-.02-.01-.04-.02-.07-.05-.19-.1-.38-.15-.55l-.33-1.24v2.85c-.49.21-1.11.5-1.82.85.1-6.08,0-10.35-.56-11.5-.97-2.03-.95-2.7-.88-4.33.02-.51.04-1.08.04-1.81,0-.82-.04-2.27-.1-4.11-.16-5.17-.39-12.97.09-15.64.3-1.66,1.01-2.3,1.77-2.99.82-.75,1.66-1.52,1.79-3.42,0-.16.03-.32.05-.48.02-.13.04-.26.07-.39,0-.02,0-.04.01-.06.06-.3.15-.58.26-.85,0,0,0,0,0,0,.68-1.71,2.22-2.99,4.73-3.93,1.82-.69,4.1-1.24,6.61-1.75-1.43.59-2.31,1.51-2.12,2.21.1.37.32.61.61.77l-1.58,2.35-6.9,28.31.2-24.83-.98-2.14-.28,32.56.51,1.25.49,1.2.03-4.06L26.85,13c.82.44,2.14.17,2.79-.02,0,0,.01,0,.01,0,.08-.02.15-.04.21-.06,1.7-.57,2.67-1.96,2.42-2.73-.14-.41-.63-.65-1.36-.69.56-.11,1.13-.21,1.7-.32,3.46-.65,8.43-1.47,11.18-1.73l.45-.04v-.03c.06,0,.12,0,.19.01h.07c.06,0,.12,0,.18-.01v.02l.45.04c2.76.26,7.61,1.06,11.18,1.73.58.11,1.15.22,1.72.33-.08,0-.16-.01-.23-.01-.85,0-1.56.23-1.56.7,0,.11,0,.21.02.31,0,.03,0,.05.01.08,0,.08.02.15.04.23,0,.02,0,.04.01.06.02.09.05.18.08.26,0,.02.02.04.02.05.03.07.06.13.09.2.01.02.02.05.04.07.04.07.08.14.12.2,0,0,0,.01.01.02.05.07.1.14.16.2.02.02.03.04.05.05.04.05.09.1.14.14.01.02.03.03.04.05.06.06.13.12.19.17.01,0,.02.02.03.03.06.04.12.09.18.13.02.01.04.03.06.04.06.04.13.08.19.12,0,0,.02,0,.02.02.08.04.15.09.23.13.02,0,.03.02.05.02.07.03.13.06.2.09.01,0,.03.01.04.02.16.07.32.13.49.19.01,0,.02,0,.03.01.16.05.33.1.48.14.56.14,1.03.19,1.21.19,0,0,1.24.37,1.83-1.2.28-.76-.87-1.82-2.57-2.39-.01,0-.02,0-.03,0,2.86.57,5.47,1.17,7.51,1.94,2.48.94,4.02,2.19,4.71,3.88Zm10.64,51.37v.19c0,.22,0,.38-.05.5-.01.06-.03.12-.05.14-.23.23-1,.22-2.81-.07-.43-.07-.81-.13-1.17-.19-1.29-.2-2.3-.36-4.08-.73-1.86-.39-2.11-4.92-2.14-6.05,2.46,1.08,5.9,2.91,8.13,4.38,1.3.84,2.18,1.53,2.18,1.83Zm-13.92,49.83c-1.21-4.33-1.92-14.28-1.92-20.28s1.09-20.8,3.84-28.55c-.83,8.29-2.51,22.83-2.51,28.55s.21,15.55.59,20.28Zm-24.89,52.08v.05c-.22,0-.46,0-.71-.02h-.02s-.02,0-.02,0c-.26,0-.51.02-.74.02v-.05s-.47-.03-.47-.03c-2.76-.16-6.27-.55-9.59-1.07.35-.16.59-.44.71-.85.1-.34.12-.65.07-.92,3.24.71,6.58,1.07,9.95,1.07.15,0,.3,0,.46,0h0c.35,0,1.87,0,2.22,0,3.6,0,7.15-.41,10.59-1.21-.09.31-.08.67.04,1.07.08.27.22.49.4.65-4.21.62-8.88,1.09-12.42,1.28l-.47.02Zm-21.1-6.42s.1,0,.15,0c3.04,1.5,6.27,2.63,9.62,3.41.11.25.12.54,0,.91-.13.45-.44.65-1.01.65-.76,0-1.87-.35-3.17-.76-.64-.2-1.29-.41-2-.6-1.31-.36-2.4-.59-3.2-.75-.33-.07-.68-.14-.98-.21-.07-.05-.14-.1-.2-.15-.16-.13-.31-.27-.46-.41.41-1.79.7-2.09,1.23-2.09Zm4.16,4.29c-.82-.19-1.57-.39-2.24-.6.47.11.99.24,1.55.39.24.06.46.13.69.2Zm40.26-1.79c-.09.08-.21.15-.34.23-.21.05-.43.09-.64.13-.8.16-1.89.38-3.2.75-.71.2-1.36.4-2,.6-.58.18-1.12.35-1.61.48-.54.09-1.09.18-1.65.27-.52-.02-.8-.21-.92-.64-.12-.41-.11-.72.04-.98.02-.03.04-.06.06-.09,2.81-.7,5.54-1.66,8.13-2.87.68-.23,1.19-.38,1.54-.38.51,0,.8.28,1.19,1.93-.2.2-.4.39-.62.57ZM5.96,67.19v-.19c0-.82,6.59-4.58,10.31-6.21-.03,1.13-.28,5.66-2.14,6.05-1.78.37-2.8.53-4.08.73-.36.06-.74.12-1.17.19-1.81.29-2.58.31-2.81.07-.11-.11-.11-.34-.1-.64Zm12.34,2.15c2.76,7.75,3.84,22.54,3.84,28.55s-.71,15.96-1.92,20.29c.38-4.73.59-14.56.59-20.29s-1.69-20.26-2.51-28.55ZM30.73,9.82c.68,0,1.15.18,1.25.47.17.5-.76,1.43-2.37,1.97-.63.21-1.28.33-1.82.33-.68,0-1.15-.18-1.25-.47-.17-.5.76-1.43,2.36-1.96.63-.21,1.28-.33,1.82-.33Zm28.89.33c1.6.54,2.53,1.47,2.36,1.96-.1.3-.57.47-1.25.47-.54,0-1.19-.12-1.82-.33-1.6-.54-2.53-1.47-2.36-1.97.1-.3.56-.47,1.25-.47.54,0,1.19.12,1.82.33Z"/>
      <path class="cls-6" d="m56.23,166.95c-.12-.4-.13-.75-.04-1.07-3.44.8-6.99,1.21-10.59,1.21-.35,0-1.87,0-2.22,0h0c-.15,0-.3,0-.46,0-3.38,0-6.71-.36-9.95-1.07.05.28.03.58-.07.92-.12.41-.36.69-.71.85,3.32.52,6.83.91,9.59,1.07l.48.03v.05c.23,0,.48,0,.74-.02h.02s.02,0,.02,0c.25,0,.48.02.71.02v-.05l.47-.02c3.54-.19,8.21-.66,12.42-1.28-.18-.16-.32-.38-.4-.65Z"/>
      <path class="cls-5" d="m66.49,162.49c-.36,0-.87.15-1.54.38-2.6,1.21-5.32,2.17-8.13,2.87-.02.03-.04.06-.06.09-.15.27-.16.58-.04.98.13.43.41.62.92.64.56-.09,1.11-.18,1.65-.27.49-.13,1.03-.3,1.61-.48.64-.2,1.29-.41,2-.6,1.31-.36,2.4-.59,3.2-.75.21-.04.43-.09.64-.13.13-.08.25-.15.34-.23.22-.18.42-.37.62-.57-.39-1.65-.68-1.93-1.19-1.93Z"/>
      <path class="cls-5" d="m21.87,164.99c.06.05.13.1.2.15.3.07.65.14.98.21.8.16,1.89.38,3.2.75.71.2,1.36.4,2,.6,1.29.41,2.41.76,3.17.76.58,0,.88-.19,1.01-.65.11-.37.1-.66,0-.91-3.34-.77-6.57-1.91-9.62-3.41-.05,0-.11,0-.15,0-.53,0-.82.3-1.23,2.09.15.14.3.28.46.41Z"/>
      <path class="cls-1" d="m67.2,11.76c-2.04-.77-4.65-1.37-7.51-1.94,0,0,.02,0,.03,0,1.7.57,2.86,1.63,2.57,2.39-.59,1.57-1.83,1.2-1.83,1.2-.18,0-.65-.05-1.21-.19v4.84c-7.01-8.19-20.85-7.28-29.61-1.15v-3.93c-.65.19-1.98.45-2.79.02l-8.54,34.63-.03,4.06-.49-1.2-.51-1.25.28-32.56.98,2.14-.2,24.83,6.9-28.31,1.58-2.35c-.28-.16-.5-.4-.61-.77-.2-.71.68-1.62,2.12-2.21-2.51.52-4.79,1.07-6.61,1.75-2.51.95-4.05,2.22-4.73,3.93v44.64c1.84,7.16,5.84,23.66,6.04,27.95.2,4.15.46,12.06,0,18.36-.32,4.31-2.72,14.54-4.16,20.66-.53,2.25-.94,4.03-.95,4.21v.17s-.16,0-.16,0h-.02c-.06,0-.1-.01-.13-.17h-.02s0-.05,0-.09c-.03-.23-.04-.66-.07-1.46-.04-.99-.09-2.41-.15-4.12-.11-2.96-.25-6.78-.39-10.71v42.17s0,.01,0,.02c1.05,2.33,2.21,4.94,3.99,6.83.27-1.12.55-1.78,1.06-2.04-.14-.07-.27-.13-.41-.21l-4.37-27.3,1.67,4.33,3.27,21.45c2.19,1.38,4.72,2.55,7.42,3.46v-9.56c.69.99,1.49,1.88,2.37,2.69,2.97,3.84,7.64,6.29,12.94,6.25,6.43-.05,12.06-3.72,14.3-9.27v9.52c2.49-.82,4.87-1.8,7-2.91l3.3-21.64,1.67-4.33-4.37,27.3c-.06.03-.12.06-.18.09.72.09,1.07.72,1.39,1.98,1.68-1.87,2.81-4.37,3.82-6.63v-53.02c-.1,2.76-.21,5.89-.33,9.02-.16,4.54-.33,9.08-.46,12.49-.06,1.7-.12,3.12-.15,4.12-.03.8-.05,1.23-.07,1.46,0,.04,0,.07,0,.09h-.02c-.03.17-.07.17-.15.17h-.16s0-.18,0-.18c0-.19-.42-1.96-.95-4.21-1.44-6.11-3.84-16.34-4.16-20.66-.46-6.3-.2-14.21,0-18.36.22-4.63,4.86-23.46,6.44-29.45V15.64c-.69-1.69-2.22-2.94-4.71-3.88Zm-46.34,1.13c1.23-.74,2.55-1.18,3.53-1.18.66,0,1.14.2,1.36.58.57.96-.45,3.09-2.62,4.39-1.24.74-2.94,1.19-3.91,1.19-.66,0-.98-.58-1.21-.96-.57-.96.67-2.73,2.84-4.03Zm41.91-.6c.23-.38.7-.58,1.36-.58.98,0,2.3.44,3.53,1.18,2.17,1.3,3.14,2.95,2.84,4.03-.53,1.9-4.05.5-5.29-.23-2.17-1.3-3.02-3.43-2.45-4.39Zm.51,3.05l6.9,28.31-.2-24.83.98-1.49.25,31.4-.49,1.48-.49,1.49-.03-3.7-8.5-34.21,1.57,1.55Zm4.18,30.53c0,.74-.41,1.46-1.17,2.13-1.87-1.66-5.85-3.04-11.03-3.88-.02-.22-.06-.44-.09-.66,6.7,1.31,11,3.29,11.1,3.34l.14-.3s-4.47-2.08-11.29-3.42c-.17-1.12-.4-2.23-.64-3.34,7.7,1.14,12.97,3.45,12.97,6.13Zm-29.32-6.6c1.89-.16,3.87-.25,5.92-.27h0c.07,0,.13,0,.2,0,.07,0,.13,0,.2,0h0c2.43.03,4.76.15,6.95.37.23,1.07.46,2.13.64,3.2-4-.57-9-.86-14.52-.25.17-1.03.36-2.05.62-3.05Zm-.67,3.39c5.36-.6,10.36-.34,14.63.28.04.26.08.51.11.77-2.48-.28-5.16-.43-7.95-.45-2.42.02-4.76.14-6.95.35.05-.32.1-.63.16-.95Zm-2.39-3.07c-.22,1.04-.4,2.1-.59,3.15-3.96.68-8.13,1.85-12.34,3.75l.14.3c4.11-1.85,8.2-3.03,12.13-3.7-.05.29-.11.58-.17.88-5.66.82-10.04,2.26-12.02,4.03-.75-.67-1.17-1.39-1.17-2.13,0-2.79,5.75-5.2,14.01-6.27Zm31.39,107.76c-1.23,3.51-12.07,5.83-21.84,6.54v.05h-.18c-.06-.01-.12-.02-.18-.02-.06,0-.12,0-.18.01h-.18s0-.04,0-.04c-9.76-.71-20.61-3.03-21.84-6.54-1.33-3.79,1.64-22.42,1.77-23.21l.03-.19.18.05c.09.03,9.23,2.6,20.22,2.67,11-.07,20.13-2.65,20.22-2.67l.18-.05.03.19c.13.79,3.1,19.42,1.77,23.21ZM23.73,78.52l1.54,2.46c5.95,26.77.66,37.7.59,37.87l-2.12,2.89c.06-.16,5.87-16.73-.02-43.22Zm41.05,43.22l-2.05-2.77c-.06-.17-5.54-10.62.42-37.39l1.65-3.06c-5.88,26.47-.08,43.06-.02,43.22Zm.64-44.62l-.11.43-.38-.23c-1.62-.97-10.01-3.36-18.24-3.36-.69,0-1.39.02-2.06.05v.04h-.18s-.25-.02-.25-.02l-.3.02v-.03l-2.07-.06c-9.48,0-17.67,2.93-18.34,3.39v.1h-.16s-.01,0-.02,0c-.05,0-.09-.02-.14-.17h-.01s0-.01,0-.02c-.12-.33-.33-1.21-.9-3.59-.52-2.19-1.21-5.11-1.9-8.04-1.38-5.85-2.75-11.69-2.75-11.69l-.03-.11.1-.06c.08-.05,5.6-3.71,14.26-5.76.14-.14.56-.54.33-.32-.1.1-.2.2-.3.31.05-.04.3-.31,1.42-1.33.6-.41.55-.5,1.2-.83,2.28-1.14,8.48-1.98,13.02-1.73.06,0,.15.02.25.03.37.05.73.1,1.09.16.75.12,1.5.24,2.23.4.89.19,1.78.4,2.64.68.21.07.84.34.88.34.03.01.06.03.08.04.36.2,1.54,1.12,1.32.87.13.13.26.25.39.39.31.45.67.86,1.06,1.22,7.49,1.93,12.41,4.97,13.17,5.46l.2.13-.05.23c-1.68,7.18-4.98,21.24-5.46,23.06Z"/>
      <path class="cls-3" d="m71.91,58.83s0,0,0,0l.33-1.24v2.85c.58.25,1.36.62,2.23,1.06-.1-6.19,0-10.54.56-11.7.97-2.03.95-2.7.88-4.33-.02-.51-.04-1.08-.04-1.81,0-.82.04-2.27.1-4.11.16-5.17.39-12.97-.09-15.64-.3-1.66-1.01-2.3-1.77-2.99-.82-.75-1.67-1.52-1.79-3.42-.01-.17-.03-.33-.05-.49,0-.01,0-.02,0-.03-.07-.47-.18-.91-.35-1.32v43.19Z"/>
      <path class="cls-3" d="m71.91,157.36s0-.02.01-.02c.15-.33.3-.66.44-.98.54-1.19.65-3.06.74-4.86.14-2.54.27-4.95,1.64-5.73,1.52-.87,2.19-2.8,2.65-7.65.47-4.94.12-11.9-.25-17.42-.13-2.06-.79-2.54-1.43-3.02-.5-.37-1.07-.79-1.18-1.82-.23-2.07.24-26.08.44-31.66.08-2.1-.06-6.51-.22-11.62-.06-1.85-.11-3.64-.16-5.34-.1-.02-.19-.04-.29-.06-1.16-.24-1.77-1.78-2.08-3.3v31.34s0,.08,0,.21c0,.05,0,.11,0,.17,0,.07,0,.14,0,.23,0,.1,0,.22-.01.34-.01.36-.03.81-.05,1.34,0,.04,0,.08,0,.12,0,.1,0,.19-.01.29,0,.11,0,.21-.01.33-.02.67-.05,1.43-.08,2.27,0,.14-.01.29-.02.43,0,.13,0,.26-.01.39,0,.15-.01.31-.02.46-.01.28-.02.56-.03.86-.02.55-.04,1.12-.06,1.7v53.02Z"/>
      <path class="cls-3" d="m17,15.69c-.11.27-.19.56-.26.85,0,.02,0,.04-.01.06-.03.13-.05.26-.07.39-.02.16-.04.32-.05.48-.12,1.91-.97,2.68-1.79,3.42-.75.69-1.47,1.34-1.77,2.99-.48,2.67-.25,10.48-.09,15.64.05,1.84.1,3.29.1,4.11,0,.72-.02,1.3-.04,1.81-.07,1.63-.09,2.31.88,4.33.55,1.15.66,5.42.56,11.5.71-.35,1.33-.64,1.82-.85v-2.85l.33,1.24c.05.17.09.36.15.55,0,.02.01.04.02.07.02.08.04.17.07.26,0,.03.02.07.03.1.02.07.04.13.05.2.03.11.06.22.09.34V15.69s0,0,0,0Z"/>
      <path class="cls-3" d="m59.26,18.06v-4.84c-.15-.04-.31-.09-.48-.14-.01,0-.02,0-.03-.01-.16-.06-.32-.12-.49-.19-.01,0-.03-.01-.04-.02-.07-.03-.13-.06-.2-.09-.02,0-.03-.02-.05-.02-.08-.04-.15-.08-.23-.13,0,0-.02-.01-.02-.02-.07-.04-.13-.08-.19-.12-.02-.01-.04-.03-.06-.04-.06-.04-.12-.09-.18-.13,0,0-.02-.02-.03-.03-.07-.05-.13-.11-.19-.17-.02-.01-.03-.03-.04-.05-.05-.05-.09-.09-.14-.14-.02-.02-.03-.04-.05-.05-.06-.07-.11-.13-.16-.2,0,0,0-.02-.01-.02-.04-.06-.08-.13-.12-.2-.01-.02-.02-.05-.04-.07-.03-.06-.06-.13-.09-.2,0-.02-.02-.04-.02-.05-.03-.08-.06-.17-.08-.26,0-.02,0-.04-.01-.06-.02-.07-.03-.15-.04-.23,0-.03,0-.06-.01-.08,0-.1-.02-.2-.02-.31,0-.47.72-.7,1.56-.7.07,0,.15,0,.23.01-.57-.11-1.14-.22-1.72-.33-3.57-.67-8.41-1.47-11.18-1.73l-.45-.04v-.02c-.06,0-.11,0-.18.01h-.07c-.06,0-.13,0-.19-.01v.03l-.45.04c-2.75.26-7.72,1.08-11.18,1.73-.57.11-1.14.22-1.7.32.73.04,1.23.28,1.36.69.26.77-.72,2.16-2.42,2.73-.06.02-.13.04-.21.06,0,0-.01,0-.01,0v3.93c8.76-6.13,22.61-7.04,29.61,1.15Zm-3.54-8.04l-.09.32s-.23-.07-.61-.16h-21.54c-.2.05-.4.1-.6.16l-.09-.32c11.54-3.27,22.82-.03,22.93,0Z"/>
      <path class="cls-3" d="m32.27,47.7c.23-.22-.19.17-.33.32,0,0,.02,0,.03,0,.1-.1.2-.21.3-.31Z"/>
      <path class="cls-3" d="m36.18,47.19c.05,0,.11-.01.16-.02.41-.06.82-.12,1.24-.17.13-.02.27-.03.41-.04.34-.04.69-.07,1.04-.11.17-.01.33-.03.5-.04.33-.03.66-.05.99-.07.18-.01.36-.02.54-.03.35-.02.7-.03,1.06-.04.16,0,.32-.01.48-.01.52,0,1.04-.01,1.56,0h.07c.56-.01,1.11,0,1.66,0,.16,0,.31,0,.47.01.42.01.84.03,1.25.05.13,0,.27.01.4.02.54.03,1.07.07,1.6.12.03,0,.06,0,.09,0,.5.05,1,.1,1.49.17.11.01.21.03.32.04.47.06.92.13,1.38.2.04,0,.09.01.13.02,1.06.17,2.08.37,3.06.59.02,0,.04.01.06.02.49.11.97.23,1.44.35-.39-.36-.75-.77-1.06-1.22-.12-.14-.25-.26-.39-.39.23.25-.95-.67-1.32-.87-.03-.01-.06-.03-.08-.04-.04,0-.67-.27-.88-.34-.86-.29-1.75-.49-2.64-.68-.74-.16-1.49-.28-2.23-.4-.36-.06-.73-.11-1.09-.16-.1-.01-.19-.03-.25-.03-4.54-.25-10.74.59-13.02,1.73-.65.32-.6.42-1.2.83-1.12,1.03-1.37,1.29-1.42,1.33h0c1.33-.32,2.74-.59,4.21-.81Z"/>
      <path class="cls-3" d="m59.26,153.98c-2.24,5.55-7.86,9.23-14.3,9.27-5.31.04-9.98-2.41-12.94-6.25-.89-.81-1.69-1.71-2.37-2.69v9.56s.01,0,.02,0c.38.13.77.25,1.16.37.1.03.2.06.3.09.39.12.79.23,1.19.33.08.02.15.04.23.06.36.09.73.18,1.09.27.08.02.16.04.24.06.41.09.82.18,1.23.26.1.02.19.04.29.05.42.08.84.15,1.26.22,0,0,.02,0,.03,0,.43.07.86.12,1.29.18.09.01.19.02.28.03.42.05.85.1,1.27.13.07,0,.14.01.21.02.39.03.78.06,1.16.08.07,0,.14,0,.22.01.42.02.85.04,1.27.04.09,0,.18,0,.27,0,.43,0,.87,0,1.3,0h0c.41.01.83,0,1.25,0,.11,0,.22,0,.33-.01.4-.01.81-.03,1.21-.06.04,0,.09,0,.13,0,.38-.03.77-.06,1.15-.1.14-.01.28-.03.42-.04.34-.04.67-.08,1.01-.12.18-.02.35-.05.53-.07.29-.04.58-.08.87-.13.2-.03.39-.06.59-.1.22-.04.45-.08.67-.12.36-.07.72-.14,1.08-.21.16-.03.32-.07.48-.1.26-.06.52-.11.78-.17.1-.02.19-.05.29-.07.53-.13,1.06-.26,1.59-.4.05-.01.1-.03.15-.04.91-.25,1.81-.52,2.7-.81.03,0,.06-.02.09-.03v-9.52Z"/>
      <path class="cls-3" d="m16.94,113.36c-.33-9.08-.66-18.16-.66-18.17v-31.33c-.3,1.47-.87,2.94-1.95,3.27-.05,1.73-.1,3.55-.16,5.44-.16,5.11-.3,9.52-.22,11.62.21,5.58.67,29.59.44,31.66-.12,1.03-.68,1.45-1.18,1.82-.64.47-1.3.96-1.43,3.02-.36,5.52-.71,12.49-.25,17.42.46,4.84,1.13,6.77,2.65,7.65,1.37.79,1.5,3.19,1.64,5.73.1,1.81.2,3.68.74,4.86.14.31.29.63.43.96v-42.17c-.02-.59-.04-1.19-.06-1.78Z"/>
      <path d="m64.66,123.96l-.18.05c-.09.03-9.23,2.6-20.22,2.67-11-.07-20.13-2.65-20.22-2.67l-.18-.05-.03.19c-.13.79-3.1,19.42-1.77,23.21,1.23,3.51,12.07,5.83,21.84,6.54v.05h.18c.06-.01.12-.02.18-.02.06,0,.12,0,.18.01h.18s0-.04,0-.04c9.76-.71,20.61-3.03,21.84-6.54,1.33-3.79-1.64-22.42-1.77-23.21l-.03-.19Zm-20.25,6.05c-6.01,0-11.53-.73-15.85-1.93,4.73.38,10.13.6,15.85.6s11.12-.22,15.85-.6c-4.33,1.21-9.84,1.93-15.85,1.93Z"/>
      <path class="cls-1" d="m8.88,67.76c.43-.07.81-.13,1.17-.19,1.29-.2,2.3-.36,4.08-.73,1.86-.39,2.11-4.92,2.14-6.05-3.72,1.63-10.31,5.39-10.31,6.21v.19c0,.31,0,.53.1.64.23.23,1,.22,2.81-.07Z"/>
      <path class="cls-1" d="m19.38,17.16c.92,0,2.17-.42,3.36-1.13,1.94-1.16,3.19-2.8,2.73-3.57-.21-.34-.7-.42-1.08-.42-.92,0-2.18.42-3.36,1.13-1.94,1.16-3.19,2.8-2.73,3.57.21.34.7.42,1.08.42Z"/>
      <path d="m19.23,17.87c.98,0,2.68-.45,3.91-1.19,2.17-1.3,3.19-3.43,2.62-4.39-.23-.38-.7-.58-1.36-.58-.98,0-2.3.44-3.53,1.18-2.17,1.3-3.42,3.07-2.84,4.03.23.38.55.96,1.21.96Zm1.8-4.7c1.18-.71,2.44-1.13,3.36-1.13.38,0,.87.07,1.08.42.46.77-.79,2.41-2.73,3.57-1.19.71-2.44,1.13-3.36,1.13-.38,0-.87-.07-1.08-.42-.46-.77.79-2.41,2.73-3.57Z"/>
      <path class="cls-1" d="m26.54,12.11c.1.3.57.47,1.25.47.54,0,1.19-.12,1.82-.33,1.6-.54,2.53-1.47,2.37-1.97-.1-.3-.57-.47-1.25-.47-.55,0-1.19.12-1.82.33-1.6.54-2.53,1.47-2.36,1.96Z"/>
      <path d="m25.86,118.85c.06-.17,5.36-11.1-.59-37.87l-1.54-2.46c5.89,26.49.08,43.06.02,43.22l2.12-2.89Z"/>
      <path d="m70.93,53.84l-.2-.13c-.76-.49-5.68-3.53-13.17-5.46-.47-.12-.95-.24-1.44-.35-.02,0-.04,0-.06-.02-.98-.22-2-.42-3.06-.59-.04,0-.09-.01-.13-.02-.45-.07-.91-.14-1.38-.2-.11-.01-.21-.03-.32-.04-.49-.06-.98-.12-1.49-.17-.03,0-.06,0-.09,0-.52-.05-1.06-.09-1.6-.12-.13,0-.27-.01-.4-.02-.41-.02-.83-.04-1.25-.05-.15,0-.31,0-.47-.01-.55,0-1.1-.01-1.66,0h-.07c-.53,0-1.05,0-1.56,0-.16,0-.32,0-.48.01-.35,0-.71.02-1.06.04-.18,0-.36.02-.54.03-.33.02-.67.04-.99.07-.17.01-.33.03-.5.04-.35.03-.7.07-1.04.11-.13.02-.27.03-.41.04-.42.05-.83.11-1.24.17-.05,0-.11.01-.16.02-1.47.22-2.88.5-4.21.81h0s-.02,0-.03,0c-8.66,2.05-14.18,5.71-14.26,5.76l-.1.06.03.11s1.37,5.85,2.75,11.69c.69,2.92,1.38,5.85,1.9,8.04.57,2.38.78,3.26.9,3.59,0,0,0,.01,0,.02h.01c.06.16.09.17.14.17h.18v-.1c.68-.46,8.87-3.39,18.34-3.39l2.07.06v.03l.3-.02h.25s.18.02.18.02v-.04c.68-.03,1.37-.05,2.06-.05,8.23,0,16.62,2.38,18.24,3.36l.38.23.11-.43c.48-1.82,3.78-15.88,5.46-23.06l.05-.23Zm-26.67,16.76c-8.12,0-13.5,1-20.57,4.59,3.27-3.6,10.24-7.2,20.57-7.2s16.11,3.15,20.57,7.2c-5.38-3.27-12.45-4.59-20.57-4.59Z"/>
      <path class="cls-1" d="m72.24,60.79c.03,1.13.28,5.66,2.14,6.05,1.78.37,2.8.53,4.08.73.36.06.75.12,1.17.19,1.81.29,2.58.31,2.81.07.02-.02.04-.08.05-.14.05-.24.05-.69.05-.69-.21-.42-1.04-1.08-2.18-1.83-2.23-1.47-5.67-3.3-8.13-4.38Z"/>
      <path d="m66.41,46.5l-.14.3c-.1-.04-4.4-2.03-11.1-3.34.03.22.06.44.09.66,5.18.84,9.17,2.22,11.03,3.88.75-.67,1.17-1.39,1.17-2.13,0-2.67-5.27-4.99-12.97-6.13.24,1.11.47,2.23.64,3.34,6.81,1.33,11.24,3.39,11.29,3.42Z"/>
      <path d="m52.04,42.56c-.18-1.07-.41-2.13-.64-3.2-2.19-.22-4.53-.34-6.95-.37h0c-.07,0-.13,0-.2,0-.07,0-.13,0-.2,0h0c-2.05.02-4.03.12-5.92.28-.26,1-.44,2.02-.62,3.05,5.51-.62,10.52-.32,14.52.25Z"/>
      <path d="m52.21,43.71c-.03-.26-.07-.52-.11-.77-4.28-.62-9.27-.88-14.63-.28-.05.31-.1.63-.16.95,2.19-.21,4.53-.33,6.95-.35,2.8.02,5.48.18,7.95.45Z"/>
      <path d="m34.25,43.97c.06-.29.11-.58.17-.88-3.93.68-8.02,1.85-12.13,3.7l-.14-.3c4.21-1.9,8.37-3.07,12.34-3.75.19-1.05.37-2.11.59-3.15-8.26,1.08-14.01,3.48-14.01,6.27,0,.74.41,1.46,1.17,2.13,1.98-1.76,6.36-3.21,12.02-4.03Z"/>
      <path class="cls-1" d="m65.78,16.02c1.19.71,2.44,1.13,3.36,1.13.38,0,.87-.07,1.08-.42.46-.77-.79-2.41-2.73-3.57-1.19-.71-2.44-1.13-3.36-1.13-.38,0-.87.07-1.08.42-.46.77.79,2.41,2.73,3.57Z"/>
      <path d="m65.21,16.68c1.23.74,4.76,2.14,5.29.23.3-1.08-.68-2.73-2.84-4.03-1.24-.74-2.56-1.18-3.53-1.18-.66,0-1.13.2-1.36.58-.57.96.28,3.09,2.45,4.39Zm-2.16-4.22c.21-.34.7-.42,1.08-.42.92,0,2.17.42,3.36,1.13,1.94,1.16,3.19,2.8,2.73,3.57-.21.34-.7.42-1.08.42-.92,0-2.17-.42-3.36-1.13-1.94-1.16-3.19-2.8-2.73-3.57Z"/>
      <path class="cls-1" d="m56.54,10.29c-.17.5.76,1.43,2.36,1.97.63.21,1.28.33,1.82.33.68,0,1.15-.18,1.25-.47.17-.5-.76-1.43-2.36-1.96-.63-.21-1.28-.33-1.82-.33-.68,0-1.15.18-1.25.47Z"/>
      <polygon points="70.21 48 70.24 51.69 70.73 50.21 71.22 48.72 70.96 17.32 69.98 18.82 70.18 43.64 63.28 15.33 61.71 13.78 70.21 48"/>
      <path d="m63.14,81.58c-5.95,26.77-.48,37.23-.42,37.39l2.05,2.77c-.06-.16-5.87-16.76.02-43.22l-1.65,3.06Z"/>
      <path d="m33.49,10.18h21.54c.38.09.59.15.61.16l.09-.32c-.11-.03-11.39-3.28-22.93,0l.09.32c.2-.06.4-.11.6-.16Z"/>
      <path class="cls-4" d="m23.69,75.19c7.06-3.6,12.45-4.59,20.57-4.59s15.19,1.33,20.57,4.59c-4.46-4.04-10.24-7.2-20.57-7.2s-17.3,3.6-20.57,7.2Z"/>
      <path class="cls-4" d="m28.56,128.08c4.33,1.21,9.84,1.93,15.85,1.93s11.52-.73,15.85-1.93c-4.73.38-10.13.6-15.85.6s-11.12-.22-15.85-.6Z"/>
      <path class="cls-4" d="m70.56,68c-2.76,7.75-3.84,22.54-3.84,28.55s.71,15.96,1.92,20.28c-.38-4.73-.59-14.56-.59-20.28s1.68-20.26,2.51-28.55Z"/>
      <path class="cls-4" d="m22.15,97.89c0-6.01-1.09-20.8-3.84-28.55.83,8.29,2.51,22.83,2.51,28.55s-.21,15.55-.59,20.29c1.21-4.33,1.92-14.28,1.92-20.29Z"/>
    </g>
  </g>
</svg>