<?xml version="1.0" encoding="UTF-8"?>
<svg id="Layer_2" data-name="Layer 2" xmlns="http://www.w3.org/2000/svg" xmlns:xlink="http://www.w3.org/1999/xlink" viewBox="0 0 102.58 182.02">
  <defs>
    <style>
      .cls-1 {
        opacity: .3;
      }

      .cls-1, .cls-2 {
        fill: #1f354a;
      }

      .cls-3 {
        fill: #fff;
      }

      .cls-4 {
        fill: #f15a29;
      }

      .cls-5 {
        fill: #939598;
      }

      .cls-6 {
        clip-path: url(#clippath);
      }

      .cls-7 {
        fill: none;
      }

      .cls-8 {
        fill: #f7941e;
      }
    </style>
    <clipPath id="clippath">
      <path class="cls-7" d="m101.57,78.16s4.61-7.62-5.9-10.4l-2.39,1.46-.08-.11c.43-13.3,1.1-36.06-3.2-50.71C84.65.18,51.26,0,51.26,0c0,0-33.39.18-38.74,18.4-4.31,14.68-3.63,37.49-3.2,50.78l-.03.04-2.39-1.46c-10.51,2.78-5.9,10.4-5.9,10.4l8.39-6.41c.06,2.06.11,3.82.11,5.15,0,9.53-1.94,53.97-3.18,63.85-1.95,15.54,6.85,41.28,32.76,41.28h24.33c25.91,0,34.71-25.74,32.76-41.28-1.24-9.87-3.18-54.32-3.18-63.85,0-1.34.05-3.11.11-5.19l8.45,6.45Z"/>
    </clipPath>
  </defs>
  <g id="OBJECTS">
    <g>
      <g>
        <g>
          <rect class="cls-2" x="79.17" y="26.1" width="15.33" height="37" rx="5" ry="5"/>
          <rect class="cls-2" x="7.92" y="26.1" width="15.33" height="37" rx="5" ry="5"/>
        </g>
        <g>
          <rect class="cls-2" x="79.17" y="128.6" width="15.33" height="37" rx="5" ry="5"/>
          <rect class="cls-2" x="7.92" y="128.6" width="15.33" height="37" rx="5" ry="5"/>
        </g>
      </g>
      <g class="cls-6">
        <g>
          <path class="cls-4" d="m101.57,78.16s4.61-7.62-5.9-10.4l-2.39,1.46-.08-.11c.43-13.3,1.1-36.06-3.2-50.71C84.65.18,51.26,0,51.26,0c0,0-33.39.18-38.74,18.4-4.31,14.68-3.63,37.49-3.2,50.78l-.03.04-2.39-1.46c-10.51,2.78-5.9,10.4-5.9,10.4l8.39-6.41c.06,2.06.11,3.82.11,5.15,0,9.53-1.94,53.97-3.18,63.85-1.95,15.54,6.85,41.28,32.76,41.28h24.33c25.91,0,34.71-25.74,32.76-41.28-1.24-9.87-3.18-54.32-3.18-63.85,0-1.34.05-3.11.11-5.19l8.45,6.45Z"/>
          <g>
            <path class="cls-8" d="m95.68,67.76l-2.39,1.46-.08-.11c.43-13.3,1.1-36.06-3.2-50.71-2.21-7.54-9.24-11.99-16.71-14.62v64.57l8.39,8.54,2.04,4.21,2.39,50.25-2.39,8.25-5.05,2.25,7.45,16s-4.07,18.98-18.63,23.94c22.77-2.54,30.55-26.35,28.71-41.05-1.24-9.87-3.18-54.32-3.18-63.85,0-1.34.05-3.11.11-5.19l8.45,6.45s4.61-7.62-5.9-10.4Z"/>
            <path class="cls-8" d="m21.43,76.89l8.31-8.54V3.61c-7.66,2.6-14.95,7.07-17.22,14.79-4.31,14.68-3.63,37.49-3.2,50.78l-.03.04-2.39-1.46c-10.51,2.78-5.9,10.4-5.9,10.4l8.39-6.41c.06,2.06.11,3.82.11,5.15,0,9.53-1.94,53.97-3.18,63.85-1.86,14.85,6.1,38.99,29.41,41.12-14.73-4.85-19.28-24-19.28-24l6.85-16-4.43-2.25-1.97-8.25,1.97-50.25,2.54-4.21Z"/>
          </g>
          <path class="cls-2" d="m16.85,64.63c0-6.83,16.19-11.97,27.76-11.97h11.7c11.29,0,28.98,5.51,29.43,12.12.02.33-4.05,12.12-4.05,12.12H21.43l-4.58-12.26Z"/>
          <polygon class="cls-2" points="87.05 68.35 83.72 81.1 83.72 139.6 92.22 157.85 87.05 68.35"/>
          <polygon class="cls-2" points="15.56 68.35 18.89 81.1 18.89 139.6 10.39 157.85 15.56 68.35"/>
          <polygon class="cls-2" points="86.11 157.85 78.67 141.85 23.32 141.85 16.47 157.85 86.11 157.85"/>
          <rect class="cls-2" x="26.79" y="86.89" width="49" height="18.96" rx="3" ry="3"/>
          <g>
            <rect class="cls-3" x="26.79" y="111.23" width="2.5" height="23.12"/>
            <rect class="cls-3" x="34.54" y="111.23" width="2.5" height="23.12"/>
            <rect class="cls-3" x="42.29" y="111.23" width="2.5" height="23.12"/>
            <rect class="cls-3" x="50.04" y="111.23" width="2.5" height="23.12"/>
            <rect class="cls-3" x="57.79" y="111.23" width="2.5" height="23.12"/>
            <rect class="cls-3" x="65.54" y="111.23" width="2.5" height="23.12"/>
            <rect class="cls-3" x="73.29" y="111.23" width="2.5" height="23.12"/>
          </g>
          <g>
            <g>
              <path class="cls-5" d="m15.35,14.55c1.84,2.54,5.14-.58,8.74-3.19,3.6-2.61,6.15-3.73,4.31-6.26-1.84-2.54-6.25-2.48-9.86.13-3.6,2.61-5.03,6.79-3.19,9.33Z"/>
              <path class="cls-3" d="m17.08,14.42c-.26,0-.54-.06-.86-.5-1.47-2.02-.11-5.61,2.96-7.83,1.57-1.14,3.42-1.79,5.06-1.79,1.46,0,2.64.51,3.3,1.43.31.43.45.78.4,1.04-.12.7-1.43,1.61-2.96,2.67-.48.33-.98.68-1.51,1.07-.51.37-1.01.74-1.5,1.11-1.84,1.38-3.74,2.82-4.9,2.82h0Z"/>
            </g>
            <g>
              <path class="cls-5" d="m87.65,14.55c-1.84,2.54-5.14-.58-8.74-3.19-3.6-2.61-6.15-3.73-4.31-6.26,1.84-2.54,6.25-2.48,9.86.13,3.6,2.61,5.03,6.79,3.19,9.33Z"/>
              <path class="cls-3" d="m85.93,14.42c.26,0,.54-.06.86-.5,1.47-2.02.11-5.61-2.96-7.83-1.57-1.14-3.42-1.79-5.06-1.79-1.46,0-2.64.51-3.3,1.43-.31.43-.45.78-.4,1.04.12.7,1.43,1.61,2.96,2.67.48.33.98.68,1.51,1.07.51.37,1.01.74,1.5,1.11,1.84,1.38,3.74,2.82,4.9,2.82h0Z"/>
            </g>
          </g>
        </g>
        <rect class="cls-1" x="51.29" y="-6.9" width="53.74" height="191.5"/>
      </g>
    </g>
  </g>
</svg>