<?xml version="1.0" encoding="UTF-8"?>
<svg id="Layer_2" data-name="Layer 2" xmlns="http://www.w3.org/2000/svg" viewBox="0 0 81.19 165.86">
  <defs>
    <style>
      .cls-1 {
        fill: #6196d6;
      }

      .cls-2 {
        fill: #fff;
      }

      .cls-3 {
        fill: #c2d3e1;
      }

      .cls-4 {
        fill: #be1e2d;
      }

      .cls-5 {
        fill: #2e6bb3;
      }

      .cls-6 {
        fill: #bfd8dd;
      }

      .cls-7 {
        fill: #6d6e71;
      }

      .cls-8 {
        fill: #f1f2f2;
      }

      .cls-9 {
        fill: #ed1c24;
      }

      .cls-10 {
        fill: #d1d3d4;
      }

      .cls-11 {
        fill: #ff5158;
      }

      .cls-12 {
        fill: #706a6a;
      }

      .cls-13 {
        fill: #231f20;
      }
    </style>
  </defs>
  <g id="Layer_2-2" data-name="Layer 2">
    <g>
      <path class="cls-10" d="m81.18,107.13l-.43-.95c-.51-.45-2.01.41-2.01.41-.98.46-2.37,1.11-3.94,1.8.14-11.25.45-46.82.48-57.2.36-7.1.42-17.55-.55-23.86.03-.13-.54-3.54-.76-5.12-.35-2.52-.67-3.56-1.25-6.06-.19-.84-.38-1.79-.49-1.89-1.18-3.11-3.67-5.66-6.56-6.71-.14-.12-15.78-1.75-22.09-1.79h-.51s-.45,0-.45,0h0c-6.28.03-13.73.74-20.22,1.43-.14-.05-6.22,1.17-8.44,7.07-.11.11-.19.24-.24.39-.78,2.44-1.14,5.04-1.49,7.56-.22,1.56-.44,3.18-.76,4.71-.03.14-.18,1.35-.15,1.48-.97,6.31-.75,15.69-.4,22.79.03,10.37.35,45.95.48,57.2-1.57-.69-2.96-1.34-3.94-1.8l-.93-.44s-.75-.52-1.2.01c-.17.2-.3.97-.3.97-.19,3.16,2.29,4.61,4.47,5.89.69.4,1.35.79,1.9,1.21,0,1.04.05,2.08.11,3.08.05.93.11,1.9.1,2.84,0,.08,0,.16.03.23-1.28,5.28-1.1,10.89-.92,16.32.08,2.57.17,5.23.09,7.77v.03c-.52,6.03,2.74,11.87,9.71,17.38l.14.09c6.8,3.54,14.89,3.86,21.96,3.88h.7s.26,0,.26,0h0c7.07-.02,15.16-.35,21.96-3.88l.14-.09c6.97-5.5,10.24-11.35,9.71-17.37v-.03c-.08-2.55,0-5.21.09-7.78.17-5.42.36-11.03-.93-16.32.02-.08.03-.15.03-.23,0-.94.05-1.91.1-2.84.06-1,.11-2.03.11-3.08.55-.42,1.21-.81,1.9-1.21,2.18-1.28,4.66-2.72,4.47-5.89Z"/>
      <g>
        <path class="cls-8" d="m38.08,94.01c7.22.02,14.13-1.03,20.55-3.15-.33-2.82-.62-5.84-.9-9.5,0,0,0-.01,0-.02-.24-6.13-.34-15.17-.31-27.6,0,0,0,0,0,0-.05-3.36.01-6.94.2-10.94-6.29-1.26-12.86-1.9-19.52-1.88-6.66-.02-13.23.62-19.52,1.88.18,3.99.25,7.57.2,10.94,0,0,0,0,0,0,.03,12.42-.07,21.45-.31,27.6,0,0,0,0,0,.02-.28,3.66-.57,6.68-.9,9.5,6.43,2.11,13.34,3.17,20.54,3.15Z"/>
        <path class="cls-6" d="m17.79,37.02c.24,1.79.49,3.64.7,5.46,6.18-1.24,12.63-1.87,19.18-1.88,0,0,0,0,.01,0,.14,0,.28,0,.42,0,.13,0,.26,0,.39,0,0,0,0,0,.01,0,6.55.01,13,.64,19.18,1.88.21-1.82.46-3.67.7-5.46.56-4.23,1.15-8.6,1.31-12.89-6.82-2.11-14.08-3.17-21.6-3.16-7.51-.02-14.77,1.04-21.59,3.16.16,4.28.74,8.66,1.3,12.89Z"/>
        <path class="cls-2" d="m36.83,34.92c-6.33-.25-13.81,1.68-16.45,5.14,5.52-2.58,9.72-2.96,16.47-3.15,6.45-.17,11.43.16,18.66,2.42-4.31-4.44-13.78-4.22-18.68-4.42Z"/>
        <path class="cls-8" d="m11.23,76.4l.08-.05c1.37-.78,2.92-1.65,4.64-2.16.24-.46.19-1.04.14-1.6,0-.04,0-.08-.01-.12-.96.17-3.82,1.12-5.94,1.83-1.02.34-1.93.64-2.52.82.1,12.22.22,24.28.28,28.89.9.37,1.83.74,2.78,1.1.03-2.69.02-5.45,0-8.13-.03-6.8-.07-13.83.54-20.49v-.09Z"/>
        <path class="cls-13" d="m44.4,3.17c-.16-.01-2.12-.05-3.85-.08-2.98-.05-3.68-.07-3.87-.08h0c-.42,0-.83,0-1.24,0-.09,0-.16,0-.18,0-.01,0-.02,0-.03,0-1.55-.01-2.97-.04-4.26-.07-4.98-.11-8.26-.19-11.63.89-.47.15-.84.63-1.05,1.35-.17,1.9-.44,3.98-.71,6.17-.54,4.28-1.09,8.71-1.09,12.45,6.71-2.07,13.85-3.12,21.24-3.14,0,0,.01,0,.02,0,.11,0,.22,0,.33,0,.11,0,.22,0,.33,0,0,0,.01,0,.02,0,7.39.02,14.52,1.07,21.24,3.14,0-3.74-.55-8.16-1.09-12.45-.27-2.2-.54-4.27-.71-6.18-.21-.72-.59-1.19-1.05-1.34-3.4-1.08-7.49-.99-12.23-.88.02.05.03.1,0,.15-.04.07-.11.1-.18.09Z"/>
        <path class="cls-6" d="m63.34,115.42c.34-.5.35-1.12.36-1.78,0-.31,0-.64.05-.94,0,0,.01-.01.01-.02-.72-2.82-1.33-5.79-1.93-8.66-.89-4.3-1.81-8.74-3.11-12.84-6.36,2.09-13.19,3.15-20.32,3.17h-.01s-.07,0-.11,0h-.41s-.07,0-.11,0h-.01c-7.12-.01-13.95-1.08-20.32-3.17-1.29,4.09-2.22,8.54-3.11,12.84-.59,2.87-1.21,5.83-1.93,8.66,0,0,.01.01.01.02.04.31.05.63.05.94,0,.66.02,1.28.36,1.78,0,.01,0,.03,0,.05,7.02,4.69,15.96,7.25,25.26,7.23,9.29.02,18.23-2.54,25.24-7.23,0-.02,0-.03,0-.05Z"/>
        <path class="cls-2" d="m53.14,95.3c-6.49.42-10.54.2-14.37.14-11.75.44-21.33-4.27-22.07,4.69-1.06,3.04-2.22,9.21-2.9,12.33,1.73-3.7,3.72-12.84,9.23-13.73,6.87-1.12,11.65-.95,19.68-.71,5.71.17,11.62-.96,15.68,6.41,1.06,1.93,3.02,5.95,3.98,7.79-.44-2.07-2.9-17.33-9.23-16.92Z"/>
        <path class="cls-6" d="m15.92,48.81s0-.02,0-.03c-.6-.7-1.11-1.5-1.61-2.27-.41-.64-.83-1.3-1.3-1.91-.25-.08-.55-.04-.84,0-.04.96-.09,1.93-.13,2.9-.35,7.81-.72,15.89-.56,23.7.06,0,.12,0,.19-.01,1.36-.46,2.89-.79,4.43-.95v-16.5s0-.01,0-.02c-.03-.58-.01-1.17,0-1.74.03-1.06.06-2.15-.2-3.16Z"/>
        <path class="cls-8" d="m11.95,39.44h-.32s-.02.06-.05.07c-.04.02-.08.04-.12.04-.07,0-.15-.04-.19-.1,0-.01-.04-.03-.05-.05-.02-.01-.02-.03-.03-.05-.2-.04-.39-.1-.58-.16-.53-.17-1.04-.33-1.54-.08-.07.06-.14.13-.21.2-.06.06-.11.11-.17.16-.43.87-.62,1.86-.81,2.82-.15.78-.32,1.58-.6,2.32.08.07.12.18.12.29.01,5.01.11,17.51.22,29.9.59-.18,1.46-.47,2.43-.79,2.27-.75,5.05-1.68,6.03-1.84.05-.35.05-.71.04-1.09,0-.17,0-.34,0-.51-1.5.16-2.99.48-4.34.94-.1.02-.18.03-.26.03-.07,0-.13,0-.19-.01h-.15s0-.16,0-.16c-.17-7.86.19-16,.55-23.88.04-1.02.09-2.03.14-3.04v-.14s.23-.03.23-.03c.35-.05.74-.1,1.1.03l.04.02.03.04c.5.63.93,1.32,1.35,1.98.44.69.89,1.39,1.41,2.03.09-.6.04-1.27-.16-1.88,0-.02,0-.03,0-.05,0,0,0,0,0,0,0,0,0-.02,0-.03-1.62-2.38-2.92-4.72-3.87-6.95-.01,0-.03,0-.04-.02Z"/>
        <path class="cls-6" d="m12.39,36.86c-.04.82-.09,1.66-.16,2.49,0,0,0,.01-.01.02.89,2.09,2.11,4.29,3.6,6.53-.21-4.46-1.51-8.89-3-13.4-.26,1.42-.35,2.91-.42,4.37Z"/>
        <path class="cls-6" d="m11.31,105.35c.3-1.25.6-2.5.91-3.74,1.6-6.51,3.26-13.23,3.62-20.04,0,0-.01-.01-.01-.02-.06-.84,0-1.99.08-3.2.08-1.37.17-2.78.05-3.78-1.62.49-3.09,1.31-4.4,2.05-.6,6.62-.57,13.61-.53,20.37.01,2.72.03,5.53,0,8.26.09.03.19.07.28.1Z"/>
        <path class="cls-8" d="m68.77,44.91c0-.11.05-.21.12-.29-.28-.74-.45-1.54-.6-2.32-.19-.96-.38-1.96-.81-2.82-.06-.05-.11-.11-.17-.16-.07-.07-.14-.13-.21-.2-.5-.26-1-.09-1.54.08-.19.06-.38.12-.58.16-.01.02-.01.04-.03.05-.02.01-.05.04-.05.05-.04.07-.12.1-.19.1-.04,0-.08-.01-.12-.04-.03-.02-.03-.05-.05-.07h-.32s-.02.01-.04.02c-.95,2.23-2.25,4.56-3.87,6.95,0,0,0,.02,0,.03,0,0,0,0,0,0,0,.02.01.03,0,.05-.2.61-.25,1.28-.16,1.88.52-.64.97-1.34,1.41-2.03.42-.66.86-1.35,1.35-1.98l.03-.04.04-.02c.36-.13.75-.08,1.1-.03l.22.03v.14c.05,1.01.1,2.03.14,3.04.36,7.87.73,16.01.55,23.88v.15s-.16.01-.16.01c-.07,0-.14.01-.21.01s-.14,0-.22-.02c-1.37-.46-2.87-.78-4.37-.94,0,.17,0,.35,0,.51,0,.38-.01.73.04,1.09.97.16,3.76,1.09,6.03,1.84.97.32,1.84.61,2.43.79.11-12.4.2-24.9.21-29.9Z"/>
        <path class="cls-6" d="m60.05,51.97c.02.57.03,1.16,0,1.74,0,0,.01.02.01.02v16.5c1.53.16,3.07.49,4.45.96.05,0,.11,0,.16,0,.17-7.8-.2-15.88-.56-23.69-.04-.97-.09-1.94-.13-2.9-.29-.04-.58-.07-.83,0-.48.61-.9,1.27-1.31,1.91-.49.77-1,1.57-1.61,2.27,0,0,0,.02,0,.03-.26,1.01-.23,2.1-.2,3.16Z"/>
        <path class="cls-6" d="m63.78,36.86c-.07-1.46-.16-2.95-.43-4.37-1.49,4.51-2.79,8.94-3,13.4,1.49-2.24,2.71-4.43,3.6-6.53,0,0,0-.01-.01-.02-.08-.82-.12-1.67-.16-2.48Z"/>
        <path class="cls-12" d="m38.21,122.98s-.02,0-.04,0h-.18s-.03,0-.04,0c-.08,0-.17,0-.25,0,0,0,0,0,0,0-9.13-.05-17.91-2.59-24.85-7.18.08.63.35,1.18.65,1.76.18.35.37.72.5,1.1,0,0,.01,0,.02,0,1.47,1.83,3.87,2.89,6.01,3.74,1.81.71,3.7,1.3,5.63,1.75,3.9.91,8.08,1.36,12.43,1.34,4.35.02,8.53-.43,12.43-1.34,1.93-.45,3.83-1.04,5.63-1.75,2.14-.85,4.54-1.9,6.01-3.74,0,0,.01,0,.01,0,.14-.38.32-.75.5-1.1.3-.58.57-1.13.65-1.76-6.94,4.59-15.72,7.12-24.85,7.18,0,0,0,0,0,0-.08,0-.17,0-.25,0Z"/>
        <path class="cls-8" d="m9.94,9.48c-.71,2.28-1.05,4.76-1.39,7.16-.21,1.54-.43,3.13-.75,4.66l.05.08-.04.24c-.92,5.76-.92,15.24-.63,22.24.15-.53.27-1.08.37-1.63.19-.99.4-2.02.85-2.93l.04-.05c.06-.06.12-.12.19-.18.08-.07.15-.15.23-.22l.03-.02c.63-.33,1.23-.14,1.81.05.19.06.37.12.55.16.08-.04.17-.05.24,0,.05.04.11.09.15.16,0,0,0,0,0,0h.26c.07-.78.11-1.59.15-2.37.09-1.69.18-3.43.55-5.06,0,0,.01-.01.02-.02,0-.01.01-.02.02-.03.02-.02.04-.04.07-.06,0,0,0,0,0,0,0,0,.02,0,.03,0,.02,0,.04-.02.06-.01.01,0,.01.01.02.02.01,0,.02.01.03.02.02.02.04.04.06.06,0,0,0,0,0,0,1.64,4.91,3.11,9.73,3.25,14.6,0,0,0,0,0,0,.25.76.29,1.6.12,2.33,0,0,0,0,0,.01.27,1.06.24,2.19.21,3.27-.02.57-.03,1.16,0,1.72,0,0,.01.02.01.03v16.64s0,0,0,0c0,0,0,0,0,0,0,.23,0,.46,0,.69,0,.41.02.84-.05,1.26,0,0,0,0,0,0,0,.07.01.14.02.22.06.59.11,1.26-.19,1.84.14,1.03.05,2.52-.03,3.97-.07,1.2-.14,2.33-.08,3.15,0,.01-.01.03-.01.04-.36,6.85-2.02,13.6-3.63,20.12-.32,1.29-.63,2.57-.94,3.85.02.04.03.1,0,.14-.01.04-.05.06-.08.09-.24,1.33-.55,2.7-.91,3.95l-.02.06-.05.03c-.08.04-.18.1-.3.11h-.1s-.04-.08-.04-.08c-.37-.76-1.43-1.51-2.37-1.54-.02,1.07.04,2.14.1,3.19.05.86.09,1.74.1,2.63.4-.16.79-.36,1.2-.58.91-.49,1.84-.99,2.97-.96.71-2.81,1.33-5.76,1.92-8.62.9-4.33,1.83-8.81,3.14-12.95,0-.02-.02-.03-.02-.05.34-2.85.63-5.91.91-9.61,0,0,0,0,0-.02.24-6.13.34-15.15.31-27.54,0-.02-.02-.03-.02-.05.05-3.39-.01-7.01-.2-11.05,0-.03.02-.06.03-.09-.21-1.84-.46-3.71-.71-5.53-.57-4.27-1.16-8.68-1.31-13.01h0s0,0,0,0h0s-.01-.03-.01-.04c-.03-3.81.54-8.34,1.09-12.72.26-2.11.51-4.11.69-5.95-.05-.06-.06-.13-.02-.2l.06-.09c.25-.83.7-1.39,1.28-1.57,3.42-1.09,6.91-1.01,11.74-.9,1.34.03,2.82.06,4.44.07.26,0,.79,0,1.94,0,.88,0,1.88.01,2.07,0h0s.05,0,.05,0c1.77,0,3.44-.04,5.04-.08,4.79-.11,8.93-.21,12.4.9.58.19,1.04.74,1.28,1.57l.06.09c.04.07.02.14-.02.2.17,1.84.42,3.83.69,5.95.55,4.38,1.12,8.91,1.09,12.72,0,.01-.01.02-.02.04h0s0,.01,0,.01c0,0,0,0,0,0-.15,4.33-.74,8.74-1.31,13.01-.24,1.82-.49,3.69-.71,5.53.01.03.03.05.03.09-.19,4.04-.26,7.66-.2,11.05,0,.02-.02.03-.02.05-.03,12.4.07,21.42.31,27.54,0,0,0,0,0,.02.29,3.7.57,6.76.91,9.61,0,.02-.01.04-.02.05,1.31,4.13,2.24,8.61,3.14,12.95.59,2.86,1.21,5.81,1.92,8.62,1.12-.03,2.06.47,2.97.96.41.22.8.42,1.2.58,0-.88.05-1.77.1-2.62.06-1.05.11-2.12.1-3.19-.95.03-2,.78-2.37,1.54l-.04.09h-.1c-.12-.02-.22-.08-.3-.12l-.05-.03-.02-.06c-.36-1.25-.67-2.62-.91-3.95-.03-.02-.07-.05-.08-.09-.02-.05,0-.1,0-.14-.31-1.28-.62-2.57-.94-3.86-1.61-6.53-3.27-13.28-3.63-20.12,0-.02-.02-.03-.01-.04.06-.82,0-1.95-.08-3.15-.09-1.45-.18-2.94-.03-3.97-.3-.57-.25-1.24-.19-1.84,0-.07.01-.15.02-.22,0,0,0,0,0,0-.07-.42-.06-.85-.05-1.26,0-.23,0-.46,0-.69,0,0,0,0,0,0,0,0,0,0,0,0v-16.64s0-.01,0-.02c.03-.57.01-1.16,0-1.73-.03-1.08-.06-2.21.21-3.27,0,0,0,0,0-.01-.17-.73-.13-1.57.12-2.33,0,0,0,0,0,0,.14-4.87,1.62-9.69,3.25-14.6,0,0,0,0,0,0,.01-.03.03-.05.06-.07,0,0,.02-.02.03-.02.01,0,.01-.02.02-.02.02,0,.04,0,.06.01.01,0,.02,0,.03,0,0,0,0,0,0,0,.03.01.04.03.06.05,0,.01.02.02.02.03,0,0,.01.01.02.02.38,1.63.47,3.38.55,5.06.04.78.08,1.58.15,2.37h.26s0,0,0,0c.05-.07.1-.11.15-.16.07-.06.16-.05.24,0,.18-.04.36-.09.55-.16.58-.19,1.18-.38,1.8-.05l.03.02c.08.07.15.15.23.22.06.06.12.12.18.18l.03.05c.46.92.66,1.94.86,2.93.11.54.22,1.09.37,1.62.29-7.01.29-16.48-.63-22.24l-.04-.24.05-.08c-.32-1.52-.54-3.11-.75-4.64-.33-2.41-.68-4.89-1.39-7.18l-.11-.05v-.03h-.18c.3,1.39.37,3.74-.2,4.86-1.11-1.12-.88-2.65-1.42-3.86-.71-1.56-2.11-2.58-3.45-3.45-.83-.54-2.5-.74-2.44-2.23,3.1.17,6.19,2.15,7.5,4.25h.02c-1.07-2.8-3.3-5.08-5.88-5.96l-.23-.08-.02-.03-.21-.03c-.13-.03-.25-.07-.36-.09l-.05.06-.35-.04c-6.53-.7-14.05-1.42-20.39-1.45h-.39s-.35,0-.35,0c-6.31.03-13.85.75-20.39,1.45l-.35.04-.05-.06c-.11.03-.23.06-.36.09l-.11.02h-.1s-.02.04-.02.04l-.22.08c-2.58.89-4.81,3.17-5.88,5.96h.01c1.31-2.1,4.41-4.08,7.5-4.25.06,1.49-1.61,1.7-2.43,2.23-1.34.87-2.74,1.89-3.45,3.45-.54,1.2-.31,2.74-1.42,3.86-.58-1.12-.5-3.47-.2-4.86h-.17v.03s-.12.05-.12.05Z"/>
        <path class="cls-6" d="m64.6,76.62c-1.31-.74-2.78-1.56-4.4-2.05-.12.99-.03,2.4.05,3.78.07,1.21.14,2.35.08,3.2,0,0,0,.01-.01.02.36,6.81,2.02,13.53,3.62,20.04.31,1.25.61,2.5.91,3.74.09-.03.19-.07.28-.1-.03-2.73-.02-5.54,0-8.27.03-6.76.07-13.74-.53-20.36Z"/>
        <path class="cls-8" d="m65.49,105.12c.94-.35,1.88-.72,2.77-1.1.06-4.62.18-16.67.29-28.89-.6-.18-1.51-.49-2.52-.82-2.13-.71-4.98-1.66-5.95-1.83,0,.04,0,.08-.01.12-.05.56-.1,1.13.14,1.6,1.72.51,3.27,1.38,4.64,2.16l.08.05v.09c.62,6.67.59,13.69.55,20.49-.01,2.68-.02,5.44,0,8.13Z"/>
        <path class="cls-8" d="m68.67,107.64c.69-.58,1.53-1.07,2.34-1.54,1.92-1.12,3.74-2.19,3.81-4.28l-.52.24c-1.18.55-2.97,1.39-4.94,2.23l-.96.41v-.29c-.94.39-1.92.78-2.91,1.15v.13s-.13.04-.13.04c-.11.03-.24.04-.37.05-.02,0-.04,0-.07,0,.23,1.28.53,2.59.87,3.81.02,0,.03.01.04.02.46-.82,1.56-1.57,2.58-1.6v-.15s.24-.21.24-.21Z"/>
        <path class="cls-3" d="m53.19,155.23c.48.14.92-.1,1.39-.35.35-.19.71-.38,1.11-.42.03-.02.05-.03.09-.03.93-.72,1.96-1.41,2.95-2.07,2.78-1.85,5.65-3.76,7.06-6.82-.05-.24-.08-.49-.11-.73-.08-.57-.15-1.16-.42-1.65-.06-.05-.11-.12-.16-.18-.15-.02-.27.09-.43.26-.17.18-6.83,7.15-10.68,8.89,0,0,0,.01-.01.02-.06.55-.25,1.08-.44,1.58-.16.44-.33.9-.4,1.37.01.05.03.09.05.14Z"/>
        <path class="cls-12" d="m38.08,153.8h-.15c-5.22,0-10.42-.53-15.46-1.56.07.47.23.92.4,1.39.17.46.35.94.42,1.45v.03s0,.03,0,.03c-.02.08-.05.16-.11.26l-.02.05-.05.02c-.15.05-.29.07-.43.07-.44,0-.84-.21-1.22-.42-.27-.15-.53-.29-.8-.36.54,1.03,1.62,1.31,2.58,1.55l.16.04c4.55.96,9.12,1.32,14.3,1.16.02,0,.04-.02.06-.02.11,0,.22,0,.33,0,.11,0,.22,0,.33,0h0s.03.01.05.02c5.18.16,9.75-.2,14.31-1.16l.15-.04c.97-.24,2.05-.52,2.58-1.55-.27.07-.53.21-.8.35-.39.21-.79.42-1.22.42-.14,0-.28-.02-.43-.07l-.05-.02-.02-.05c-.05-.1-.08-.18-.1-.26v-.03s0-.03,0-.03c.08-.51.25-.99.42-1.45.17-.47.33-.92.4-1.39-5.04,1.03-10.24,1.56-15.46,1.56h-.15Z"/>
        <path class="cls-8" d="m6.81,104.3c-1.97-.84-3.76-1.68-4.94-2.23l-.52-.24c.07,2.09,1.89,3.16,3.81,4.28.81.47,1.65.96,2.34,1.54l.25.21v.15c1.02.03,2.12.78,2.58,1.6.01,0,.03-.01.04-.02.35-1.21.64-2.52.87-3.81-.02,0-.04,0-.07,0-.13,0-.26-.02-.36-.05l-.13-.04v-.13c-.99-.37-1.96-.75-2.91-1.15v.29s-.95-.41-.95-.41Z"/>
        <path class="cls-13" d="m69.03,138.69c-.08-2.55.01-5.21.09-7.78.18-5.41.36-11-.94-16.16l-.07-.29.03-.05c-.43-.18-.85-.4-1.26-.62-.86-.46-1.75-.94-2.77-.92-.03.25-.03.5-.04.77-.01.69-.02,1.4-.42,1.99,0,.01-.02.02-.03.02-.05.76-.37,1.41-.7,2.04-.18.35-.37.71-.5,1.09,0,.03,0,.06-.03.09-1.52,1.9-3.97,2.98-6.14,3.84-1.82.72-3.73,1.32-5.68,1.77-3.85.9-7.98,1.35-12.28,1.35-.07,0-.15,0-.22,0s-.15,0-.22,0c-4.3,0-8.43-.45-12.28-1.35-1.95-.45-3.86-1.05-5.68-1.77-2.18-.86-4.62-1.94-6.14-3.84-.02-.03-.03-.06-.03-.1-.13-.37-.31-.73-.49-1.08-.33-.63-.65-1.28-.7-2.04,0,0-.02-.01-.03-.02-.4-.59-.41-1.3-.42-1.99,0-.27-.01-.53-.04-.78-1.02-.01-1.91.46-2.77.92-.41.22-.83.45-1.26.62l.03.05-.07.29c-1.29,5.16-1.11,10.75-.94,16.16.08,2.58.17,5.25.09,7.82v.06s0,.04,0,.04c-.01.12-.01.24-.02.36.73,1.16,1.22,2.48,1.68,3.78.27.78.56,1.58.9,2.34.12.08.28.1.43.11.04-.21.07-.42.1-.63.08-.6.16-1.22.46-1.76l.02-.03c.06-.06.12-.13.18-.2l.03-.03h.04c.33-.08.54.14.71.32.2.21.32.32.54.24.02,0,.03,0,.05,0,.01,0,.02,0,.03,0,.02,0,.04.02.05.04,0,0,.02,0,.02.01,2.56,3.79,6.08,6.83,9.93,8.55.01,0,.03-.01.04,0,5.13,1.07,10.43,1.6,15.74,1.59,5.32.01,10.62-.52,15.74-1.59.02,0,.03,0,.04,0,3.84-1.72,7.37-4.75,9.93-8.55,0,0,.01,0,.02-.01.02-.02.03-.03.05-.04.01,0,.02,0,.03,0,.01,0,.03,0,.04,0,.22.08.34-.04.54-.24.17-.18.39-.4.71-.33h.04s.03.04.03.04c.06.08.12.15.18.2l.03.03c.3.54.38,1.16.46,1.76.03.21.06.42.1.63.15,0,.31-.03.43-.11.34-.75.62-1.56.9-2.34.46-1.3.94-2.62,1.68-3.78,0-.12,0-.24-.02-.36v-.14Z"/>
        <path class="cls-12" d="m16.3,155.05c6.55,3.39,14.48,3.69,21.4,3.71h.27s.11,0,.11,0h.29s.1,0,.1,0c6.92-.02,14.84-.32,21.4-3.71,6.26-4.95,9.34-10.12,9.21-15.39-.61,1.06-1.04,2.24-1.44,3.4-.28.8-.57,1.62-.92,2.39v.03s-.04.02-.04.02c-.2.15-.45.17-.66.18-1.45,3.1-4.34,5.03-7.13,6.89-1.04.69-2.02,1.34-2.93,2.06,0,0,0,.01,0,.02-.55,1.4-1.87,1.73-2.93,1.99l-.16.04c-3.9.82-7.79,1.21-12.07,1.21-.88,0-1.78-.02-2.7-.06-.92.03-1.82.06-2.7.06-4.28,0-8.17-.39-12.06-1.21l-.16-.04c-1.06-.26-2.39-.59-2.93-1.99,0,0,0-.01,0-.02-.92-.71-1.89-1.37-2.93-2.06-2.79-1.86-5.68-3.78-7.13-6.89-.21-.01-.45-.03-.66-.18l-.03-.02v-.03c-.36-.77-.65-1.6-.93-2.39-.41-1.16-.84-2.35-1.44-3.4-.14,5.27,2.95,10.44,9.21,15.39Z"/>
        <path class="cls-3" d="m22.17,152.13c-3.86-1.74-6.72-5.02-9.97-8.56-.33.06-.54-.15-.71-.33-.16-.17-.27-.27-.43-.26-.05.06-.1.12-.16.18-.27.5-.34,1.09-.42,1.65-.03.24-.07.49-.11.73,1.41,3.06,4.29,4.98,7.06,6.82,1,.66,2.03,1.35,2.95,2.07.03,0,.06.01.09.03.4.04.76.23,1.11.42.46.25.9.49,1.39.35.02-.05.04-.09.05-.14-.07-.47-.24-.92-.41-1.37-.19-.5-.37-1.03-.44-1.58,0,0,0-.01-.01-.02Z"/>
        <path d="m68.23,114.11s.01,0,.02,0c0-.88.05-1.77.1-2.63.06-1.04.11-2.12.1-3.19,0,0-.01,0-.02,0,.02,1.07-.04,2.14-.1,3.19-.05.86-.09,1.74-.1,2.62Z"/>
        <path d="m7.39,107.84s0,0,0,0c.12,0,.22.07.27.17.02,0,.04,0,.07,0v-.15s-.24-.21-.24-.21c-.69-.58-1.53-1.07-2.34-1.54-1.92-1.12-3.74-2.19-3.81-4.28l.52.24c1.18.55,2.97,1.39,4.94,2.23l.96.41,3.47,1.07s-3.5-1.37-3.51-1.37c-.07.05-.14.08-.23.08h0c-.2,0-.37-.15-.4-.35-2.02-.86-3.83-1.7-5.11-2.31l-.63-.29s-.04,0-.06,0c-.07,0-.13.01-.19.03-.07,2.41,1.97,3.59,3.94,4.75.81.47,1.63.96,2.3,1.53.02,0,.04-.01.06-.01Z"/>
        <path d="m69.07,139.66c.14,5.27-2.95,10.44-9.21,15.39-6.55,3.39-14.48,3.69-21.4,3.71h-.1s-.29,0-.29,0h-.38c-6.92-.02-14.84-.32-21.4-3.71-6.26-4.95-9.35-10.12-9.21-15.39-.07-.12-.15-.23-.22-.35-.29,5.47,2.83,10.83,9.3,15.94,6.57,3.41,14.41,3.74,21.91,3.75,7.5,0,15.34-.34,21.91-3.75,6.47-5.11,9.59-10.47,9.3-15.94-.07.12-.15.23-.22.35Z"/>
        <path d="m7.14,138.79v-.06c.07-2.57-.01-5.24-.1-7.82-.18-5.4-.36-10.99.94-16.16l.07-.29-.03-.05s-.07.02-.1.04c-.01.1-.07.19-.16.24-1.3,5.19-1.12,10.8-.95,16.23.08,2.59.17,5.27.09,7.85,0,0,0,0,0,.01,0,0,0,0,0,0,0,.02,0,.04,0,.06.08.11.15.23.22.35,0-.12,0-.24.02-.36v-.04Z"/>
        <path d="m68.25,114.45s-.07-.03-.11-.04l-.03.05.07.29c1.29,5.16,1.11,10.75.94,16.16-.08,2.57-.17,5.23-.09,7.78v.14c.01.12.01.24.02.36.07-.12.14-.24.22-.35,0-.02,0-.04,0-.06,0,0,0,0,0,0,0,0,0,0,0-.01-.08-2.58,0-5.26.09-7.85.18-5.43.35-11.04-.95-16.23-.09-.05-.14-.14-.16-.24Z"/>
        <path d="m74.82,101.54l-.63.29c-1.28.6-3.09,1.45-5.11,2.31-.03.2-.19.35-.4.35h0c-.09,0-.16-.04-.23-.08-.01,0-.02,0-.04.01v.29s.95-.41.95-.41c1.97-.84,3.76-1.68,4.94-2.23l.52-.24c-.07,2.09-1.89,3.16-3.81,4.28-.81.47-1.65.96-2.34,1.54l-1.17.57.92-.21s.04,0,.07,0c.06-.1.15-.17.27-.17,0,0,0,0,0,0,.02,0,.04,0,.06.01.67-.56,1.49-1.05,2.3-1.53,1.97-1.15,4.01-2.34,3.94-4.75-.06-.02-.12-.02-.19-.03-.02,0-.04,0-.06,0Z"/>
        <path d="m7.74,108.3s-.01,0-.02,0c-.02,1.07.04,2.14.1,3.19.05.86.09,1.75.1,2.63,0,0,.01,0,.02,0,0-.88-.05-1.77-.1-2.63-.06-1.04-.11-2.12-.1-3.19Z"/>
        <path class="cls-7" d="m13.23,121.8c.1-.44-.17-.87-.61-.97-.44-.1-.87.17-.97.61-.88,3.84-.61,7.93-.33,12.26.15,2.3,1.93,9.75,1.93,7.18s-.16-4.96-.31-7.29c-.28-4.2-.54-8.17.29-11.79Z"/>
        <g>
          <path class="cls-4" d="m58.42,4.15c-.06,1.49.85,2.4,2.44,2.81,1.55.4,3.09,2.02,3.43,2.91,1.09,2.81,1.23,3.68,2.34,4.8.4-1.79-.4-3.87-.7-5.26,0,0-2.62-5.86-7.51-5.26Z"/>
          <path d="m66.78,15.17l-.32-.32c-.92-.92-1.2-1.69-1.82-3.36-.16-.44-.35-.94-.58-1.53-.33-.86-1.85-2.39-3.26-2.75-1.79-.46-2.69-1.52-2.63-3.07v-.21s.22-.03.22-.03c.24-.03.49-.05.73-.05,4.55,0,6.94,5.23,7.04,5.45.08.35.17.69.27,1.05.35,1.3.77,2.91.45,4.37l-.1.45Zm-8.11-10.79c.03,1.18.79,1.97,2.25,2.34,1.64.42,3.23,2.09,3.6,3.06.23.59.42,1.09.58,1.53.52,1.4.78,2.1,1.36,2.8.12-1.21-.23-2.54-.52-3.63-.1-.37-.19-.71-.26-1.03,0,0-2.34-5.1-6.57-5.1-.15,0-.3,0-.45.02Z"/>
        </g>
        <g>
          <path d="m9.73,9.86c1.07-2.8,4.25-6.1,6.83-6.99l-.23.06.02-.03h.1s.11-.03.11-.03c.13-.03.25-.07.36-.09l.05.06.35-.04c6.54-.7,14.08-1.42,20.39-1.45h.35s.39,0,.39,0c6.34.03,13.87.75,20.39,1.45l.35.04.41.03s.03,0,.02,0l.19.03.02.03.23.08c2.52,1.03,5.77,4.29,6.63,7.79l.35-.63v-1.2c-1.09-2.96-3.45-5.5-6.91-6.24-.02,0-.04.02-.06.02,0,0-.02,0-.03,0-5.5-.59-14.65-2.07-21.96-2.07-7.31,0-16.44.66-21.96,2.07,0,0-.02,0-.03,0-.02,0-.04-.02-.06-.02-2.68.91-5.57,3.28-6.66,6.24l.35.88h0Z"/>
          <path d="m66.23,9.48c-.06-.17-.13-.34-.21-.5h-.02l.23.5Z"/>
          <path d="m76.16,101.38l-.43-.95c-.51-.45-2.01.41-2.01.41-.98.46-2.37,1.11-3.94,1.8.14-11.25.45-46.82.48-57.2.36-7.1.42-17.55-.55-23.86.03-.13-.54-3.54-.76-5.12-.35-2.52-.67-3.56-1.25-6.06-.19-.84-.38-1.78-.49-1.89-1.18-3.11-3.67-5.66-6.56-6.71-.14-.11-15.78-1.75-22.09-1.79h-.51s-.45,0-.45,0h0c-6.28.04-13.73.74-20.22,1.43-.14-.05-6.22,1.17-8.44,7.07-.11.11-.19.24-.24.39-.78,2.44-1.14,5.04-1.49,7.56-.22,1.57-.44,3.18-.76,4.71-.03.13-.18,1.35-.15,1.48-.97,6.31-.75,15.69-.4,22.79.03,10.37.35,45.95.48,57.2-1.57-.69-2.96-1.34-3.94-1.8l-.93-.44s-.75-.52-1.2.01c-.17.2-.3.97-.3.97-.19,3.16,2.29,4.61,4.47,5.88.69.41,1.35.79,1.9,1.21,0,1.04.05,2.08.11,3.08.05.93.11,1.9.1,2.84,0,.08,0,.16.03.23-1.28,5.28-1.1,10.89-.92,16.32.08,2.57.17,5.23.09,7.77v.03c-.52,6.03,2.74,11.87,9.71,17.38l.14.09c6.8,3.53,14.89,3.86,21.96,3.88h.96c7.07-.02,15.16-.35,21.96-3.88l.14-.09c6.97-5.5,10.24-11.35,9.71-17.38v-.03c-.08-2.55,0-5.21.09-7.78.17-5.43.36-11.03-.93-16.32.02-.08.03-.15.03-.23,0-.94.05-1.91.1-2.84.06-1,.11-2.03.11-3.08.55-.42,1.21-.81,1.9-1.21,2.18-1.27,4.66-2.72,4.47-5.89Zm-74.81.15l.63.29c1.28.6,3.09,1.45,5.11,2.31.03.2.19.35.4.35h0c.09,0,.17-.04.23-.08.01,0,.02,0,.04.01.94.39,1.92.78,2.91,1.15,0,0,.37.2.5.21.02,0,.04,0,.07,0-.23,1.28-.53,2.59-.87,3.81-.02,0-.03.01-.04.02-.45-1.31-2.58-2.1-2.6-2.1-.06-.1-2.07-1.12-2.88-1.6-1.97-1.15-3.81-1.93-3.74-4.34.06-.02.12-.02.19-.03.02,0,.04,0,.06,0ZM9.88,9.41c.05-.15-.07.14-.02,0l-.49-.43c1.09-2.96,3.99-5.33,6.66-6.24.02,0,.04.02.06.02.01,0,2.69-.29,2.7-.29,5.51-.59,11.99-1.29,19.3-1.29,7.31,0,16.44.98,21.94,1.58,0,0,.02,0,.03,0,.02,0,.04-.02.06-.02,2.68.91,5.28,3.28,6.37,6.24l-.05.93c.05.14-.27-.65-.23-.5h.08c.72,2.31,1.08,4.81,1.41,7.22.22,1.59.45,3.23.78,4.8,0,.04.04.06.05.09,1,6.19.91,16.41.62,22.9-.07-.18-.13-.37-.18-.55-.15-.53-.27-1.08-.37-1.62-.19-.99-.4-2.02-.86-2.93l-.03-.05c-.06-.06-.12-.12-.18-.18-.08-.07-.15-.15-.23-.22l-.03-.02c-.62-.33-1.23-.14-1.8.05-.19.06-.37.12-.55.16-.12-.06-.39.17-.64.17-.07-.78-.11-1.59-.15-2.37-.09-1.69-.18-3.43-.55-5.06,0,0-.01-.01-.02-.02,0-.01-.01-.02-.02-.03-.02-.03-.04-.04-.06-.05,0,0,0,0,0,0-.01,0-.02,0-.03,0-.02,0-.04-.02-.06-.01-.01,0-.01.01-.02.02-.01,0-.02.01-.03.02-.03.02-.05.04-.06.07,0,0,0,0,0,0-1.64,4.91-3.11,9.73-3.25,14.6,0,0,0,0,0,0-.25.76-.29,1.6-.12,2.33,0,0,0,0,0,.01-.27,1.06-.24,2.19-.21,3.27.02.57.03,1.16,0,1.73,0,0,0,.01,0,.02v16.64s0,0,0,0c0,0,0,0,0,0,0,.23,0,.46,0,.69,0,.41-.02.84.05,1.26,0,0,0,0,0,0,0,.07-.01.15-.02.22-.06.59-.11,1.26.19,1.84-.14,1.04-.05,2.52.03,3.97.07,1.2.14,2.33.08,3.15,0,.02.01.03.01.04.36,6.84,2.03,13.59,3.63,20.12.32,1.29.92,3.95.93,4,.01.04.63,2.78.99,4.04l.02.06.05.03c.08.04.18.1.3.11h.1s.04-.08.04-.08c.37-.76,1.43-1.51,2.37-1.54,0,0,.01,0,.02,0,.02,1.07-.04,2.14-.1,3.19-.05.86-.09,1.75-.1,2.63,0,0-.01,0-.02,0-.4-.16-.8-.36-1.2-.58-.91-.49-1.85-.99-2.97-.96-.71-2.81-1.33-5.76-1.92-8.62-.9-4.33-1.83-8.82-3.14-12.95,0-.02.02-.03.02-.05-.34-2.85-.62-5.9-.91-9.61,0,0,0,0,0-.02-.24-6.12-.34-15.14-.31-27.54,0-.02.02-.03.02-.05-.05-3.39.01-7,.2-11.05,0-.03-.02-.06-.03-.09.21-1.84.46-3.71.71-5.53.57-4.27,1.16-8.68,1.31-13.01,0,0,0,0,0,0,0,0,0,0,0,0h0s.02-.03.02-.04c.02-3.81-.54-8.34-1.09-12.72-.26-2.11-.51-4.11-.69-5.95.05-.06-.04-.29-.04-.29-.25-.83-.7-1.39-1.28-1.57-3.47-1.11-7.6-1.01-12.4-.9-1.61.04-3.27.08-5.04.08h-.05c-.19.01-1.19,0-2.07,0-1.15,0-1.68,0-1.94,0-1.62-.01-3.1-.04-4.44-.07-4.83-.11-8.32-.19-11.74.9-.58.19-1.03.74-1.28,1.57l-.06.09c-.04.07-.03.14.02.2-.17,1.84-.42,3.83-.69,5.95-.55,4.38-1.12,8.91-1.09,12.72,0,.01.01.02.01.03h0s0,.02,0,.02h0c.15,4.33.74,8.74,1.31,13.01.24,1.82.49,3.69.71,5.53-.01.03-.03.06-.03.09.19,4.04.25,7.65.2,11.05,0,.02.02.03.02.05.03,12.39-.07,21.41-.31,27.54,0,0,0,0,0,.02-.28,3.7-.57,6.76-.91,9.61,0,.02.01.03.02.05-1.31,4.13-2.24,8.61-3.14,12.95-.59,2.86-1.2,5.81-1.92,8.62-1.12-.03-2.06.47-2.97.96-.41.22-.8.42-1.2.58,0,0-.01,0-.02,0,0-.88-.05-1.77-.1-2.63-.06-1.04-.11-2.12-.1-3.19,0,0,.01,0,.02,0,.95.03,2,.78,2.37,1.54l.04.09h.1c.12-.02.22-.08.3-.12l.05-.03.02-.06c.36-1.25.67-2.62.91-3.95.03-.02.07-.05.08-.09.02-.05.01-.1,0-.14.31-1.29.62-2.57.94-3.85,1.61-6.53,3.27-13.28,3.63-20.12,0-.01.02-.03.01-.04-.06-.82,0-1.95.08-3.15.09-1.45.17-2.94.03-3.97.3-.57.25-1.24.19-1.84,0-.07-.01-.15-.02-.22,0,0,0,0,0,0,.07-.42.06-.85.05-1.26,0-.23,0-.46,0-.69,0,0,0,0,0,0,0,0,0,0,0,0v-16.64s0-.02-.01-.03c-.03-.57-.01-1.16,0-1.72.03-1.08.06-2.21-.21-3.27,0,0,0,0,0-.01.17-.73.13-1.57-.12-2.33,0,0,0,0,0,0-.14-4.87-1.62-9.69-3.25-14.6,0,0,0,0,0,0-.01-.03-.03-.05-.06-.06-.01,0-.02-.02-.03-.02,0,0-.01-.02-.02-.02-.02,0-.04,0-.06.01-.01,0-.02,0-.03,0,0,0,0,0,0,0-.03.01-.05.03-.07.06,0,.01-.02.02-.02.03,0,0-.02.01-.02.02-.38,1.63-.47,3.37-.55,5.06-.04.78-.08,1.59-.15,2.37h-.26s0,0,0,0c-.04-.07-.75-.26-.94-.32-.58-.19-1.18-.38-1.81-.05l-.03.02c-.08.07-.16.14-.23.22-.06.06-.12.12-.19.18l-.04.05c-.46.92-.66,1.94-.85,2.93-.11.54-.22,1.09-.37,1.63-.05.19-.11.37-.18.55-.29-6.49-.38-16.71.62-22.9.02-.03.05-.05.05-.09.33-1.57.56-3.21.78-4.8.34-2.42.69-4.92,1.41-7.22h.02Zm55.06,67.09v-.09s-.09-.05-.09-.05c-1.37-.78-2.92-1.65-4.64-2.16-.24-.46-.19-1.04-.14-1.6,0-.04,0-.08.01-.12.96.17,3.82,1.12,5.95,1.83,1.02.34,1.93.64,2.52.82-.11,12.21-.22,24.27-.29,28.89-.9.37-1.83.74-2.77,1.1-.03-2.69-.02-5.45,0-8.13.03-6.8.07-13.83-.54-20.49Zm.19,28.75c-.09.03-.19.07-.28.1-.3-1.25-.6-2.5-.91-3.74-1.6-6.51-3.26-13.23-3.62-20.04,0,0,0-.01.01-.02.06-.84,0-1.99-.08-3.2-.08-1.37-.17-2.78-.05-3.78,1.62.49,3.09,1.31,4.4,2.05.6,6.62.57,13.61.53,20.36-.01,2.72-.03,5.53,0,8.27Zm-4.89-56.46c.6-.7,1.12-1.5,1.61-2.27.41-.64.83-1.3,1.31-1.91.25-.08.55-.04.83,0,.04.96.09,1.93.13,2.9.35,7.81.72,15.89.56,23.69-.06,0-.11,0-.16,0-1.38-.47-2.92-.79-4.45-.96v-16.5s0-.01-.01-.02c.03-.58.01-1.17,0-1.74-.03-1.06-.06-2.15.2-3.16,0,0,0-.02,0-.03Zm5.88,25.23c-2.27-.75-5.05-1.68-6.03-1.84-.05-.35-.05-.71-.04-1.09,0-.17,0-.34,0-.51,1.5.16,2.99.48,4.37.94.08.01.15.02.22.02s.14,0,.21-.01h.15s0-.16,0-.16c.17-7.86-.2-16-.55-23.88-.05-1.02-.09-2.03-.14-3.04v-.14s-.23-.03-.23-.03c-.35-.05-.74-.1-1.1.03l-.04.02-.03.04c-.5.63-.93,1.32-1.35,1.98-.44.69-.89,1.39-1.41,2.03-.09-.6-.04-1.27.16-1.88,0-.02,0-.03,0-.05,0,0,0,0,0,0,0,0,0-.02,0-.03,1.62-2.38,2.92-4.72,3.87-6.95.01,0,.03,0,.04-.02l-.21.42s.56-.36.58-.35c.04.02.35-.1.37-.12.02-.01.02-.03.03-.05.19-.04.39-.1.58-.16.53-.17,1.04-.33,1.54-.08.07.06.14.13.21.2.06.05.11.11.17.16.43.87.63,1.86.81,2.82.15.78.32,1.58.6,2.32-.08.07-.12.18-.12.29-.01,5-.11,17.5-.21,29.9-.59-.18-1.46-.47-2.43-.79Zm-5.78-28.13c.21-4.46,1.51-8.89,3-13.4.26,1.42.35,2.91.43,4.37.04.82.09,1.66.16,2.48,0,0,0,.01.01.02-.89,2.09-2.11,4.29-3.6,6.53Zm8.92,92.88s0,0,0,.01c0,0,0,0,0,0,0,.02,0,.04,0,.06-.08.11-.15.23-.22.35-.73,1.16-1.22,2.48-1.68,3.78-.28.78-.56,1.58-.9,2.34-.12.08-.28.1-.43.11-.04-.21-.07-.42-.1-.63-.08-.6-.16-1.22-.46-1.76l-.03-.03c-.06-.06-.12-.13-.18-.2l-.03-.03h-.04c-.33-.08-.54.14-.71.32-.2.21-.57.25-.59.25-3.46,3.55-10.78,8.75-10.08,8.59,5.13-1.07-10.42,1.6-15.74,1.59-5.32.01-10.62-.52-15.74-1.59-.02,0-.03,0-.04,0-3.85-1.72-6.86-5.16-9.93-8.55-1.13-1.25-.05-.04-.07-.05-.01,0-.02,0-.03,0-.02,0-.03,0-.05,0q-.93-.64-1.26-.57h-.04s-.03.04-.03.04c-.06.08-.12.15-.18.2l-.02.03c-.3.54-.38,1.16-.46,1.76-.03.21-.06.42-.1.63-.15,0-.31-.03-.43-.11-.34-.75-.62-1.56-.9-2.34-.46-1.3-.95-2.62-1.68-3.78-.07-.12-.14-.24-.22-.35,0-.02,0-.04,0-.06,0,0,0,0,0,0,0,0,0,0,0-.01.08-2.58,0-5.26-.09-7.85-.18-5.43-.35-11.04.95-16.23.09-.05.14-.13.16-.24.03-.01.07-.03.1-.04.43-.18.85-.4,1.26-.62.86-.46,1.75-.94,2.77-.92.03.25.03.5.04.78,0,.69.02,1.4.42,1.99,0,.01.02.02.03.02.05.76.37,1.41.7,2.04.18.35.36.71.49,1.08,0,.04,0,.07.03.1,1.52,1.9,3.97,2.98,6.14,3.84,1.82.72,3.73,1.32,5.68,1.77,3.85.9,7.98,1.35,12.28,1.35.07,0,.15,0,.22,0s.15,0,.22,0c4.3,0,8.43-.45,12.28-1.35,1.95-.45,3.86-1.05,5.68-1.77,2.18-.86,4.62-1.94,6.14-3.84.02-.03.02-.06.03-.09.13-.37.31-.74.5-1.09.33-.63.65-1.28.7-2.04,0,0,.02-.01.03-.02.4-.59.41-1.3.42-1.99,0-.27,0-.53.04-.77,1.02-.01,1.91.46,2.77.92.41.22.83.45,1.26.62.03.01.07.02.11.04.01.1.07.19.16.24,1.3,5.19,1.12,10.8.95,16.23-.08,2.59-.17,5.27-.09,7.85Zm-47.81,16.35c.39.21.79.42,1.22.42.14,0,.28-.02.43-.07l.05-.02.02-.05c.05-.1.08-.18.11-.26v-.03s0-.03,0-.03c-.08-.51-.25-.99-.42-1.45-.17-.47-.33-.92-.4-1.39,5.04,1.03,10.24,1.56,15.46,1.56h.31c5.22,0,10.42-.53,15.46-1.56-.07.47-.23.92-.4,1.39-.17.46-.35.94-.42,1.45v.03s0,.03,0,.03c.02.08.05.16.1.26l.02.05.05.02c.15.05.29.07.43.07.44,0,.84-.21,1.22-.42.27-.15.53-.29.8-.35-.54,1.03-1.62,1.31-2.58,1.55l-.15.04c-4.56.96-9.13,1.33-14.31,1.16-.02,0-.03-.02-.05-.02h0c-.11,0-.22,0-.33,0-.11,0-.22,0-.33,0-.03,0-.04.01-.06.02-5.18.16-9.75-.2-14.3-1.16l-.16-.04c-.97-.24-2.05-.52-2.58-1.55.27.07.53.21.8.36Zm-.98-.65s-.05-.03-.09-.03c-.93-.72-1.96-1.41-2.95-2.07-2.78-1.85-5.65-3.76-7.06-6.82.05-.24.08-.49.11-.73.08-.57.15-1.16.42-1.65.06-.05.11-.11.16-.18.16-.02.27.09.43.26.17.18,6.83,7.15,10.68,8.89,0,0,0,.01.01.02.06.55.25,1.07.44,1.58.16.44.33.9.41,1.37-.02.05-.03.09-.05.14-.48.14-.92-.1-1.39-.35-.35-.19-.71-.38-1.11-.42Zm34.11.42c-.47.25-.9.49-1.39.35-.02-.05-.04-.09-.05-.14.07-.47.24-.92.4-1.37.19-.5.38-1.03.44-1.58,0,0,0-.01.01-.02,3.85-1.74,10.51-8.71,10.68-8.89.16-.17.28-.27.43-.26.05.06.1.12.16.18.27.5.35,1.09.42,1.65.03.24.07.49.11.73-1.41,3.06-4.28,4.97-7.06,6.82-1,.66-2.03,1.35-2.95,2.07-.03,0-.06.01-.09.03-.4.04-.76.23-1.11.42ZM44.59,2.93c4.74-.11,8.84-.2,12.23.88.47.15.84.63,1.05,1.34.18,1.91.44,3.98.71,6.18.54,4.28,1.09,8.71,1.09,12.45-6.71-2.07-13.85-3.12-21.24-3.14,0,0-.01,0-.02,0-.11,0-.22,0-.33,0-.11,0-.22,0-.33,0,0,0-.01,0-.02,0-7.38.02-14.52,1.07-21.24,3.14,0-3.74.55-8.17,1.09-12.45.27-2.2.53-4.27.71-6.17.21-.72.59-1.2,1.05-1.35,3.36-1.07,6.65-1,11.63-.89,1.29.03,2.71.06,4.26.07.01,0,.02,0,.03,0,.03,0,.09,0,.18,0,.41,0,.81,0,1.24,0h0c.19.02.89.03,3.87.08,1.73.03,3.68.07,3.85.08.07.01.15-.02.18-.09.03-.05.02-.1,0-.15Zm-6.51,18.05c7.52-.02,14.78,1.04,21.6,3.16-.16,4.28-.74,8.66-1.31,12.89-.24,1.79-.48,3.64-.7,5.46-6.18-1.24-12.63-1.87-19.18-1.88,0,0,0,0-.01,0-.13,0-.26,0-.39,0-.14,0-.28,0-.42,0,0,0,0,0-.01,0-6.55.02-12.99.64-19.18,1.88-.21-1.82-.46-3.67-.7-5.46-.56-4.23-1.15-8.6-1.3-12.89,6.82-2.11,14.07-3.18,21.59-3.16Zm-19.63,60.36c.24-6.14.34-15.18.31-27.6,0,0,0,0,0,0,.05-3.36-.01-6.94-.2-10.94,6.29-1.26,12.86-1.9,19.52-1.88,6.67-.02,13.23.62,19.52,1.88-.19,4-.25,7.58-.2,10.94,0,0,0,0,0,0-.03,12.42.07,21.46.31,27.6,0,0,0,.01,0,.02.28,3.66.57,6.68.9,9.5-6.43,2.11-13.34,3.17-20.55,3.15-7.2.02-14.11-1.04-20.54-3.15.33-2.82.62-5.85.9-9.5,0,0,0-.01,0-.02Zm19.31,13h.01s.07,0,.11,0h.41s.07,0,.11,0h.01c7.13-.01,13.96-1.08,20.32-3.17,1.29,4.1,2.22,8.54,3.11,12.84.59,2.87,1.21,5.83,1.93,8.66,0,0-.01.01-.01.02-.04.31-.05.63-.05.94,0,.66-.02,1.28-.36,1.78,0,.01,0,.03,0,.05-7.01,4.69-15.96,7.26-25.24,7.23-9.29.02-18.24-2.54-25.26-7.23,0-.02,0-.03,0-.05-.34-.5-.35-1.12-.36-1.78,0-.31,0-.64-.05-.94,0,0-.01-.01-.01-.02.72-2.82,1.33-5.79,1.93-8.66.89-4.3,1.81-8.74,3.11-12.84,6.36,2.09,13.19,3.15,20.32,3.17Zm25.57,21.46c-.08.63-.35,1.18-.65,1.76-.18.35-.37.72-.5,1.1,0,0-.01,0-.01,0-1.47,1.84-3.87,2.89-6.01,3.74-1.8.71-3.7,1.3-5.63,1.75-3.9.91-8.08,1.36-12.43,1.34-4.35.02-8.53-.43-12.43-1.34-1.93-.45-3.83-1.04-5.63-1.75-2.14-.85-4.54-1.91-6.01-3.74,0,0-.01,0-.02,0-.14-.38-.32-.75-.5-1.1-.3-.58-.57-1.13-.65-1.76,6.94,4.59,15.72,7.12,24.85,7.18,0,0,0,0,0,0,.08,0,.17,0,.25,0,.01,0,.02,0,.04,0h.18s.03,0,.04,0c.08,0,.17,0,.25,0,0,0,0,0,0,0,9.13-.05,17.91-2.59,24.85-7.18Zm-52.29-18.82c-.03-6.76-.07-13.74.53-20.37,1.31-.74,2.78-1.56,4.4-2.05.12.99.03,2.41-.05,3.78-.07,1.21-.14,2.35-.08,3.2,0,0,0,.01.01.02-.36,6.81-2.02,13.53-3.62,20.04-.31,1.25-.62,2.5-.91,3.74-.09-.03-.19-.07-.28-.1.03-2.73.02-5.54,0-8.26Zm-.36,0c.01,2.68.03,5.44,0,8.13-.95-.35-1.88-.72-2.78-1.1-.06-4.61-.18-16.67-.28-28.89.59-.18,1.51-.49,2.52-.82,2.13-.71,4.98-1.66,5.94-1.83,0,.04,0,.08.01.12.05.56.1,1.14-.14,1.6-1.72.51-3.27,1.38-4.64,2.16l-.08.05v.09c-.62,6.67-.59,13.7-.55,20.49Zm5.17-50.58s0,.02,0,.03c0,0,0,0,0,0,0,.02,0,.03,0,.05.2.61.25,1.28.16,1.88-.51-.64-.97-1.34-1.41-2.03-.42-.66-.86-1.35-1.35-1.98l-.03-.04-.04-.02c-.36-.13-.75-.08-1.1-.03l-.22.03v.14c-.05,1.01-.1,2.02-.14,3.04-.36,7.87-.73,16.01-.55,23.88v.15s.15.01.15.01c.07,0,.13.01.19.01.08,0,.16,0,.26-.03,1.35-.45,2.84-.77,4.34-.94,0,.17,0,.34,0,.51,0,.38,0,.74-.04,1.09-.98.16-3.76,1.09-6.03,1.84-.97.32-1.84.61-2.43.79-.11-12.4-.32-24.29-.34-29.3,0-.11.08-.82,0-.89.28-.74.45-1.54.6-2.32.19-.96.38-1.95.81-2.82.06-.05.12-.11.17-.16.07-.07.14-.13.21-.2.5-.26,1-.09,1.54.08.19.06.38.12.58.16.01.02.01.04.03.05.02.01.4.07.42.04h.32s.02.01.04.02c.95,2.23,2.25,4.56,3.87,6.95Zm-3.63-7.04s.01-.01.01-.02c.08-.82.12-1.67.16-2.49.07-1.45.16-2.94.42-4.37,1.49,4.51,2.79,8.94,3,13.4-1.49-2.24-2.71-4.43-3.6-6.53Zm3.9,14.35s0,.01,0,.02v16.5c-1.53.16-3.07.49-4.43.95-.07.01-.13.01-.19.01-.17-7.8.2-15.88.56-23.7.04-.97.09-1.93.13-2.9.29-.04.58-.07.84,0,.48.61.9,1.27,1.3,1.91.49.77,1,1.57,1.61,2.27,0,0,0,.02,0,.03.26,1.01.23,2.1.2,3.16-.02.57-.03,1.16,0,1.74Zm-9.24,85.6c.08.12.15.23.22.35.61,1.05,1.03,2.24,1.44,3.4.28.8.57,1.62.92,2.39v.03s.04.02.04.02c.2.15.45.17.66.18,1.45,3.1,4.34,5.03,7.13,6.89,1.04.69,2.02,1.34,2.93,2.06,0,0,0,.01,0,.02.55,1.4,1.87,1.73,2.93,1.99l.16.04c3.89.82,7.78,1.21,12.06,1.21.88,0,1.79-.02,2.7-.06.92.03,1.82.06,2.7.06,4.28,0,8.17-.4,12.07-1.21l.16-.04c1.06-.26,2.39-.59,2.93-1.99,0,0,0-.01,0-.02.92-.71,1.89-1.37,2.93-2.06,2.8-1.86,5.68-3.78,7.13-6.89.21-.01.46-.03.66-.18l.03-.02v-.03c.36-.77.65-1.6.93-2.39.41-1.16.84-2.35,1.44-3.4.07-.12.15-.23.22-.35.29,5.47-2.83,10.83-9.3,15.94-6.57,3.41-14.41,3.74-21.91,3.75-7.5,0-15.34-.34-21.91-3.75-6.47-5.11-9.58-10.47-9.3-15.94Zm61.96-31.46s-.04-.01-.06-.01c0,0,0,0,0,0-.12,0-.22.07-.27.17-.02,0-.05,0-.07,0-1.02.03-2.12.78-2.58,1.6-.01,0-.03-.01-.04-.02-.34-1.21-.95-3.65-.85-3.68l.54-.22s2.87-.97,2.9-.98c.07.05.18-.22.27-.22h0c.2,0,.37-.15.4-.35,2.02-.86,3.83-1.7,5.11-2.31l.63-.29s.04,0,.06,0c.07,0,.13.01.19.03.07,2.41-1.97,3.59-3.94,4.75-.81.47-1.63.96-2.3,1.53Z"/>
        </g>
        <g>
          <path class="cls-4" d="m10.2,9.41s-.46,2.93-.82,5.26c1.26,0,1.64-.4,2.61-4.26.42-1.66,1.76-3.08,3.32-3.45,1.7-.41,1.89-.22,2.23-2.8-3.95-.34-7.17,4.82-7.17,4.82l-.17.43Z"/>
          <path d="m9.37,14.92h-.29l.04-.29c.36-2.33.82-5.26.82-5.26l.19-.48c.15-.25,3.36-5.33,7.42-4.97l.26.02-.03.26c-.31,2.39-.52,2.58-2.02,2.92l-.4.09c-1.45.35-2.74,1.69-3.13,3.27-.95,3.78-1.38,4.45-2.86,4.45Zm1.06-5.42s-.41,2.65-.76,4.91c.83-.06,1.19-.55,2.07-4.06.45-1.78,1.86-3.24,3.5-3.63l.41-.09c1.22-.28,1.34-.3,1.6-2.22-3.64-.07-6.64,4.67-6.67,4.71l-.15.39h0Z"/>
        </g>
        <path class="cls-7" d="m63.54,120.83c-.44.1-.71.54-.61.97.83,3.61.57,7.58.29,11.79-.15,2.33-.32,4.74-.32,7.29,0,.45-.09.81.36.81s1.42-5.69,1.57-7.99c.29-4.33.56-8.41-.33-12.26-.1-.44-.53-.71-.97-.61Z"/>
      </g>
      <g>
        <path class="cls-5" d="m16.11,68.44c-1.92,0-3.47,1.81-3.47,4.04s1.56,4.04,3.47,4.04h10.91c0-2.69-.04-5.38-.12-8.08h-10.8Z"/>
        <path class="cls-2" d="m46.8,68.44h-19.89c.07,2.71.11,5.4.12,8.08h19.63c-.02-2.69,0-5.39.15-8.08Z"/>
        <path class="cls-9" d="m58.55,68.44h-11.75c-.15,2.7-.17,5.39-.15,8.08h11.9c1.92,0,3.47-1.81,3.47-4.04s-1.56-4.04-3.47-4.04Z"/>
        <path class="cls-1" d="m16.11,72.53c-1.92,0-3.47.6-3.47,1.35s1.56,1.35,3.47,1.35h10.91c0-.9-.04-1.8-.12-2.7h-10.8Z"/>
        <path class="cls-11" d="m58.55,72.53h-11.75c-.15.9-.17,1.8-.15,2.7h11.9c1.92,0,3.47-.6,3.47-1.35s-1.56-1.35-3.47-1.35Z"/>
        <path d="m16.11,76.23c-1.76,0-3.19-1.68-3.19-3.74s1.43-3.74,3.19-3.74h10.81c0-.2-.01-.4-.02-.6h-10.79c-2.07,0-3.75,1.95-3.75,4.34s1.68,4.34,3.75,4.34h10.92c0-.2,0-.4,0-.6h-10.91Z"/>
        <path d="m27.02,76.23c0,.2,0,.4,0,.6h19.63c0-.2,0-.4,0-.6h-19.63Z"/>
        <path d="m58.55,68.14h-11.73c-.01.2-.02.4-.03.6h11.76c1.76,0,3.19,1.68,3.19,3.74s-1.43,3.74-3.19,3.74h-11.9c0,.2,0,.4,0,.6h11.9c2.07,0,3.75-1.95,3.75-4.34s-1.68-4.34-3.75-4.34Z"/>
        <path d="m26.89,68.14c0,.2.01.4.02.6h19.87c.01-.2.02-.4.03-.6h-19.92Z"/>
      </g>
      <g>
        <path class="cls-2" d="m26.43,132.62c.38-.08.9-.14,1.64-.14s1.28.18,1.64.54c.34.34.58.91.58,1.57s-.18,1.23-.5,1.61c-.41.49-1.03.71-1.75.71-.16,0-.3,0-.41-.03v2.42h-1.2v-6.69Zm1.2,3.08c.1.03.23.04.41.04.65,0,1.04-.41,1.04-1.11,0-.62-.34-1-.95-1-.25,0-.41.03-.5.06v2Z"/>
        <path class="cls-2" d="m35.98,135.85c0,2.22-1.07,3.57-2.64,3.57s-2.53-1.52-2.53-3.45c0-2.03,1.03-3.55,2.61-3.55s2.55,1.56,2.55,3.43Zm-3.88.09c0,1.33.49,2.26,1.31,2.26s1.29-.99,1.29-2.3c0-1.22-.46-2.26-1.3-2.26s-1.3.98-1.3,2.3Z"/>
        <path class="cls-2" d="m36.78,132.53h1.22v5.49h2.14v1.29h-3.36v-6.78Z"/>
        <path class="cls-2" d="m42.07,132.53v6.78h-1.22v-6.78h1.22Z"/>
        <path class="cls-2" d="m47.07,139.12c-.22.14-.73.29-1.38.29-1.86,0-2.81-1.46-2.81-3.39,0-2.31,1.31-3.6,2.93-3.6.63,0,1.11.16,1.32.3l-.25,1.22c-.25-.13-.59-.25-1.02-.25-.96,0-1.71.73-1.71,2.24,0,1.36.64,2.21,1.72,2.21.37,0,.77-.1,1.01-.22l.18,1.2Z"/>
        <path class="cls-2" d="m51.06,136.44h-1.98v1.61h2.21v1.26h-3.43v-6.78h3.32v1.26h-2.1v1.41h1.98v1.25Z"/>
      </g>
      <g>
        <path class="cls-2" d="m48.86,13.07c-.32.07-.77.12-1.41.12s-1.1-.15-1.41-.46c-.29-.29-.49-.78-.49-1.34s.15-1.05.42-1.38c.35-.42.88-.61,1.5-.61.14,0,.26,0,.36.03v-2.08h1.03v5.73Zm-1.03-2.63c-.09-.03-.2-.03-.35-.03-.55,0-.89.35-.89.95,0,.53.29.85.81.85.21,0,.36-.03.43-.05v-1.71Z"/>
        <path class="cls-2" d="m40.67,10.31c0-1.9.92-3.06,2.26-3.06s2.17,1.3,2.17,2.95c0,1.74-.88,3.04-2.24,3.04s-2.19-1.33-2.19-2.94Zm3.33-.08c0-1.14-.42-1.94-1.12-1.94s-1.11.84-1.11,1.97c0,1.04.4,1.94,1.11,1.94s1.11-.84,1.11-1.97Z"/>
        <path class="cls-2" d="m39.99,13.15h-1.05v-4.7h-1.83v-1.1h2.88v5.8Z"/>
        <path class="cls-2" d="m35.45,13.15v-5.8h1.05v5.8h-1.05Z"/>
        <path class="cls-2" d="m31.17,7.51c.19-.12.62-.25,1.18-.25,1.59,0,2.41,1.25,2.41,2.9,0,1.98-1.12,3.08-2.52,3.08-.54,0-.95-.14-1.14-.26l.21-1.04c.21.11.51.21.88.21.83,0,1.47-.63,1.47-1.92,0-1.16-.55-1.89-1.48-1.89-.31,0-.66.09-.87.19l-.16-1.03Z"/>
        <path class="cls-2" d="m27.75,9.8h1.7v-1.38h-1.89v-1.08h2.94v5.8h-2.84v-1.08h1.8v-1.21h-1.7v-1.07Z"/>
      </g>
      <path class="cls-2" d="m11.8,145.52c.73,1.41,2.1,2.75,3.32,3.75.95.77,2.66,2.35,3.94,2.34-.96-1.59-2.94-2.83-4.3-4.12-.92-.86-1.76-2.08-2.78-2.79-.33.22-.33.58-.09.91l-.09-.09Z"/>
      <path class="cls-2" d="m56.4,151.53c1.52-1.24,2.96-2.67,4.42-3.93.58-.5,3.35-3.22,3.12-1.36-.18,1.43-2.61,2.98-3.68,3.7-.63.42-1.25.75-1.91,1.04-.45.2-1.38.9-1.87.84-.06,0-.09-.03-.08-.1v-.18Z"/>
    </g>
  </g>
</svg>