<?xml version="1.0" encoding="UTF-8"?>
<svg id="Layer_2" data-name="Layer 2" xmlns="http://www.w3.org/2000/svg" viewBox="0 0 80.67 133.79">
  <defs>
    <style>
      .cls-1 {
        fill: #fff;
      }

      .cls-2 {
        fill: #f15a2c;
      }

      .cls-3 {
        fill: #caccd2;
      }

      .cls-4 {
        fill: #78942c;
      }

      .cls-5 {
        fill: #bfd8dd;
      }

      .cls-6 {
        fill: #9ec73f;
      }

      .cls-7 {
        fill: #91a22c;
      }

      .cls-8 {
        fill: #bb1e30;
      }

      .cls-9 {
        fill: #91a9bc;
      }

      .cls-10 {
        fill: #d3e264;
      }

      .cls-11 {
        fill: #738293;
      }

      .cls-12 {
        fill: #d8e6ec;
      }
    </style>
  </defs>
  <g id="Layer_2-2" data-name="Layer 2">
    <g>
      <path class="cls-3" d="m79.98,80.74c-.65,0-1.8.31-3.14.66-.5.13-1.02.27-1.56.41-.52.13-.98.27-1.38.41V7.53c0-1.48-4.68-5.48-6.41-5.48H14.03c-1.74,0-6.41,3.99-6.41,5.48v74.68c-.4-.14-.86-.27-1.38-.41-.54-.13-1.06-.27-1.56-.41-1.34-.35-2.49-.66-3.14-.66-.6,0-.69.28-.69.44,0,2.16,1.97,4.43,5.26,6.08.57.29,1.07.5,1.51.65v33.8c0,1.4,2.34,5.86,6.02,7.69l.04.02c.19.04,17.45,4.8,26.72,4.35h.71c11.88.06,26.52-4.31,26.72-4.35l.04-.02c3.69-1.83,6.02-6.29,6.02-7.69v-33.8c.44-.15.94-.36,1.51-.65,3.29-1.64,5.26-3.91,5.26-6.08,0-.17-.09-.44-.69-.44Z"/>
      <path d="m74.45,74.43c-.77.3-3.71,1.1-3.84,1.13V6.87c0-2.49-5.28-6.87-7.65-6.87H13.86c-2.37,0-7.64,4.38-7.64,6.87l.14,68.69c-.13-.04-2.34-.82-3.71-1.13-1.53-.34-2.64,0-2.64,1.08,0,2.73,2.11,5.37,5.8,7.24.14.07.28.14.42.21v30.69c0,2.21,2.73,6.85,6.5,8.75l.54.19c3.57.96,15.82,4.1,23.65,4.1.42,0,.83,0,1.22-.03h.84s0,0,0,0c9.72,0,21.31-3.12,24.63-4.08l.13-.04h0s.38-.14.38-.14c3.77-1.9,6.5-6.54,6.5-8.75v-30.69c.14-.06.28-.13.42-.21,3.68-1.87,5.8-4.51,5.8-7.24,0-1.08-.85-1.68-2.37-1.08Z"/>
      <g>
        <g>
          <path class="cls-6" d="m8.4,81.99c.42,0,.9-.13.9-1.14,0-.06,0-.12,0-.18,0-.67,0-1.39,0-2.18-.21-.49-.7-.94-1.76-1.37l-.34-.13c-.39-.14-.85-.28-1.39-.41-.51-.13-1.01-.26-1.48-.39-1.23-.33-2.3-.61-2.86-.61-.31,0-.31.08-.31.12,0,1.49,1.25,3.71,4.78,5.48.48.24.89.42,1.26.56,0,0,.95.26,1.18.26Z"/>
          <path class="cls-6" d="m75.32,75.58c-.56,0-1.63.29-2.86.61-.47.12-.97.26-1.48.39-.54.13-.99.27-1.39.41h0c-.09.03-.17.07-.26.12,0,0-.01,0-.02.01-.02,0-.04.02-.06.03v-.03c-1.07.43-1.56.89-1.76,1.37,0,.78,0,1.51,0,2.18,0,.06.01.12.01.18,0,1.01.48,1.14.9,1.14.17,0,.37-.03.59-.08.22,0,.44-.04.63-.15.04,0,.07-.02.11-.03.18-.07.34-.14.47-.25.2-.09.41-.19.64-.3,3.52-1.77,4.78-3.99,4.78-5.48,0-.04,0-.12-.31-.12Z"/>
          <g>
            <path class="cls-5" d="m62.61,83.13c-.25-1.03-.51-2.1-.7-3.12-.3-1.62-.51-3.05-.69-4.31-1.21-8.4-1.31-9.08-22.64-9.17-.06,0-.11,0-.17,0s-.11,0-.17,0c-21.33.09-21.43.78-22.64,9.17-.18,1.26-.39,2.69-.69,4.31-.19,1.02-.45,2.09-.7,3.12-1.02,4.22-2.08,8.58.79,11.83,3.17,3.59,10.83,5.36,23.42,5.4,12.58-.05,20.25-1.82,23.42-5.4,2.87-3.25,1.81-7.61.79-11.83Z"/>
            <path class="cls-12" d="m40.6,73.6c3.34.35,5.88.95,8.95,2.21,1.54.63,2.94,1.45,4.21,2.41,4.52,3.17,7.79,7.95,8.71,13.15.38-2.46-.28-5.19-.93-7.86-.24-1.01-.49-2.05-.68-3.05-.29-1.58-.49-2.98-.67-4.21-1.17-8.21-1.27-8.88-21.96-8.96-.06,0-.11,0-.16,0s-.11,0-.16,0c-20.69.09-20.78.76-21.96,8.96-.18,1.23-.37,2.63-.67,4.21-.19,1-.44,2.04-.68,3.05-.73,3.04-1.48,6.15-.71,8.85-.43-6.53,4.42-12.77,10.96-15.59,2.95-1.28,5.97-2.36,9.22-2.8,2.21-.3,4.31-.6,6.53-.37Z"/>
            <path class="cls-1" d="m60.08,81.85c-.21-.68-.61-4.13-.79-4.8-.27-1.07-.46-2-.62-2.83-1.09-5.51-1.18-5.96-20.39-6.02h-.3c-19.21.06-19.3.51-20.39,6.02-.16.83-.35,1.76-.62,2.83-.17.67-.41,1.37-.63,2.05-.43,1.28-.86,2.58-.94,3.82.4-.52,2.84-5.61,6.75-7.26,9.22-3.9,16.27-3.37,18.33-3.22,3.1.23,5.46.64,8.31,1.49,1.43.42,2.73.97,3.91,1.62,4.2,2.13,7.38,6.3,7.38,6.3Z"/>
          </g>
          <path class="cls-9" d="m15.9,17.61c-.9.39-4.66,9.18-4.66,14.16,0,1.03-.01,1.97-.02,2.83-.03,2.79-.06,4.8.37,5.19.04.04.08.05.12.05.22,0,.57.03.97.07.54.05,1.21.11,1.78.11.81,0,1.26-.12,1.3-.35.79-5.02.88-21.04.14-22.07Z"/>
          <path class="cls-12" d="m65.24,104.51c-3.45,0-10.56,10.92-10.56,14.17,0,.75.34,1.05,1.18,1.05.71,0,1.72-.23,2.89-.49.37-.08.76-.17,1.17-.26.88-.19,3.81-1.56,5.5-4.35,1.02-1.68,2.49-7.36,1.16-9.42-.31-.48-.75-.72-1.33-.72Z"/>
          <path class="cls-12" d="m11.58,104.51c-.58,0-1.02.23-1.33.72-1.34,2.05.14,7.74,1.16,9.42,1.69,2.79,4.62,4.16,5.5,4.35.41.09.8.17,1.17.26,1.17.26,2.18.49,2.9.49.84,0,1.18-.31,1.18-1.05,0-3.25-7.11-14.17-10.56-14.17Z"/>
          <path class="cls-5" d="m19.55,8.3c1.03,1.45,2.1,2.94,18.86,3.19,16.76-.25,17.83-1.75,18.86-3.19.09-.13.19-.26.29-.39.81-1.01,1.02-1.87.64-2.56-1.48-2.63-11.49-2.69-19.79-2.69-8.3,0-18.31.06-19.79,2.69-.38.68-.17,1.54.64,2.56.1.13.2.26.29.39Z"/>
          <path class="cls-6" d="m67.52,81.95c.02,5.94-.01,6.54-.11,6.63l-.05.04h-.18s-.04-.1-.04-.1c-.75-1.51-3.09-15.21-4.73-26.56-1.87-12.94-2.11-17.47-.99-18.63.23-.23.52-.35.88-.35.54,0,1.21.26,1.97.56.36.14.73.29,1.13.42,2.16.74,2.13,6.97,2.09,16.4,0,1.38-.01,2.83-.01,4.32,0,4.06.02,8.33.04,12.1,0,.38,0,.74,0,1.1.33-.39.88-.76,1.77-1.1V6.02c0-1.23-4.26-4.88-5.7-4.88H13.26c-1.44,0-5.7,3.65-5.7,4.88v70.77c.89.35,1.44.72,1.77,1.1,0-.36,0-.72,0-1.1.02-3.77.04-8.04.04-12.1,0-1.49,0-2.94-.01-4.32-.05-9.43-.08-15.66,2.09-16.4.4-.14.77-.28,1.13-.42.77-.3,1.43-.56,1.97-.56.37,0,.66.12.88.35,1.12,1.16.88,5.68-.99,18.63-1.64,11.35-3.98,25.05-4.73,26.56l-.04.09h-.12s-.07,0-.07,0l-.05-.04c-.1-.09-.13-.69-.11-6.63-.21.23-.51.35-.9.35-.24,0-.52-.05-.85-.14v32.25c0,1.27,2.12,5.32,5.47,7,.73.16,18.14,3.91,25.38,4.12,7.24-.2,24.66-3.96,25.38-4.12,3.35-1.68,5.47-5.73,5.47-7v-32.25c-.32.09-.6.14-.85.14-.4,0-.7-.12-.9-.35Zm-2.05-41.94c-.1.09-.22.14-.36.14-.21,0-.54.03-.94.07-.54.05-1.22.11-1.81.11-.66,0-1.54-.06-1.63-.62-.77-4.91-.94-21.39-.04-22.34.07-.07.15-.09.2-.09,1.19,0,5.03,9.57,5.03,14.48,0,1.03.01,1.97.02,2.83.04,3.07.06,4.92-.47,5.41Zm-2.59-35.67c2.19,0,4.49,4.65,4.49,6.71v.08l-.08.05c-.13.08-3.11,1.85-5.13,1.85h-3.78s0-.14,0-.14c0-2.14,2.34-8.55,4.49-8.55Zm-44.55.88c1.55-2.76,11.05-2.85,19.75-2.86h.67c8.7,0,18.2.1,19.75,2.86.44.79.22,1.76-.66,2.87-.1.12-.19.25-.28.38-1.12,1.57-2.18,3.05-18.81,3.33h0c-.11,0-.22,0-.34,0-.11,0-.22,0-.34,0h0c-16.62-.28-17.69-1.77-18.81-3.34-.09-.13-.18-.25-.28-.38-.89-1.11-1.11-2.08-.66-2.87Zm-8.88,5.91v-.08c0-2.05,2.3-6.71,4.49-6.71s4.49,6.41,4.49,8.55v.15h-3.78c-2.02-.02-5-1.79-5.13-1.87l-.08-.05Zm5.02,29.21c-.59,0-1.27-.06-1.81-.11-.39-.04-.73-.07-.94-.07-.14,0-.26-.05-.36-.14-.53-.48-.51-2.34-.47-5.41,0-.86.02-1.81.02-2.83,0-4.9,3.84-14.48,5.03-14.48.05,0,.13.01.2.09.91.95.73,17.43-.04,22.34-.09.55-.97.62-1.63.62Zm6.5,79.7c-.76,0-1.78-.23-2.97-.5-.37-.08-.76-.17-1.17-.26-1.07-.23-4-1.68-5.71-4.5-1.07-1.77-2.57-7.54-1.15-9.72.37-.58.92-.87,1.62-.87,3.69,0,10.9,11.06,10.9,14.48,0,.91-.5,1.36-1.52,1.36Zm17.78-19.38c-.11,0-.22,0-.34,0s-.22,0-.34,0h0c-12.49-.08-20.13-1.89-23.34-5.52-2.97-3.36-1.89-7.8-.85-12.09.25-1.03.51-2.09.7-3.11.3-1.62.51-3.04.69-4.3,1.22-8.44,1.35-9.34,22.81-9.44h0c.11,0,.22,0,.34,0s.22,0,.34,0h0c21.46.1,21.59,1,22.81,9.44.18,1.26.39,2.68.69,4.3.19,1.01.45,2.08.7,3.11,1.04,4.29,2.12,8.72-.85,12.09-3.21,3.63-10.85,5.44-23.34,5.51h0Zm26.96,14.12c-1.71,2.82-4.64,4.27-5.71,4.5-.4.08-.79.17-1.16.26-1.19.27-2.22.5-2.97.5-1.02,0-1.52-.45-1.52-1.36,0-3.42,7.21-14.48,10.9-14.48.7,0,1.25.29,1.62.87,1.42,2.18-.08,7.94-1.15,9.72Z"/>
          <path class="cls-4" d="m38.07,122.34c-11.87,0-21.65-2.52-28.68-5.06,5.26,4.29,16.19,7.25,28.82,7.25,11.83,0,22.17-2.59,27.75-6.45-6.93,2.07-17.33,4.26-27.89,4.26Z"/>
          <path class="cls-4" d="m67.08,48.55c-.29-16.94-1.12-32.07-2.17-42.09,1.62,7.48,2.91,23.06,3.22,41.09.29,16.89-.35,31.64-1.55,39.63.55-9.9.75-23.56.49-38.64Z"/>
          <path class="cls-4" d="m9.19,48.55c.29-16.94,1.12-32.07,2.17-42.09-1.62,7.48-2.91,23.06-3.22,41.09-.29,16.89.35,31.64,1.55,39.63-.55-9.9-.75-23.56-.49-38.64Z"/>
          <g>
            <path class="cls-8" d="m18.1,12.74c-.1-2.32-2.39-8.09-4.15-8.09s-4.1,4.23-4.16,6.32c.48.28,3.12,1.75,4.87,1.76h3.44Z"/>
            <path class="cls-8" d="m67.04,10.96c-.06-2.09-2.35-6.32-4.16-6.32s-4.05,5.77-4.15,8.09h3.44c1.75-.02,4.39-1.49,4.87-1.77Z"/>
            <path class="cls-2" d="m15.42,8.08c.31-.28.63-.54.98-.78-.76-1.49-1.66-2.66-2.45-2.66-1.8,0-4.1,4.23-4.16,6.32.32.19,1.61.91,2.96,1.37.46-1.6,1.37-3.07,2.67-4.25Z"/>
            <path class="cls-2" d="m61.63,8.08c1.28,1.16,2.18,2.61,2.65,4.18,1.27-.46,2.45-1.12,2.76-1.3-.06-2.09-2.35-6.32-4.16-6.32-.77,0-1.64,1.1-2.39,2.54.4.27.78.57,1.14.89Z"/>
          </g>
          <path class="cls-4" d="m38.92,2.05c-10.9,0-20.65.48-27.11,1.23,4.83-1.27,14.87-2.14,26.48-2.14,10.87,0,20.36.77,25.49,1.91-6.37-.61-15.16-.99-24.87-.99Z"/>
          <path class="cls-9" d="m65.27,44.26c-.41-.14-.78-.29-1.14-.43-.73-.29-1.36-.54-1.84-.54-.27,0-.47.08-.63.25-1.03,1.06-.76,5.71,1.07,18.39,1.47,10.22,3.52,22.34,4.44,25.7.03-1.24.02-3.82,0-6.96-.01-.22-.04-.44-.07-.66-.07-.53-.14-1.06.06-1.58,0-.54,0-1.09,0-1.64-.02-3.77-.04-8.04-.04-12.1,0-1.49,0-2.94.01-4.32.04-8.63.08-15.45-1.87-16.11Z"/>
          <path class="cls-9" d="m9.65,80.69c-.01,3.14-.02,5.71,0,6.95.93-3.37,2.97-15.48,4.44-25.7,1.83-12.68,2.1-17.32,1.07-18.39-.16-.17-.36-.25-.63-.25-.48,0-1.11.25-1.84.54-.36.14-.73.29-1.14.43-1.94.66-1.91,7.48-1.87,16.11,0,1.38.01,2.83.01,4.32,0,4.06-.02,8.33-.04,12.1,0,.55,0,1.1,0,1.64.2.52.13,1.05.06,1.58-.03.22-.05.44-.07.67Z"/>
          <path class="cls-9" d="m65.58,31.78c0-4.98-3.76-13.77-4.66-14.16-.74,1.03-.65,17.05.14,22.07.04.23.49.35,1.3.35.57,0,1.24-.06,1.78-.11.4-.04.75-.07.97-.07.05,0,.08-.02.12-.05.43-.39.41-2.41.37-5.19,0-.86-.02-1.81-.02-2.83Z"/>
          <path class="cls-5" d="m15.9,17.61c-.58.25-2.34,3.98-3.52,7.94,1.16,4.71,1.53,9.59,1.48,14.46.21.01.42.02.61.02.81,0,1.26-.12,1.3-.35.79-5.02.88-21.04.14-22.07Z"/>
          <path class="cls-5" d="m66.72,80.81c-.04-2.54-.29-5.06-.63-7.58-1.3-8.2-3.13-16.3-3.4-24.61-.06-1.75-.06-3.51-.02-5.27-.14-.03-.27-.04-.39-.04-.27,0-.47.08-.63.25-1.03,1.06-.76,5.71,1.07,18.39,1.45,10.09,3.46,22.02,4.4,25.56-.36-2.21-.38-4.49-.41-6.69Z"/>
          <path class="cls-5" d="m15.17,43.55c-.16-.17-.36-.25-.63-.25-.23,0-.49.06-.78.15-.09,2.05-.24,4.1-.42,6.13-.46,5.19-1,10.38-1.68,15.55-.85,6.45-1.81,12.89-2.02,19.39,0,1.36,0,2.44.02,3.12.93-3.37,2.97-15.48,4.44-25.7,1.83-12.68,2.1-17.32,1.07-18.39Z"/>
          <path class="cls-5" d="m64.76,26.66c-1.16-4.34-3.21-8.77-3.84-9.05-.74,1.03-.65,17.05.14,22.07.04.23.49.35,1.3.35.15,0,.31,0,.47-.01.28-4.49.91-8.97,1.94-13.36Z"/>
          <path d="m11.58,104.2c-.7,0-1.25.29-1.62.87-1.42,2.18.08,7.94,1.15,9.72,1.71,2.82,4.64,4.27,5.71,4.5.41.08.79.17,1.17.26,1.19.27,2.22.5,2.97.5,1.02,0,1.52-.45,1.52-1.36,0-3.42-7.21-14.48-10.9-14.48Zm9.38,15.53c-.71,0-1.73-.23-2.9-.49-.37-.08-.76-.17-1.17-.26-.88-.19-3.81-1.56-5.5-4.35-1.02-1.68-2.49-7.36-1.16-9.42.31-.48.75-.72,1.33-.72,3.46,0,10.56,10.92,10.56,14.17,0,.75-.34,1.05-1.18,1.05Z"/>
          <path d="m62.09,95.15c2.97-3.36,1.9-7.8.85-12.09-.25-1.03-.51-2.09-.7-3.11-.3-1.62-.51-3.04-.69-4.3-1.22-8.44-1.35-9.34-22.81-9.44h0c-.11,0-.22,0-.34,0s-.22,0-.34,0h0c-21.46.1-21.59,1-22.81,9.44-.18,1.26-.39,2.68-.69,4.3-.19,1.01-.45,2.08-.7,3.11-1.04,4.29-2.12,8.72.85,12.09,3.21,3.63,10.85,5.44,23.34,5.51h0c.11,0,.22,0,.34,0s.22,0,.34,0h0c12.49-.08,20.13-1.89,23.34-5.52Zm-23.68,5.21c-12.58-.05-20.25-1.82-23.42-5.4-2.87-3.25-1.81-7.61-.79-11.83.25-1.03.51-2.1.7-3.12.3-1.62.51-3.05.69-4.31,1.21-8.4,1.31-9.08,22.64-9.17.06,0,.11,0,.17,0s.11,0,.17,0c21.33.09,21.43.78,22.64,9.17.18,1.26.39,2.69.69,4.31.19,1.02.45,2.09.7,3.12,1.02,4.22,2.08,8.58-.79,11.83-3.17,3.59-10.83,5.36-23.42,5.4Z"/>
          <path d="m16.13,17.39c-.07-.07-.14-.09-.2-.09-1.19,0-5.03,9.57-5.03,14.48,0,1.03-.01,1.97-.02,2.83-.04,3.07-.06,4.92.47,5.41.1.09.22.14.36.14.21,0,.54.03.94.07.54.05,1.22.11,1.81.11.66,0,1.54-.06,1.63-.62.77-4.91.94-21.39.04-22.34Zm-.37,22.29c-.04.23-.48.35-1.3.35-.57,0-1.24-.06-1.78-.11-.4-.04-.75-.07-.97-.07-.05,0-.08-.02-.12-.05-.43-.39-.4-2.41-.37-5.19,0-.86.02-1.81.02-2.83,0-4.98,3.76-13.77,4.66-14.16.74,1.03.65,17.05-.14,22.07Z"/>
          <path d="m19.27,8.47c1.12,1.57,2.18,3.05,18.81,3.33h0c.11,0,.22,0,.34,0,.11,0,.22,0,.34,0h0c16.62-.28,17.69-1.77,18.81-3.34.09-.13.18-.25.28-.38.89-1.11,1.11-2.08.66-2.87-1.55-2.76-11.05-2.85-19.75-2.86h-.67c-8.7,0-18.2.1-19.75,2.86-.44.79-.22,1.76.66,2.87.1.12.19.25.28.38Zm-.64-3.11c1.48-2.63,11.49-2.69,19.79-2.69,8.29,0,18.31.06,19.79,2.69.38.68.17,1.54-.64,2.56-.1.13-.2.26-.29.39-1.03,1.45-2.1,2.94-18.86,3.19-16.76-.25-17.83-1.75-18.86-3.19-.09-.13-.19-.26-.29-.39-.81-1.01-1.02-1.87-.64-2.56Z"/>
          <path d="m18.44,13.04v-.15c0-2.14-2.34-8.55-4.49-8.55s-4.49,4.65-4.49,6.71v.08l.08.05c.13.08,3.11,1.85,5.13,1.85h3.78Zm-4.49-8.4c1.76,0,4.05,5.77,4.15,8.09h-3.44c-1.75-.02-4.39-1.49-4.87-1.77.06-2.09,2.35-6.32,4.16-6.32Z"/>
          <path d="m65.24,104.2c-3.69,0-10.9,11.06-10.9,14.48,0,.91.5,1.36,1.52,1.36.76,0,1.78-.23,2.97-.5.37-.08.76-.17,1.16-.26,1.07-.23,4-1.68,5.71-4.5,1.08-1.77,2.57-7.54,1.15-9.72-.37-.58-.92-.87-1.62-.87Zm.18,10.44c-1.69,2.79-4.62,4.16-5.5,4.35-.41.09-.8.17-1.17.26-1.17.26-2.18.49-2.89.49-.84,0-1.18-.31-1.18-1.05,0-3.25,7.11-14.17,10.56-14.17.58,0,1.02.23,1.33.72,1.34,2.05-.14,7.74-1.16,9.42Z"/>
          <path d="m75.32,75.28c-.61,0-1.7.29-2.96.63-.47.12-.96.26-1.47.38-.49.12-.92.25-1.3.38V6.02c0-1.4-4.4-5.18-6.04-5.18H13.26c-1.64,0-6.04,3.78-6.04,5.18v70.65c-.38-.13-.81-.26-1.3-.38-.51-.12-1-.26-1.47-.38-1.26-.34-2.35-.63-2.95-.63-.57,0-.65.26-.65.42,0,2.04,1.85,4.19,4.95,5.75.54.27,1.01.47,1.42.61v32.36c0,1.32,2.2,5.55,5.67,7.28h.04c.18.05,16.43,4.55,25.14,4.13h.67c11.18.06,24.96-4.08,25.14-4.12h.04c3.47-1.74,5.67-5.97,5.67-7.29v-32.36c.41-.14.88-.34,1.42-.61,3.1-1.56,4.95-3.71,4.95-5.75,0-.16-.08-.42-.65-.42Zm-69.36,5.9c-3.52-1.77-4.78-3.99-4.78-5.48,0-.04,0-.12.31-.12.56,0,1.63.29,2.86.61.47.12.97.26,1.48.39.54.13.99.27,1.39.41l.34.13c1.07.43,1.56.89,1.76,1.37,0,.79,0,1.51,0,2.18,0,.06,0,.12,0,.18,0,1.01-.48,1.14-.9,1.14-.23,0-.52-.05-.85-.15,0,0-1.12-.43-1.6-.67Zm63.3,33.24c0,1.27-2.12,5.32-5.47,7-.72.16-15.21,4.12-25.38,3.81-10.62,0-24.66-3.66-25.38-3.81-3.35-1.68-5.47-5.73-5.47-7v-32.25c.32.09.6.14.85.14.4,0,.7-.12.9-.35-.02,5.94.01,6.54.11,6.63l.05.04h.19s.04-.1.04-.1c.75-1.51,3.09-15.21,4.73-26.56,1.87-12.94,2.11-17.47.99-18.63-.23-.23-.52-.35-.88-.35-.55,0-1.21.26-1.97.56-.36.14-.73.29-1.13.42-2.16.74-2.13,6.97-2.09,16.4,0,1.38.01,2.83.01,4.32,0,4.06-.02,8.33-.04,12.1,0,.38,0,.74,0,1.1-.33-.39-.88-.76-1.77-1.1V6.02c0-1.23,4.26-4.88,5.7-4.88h50.31c1.44,0,5.7,3.65,5.7,4.88v70.77c-.89.35-1.44.72-1.77,1.1,0-.36,0-.72,0-1.1-.02-3.77-.04-8.04-.04-12.1,0-1.49,0-2.94.01-4.32.05-9.43.08-15.66-2.09-16.4-.4-.14-.77-.28-1.13-.42-.77-.3-1.43-.56-1.97-.56-.37,0-.66.12-.88.35-1.12,1.16-.88,5.68.99,18.63,1.64,11.35,3.98,25.05,4.73,26.56l.04.09h.11s.07,0,.07,0l.05-.04c.1-.09.13-.69.11-6.63.21.23.51.35.9.35.24,0,.52-.05.85-.14v32.25ZM9.66,78.44c0-.54,0-1.09,0-1.64.02-3.77.04-8.04.04-12.1,0-1.49,0-2.94-.01-4.32-.04-8.63-.08-15.45,1.87-16.11.41-.14.78-.29,1.14-.43.73-.29,1.36-.54,1.84-.54.27,0,.47.08.63.25,1.03,1.06.76,5.71-1.07,18.39-1.47,10.22-3.52,22.34-4.44,25.7-.02-1.24-.02-3.81,0-6.95.01-.22.04-.45.07-.67.07-.53.14-1.06-.06-1.58Zm57.5-1.64c0,.56,0,1.1,0,1.64-.2.52-.13,1.05-.06,1.58.03.22.05.44.07.66.01,3.14.02,5.71,0,6.96-.93-3.37-2.97-15.48-4.44-25.7-1.83-12.68-2.1-17.32-1.07-18.39.16-.17.36-.25.63-.25.48,0,1.11.25,1.84.54.36.14.74.29,1.14.43,1.94.66,1.91,7.48,1.87,16.11,0,1.38-.01,2.83-.01,4.32,0,4.06.02,8.33.04,12.1Zm3.7,4.38c-.23.12-.44.21-.64.3-.14.1-.29.18-.47.25-.04.01-.07.02-.11.03-.19.11-.41.15-.63.15-.22.05-.42.08-.59.08-.42,0-.9-.13-.9-1.14,0-.06,0-.12-.01-.18,0-.67,0-1.39,0-2.18.21-.49.7-.94,1.76-1.37v.03s.04-.02.06-.03c0,0,.01,0,.02-.01.08-.05.17-.09.26-.12h0c.39-.14.85-.28,1.39-.42.51-.13,1.01-.26,1.48-.39,1.23-.33,2.3-.61,2.86-.61.31,0,.31.08.31.12,0,1.49-1.25,3.71-4.78,5.48Z"/>
          <path d="m65.91,31.78c0-4.9-3.84-14.48-5.03-14.48-.05,0-.13.01-.2.09-.91.95-.73,17.43.04,22.34.09.55.97.62,1.63.62.59,0,1.27-.06,1.81-.11.39-.04.73-.07.94-.07.14,0,.26-.05.36-.14.53-.48.51-2.34.47-5.41,0-.86-.02-1.81-.02-2.83Zm-.69,8.03s-.08.05-.12.05c-.22,0-.57.03-.97.07-.54.05-1.21.11-1.78.11-.81,0-1.26-.12-1.3-.35-.79-5.02-.88-21.04-.14-22.07.9.39,4.66,9.18,4.66,14.16,0,1.03.01,1.97.02,2.83.03,2.79.06,4.8-.37,5.19Z"/>
          <path d="m58.38,13.04h3.78c2.02-.02,5-1.79,5.13-1.87l.08-.05v-.08c0-2.05-2.3-6.71-4.49-6.71s-4.49,6.41-4.49,8.55v.15Zm4.49-8.4c1.8,0,4.1,4.23,4.16,6.32-.48.28-3.12,1.75-4.87,1.76h-3.44c.1-2.31,2.39-8.08,4.15-8.08Z"/>
        </g>
        <g>
          <path class="cls-1" d="m18.7,117.09c-1,.97-3.44.38-5.44-1.32-2-1.7-2.81-3.87-1.81-4.84,1-.97,3.44-.38,5.44,1.32,2,1.7,2.81,3.87,1.81,4.84Z"/>
          <path class="cls-9" d="m15.98,109.92c1.99,2.72,3.43,5.2,3.74,6.35.3.22.52.3.64.23.48-.29-1.11-3.24-3.55-6.59-2.45-3.34-4.83-5.82-5.31-5.52-.07.04-.09.13-.08.26,1.1.92,2.83,2.88,4.57,5.26Z"/>
        </g>
        <g>
          <path class="cls-1" d="m58.27,117.09c1,.97,3.43.38,5.43-1.32,2-1.7,2.81-3.87,1.81-4.84-1-.97-3.44-.38-5.44,1.32-2,1.7-2.81,3.87-1.81,4.84Z"/>
          <path class="cls-9" d="m60.99,109.92c-1.99,2.72-3.43,5.2-3.74,6.35-.3.22-.52.3-.64.23-.49-.29,1.11-3.24,3.55-6.59,2.45-3.34,4.83-5.82,5.31-5.52.07.04.09.13.08.26-1.1.92-2.83,2.88-4.57,5.26Z"/>
        </g>
        <path class="cls-11" d="m39.08,97.27c-9.31,0-17.63-.9-23.14-2.31,4.12,2.38,12.69,4.03,22.6,4.03,9.28,0,17.38-1.44,21.76-3.58-5.44,1.15-12.94,1.86-21.22,1.86Z"/>
        <path class="cls-12" d="m38.83,8.95c-7.44,0-14.08-.78-18.48-1.99,3.29,2.06,10.14,3.47,18.06,3.47,7.41,0,13.89-1.24,17.38-3.09-4.34.99-10.34,1.61-16.96,1.61Z"/>
        <path class="cls-10" d="m37.74,109.84c-6.81,0-16.96-.32-20.99-4.42,3.02,6.94,9.09,14.57,21.63,14.44,12.44-.13,17.79-7.6,21-13.83-3.98,3.35-15.57,3.81-21.64,3.81Z"/>
        <path class="cls-7" d="m58.22,64.9c.02.31-.22.58-.53.59h0c-.31.01-.57-.23-.59-.54l-2.58-51.14c-.02-.31.22-.58.53-.59h0c.31-.01.57.23.59.54l2.58,51.15Z"/>
        <path class="cls-7" d="m18.95,64.9c-.02.31.22.58.53.59h0c.31.01.57-.23.59-.54l2.58-51.14c.02-.31-.22-.58-.53-.59h0c-.31-.01-.57.23-.59.54l-2.58,51.15Z"/>
        <path class="cls-10" d="m8.42,79.86c-.36.56-1.94.33-3.51-.52-1.58-.85-2.56-1.99-2.19-2.55.36-.56,1.94-.33,3.51.52,1.58.85,2.56,1.99,2.19,2.55Z"/>
        <path class="cls-10" d="m68.67,79.86c.36.56,1.94.33,3.51-.52,1.58-.85,2.56-1.99,2.19-2.55-.36-.56-1.94-.33-3.51.52-1.58.85-2.56,1.99-2.19,2.55Z"/>
        <path class="cls-10" d="m54.68,53.11c.67,13.72-8.75,11.07-16.94,11.07s-16.74,2.1-15.59-10.77c.5-5.64,1.34,6.1,15.92,6.76,16.52.75,16.32-13.01,16.61-7.07Z"/>
      </g>
    </g>
  </g>
</svg>