<?xml version="1.0" encoding="UTF-8"?>
<svg id="Layer_2" data-name="Layer 2" xmlns="http://www.w3.org/2000/svg" viewBox="0 0 73.05 327.36">
  <defs>
    <style>
      .cls-1 {
        fill: #fff;
      }

      .cls-2 {
        fill: #0071bc;
      }
    </style>
  </defs>
  <g id="Layer_1-2" data-name="Layer 1">
    <g>
      <rect class="cls-2" x=".29" y=".06" width="72.46" height="327.23" rx="1.56" ry="1.56" transform="translate(-.3 .07) rotate(-.1)"/>
      <g>
        <path class="cls-1" d="m35.66,24.4L2.59,49.61c-1.02.78-2.5.05-2.5-1.24l-.03-15.28c0-.49.23-.95.61-1.24L36.67,4.39c.61-.46,1.45-.42,2.01.1l33.35,31.28c.31.29.49.7.49,1.13l.03,16.71c0,1.37-1.63,2.07-2.62,1.14l-32.27-30.26c-.55-.52-1.4-.56-2.01-.1Z"/>
        <path class="cls-1" d="m35.76,82.15L2.69,107.36c-1.02.78-2.5.05-2.5-1.24l-.03-15.28c0-.49.23-.95.61-1.24l36-27.45c.61-.46,1.45-.42,2.01.1l33.35,31.28c.31.29.49.7.49,1.13l.03,16.71c0,1.37-1.63,2.07-2.62,1.14l-32.27-30.26c-.55-.52-1.4-.56-2.01-.1Z"/>
        <path class="cls-1" d="m35.86,139.9L2.79,165.11c-1.02.78-2.5.05-2.5-1.24l-.03-15.28c0-.49.23-.95.61-1.24l36-27.45c.61-.46,1.45-.42,2.01.1l33.35,31.28c.31.29.49.7.49,1.13l.03,16.71c0,1.37-1.63,2.07-2.62,1.14l-32.27-30.26c-.55-.52-1.4-.56-2.01-.1Z"/>
        <path class="cls-1" d="m35.97,197.65L2.9,222.87c-1.02.78-2.5.05-2.5-1.24l-.03-15.28c0-.49.23-.95.61-1.24l36-27.45c.61-.46,1.45-.42,2.01.1l33.35,31.28c.31.29.49.7.49,1.13l.03,16.71c0,1.37-1.63,2.07-2.62,1.14l-32.27-30.26c-.55-.52-1.4-.56-2.01-.1Z"/>
        <path class="cls-1" d="m36.07,255.41l-33.07,25.21c-1.02.78-2.5.05-2.5-1.24l-.03-15.28c0-.49.23-.95.61-1.24l36-27.45c.61-.46,1.45-.42,2.01.1l33.35,31.28c.31.29.49.7.49,1.13l.03,16.71c0,1.37-1.63,2.07-2.62,1.14l-32.27-30.26c-.55-.52-1.4-.56-2.01-.1Z"/>
        <path class="cls-1" d="m52.67,326.84l-14.48-13.58c-.56-.52-1.4-.56-2.01-.1l-18.17,13.85c-.27.21-.6.32-.94.32l-14.92.03c-.86,0-1.56-.69-1.56-1.55v-3.95c0-.49.22-.95.61-1.24l36-27.45c.61-.46,1.45-.42,2.01.1l33.35,31.28c.31.29.49.7.49,1.13h0c0,.86-.69,1.56-1.55,1.56l-17.76.03c-.4,0-.78-.15-1.07-.42Z"/>
      </g>
    </g>
  </g>
</svg>