<?xml version="1.0" encoding="UTF-8"?>
<svg id="Layer_2" data-name="Layer 2" xmlns="http://www.w3.org/2000/svg" viewBox="0 0 281.44 236.33">
  <defs>
    <style>
      .cls-1 {
        fill: #d7ef7f;
      }

      .cls-2 {
        fill: #2f8986;
      }

      .cls-3 {
        fill: #f7ffc7;
      }

      .cls-4 {
        fill: #41b774;
      }

      .cls-5 {
        fill: #92d34f;
      }
    </style>
  </defs>
  <g id="object">
    <g>
      <path class="cls-2" d="m267.33,31.8C227.26-6.13,172.16,5.78,124.8.69c-40.35-.06-86.17-7.71-114.37,29.55C-1.8,49.45.75,68.18.29,86.58c-.6,19.54-.28,36.87.99,52.98.43,103.28,61.38,92.83,159.36,96.76,116.54.55,110.1-49.32,119.98-118.74,1.68-24.78,2.18-68.89-13.3-85.78Zm-26.1,166.47c-23.01,30.77-163.08,18.03-194.51,8.74-34.62-15.55-26.15-88.01-27.76-119.84.49-15.55-1.9-32.96,7.09-46.67,26.87-32.13,76.89-19.64,113.89-20.52,37.52,3.62,84.4-3.6,113.61,24.45,15.92,17.38,10.67,123.08-12.33,153.85Z"/>
      <path class="cls-5" d="m241.23,198.27c-23.01,30.77-163.08,18.03-194.51,8.74-34.62-15.55-26.15-88.01-27.76-119.84.49-15.55-1.9-32.96,7.09-46.67,26.87-32.13,76.89-19.64,113.89-20.52,37.52,3.62,84.4-3.6,113.61,24.45,15.92,17.38,10.67,123.08-12.33,153.85Z"/>
      <path class="cls-4" d="m259.83,137.81c-3.37,25.1-9.64,48.47-18.6,60.46-23.01,30.77-163.08,18.03-194.51,8.74-22.18-6.56-25.05-45.36-26.57-65.63,75.82,19.45,164.33,18.13,239.68-3.57Z"/>
      <path class="cls-3" d="m183.02,121.43l-2.86.04.47,31.24c-9.6.94-19.39,1.59-29.36,1.95.67-6.06-1.32-13.76-8.77-13.55-11.33-.27-19.25-.28-17.7,13.85-9.94-.17-19.61-.58-29.4-1.33l-.47-30.86c-10.94,1.97-19.36-10.2-11.86-19.11,0,0,44.7-52.12,44.7-52.12,4.53-5.29,12.68-5.41,17.38-.26l46.25,50.74c6.73,7.39,1.6,19.26-8.39,19.42Z"/>
      <g>
        <path class="cls-1" d="m103.01,154.15c7.18.43,14.44.69,21.8.81-.47,16.41,5.31,26.45-17.03,24.83-14.36.02-12.22-16.37-12.37-26.15,2.51.2,5.05.37,7.6.52Z"/>
        <path class="cls-1" d="m180.63,152.71c.73,18.8,1.61,27.59-20.82,26.28-11.73.32-7.7-17.33-8.54-24.33,9.97-.36,19.76-1.01,29.36-1.95Z"/>
      </g>
    </g>
  </g>
</svg>