<?xml version="1.0" encoding="UTF-8"?>
<svg id="Layer_2" data-name="Layer 2" xmlns="http://www.w3.org/2000/svg" viewBox="0 0 281.44 236.33">
  <defs>
    <style>
      .cls-1 {
        fill: #d7ef7f;
      }

      .cls-2 {
        fill: #2f8986;
      }

      .cls-3 {
        fill: #f7ffc7;
      }

      .cls-4 {
        fill: #41b774;
      }

      .cls-5 {
        fill: #92d34f;
      }
    </style>
  </defs>
  <g id="object">
    <g>
      <path class="cls-2" d="m267.33,31.8C227.26-6.13,172.16,5.78,124.8.69c-40.35-.06-86.17-7.71-114.37,29.55C-1.8,49.45.75,68.18.29,86.58c-.6,19.54-.28,36.87.99,52.98.43,103.28,61.38,92.83,159.36,96.76,116.54.55,110.1-49.32,119.98-118.74,1.68-24.78,2.18-68.89-13.3-85.78Zm-26.1,166.47c-23.01,30.77-163.08,18.03-194.51,8.74-34.62-15.55-26.15-88.01-27.76-119.84.49-15.55-1.9-32.96,7.09-46.67,26.87-32.13,76.89-19.64,113.89-20.52,37.52,3.62,84.4-3.6,113.61,24.45,15.92,17.38,10.67,123.08-12.33,153.85Z"/>
      <path class="cls-5" d="m241.23,198.27c-23.01,30.77-163.08,18.03-194.51,8.74-34.62-15.55-26.15-88.01-27.76-119.84.49-15.55-1.9-32.96,7.09-46.67,26.87-32.13,76.89-19.64,113.89-20.52,37.52,3.62,84.4-3.6,113.61,24.45,15.92,17.38,10.67,123.08-12.33,153.85Z"/>
      <path class="cls-4" d="m259.83,137.81c-3.37,25.1-9.64,48.47-18.6,60.46-23.01,30.77-163.08,18.03-194.51,8.74-22.18-6.56-25.05-45.36-26.57-65.63,36.02,9.54,78.85,14.16,118.14,13.59l27.98,15.59c6.28,3.5,13.99-1.11,13.89-8.29l-.14-9.49c28.72-2.73,55.65-7.89,79.82-14.98Z"/>
      <path class="cls-1" d="m180.01,152.79l.14,9.49c.11,7.18-7.61,11.79-13.89,8.29l-27.98-15.59c14.13-.13,28.2-.91,41.72-2.19Z"/>
      <path class="cls-3" d="m178.78,72.31l1.22,80.48c-13.52,1.28-27.59,2.05-41.72,2.19l-50.61-28.2c-6.28-3.5-6.41-12.48-.25-16.17l49.66-29.69,27.56-16.47c6.17-3.69,14.02.69,14.13,7.87Z"/>
    </g>
  </g>
</svg>