<?xml version="1.0" encoding="UTF-8"?>
<svg id="Layer_2" data-name="Layer 2" xmlns="http://www.w3.org/2000/svg" viewBox="0 0 724.69 386.55">
  <defs>
    <style>
      .cls-1 {
        fill: #2f8986;
      }

      .cls-2 {
        fill: #d3ed66;
      }

      .cls-3 {
        fill: #f7ffc7;
      }

      .cls-4 {
        fill: #41b774;
      }

      .cls-5 {
        fill: #92d34f;
      }
    </style>
  </defs>
  <g id="object">
    <g>
      <g>
        <path class="cls-5" d="m706.92,193.58c4.25,88.72-73.38,147.18-154.91,157.65-136.57,24.28-281.84,27.09-417.48-2.57C25.17,320-26.71,190.58,60.95,107.91,213.16-28.92,703.63-20.95,706.92,193.58Z"/>
        <path class="cls-2" d="m39.43,257C-35.45-55.34,871.87-30.69,673.11,291.42,861.6-6.21,228.94-51.34,60.95,107.91c-79.62,72.81-44.63,198.82,54.25,233.42-34.65-18.1-64.69-46.33-75.77-84.34Z"/>
        <g>
          <path class="cls-3" d="m216.96,211.86h-21.81c-.96,7.61,2.83,38.57-3.37,44.11-8.17,8.5-21.77,1.48-20.45-10.67,0,0,0-90.63,0-90.63.05-10.63,4.62-14.5,15.08-14.6h30.56c14.95.34,23.38.6,33.32,8.74,14.81,12.54,14.04,42.47-.36,53.78-7.38,6.18-18.37,9.26-32.96,9.26Zm-5.77-53.9h-16.04v35.93c7.99-.17,23.27.76,30.12-1.76,12.66-2.88,14.99-20.47,7.02-28.95-3.42-3.47-10.45-5.21-21.09-5.21Z"/>
          <path class="cls-3" d="m304.22,152.51v85.58h48.28c9.87-1.05,16.04,10.26,8.9,16.88-3.57,5.46-60.34,1.6-66.41,2.69-5.19,0-8.92-1.15-11.19-3.45-7.05-2.84-1.95-94.86-3.41-101.7-1.49-19.12,25.26-19.12,23.82,0Z"/>
          <path class="cls-3" d="m453.15,244.34l-5.61-14.76h-47.8c-4.48,8.78-7.41,31.32-18.85,30.08-7.88.14-13.71-8.46-10.59-15.72.01-.5,31.52-80.53,32.72-83.49,2.92-6.77,5.17-16.73,12.31-20.49,6.81-3.72,17.69-1.98,21.9,4.85,5.44,8.75,32.76,80.36,37.74,91.35,5.81,11.28,4.76,22.3-8.02,23.5-8.53.5-11.04-9.03-13.79-15.32Zm-47.16-32.64h35.13l-17.72-48.52-17.4,48.52Z"/>
          <path class="cls-3" d="m511.94,245.14v-37.29c-5.61-10.69-34.35-48.47-35.61-59.75-.42-8.87,12.8-13.33,18.41-7.26,4.96,5.42,24.75,39.47,29.55,46.72,4.88-7.34,23.74-39.06,28.59-45.43,5.35-7.55,19.19-3.79,19.05,5.66-.76,11.08-30.88,49.69-36.17,60.07-1.14,7.99,3.04,42.46-3.37,48.2-8.33,8.34-21.83,1.5-20.45-10.91Z"/>
        </g>
        <path class="cls-4" d="m354.61,308.41c-131.68,0-250.15-23.32-332.55-60.49,27.55,83.94,123.62,112.75,203.84,115.71,133.1,4.04,422.77,35.64,474.14-121.78-82.66,40.69-206.73,66.57-345.43,66.57Z"/>
        <g>
          <g>
            <path class="cls-2" d="m139.12,92.75c-40.81-6.8-91.37,63.71-37.53,59.54,37.03-4.41,69.55-56.78,37.53-59.54Z"/>
            <path class="cls-2" d="m69.07,150.08s-9.34-.37-18.01,18.01c-8.67,18.38-2.33,30.87,9.01,23.15,11.34-7.72,26.02-45.2,9.01-41.16Z"/>
          </g>
          <path class="cls-2" d="m671.32,215.86c-1.87,71.31-79.07,111.77-70.9,60.3,4.77-12.83,38.65-37.59,43.14-62.99,4.49-25.4,34.36-28.37,27.76,2.7Z"/>
        </g>
      </g>
      <path class="cls-1" d="m693.71,101.91C578.58-54.43-60.96-50.26,4.72,251.57c3.68,12.58,9.29,24.77,16.36,35.83,15.97,24.95,39.28,44.74,64.95,59.17l-.06-.03c40.63,24.28,96.07,32.36,138.56,34.68,137.81,6.62,374.93,24.65,466.63-83.99,42.25-54.72,46.17-141.03,2.54-195.32Zm13.18,95.19c-.3,15.12-2.45,30.26-6.85,44.74h0c-18.55,66.58-84.58,98.62-148.02,109.39-134.93,23.09-305.8,31.42-436.81-9.9h0c-30.94-13.4-59.84-33.85-78.53-62.32C-118.19-49.33,740.07-58.74,706.88,197.1Z"/>
    </g>
  </g>
</svg>