<?xml version="1.0" encoding="UTF-8"?>
<svg id="Layer_2" data-name="Layer 2" xmlns="http://www.w3.org/2000/svg" viewBox="0 0 281.44 236.33">
  <defs>
    <style>
      .cls-1 {
        fill: #d7ef7f;
      }

      .cls-2 {
        fill: #2f8986;
      }

      .cls-3 {
        fill: #f7ffc7;
      }

      .cls-4 {
        fill: #41b774;
      }

      .cls-5 {
        fill: #92d34f;
      }
    </style>
  </defs>
  <g id="object">
    <g>
      <path class="cls-2" d="m267.33,31.8C227.26-6.13,172.16,5.78,124.8.69c-40.35-.06-86.17-7.71-114.37,29.55C-1.8,49.45.75,68.18.29,86.58c-.6,19.54-.28,36.87.99,52.98.43,103.28,61.38,92.83,159.36,96.76,116.54.55,110.1-49.32,119.98-118.74,1.68-24.78,2.18-68.89-13.3-85.78Zm-26.1,166.47c-23.01,30.77-163.08,18.03-194.51,8.74-34.62-15.55-26.15-88.01-27.76-119.84.49-15.55-1.9-32.96,7.09-46.67,26.87-32.13,76.89-19.64,113.89-20.52,37.52,3.62,84.4-3.6,113.61,24.45,15.92,17.38,10.67,123.08-12.33,153.85Z"/>
      <path class="cls-5" d="m241.23,198.27c-23.01,30.77-163.08,18.03-194.51,8.74-34.62-15.55-26.15-88.01-27.76-119.84.49-15.55-1.9-32.96,7.09-46.67,26.87-32.13,76.89-19.64,113.89-20.52,37.52,3.62,84.4-3.6,113.61,24.45,15.92,17.38,10.67,123.08-12.33,153.85Z"/>
      <path class="cls-4" d="m259.83,137.81c-3.37,25.1-9.64,48.47-18.6,60.46-23.01,30.77-163.08,18.03-194.51,8.74-22.18-6.56-25.05-45.36-26.57-65.63,76.12,19.47,164.18,18.13,239.68-3.57Z"/>
      <path class="cls-3" d="m195.65,151.03c-9.19,1.18-18.4,2.09-27.89,2.75,47.29-39.26-8.38-110.68-58.09-74.03,2.22,1.98,12.04,7.17,5.34,10.03,0,0-27.44,6.76-27.44,6.76-1.73.42-3.43-.79-3.59-2.57l-2.65-29.69c.88-8.06,9.83,1.89,12.49,3.38,55.6-50.71,140.52,18.58,101.84,83.37Z"/>
      <path class="cls-3" d="m110.12,154.51c-9.34-.39-18.66-1.11-27.94-2.06-5.75-8.9-21.03-45.51,1.49-42.54,14.23.09.9,26.36,26.45,44.6Z"/>
      <path class="cls-1" d="m195.65,151.03c-22.26,41.84-90.19,42.67-113.47,1.41,9.27.95,18.59,1.67,27.94,2.06,15.79,12.79,42.18,12.47,57.65-.72,9.49-.65,18.69-1.57,27.89-2.75Z"/>
    </g>
  </g>
</svg>