<?xml version="1.0" encoding="UTF-8"?>
<svg id="Layer_2" data-name="Layer 2" xmlns="http://www.w3.org/2000/svg" viewBox="0 0 281.44 236.33">
  <defs>
    <style>
      .cls-1 {
        fill: #d7ef7f;
      }

      .cls-2 {
        fill: #2f8986;
      }

      .cls-3 {
        fill: #f7ffc7;
      }

      .cls-4 {
        fill: #41b774;
      }

      .cls-5 {
        fill: #92d34f;
      }
    </style>
  </defs>
  <g id="object">
    <g>
      <path class="cls-2" d="m267.33,31.8C227.26-6.13,172.16,5.78,124.8.69c-40.35-.06-86.17-7.71-114.37,29.55C-1.8,49.45.75,68.18.29,86.58c-.6,19.54-.28,36.87.99,52.98.43,103.28,61.38,92.83,159.36,96.76,116.54.55,110.1-49.32,119.98-118.74,1.68-24.78,2.18-68.89-13.3-85.78Zm-26.1,166.47c-23.01,30.77-163.08,18.03-194.51,8.74-34.62-15.55-26.15-88.01-27.76-119.84.49-15.55-1.9-32.96,7.09-46.67,26.87-32.13,76.89-19.64,113.89-20.52,37.52,3.62,84.4-3.6,113.61,24.45,15.92,17.38,10.67,123.08-12.33,153.85Z"/>
      <path class="cls-5" d="m241.23,198.27c-23.01,30.77-163.08,18.03-194.51,8.74-34.62-15.55-26.15-88.01-27.76-119.84.49-15.55-1.9-32.96,7.09-46.67,26.87-32.13,76.89-19.64,113.89-20.52,37.52,3.62,84.4-3.6,113.61,24.45,15.92,17.38,10.67,123.08-12.33,153.85Z"/>
      <path class="cls-4" d="m140.35,154.96c-39.91.72-83.54-3.85-120.2-13.57,1.52,20.27,4.39,59.06,26.57,65.63,31.43,9.3,171.5,22.03,194.51-8.74,8.96-11.99,15.24-35.37,18.6-60.46-35.02,10.28-75.84,16.48-119.48,17.15Z"/>
      <path class="cls-1" d="m133.82,155.01l-27.56,16.47c-6.17,3.69-14.02-.69-14.13-7.87l-.16-10.26c13.57,1.12,27.56,1.69,41.85,1.65Z"/>
      <path class="cls-3" d="m183.49,125.32l-49.66,29.69c-14.29.04-28.28-.53-41.85-1.65l-1.21-79.71c-.11-7.18,7.61-11.79,13.89-8.29l78.59,43.79c6.28,3.5,6.41,12.48.25,16.17Z"/>
    </g>
  </g>
</svg>